<svg width="1312" height="736" viewBox="0 0 1312 736" fill="none" xmlns="http://www.w3.org/2000/svg">
<g clip-path="url(#clip0_285_113)">
<path d="M547.768 24.5796L543.482 33.4048L537.768 27.031C531.339 20.167 525.386 18.451 531.339 25.315C537.291 31.9339 536.339 33.1597 526.576 33.1597C519.909 33.1597 518.48 33.8951 521.1 35.6111C523.005 36.8368 527.767 38.0625 531.577 38.0625C538.72 38.0625 538.958 39.2883 534.196 57.6741C533.482 61.3513 535.148 59.6352 538.244 53.5066L543.721 42.9654L549.673 52.7712C558.007 66.4993 561.103 65.0284 553.245 51.3003L546.578 39.7785L557.769 41.0043C570.866 42.7203 570.151 39.2883 556.817 36.8368C551.578 35.8562 547.292 34.6305 547.292 33.8951C547.292 33.1597 549.435 28.7471 552.293 24.3345C554.912 19.6767 556.102 15.9995 554.674 15.9995C553.245 15.9995 550.15 19.9219 547.768 24.5796Z" fill="black"/>
<path d="M649.828 23.695C644.522 26.3616 637.769 28.5433 634.634 28.5433C631.499 28.5433 625.711 32.1794 621.129 37.0276C616.547 41.6334 610.759 45.512 608.106 45.512C604.489 45.512 601.354 49.3906 596.048 60.5415C592.189 69.0259 586.643 77.9951 583.749 80.4192C577.719 85.9947 577.478 89.8732 582.302 97.388C585.678 102.479 585.678 103.206 582.302 104.66C579.649 105.63 578.925 107.812 579.89 110.721C580.613 113.387 580.131 116.054 578.684 117.023C577.478 117.75 576.273 119.69 576.273 121.387C576.273 123.326 576.996 123.326 579.166 121.144C584.231 116.054 588.331 117.993 588.331 125.508C588.331 131.326 590.019 133.992 595.566 137.143C605.695 142.961 604.73 147.325 593.877 147.325C588.813 147.325 575.067 149.022 563.491 150.718C545.645 153.627 539.374 156.051 526.593 164.293C507.541 176.899 502.959 184.414 498.135 210.109C494.035 231.199 494.277 238.229 500.306 277.015C502.235 288.893 504.164 322.103 504.647 350.223L505.611 401.856H484.63C465.337 401.856 463.408 401.371 462.202 396.766C460.272 389.736 448.214 391.19 444.838 398.705C442.667 404.038 441.22 404.28 413.245 404.28H383.823L382.135 392.645C379.482 373.252 370.8 341.253 368.389 341.253C367.183 341.253 361.154 342.95 354.884 344.647C348.613 346.586 328.356 352.647 309.786 358.222C274.335 368.646 222.243 387.554 194.751 400.159C180.04 406.704 178.351 408.159 178.351 414.219C178.351 422.219 189.686 475.549 199.091 511.668L205.362 535.182L191.374 552.393C183.657 562.09 170.393 575.907 162.193 583.18C153.753 590.694 147 597.724 147 598.936C147 600.391 162.435 600.633 189.204 599.664L231.408 597.967L268.306 617.844C288.322 628.753 316.78 644.51 331.25 652.994L357.778 668.023L374.659 652.994C396.846 633.359 420.48 614.451 459.308 585.119C495.241 557.726 515.981 538.576 515.981 532.273C515.981 526.698 511.399 524.516 448.214 500.275C397.57 481.125 396.605 480.397 395.882 473.367C395.64 469.246 392.988 453.49 390.576 437.733C387.923 422.219 385.753 408.886 385.753 408.159C385.753 407.432 398.776 406.704 414.451 406.704C437.603 406.704 443.391 407.432 444.597 410.341C445.32 412.522 444.597 413.977 442.426 413.977C440.497 413.977 437.844 418.098 436.397 423.673C434.95 428.764 432.539 434.582 430.85 436.279C426.751 440.4 416.381 476.276 418.31 479.428C419.998 482.094 459.79 482.821 466.302 480.397C469.437 479.185 470.16 474.095 470.16 448.884C470.16 432.4 471.125 418.825 472.331 418.825C473.536 418.825 474.501 423.916 474.26 430.218C473.778 440.642 474.26 441.854 479.324 442.581C482.46 443.066 486.801 441.854 489.212 439.672C493.794 435.551 505.129 437.248 527.557 445.49C550.709 454.217 564.697 451.308 583.749 434.097L593.395 425.37L612.929 427.067C623.782 428.037 633.428 429.733 634.152 430.945C636.322 434.339 677.803 438.46 710.842 438.46C742.194 438.46 755.216 437.248 776.439 432.158C783.674 430.461 800.073 428.279 812.614 427.309C837.695 425.612 850.235 420.279 851.682 410.825C852.406 405.977 853.853 405.492 873.146 404.765L893.645 404.038L896.056 414.704L898.709 425.37L888.098 430.945C873.387 438.703 874.593 442.339 892.921 444.278C906.668 445.733 945.254 442.581 950.077 439.43C951.283 438.703 954.177 430.461 956.347 421.249L960.688 404.28H986.493C1000.72 404.28 1014.23 403.553 1016.16 402.826C1019.29 401.614 1019.05 403.795 1014.23 413.007C1003.37 435.551 999.998 449.854 1001.45 468.277C1003.13 489.124 1007.47 500.517 1019.29 513.608C1033.28 529.122 1064.39 542.455 1086.82 542.455C1099.6 542.455 1121.3 534.94 1133.6 526.698C1144.7 518.698 1156.03 497.851 1161.34 475.549C1170.74 434.582 1155.55 407.674 1110.69 385.857C1080.55 371.312 1062.22 372.04 1037.86 388.766L1022.19 399.674L990.834 401.129L959.241 402.583L960.206 389.493L960.93 376.403L943.566 377.373L925.961 378.1V370.343C925.961 364.282 926.925 362.828 929.578 364.04C931.749 364.767 937.778 363.555 943.083 361.374C958.518 355.313 974.676 329.133 963.341 329.133C957.071 329.133 939.707 339.072 932.713 346.586L925.961 353.859V347.071C925.961 343.193 926.684 336.163 927.408 331.315C928.614 323.557 929.819 322.588 938.742 320.406C946.219 318.709 950.318 316.043 954.177 309.982C964.547 294.468 959.483 290.59 942.842 301.256C937.537 304.649 931.99 310.225 930.061 313.619C926.202 321.133 924.755 319.679 922.343 305.619C920.655 294.468 920.655 294.711 933.919 291.802C942.601 289.862 951.524 281.136 948.148 277.742C944.772 274.348 929.578 277.499 925.72 282.348C922.584 285.984 922.826 285.984 927.649 283.56C930.543 281.863 934.402 280.651 936.09 280.651C937.778 280.893 936.331 282.59 932.472 284.529C921.137 290.59 917.038 283.56 925.961 273.378C932.472 265.864 931.99 255.682 924.996 247.44L919.208 240.653L916.555 247.44C912.938 256.652 913.179 264.167 917.279 269.742C919.208 272.651 919.932 277.984 919.449 282.348C918.244 290.105 918.002 290.105 914.144 285.256C911.973 282.59 905.944 278.954 900.639 277.015C889.786 273.378 887.133 276.045 892.198 285.499C895.092 291.074 910.285 298.589 913.661 296.407C916.073 294.953 918.726 300.771 918.726 307.558C918.726 311.922 918.244 311.922 912.214 308.77C908.356 307.073 901.362 304.407 896.539 302.952C888.339 300.771 887.374 301.013 887.374 304.892C887.374 307.316 890.268 312.649 893.645 316.77C898.95 323.315 901.362 324.285 911.732 324.285H923.549V333.739C923.549 338.829 922.826 346.344 922.102 350.465L920.655 357.98L915.35 350.223C909.562 341.496 895.092 330.83 891.957 333.011C888.339 335.193 889.545 344.405 894.609 352.647C898.227 358.707 901.603 360.889 909.079 362.101C917.761 363.555 918.726 364.282 918.726 370.585C918.726 377.373 918.485 377.615 905.221 377.615H891.715L892.68 389.736L893.404 401.856H873.387H853.37L854.817 393.857C855.782 389.493 855.058 378.827 853.611 370.343C850.235 351.192 825.395 284.529 810.925 255.44C800.796 234.835 800.314 233.138 802.726 223.442C812.614 183.929 793.32 154.839 753.046 148.294C743.399 146.84 743.158 146.597 746.293 140.295C747.982 136.901 750.875 129.629 752.322 124.296C754.011 118.963 756.663 112.902 758.593 110.963C760.763 108.296 761.004 104.66 759.316 96.4183C754.734 76.2982 751.117 66.3594 747.74 65.3897C745.57 64.6625 745.088 65.3897 746.293 67.329C747.499 69.5107 747.258 69.9955 745.329 68.7835C743.882 67.8138 743.158 66.3594 743.641 65.3897C744.123 64.4201 742.194 58.8446 739.541 52.7844C735.923 45.7544 732.788 41.8759 730.135 42.1183C727.724 42.3607 726.518 41.6334 727.241 40.4214C727.965 39.2093 726.277 38.2397 723.383 38.2397C720.489 38.2397 715.665 35.0883 712.53 31.2098C707.948 25.8767 704.09 24.1799 693.961 22.9678C686.967 22.2406 676.356 21.0285 670.327 20.3013C662.368 19.3316 656.821 20.3013 649.828 23.695ZM673.944 24.9071C673.944 29.0281 664.056 29.0281 660.68 24.9071C657.786 21.2709 658.268 21.0285 665.744 21.7557C670.327 22.2406 673.944 23.4526 673.944 24.9071ZM708.913 29.7553C713.736 35.5732 710.36 36.5428 705.295 30.9674C702.884 28.3008 702.16 26.1191 703.366 26.1191C704.813 26.1191 707.225 27.816 708.913 29.7553ZM631.74 31.937C631.74 32.6642 630.776 33.8763 629.329 34.6035C628.123 35.3308 626.917 34.8459 626.917 33.6339C626.917 32.1794 628.123 30.9674 629.329 30.9674C630.776 30.9674 631.74 31.4522 631.74 31.937ZM721.212 115.084C722.659 118.963 725.312 123.811 727.483 125.992C733.753 133.022 729.653 150.476 713.254 184.171C705.054 201.382 697.578 215.2 696.614 215.2C695.649 215.2 693.961 213.988 693.237 212.776C691.308 209.382 675.632 203.079 670.568 203.322C667.433 203.564 667.433 203.806 671.05 204.776C673.221 205.261 675.15 206.715 675.15 207.927C675.15 209.139 676.838 209.382 679.25 208.655C681.661 207.685 682.626 208.17 681.661 209.624C680.455 211.321 681.661 211.806 684.555 211.079C687.69 210.351 690.102 211.564 692.031 215.2C694.684 220.048 694.443 220.29 689.137 218.836C683.832 217.139 683.832 217.139 688.414 220.775C692.031 223.442 693.72 223.684 694.925 221.745C696.131 219.563 697.819 220.048 700.954 223.199C705.054 227.32 705.054 227.563 700.472 225.866C696.131 224.169 696.131 224.411 699.025 228.047C703.848 234.108 707.225 232.896 705.778 225.623C704.813 220.533 706.26 216.897 712.53 210.109C716.871 205.261 721.936 197.261 723.624 192.413C726.518 184.171 727.483 183.686 734.235 185.141C749.187 188.292 763.657 197.261 778.851 212.776C797.661 231.926 811.167 257.622 834.559 319.436L849.753 359.434L849.994 385.615C849.994 416.401 849.271 417.613 827.566 419.795C797.179 423.188 742.194 426.097 712.53 426.097H681.179L676.838 407.189C674.668 397.008 672.738 387.796 672.738 387.069C672.738 386.342 694.202 384.887 720.489 383.918C746.535 382.948 774.027 381.251 781.262 380.282C793.803 378.342 795.009 378.827 803.69 385.615C808.755 389.493 813.337 392.16 813.819 391.675C814.543 391.19 809.961 386.827 803.69 382.221C794.767 375.433 790.426 369.616 781.503 350.95C772.098 331.315 770.41 325.982 770.651 313.861C770.892 306.346 769.927 300.044 768.963 300.044C767.757 300.044 766.792 297.135 766.551 293.256C766.551 289.62 764.381 301.498 761.969 319.436C757.628 352.647 753.046 374.949 749.911 378.342C749.187 379.312 726.759 381.251 700.231 382.463C673.944 383.918 643.557 385.615 633.187 386.584C617.27 387.796 614.376 387.554 615.582 384.645C616.306 382.706 623.541 365.979 631.74 347.314C643.557 320.406 646.21 312.649 644.04 309.255C640.663 303.922 647.657 287.196 657.304 276.53C661.162 272.409 669.121 263.439 674.909 256.652C685.038 244.531 685.761 244.047 696.614 244.774C706.501 245.501 707.707 245.016 707.948 240.168C708.189 236.047 706.501 234.593 700.231 233.623C695.89 232.653 692.031 230.714 691.549 229.502C691.067 228.047 687.69 231.199 684.314 236.289C680.697 241.623 671.291 252.046 663.092 259.076C652.963 268.045 645.728 276.772 640.905 286.711C636.805 294.711 633.187 301.74 632.705 302.225C631.499 303.437 616.306 293.498 611.482 288.165C607.383 283.802 607.865 282.59 618.717 261.015C630.776 236.532 648.622 209.624 655.374 205.503C658.992 203.322 658.51 203.079 653.445 203.564C648.139 204.291 646.451 202.11 639.458 188.292C634.875 179.323 630.776 167.93 630.052 162.839C629.087 154.112 629.57 153.142 636.564 149.991C643.557 147.082 659.715 147.567 669.362 151.446C671.291 152.173 672.738 151.688 672.738 150.234C672.738 149.022 668.88 146.84 664.056 145.628C659.474 144.658 655.374 142.719 655.374 141.264C655.133 140.052 659.474 135.446 665.021 131.326C670.327 126.962 674.426 123.084 673.703 122.356C672.979 121.871 675.391 121.871 678.767 122.599C683.108 123.326 686.726 122.114 690.343 118.72C696.614 112.902 705.537 109.024 713.254 108.781C717.112 108.539 719.524 110.478 721.212 115.084ZM603.524 198.473C614.135 200.655 618.959 200.655 623.541 198.473C626.917 197.019 629.087 196.776 628.364 197.989C627.641 199.201 628.605 201.382 630.534 203.079C632.464 204.776 634.152 206.958 634.152 208.17C634.152 211.806 628.846 210.594 625.229 205.988C622.335 202.352 622.335 202.594 624.747 208.412C627.399 214.23 626.917 215.927 619.682 224.169C615.1 229.26 607.383 242.592 602.077 253.985C597.013 265.379 587.125 285.984 580.372 300.044L568.314 325.497L564.214 297.619C561.803 282.348 558.185 265.864 556.015 261.258C553.844 256.652 552.638 254.713 553.362 257.379C560.114 281.136 560.114 282.348 553.603 305.377C549.986 317.74 543.233 337.617 538.651 349.253C527.798 376.161 520.805 396.766 520.805 401.129C520.805 412.037 539.857 390.463 573.137 341.011L590.984 314.346L598.218 320.648C602.318 323.8 611.724 328.406 619.2 330.587C626.676 332.769 633.187 334.951 633.67 335.193C634.152 335.678 631.258 342.708 627.399 351.192C623.541 359.677 616.306 375.191 611.482 385.372C603.283 403.795 601.354 411.795 608.83 397.008C612.447 390.22 613.412 389.736 626.676 389.736H640.663L637.046 404.765C635.117 413.249 633.187 421.249 632.705 422.946C632.223 425.128 627.399 425.612 615.582 424.4C597.254 422.704 596.048 422.219 599.907 418.34C601.595 416.643 602.801 413.249 602.559 410.341C602.559 405.735 602.318 405.977 598.46 411.553C590.019 423.916 573.379 440.4 564.938 444.278C554.568 449.369 536.48 447.914 525.628 441.369C511.158 432.885 509.952 426.582 509.229 357.737C508.264 289.135 511.399 260.046 521.528 239.441C530.451 221.26 572.655 191.201 584.713 194.352C587.366 195.08 595.807 197.019 603.524 198.473ZM700.472 237.502C706.501 240.168 708.672 244.289 704.09 244.289C702.884 244.289 701.678 243.319 701.678 242.35C701.678 241.138 699.266 240.41 696.614 240.41C693.72 240.653 690.826 239.198 690.343 237.502C688.896 233.865 692.514 233.865 700.472 237.502ZM926.925 253.016C927.649 255.198 928.372 259.561 928.372 262.955C928.372 272.409 922.343 268.288 921.62 258.106C920.896 249.137 924.273 245.986 926.925 253.016ZM909.079 284.287C912.938 288.893 909.32 288.893 903.291 284.287C899.433 281.378 899.192 280.651 902.327 280.651C904.256 280.651 907.391 282.348 909.079 284.287ZM633.187 307.558L643.316 313.376L639.699 322.345C636.322 330.587 635.599 331.315 628.605 330.103C616.065 327.921 606.9 323.8 599.907 317.497L593.395 311.437L599.424 299.559L605.453 287.681L614.376 294.711C619.2 298.589 627.882 304.407 633.187 307.558ZM944.53 308.77C939.466 313.619 934.643 317.012 934.16 316.285C931.99 314.103 935.849 308.286 942.36 304.165C953.212 297.377 954.177 299.559 944.53 308.77ZM916.314 314.831L922.343 319.921L915.108 318.224C906.668 316.528 897.021 310.71 897.021 307.316C897.021 304.165 909.079 308.77 916.314 314.831ZM771.616 335.193C771.616 336.89 775.957 346.829 781.021 357.253C786.327 367.676 790.426 376.403 790.185 376.645C789.944 376.888 783.433 377.615 775.715 378.1C763.657 379.07 761.969 378.827 763.416 375.433C764.381 373.252 765.586 362.101 766.31 350.465C766.792 338.829 768.239 329.86 769.445 330.587C770.651 331.315 771.616 333.254 771.616 335.193ZM959.724 336.163C959.724 342.465 936.331 359.677 930.302 357.737C926.443 356.283 939.225 342.465 948.148 338.102C957.312 333.496 959.724 333.011 959.724 336.163ZM913.661 352.647C915.591 357.01 915.591 358.222 913.179 358.222C909.32 358.222 900.88 349.253 898.709 342.95C897.262 338.829 897.503 338.829 904.015 342.708C907.873 345.132 912.214 349.495 913.661 352.647ZM373.212 364.767C382.376 404.28 391.058 453.975 391.299 468.034L391.782 482.094L354.401 501.729C333.902 512.396 296.04 532.516 270.235 546.333C244.43 560.151 222.484 570.817 221.52 570.089C218.867 568.393 212.838 546.576 202.468 500.033C190.892 448.157 182.933 408.644 183.898 407.432C186.792 404.523 263.482 375.918 295.316 365.979C338.002 352.404 364.53 344.405 366.942 343.92C367.665 343.678 370.559 353.132 373.212 364.767ZM1090.19 380.766C1120.58 390.22 1149.04 410.825 1156.27 429.006C1162.3 444.278 1161.58 467.792 1154.34 488.882C1146.14 512.396 1138.91 521.122 1119.62 530.819C1106.35 537.364 1101.05 538.576 1086.58 538.818C1054.74 538.818 1023.39 521.85 1011.82 498.336C990.352 453.975 1012.54 397.25 1058.12 381.009C1069.69 376.888 1076.93 376.888 1090.19 380.766ZM957.071 398.22C955.142 417.855 951.042 433.612 946.701 436.279C945.254 437.248 935.125 438.218 924.514 438.218H904.738L901.121 422.946C899.192 414.704 896.78 402.341 895.815 395.311L894.127 382.706L909.562 381.736C917.761 381.251 932.472 380.766 941.636 380.524L958.759 380.039L957.071 398.22ZM673.462 406.22C675.873 416.158 677.562 424.4 677.079 424.885C676.597 425.37 671.532 426.097 665.744 426.34L655.133 427.067L650.792 409.129C648.381 399.19 646.451 389.978 646.21 389.008C646.21 388.039 651.275 387.312 657.786 387.796L669.121 388.524L673.462 406.22ZM460.031 400.644C460.755 404.765 460.272 404.765 458.343 401.856C455.932 398.705 455.69 398.705 455.449 401.856C455.208 403.795 455.449 407.916 455.69 410.825C455.932 414.462 454.726 416.401 452.314 416.401C448.214 416.401 444.356 401.614 447.25 397.008C449.902 392.645 459.067 395.311 460.031 400.644ZM462.925 412.765C462.925 414.704 461.961 416.401 460.514 416.401C459.308 416.401 458.102 414.704 458.102 412.765C458.102 410.825 459.308 409.129 460.514 409.129C461.961 409.129 462.925 410.825 462.925 412.765ZM467.749 447.914V476.276L460.272 477.973C448.214 480.397 429.162 479.67 429.162 476.761C429.162 474.095 438.327 427.552 440.015 421.249C440.979 418.34 444.114 417.855 454.485 418.34L467.749 419.31V447.914ZM481.254 420.522C476.913 435.794 476.913 438.218 481.254 438.218C485.112 438.218 485.354 437.733 482.218 435.551C479.324 433.37 479.324 433.127 482.942 434.339C485.354 435.066 488.006 435.794 488.489 435.794C489.212 435.794 488.971 436.763 488.248 438.218C487.524 439.43 484.148 440.642 480.771 440.642C476.672 440.642 474.983 439.187 474.983 436.036C474.983 427.552 477.877 416.401 480.289 416.401C481.495 416.401 481.977 418.34 481.254 420.522ZM452.073 504.638C483.665 517.001 510.193 528.395 510.435 529.607C510.917 531.061 495.724 543.182 476.913 556.999C427.715 592.634 363.566 642.085 364.771 643.54C365.495 644.025 377.553 635.54 392.023 624.389C439.773 587.543 507.541 537.849 509.952 537.849C513.329 537.849 502.717 546.333 464.131 574.453C445.561 588.028 417.828 608.633 402.634 620.026C365.013 648.388 357.054 653.721 361.636 648.146C365.013 644.025 364.771 643.782 360.43 644.994C355.366 646.691 346.925 642.57 289.287 609.845C271.441 599.664 249.495 587.785 240.572 583.422C225.137 575.907 220.314 571.544 227.067 571.544C228.514 571.544 251.665 559.666 278.193 545.121C304.963 530.576 340.896 511.668 358.501 502.699C375.865 493.972 390.817 485.73 391.782 484.276C392.505 483.064 393.47 481.852 393.711 481.852C393.952 481.852 420.239 492.033 452.073 504.638ZM249.736 592.876C248.53 593.846 228.996 584.149 228.996 582.452C228.996 581.725 233.819 583.664 239.848 586.573C245.636 589.482 250.218 592.149 249.736 592.876ZM337.52 640.146C358.501 651.539 358.019 651.055 356.331 652.752C354.16 654.933 308.098 630.207 298.934 622.208L290.493 614.693L304.963 622.693C312.921 627.056 327.632 634.813 337.52 640.146Z" fill="black"/>
<path d="M708.581 140.061C696.04 144.263 687.84 149.166 693.146 149.166C699.175 149.166 725.222 139.127 724.016 137.26C723.293 136.093 722.569 135.159 722.328 135.392C722.087 135.392 715.816 137.493 708.581 140.061Z" fill="black"/>
<path d="M714.488 154.638C712.816 156.223 707.564 158.035 702.55 158.941L693.478 160.753L702.073 160.98C707.803 161.206 712.1 159.847 714.965 156.676C719.501 151.92 719.024 150.334 714.488 154.638Z" fill="black"/>
<path d="M646.472 161.922C650.433 164.643 662.562 164.643 663.8 161.922C664.542 160.834 660.334 160.017 654.393 160.017C648.452 160.017 644.987 160.834 646.472 161.922Z" fill="black"/>
<path d="M670.79 187.511C670.79 190.406 672.4 193.06 674.241 194.025C677.231 195.231 677.462 194.507 675.161 189.923C671.25 182.203 670.79 181.962 670.79 187.511Z" fill="black"/>
<path d="M682.487 194.44C679.965 197.678 679.965 198.487 682.991 198.487C684.756 198.487 687.025 196.599 688.033 194.44C689.798 189.314 686.773 189.314 682.487 194.44Z" fill="black"/>
<path d="M333.004 364.463C302.962 373.687 200.577 410.584 198.413 412.769C196.25 414.953 224.13 550.405 227.254 553.561C227.975 554.531 263.305 537.297 305.846 515.45L382.755 475.882L381.553 466.173C378.669 445.054 365.69 363.977 364.729 359.851C363.047 354.753 365.21 354.267 333.004 364.463ZM369.536 406.7C373.141 428.79 376.746 453.307 377.467 461.318L378.669 475.882L303.923 513.508L229.177 551.376L226.774 542.152C224.13 532.684 203.461 435.344 201.057 422.236C199.855 414.711 200.096 414.468 213.795 409.128C242.636 398.204 310.412 374.415 334.927 366.89C356.798 360.093 360.403 359.608 361.605 363.006C362.566 364.948 366.171 384.61 369.536 406.7Z" fill="black"/>
<path d="M317.274 377.543C300.104 384.081 273.26 394.494 258.025 400.306C220.541 414.594 210.384 418.953 213.528 420.164C214.979 420.648 235.051 413.383 258.267 403.939C281.483 394.252 311.954 382.386 326.222 377.301L352.098 367.856L353.307 374.395C358.144 398.369 369.51 467.386 369.026 467.87C363.464 472.713 236.26 531.075 235.051 529.138C234.809 528.896 231.181 512.913 227.07 493.54C218.122 453.34 209.416 420.164 208.207 421.617C207.724 422.101 210.867 438.326 215.462 457.457C220.057 476.588 225.619 501.289 228.038 512.428C233.116 536.161 229.972 535.676 269.149 518.725C290.672 509.765 370.961 470.534 373.863 468.112C374.105 467.628 371.203 450.434 367.092 430.092C362.98 409.751 359.111 386.745 358.144 378.996C356.935 368.583 355.484 365.192 352.582 365.192C350.405 365.192 334.686 370.762 317.274 377.543Z" fill="black"/>
<path d="M337.38 392.498C337.38 393.7 338.613 394.181 339.846 393.46C341.326 392.739 342.312 391.536 342.312 390.815C342.312 390.334 341.326 389.853 339.846 389.853C338.613 389.853 337.38 391.055 337.38 392.498Z" fill="black"/>
<path d="M291.607 406.104C288.461 406.825 284.588 408.266 283.136 409.468C281.684 410.669 277.569 413.793 273.938 416.436C265.709 422.683 257.479 439.502 257.479 450.555C257.479 460.166 265.709 473.621 274.422 478.426C282.41 482.511 305.888 480.589 317.264 474.822C340.5 462.809 341.71 424.124 319.2 411.39C310.729 406.584 299.837 404.662 291.607 406.104ZM323.073 417.877C326.945 421.481 330.092 425.326 330.092 426.287C330.092 427.248 326.219 429.41 321.136 431.092C313.633 433.495 311.939 433.255 309.276 429.891C307.582 427.488 303.225 424.845 299.595 423.884C290.639 421.481 286.766 409.948 294.754 408.747C303.951 407.305 316.053 411.15 323.073 417.877ZM288.945 419.319C288.945 421.962 286.282 426.767 282.894 429.891C279.505 433.015 276.843 438.06 276.843 441.424C276.843 445.749 274.906 447.912 269.097 449.834C264.983 451.275 261.11 451.996 260.384 451.275C257.237 448.152 266.193 428.93 274.664 420.52C284.104 410.909 288.945 410.669 288.945 419.319ZM308.792 435.658C310.971 440.223 312.907 442.625 313.149 440.944C313.149 438.301 326.703 430.852 331.302 430.852C334.691 430.852 332.028 454.399 327.671 461.367C323.799 467.854 309.034 478.426 307.34 476.024C306.856 475.543 305.162 470.257 303.467 464.01C301.047 454.399 301.047 451.756 303.709 448.392C306.13 445.749 306.13 445.028 304.193 446.23C302.499 447.191 299.837 447.191 298.384 446.23C296.448 445.269 297.658 443.346 301.289 441.184C307.098 437.82 307.098 437.82 301.773 438.781C298.626 439.502 296.206 439.262 296.206 438.541C296.206 437.58 295.48 434.216 294.512 431.333C293.302 426.287 293.786 425.806 298.869 426.527C302.741 427.008 306.13 430.131 308.792 435.658ZM292.091 434.696C292.817 439.502 292.091 441.424 288.703 442.145C286.04 442.866 284.104 444.548 284.104 445.749C284.104 446.95 285.314 447.191 286.524 446.47C287.977 445.509 291.123 445.509 293.302 446.47C296.932 447.912 296.69 448.392 291.365 451.516C285.556 454.88 285.556 455.12 290.881 454.159C296.448 452.957 297.9 455.36 299.111 470.497C299.837 477.225 299.111 477.706 290.881 478.426C279.505 479.388 268.371 473.621 263.531 464.49C259.9 457.523 259.9 457.282 267.403 453.438C274.906 449.834 274.906 449.834 282.168 457.763C287.735 464.01 288.219 464.25 284.346 458.724C278.295 450.314 277.811 438.781 283.378 432.774C288.703 427.008 290.639 427.248 292.091 434.696Z" fill="black"/>
<path d="M313.705 450.071C313.705 453.677 314.312 454.965 315.223 453.162C315.83 451.616 315.83 448.525 315.223 446.722C314.312 445.177 313.705 446.465 313.705 450.071Z" fill="black"/>
<path d="M332.447 411.06C332.447 412.293 333.68 413.526 334.913 413.526C336.393 413.526 337.379 412.293 337.379 411.06C337.379 409.581 336.393 408.594 334.913 408.594C333.68 408.594 332.447 409.581 332.447 411.06Z" fill="black"/>
<path d="M344.284 422.709C344.284 424.834 345.517 425.897 346.75 425.1C348.23 424.303 349.216 422.444 349.216 420.85C349.216 419.522 348.23 418.459 346.75 418.459C345.517 418.459 344.284 420.319 344.284 422.709Z" fill="black"/>
<path d="M349.216 425.857C349.216 427.09 350.278 428.323 351.606 428.323C353.2 428.323 355.059 427.09 355.856 425.857C356.653 424.378 355.591 423.391 353.466 423.391C351.075 423.391 349.216 424.378 349.216 425.857Z" fill="black"/>
<path d="M233.806 463.341C233.806 465.663 234.927 467.21 236.272 466.695C237.617 466.179 238.738 464.631 238.738 463.341C238.738 462.052 237.617 460.504 236.272 459.988C234.927 459.473 233.806 461.02 233.806 463.341Z" fill="black"/>
<path d="M246.802 476.092C241.816 477.765 243.063 481.591 248.547 481.591C251.29 481.591 253.533 480.634 253.533 479.439C253.533 476.331 250.542 474.896 246.802 476.092Z" fill="black"/>
<path d="M306.848 485.982C306.848 488.611 307.587 489.328 308.326 487.416C309.065 485.743 308.819 483.592 308.08 482.875C307.341 481.919 306.602 483.353 306.848 485.982Z" fill="black"/>
<path d="M268.595 490.961C267.787 492.194 268.865 493.427 271.289 493.427C273.714 493.427 274.791 492.194 273.983 490.961C273.175 489.481 271.828 488.495 271.289 488.495C270.751 488.495 269.404 489.481 268.595 490.961Z" fill="black"/>
<path d="M240.71 495.893C240.71 497.126 241.912 498.359 243.355 498.359C244.557 498.359 245.038 497.126 244.317 495.893C243.595 494.414 242.393 493.427 241.672 493.427C241.191 493.427 240.71 494.414 240.71 495.893Z" fill="black"/>
<path d="M249.922 505.318C249.194 506.743 249.68 508.642 251.136 509.354C254.777 511.728 257.204 508.642 254.049 505.556C252.35 503.894 250.893 503.894 249.922 505.318Z" fill="black"/>
<path d="M1041.7 416.27C1049.19 421.091 1079.64 425.913 1109.61 427.118L1139.34 428.323L1107.92 424.948C1079.88 422.055 1063.21 419.404 1043.87 415.064C1039.04 414.1 1038.56 414.341 1041.7 416.27Z" fill="black"/>
<path d="M1047.06 448.352C1048.02 465.45 1048.97 468.87 1053.77 472.778C1060 477.907 1066.47 476.93 1075.09 468.87C1079.41 464.962 1081.08 464.473 1082.04 467.16C1083.96 473.022 1091.87 479.617 1097.14 479.617C1108.16 479.617 1122.54 455.192 1120.38 440.536C1119.66 435.407 1118.22 437.361 1111.27 451.528C1105.04 463.985 1101.45 468.87 1097.62 469.358C1093.3 470.091 1091.87 468.381 1089.95 460.809C1088.51 455.68 1087.31 447.864 1087.31 443.467C1087.31 432.72 1083 434.43 1078.93 446.643C1077.01 451.772 1072.7 458.855 1069.34 462.275C1063.35 468.381 1062.87 468.381 1060 464.229C1058.08 461.786 1055.92 452.749 1054.96 444.2C1053.77 432.231 1052.57 428.323 1049.69 428.323C1046.58 428.323 1046.1 431.499 1047.06 448.352Z" fill="black"/>
<path d="M1051.65 485.973C1048.3 486.986 1045.43 489.266 1044.71 491.04C1043.99 493.32 1049.02 494.08 1062.66 494.08C1072.94 494.333 1086.1 495.346 1092.08 496.613C1098.07 497.626 1104.53 497.626 1106.44 496.613C1116.49 490.533 1066.96 480.906 1051.65 485.973Z" fill="black"/>
<path d="M442.323 423.632C440.944 427.99 434.048 464.309 434.048 467.457C434.048 468.667 434.967 469.152 436.117 468.425C438.645 466.73 446.46 423.39 444.621 421.695C443.932 420.968 442.782 421.695 442.323 423.632Z" fill="black"/>
<path d="M454.851 447.278C452.905 465.779 453.635 472.266 456.797 468.902C457.527 468.181 458.014 458.571 457.527 447.519L456.797 427.337L454.851 447.278Z" fill="black"/>
<path d="M447.666 442.676C446.364 450.061 445.062 459.168 444.28 462.861C443.499 466.799 444.02 469.753 445.322 469.753C448.448 469.753 451.834 447.107 450.532 436.523C449.75 430.861 449.229 432.338 447.666 442.676Z" fill="black"/>
<path d="M363.099 506.951C344.506 517.141 324.946 527.817 319.634 530.728C287.276 548.197 248.64 571.975 249.606 573.43C250.33 574.401 264.336 583.135 280.997 592.598L311.182 609.824L328.085 598.663C337.503 592.355 344.506 586.775 343.781 586.047C343.298 585.319 341.125 586.047 339.193 587.745C336.778 589.686 334.122 589.929 329.051 587.988C322.773 585.562 322.773 585.076 326.395 581.437C330.017 577.555 330.983 577.555 338.952 581.437L347.403 585.562L378.312 565.424C395.215 554.263 416.465 540.676 425.4 534.853C434.334 529.03 441.096 523.692 440.613 522.964C439.888 522.236 437.957 522.964 436.266 524.177C434.334 525.876 430.954 525.876 427.332 524.662L421.295 522.236L426.607 518.597C431.195 515.443 432.403 515.443 437.957 519.082C443.511 522.721 444.476 522.721 450.272 518.839C453.894 516.413 455.584 513.744 454.377 512.531C452.928 511.075 396.906 487.783 396.906 488.511C396.906 488.511 381.693 496.76 363.099 506.951ZM411.153 501.37C406.323 504.039 399.803 501.613 401.977 497.731C403.184 495.79 402.46 495.547 399.562 496.518C397.147 497.488 394.008 497.488 392.559 496.518C386.764 492.878 399.321 492.151 406.806 495.547C413.568 498.459 414.292 499.672 411.153 501.37ZM390.869 501.856C387.488 505.98 379.761 506.708 377.829 503.311C376.139 500.642 380.244 498.701 388.213 498.459C393.042 498.216 393.284 498.701 390.869 501.856ZM402.943 505.738C402.943 508.406 391.11 511.318 388.937 509.134C386.522 506.708 395.698 500.642 399.562 502.341C401.494 503.069 402.943 504.524 402.943 505.738ZM431.437 505.01C435.3 505.738 436.508 507.193 435.542 509.862C434.576 512.531 435.059 512.774 437.232 510.833C439.405 509.134 442.062 509.377 446.408 511.561C451.721 514.472 451.962 514.957 448.34 516.413C442.786 518.597 425.641 511.561 426.607 507.921C427.09 505.98 425.883 505.495 423.468 506.223C421.536 507.193 418.156 507.193 415.982 506.223C412.843 505.01 412.843 504.524 415.499 502.826C417.19 501.613 420.329 501.37 422.261 502.098C424.192 503.069 428.298 504.282 431.437 505.01ZM378.795 507.679C378.795 510.833 369.86 513.502 366.48 511.318C364.548 510.347 364.789 509.134 366.963 507.679C371.551 504.767 378.795 505.01 378.795 507.679ZM411.153 506.951C419.604 510.105 411.394 516.656 402.46 513.744C397.872 512.289 397.872 512.289 402.218 508.892C407.531 505.01 406.565 505.252 411.153 506.951ZM389.661 512.531C392.076 516.656 382.176 520.538 379.037 516.656C377.588 514.957 377.105 512.774 378.071 512.046C380.485 509.62 387.971 510.105 389.661 512.531ZM427.09 514.472C427.09 515.2 425.158 517.141 422.985 518.839C419.846 521.266 417.673 521.266 414.533 519.325C410.67 516.656 410.67 516.413 415.499 513.744C420.329 511.075 427.09 511.561 427.09 514.472ZM366.721 514.715C366.721 515.685 364.548 517.869 361.65 519.567C357.787 521.994 355.855 522.236 353.199 519.81C350.301 517.384 350.301 516.413 352.716 514.957C356.579 512.289 366.721 512.046 366.721 514.715ZM400.045 518.112C398.838 521.994 388.454 523.935 388.454 520.538C388.454 517.869 392.559 515.685 397.63 515.443C399.562 515.2 400.528 516.656 400.045 518.112ZM377.346 519.81C379.278 522.721 367.446 527.574 362.858 525.633C359.236 524.177 359.236 523.935 363.341 520.78C368.17 517.141 375.414 516.656 377.346 519.81ZM427.09 527.331C429.505 527.331 428.781 529.03 424.675 531.941C420.329 535.581 417.673 536.066 414.292 534.125C410.67 532.426 410.428 531.213 412.843 528.302C414.533 526.118 414.775 524.905 413.085 524.905C411.636 524.905 409.704 525.876 408.98 527.331C407.048 530.243 405.116 530.243 400.528 527.331C397.389 525.39 397.63 524.662 401.735 521.508C405.84 518.597 407.289 518.597 414.775 522.721C419.604 525.148 425.158 527.331 427.09 527.331ZM355.613 524.177C363.341 527.817 363.824 528.544 359.96 531.213C355.13 534.853 347.403 535.581 347.403 532.426C347.403 531.213 349.094 529.515 351.267 528.787C353.44 527.817 354.648 526.603 353.923 525.876C353.199 525.148 350.542 525.876 347.886 527.574C345.23 529.272 341.125 529.758 338.71 528.787C334.364 527.089 334.364 526.846 338.71 523.449C344.747 519.082 345.471 519.082 355.613 524.177ZM391.593 526.361C401.977 531.699 401.977 531.699 396.664 535.581C393.525 538.007 390.869 538.25 387.73 536.551C383.383 534.367 383.383 534.125 387.73 530.971C390.144 529.03 390.869 527.331 389.661 527.331C388.213 527.331 385.798 528.544 384.349 530C382.9 531.456 379.278 531.941 376.139 530.971C370.826 529.272 370.826 529.03 375.173 525.876C380.968 521.508 382.176 521.508 391.593 526.361ZM337.02 531.213C338.227 534.853 327.119 539.463 323.014 537.036C319.392 534.61 319.634 534.125 326.878 530.243C332.19 527.089 335.812 527.574 337.02 531.213ZM373.966 534.367C373.966 537.279 364.548 541.889 360.684 540.433C355.613 538.25 356.096 535.823 362.616 532.912C367.929 530.485 373.966 531.213 373.966 534.367ZM347.403 537.036C347.403 540.676 337.744 544.8 333.398 543.102C329.776 541.646 329.776 541.161 333.881 538.007C339.435 534.125 347.403 533.397 347.403 537.036ZM399.079 545.043C400.528 545.771 399.803 547.712 396.906 550.138C391.352 554.505 388.696 554.748 383.625 551.594C380.485 549.653 380.727 548.925 384.832 545.771C390.627 541.404 387.971 540.676 381.451 544.8C378.071 546.741 375.173 546.984 371.068 545.043L365.514 542.617L372.517 538.977C378.554 535.823 380.244 535.823 387.73 539.705C392.559 542.132 397.63 544.558 399.079 545.043ZM411.394 536.066C414.775 537.522 414.775 538.007 410.67 540.918C404.633 545.043 394.491 542.617 398.355 538.007C401.252 534.367 405.116 533.882 411.394 536.066ZM322.048 539.463C323.98 542.859 312.389 547.712 307.318 545.771C303.455 544.315 303.455 543.83 307.801 540.676C313.114 536.551 319.875 536.066 322.048 539.463ZM356.579 541.646C361.892 544.8 349.577 551.837 343.781 548.682C339.676 546.256 339.676 545.771 345.23 542.859C352.233 538.977 352.474 538.977 356.579 541.646ZM328.327 549.41C323.497 553.535 316.011 553.292 316.011 549.168C316.011 546.499 326.636 542.374 330.258 543.83C332.915 544.8 332.432 546.014 328.327 549.41ZM306.352 549.41C306.352 552.807 297.418 556.446 293.313 554.991C288 552.807 288.483 550.381 295.003 547.469C300.557 544.8 306.352 545.771 306.352 549.41ZM367.446 552.807C362.858 556.204 352.233 555.233 352.233 551.594C352.233 547.955 363.099 544.8 367.446 547.227C371.792 549.41 371.792 549.653 367.446 552.807ZM340.4 555.719C337.503 557.66 333.156 558.63 330.5 557.66C327.361 556.689 325.67 557.174 326.153 558.873C327.119 562.997 319.875 567.122 314.804 565.181C311.182 563.968 312.872 562.027 323.497 555.476C333.398 549.41 337.744 548.197 340.883 549.896C345.23 551.837 345.23 552.079 340.4 555.719ZM316.977 553.535C318.909 556.689 307.318 562.269 303.696 560.086C301.523 558.63 302.006 557.417 305.145 554.748C310.216 551.109 315.046 550.623 316.977 553.535ZM381.693 554.263L386.522 556.932L381.693 560.328C377.588 562.997 375.414 563.24 370.343 560.814L364.065 557.902L369.619 554.748C376.38 551.109 375.656 551.109 381.693 554.263ZM290.656 556.204C292.588 559.358 267.716 571.489 263.128 569.791C259.989 568.578 259.748 568.093 262.887 566.152C264.819 564.696 268.924 563.725 272.063 563.725C275.202 563.725 277.134 562.755 276.168 561.542C274.719 559.115 281.48 554.263 286.31 554.02C287.759 554.02 289.691 554.991 290.656 556.204ZM354.406 556.204C356.821 557.902 356.338 559.115 352.233 562.027C348.128 564.938 345.713 565.181 342.574 562.997C338.469 560.571 338.469 560.086 342.091 557.174C346.92 553.535 349.818 553.292 354.406 556.204ZM301.523 563.968C301.523 566.637 289.691 569.791 287.759 567.607C285.344 565.424 294.762 559.115 298.384 560.571C300.074 561.299 301.523 562.755 301.523 563.968ZM366.721 569.063C362.616 572.46 360.443 572.702 355.613 570.519L349.577 567.607L354.889 563.483C359.236 560.328 361.65 559.843 366.238 562.027L372.034 564.696L366.721 569.063ZM338.952 564.696C343.298 567.85 343.298 568.093 338.227 570.761C332.19 573.916 330.5 574.158 325.67 571.004C322.531 569.063 322.773 568.335 326.878 565.181C332.915 560.571 333.398 560.571 338.952 564.696ZM311.423 572.46C307.56 575.371 305.386 575.371 301.04 573.188L295.969 570.276L301.764 567.365C305.628 565.181 308.767 564.938 311.906 566.637C316.253 568.82 316.253 569.063 311.423 572.46ZM261.438 573.916C260.472 575.371 261.196 575.857 263.128 575.371C267.958 573.673 276.409 578.283 272.787 580.709C271.097 581.68 265.543 580.224 260.231 577.555C253.711 574.401 251.537 572.217 253.469 570.761C257.333 568.335 263.37 570.761 261.438 573.916ZM285.827 570.761C288.242 574.886 279.307 578.04 273.753 575.371C269.165 572.702 269.165 572.702 273.753 570.761C280.515 568.093 284.137 568.093 285.827 570.761ZM352.474 571.247C356.338 573.188 356.821 574.401 354.406 577.312C351.267 581.194 345.23 581.68 340.159 578.283C337.02 576.099 337.261 575.371 341.125 572.217C346.92 567.85 346.437 567.85 352.474 571.247ZM324.222 572.46C329.534 574.401 329.051 577.555 323.256 580.709C319.875 582.65 317.219 582.407 313.838 580.224C309.492 577.555 309.492 577.07 313.114 574.158C317.943 570.761 319.151 570.519 324.222 572.46ZM298.867 575.614C301.281 577.312 300.798 578.525 296.452 581.68C292.83 584.106 289.932 584.591 288.483 583.135C284.861 579.496 281.239 580.224 284.378 583.863C285.827 585.804 286.31 587.988 285.344 588.958C284.378 589.929 285.344 589.929 287.517 589.201C293.071 587.017 303.455 592.598 298.867 595.509C296.935 596.722 291.381 595.024 284.137 591.142L272.546 584.834L281.48 579.253C291.622 572.945 294.037 572.46 298.867 575.614ZM330.5 592.84C330.5 593.568 328.327 595.509 325.67 597.208C321.807 599.634 319.392 599.634 315.287 597.45C307.56 593.326 307.56 593.083 312.631 588.958C316.977 585.319 316.977 585.319 311.906 587.745C305.628 590.899 303.696 590.899 299.108 587.988C295.969 586.047 296.21 585.319 300.316 582.165C304.421 579.253 306.352 579.496 317.702 585.076C324.705 588.716 330.5 592.113 330.5 592.84ZM311.423 597.693C316.977 600.847 317.46 604.972 312.148 604.972C306.594 604.972 298.867 600.119 300.316 597.45C302.247 594.539 305.628 594.539 311.423 597.693Z" fill="black"/>
<path d="M391.765 561.613C368.954 578.023 363.432 583.331 368.954 583.331C370.395 583.331 371.595 582.366 371.595 580.918C371.595 579.712 381.92 571.507 394.647 562.578L417.698 546.41L434.266 551.719C443.39 554.615 450.834 557.994 450.834 558.959C450.834 559.924 440.028 569.094 426.582 579.47L402.57 598.052L389.124 590.571C381.92 586.468 375.437 583.573 374.717 584.297C373.997 585.021 380.48 588.882 389.124 593.225L404.731 600.947L428.263 581.884C441.229 571.266 452.274 561.131 452.755 558.959C453.235 556.304 448.913 553.891 437.147 550.03C428.263 547.134 419.619 544.721 418.178 544.721C416.497 544.721 404.731 552.443 391.765 561.613Z" fill="black"/>
<path d="M877.913 81.891C877.913 84.9677 876.713 86.1511 874.314 85.2044C871.675 84.021 871.195 84.7311 872.155 87.5711C873.114 89.9378 872.395 91.3579 869.995 91.3579C867.836 91.3579 865.437 92.5412 864.477 93.9613C863.518 95.8546 864.477 96.0913 868.076 94.908C870.955 93.9613 873.114 94.4346 873.114 95.8546C873.114 97.2747 874.554 98.458 876.473 98.458C878.393 98.458 880.552 100.351 881.032 102.481C881.991 105.795 882.231 105.558 882.471 101.535C882.711 97.5114 883.911 96.8013 887.989 97.9847C891.348 98.6947 892.548 98.458 891.348 96.5647C890.388 94.908 890.868 93.7246 892.068 93.7246C893.507 93.7246 894.707 92.5412 894.707 91.3579C894.707 89.9378 893.267 88.9912 891.348 88.9912C888.949 88.9912 888.469 87.3345 889.429 83.5477C890.628 78.8143 890.388 78.5776 886.79 81.6543C883.191 84.4944 882.711 84.2577 882.711 80.9443C882.711 78.8143 881.751 77.1576 880.312 77.1576C879.112 77.1576 877.913 79.2876 877.913 81.891Z" fill="black"/>
<path d="M489.747 82.9241C489.747 84.6559 488.336 86.1403 486.455 86.1403C484.339 86.1403 483.164 88.367 483.399 91.0885C483.634 93.81 484.574 96.0366 485.75 96.0366C486.69 96.0366 486.926 97.0262 486.22 98.5107C484.339 101.48 485.515 101.727 493.039 98.5107C497.036 97.0262 499.152 94.3048 499.152 91.0885C499.152 88.1196 498.211 86.3878 497.036 87.3774C495.625 88.1196 493.744 86.6352 492.333 84.4085C490.923 81.9344 489.747 81.4396 489.747 82.9241Z" fill="black"/>
<path d="M509.017 96.3933C509.017 97.6263 511.85 98.8594 515.156 98.8594C518.461 98.8594 520.586 97.873 519.642 96.3933C518.934 94.9137 516.1 93.9273 513.503 93.9273C511.142 93.9273 509.017 94.9137 509.017 96.3933Z" fill="black"/>
<path d="M845.411 98.0442C842.704 99.089 841.72 100.656 842.95 101.44C845.411 103.007 856.237 99.3502 856.237 96.9993C856.237 95.1709 851.07 95.6933 845.411 98.0442Z" fill="black"/>
<path d="M527.758 101.438C527.758 102.63 528.954 103.583 530.628 103.583C532.063 103.583 532.542 104.298 531.824 105.251C529.432 107.396 537.804 112.878 541.392 111.448C544.741 110.256 545.698 101.438 542.827 100.961C532.303 99.2929 527.758 99.5312 527.758 101.438Z" fill="black"/>
<path d="M803.374 102.499C803.374 105.653 802.415 105.896 798.577 103.712C793.54 101.043 791.621 104.44 796.418 107.594C798.337 108.565 797.138 110.506 793.54 112.447C787.783 115.602 787.783 115.602 793.06 115.844C797.138 115.844 798.097 116.815 796.898 119.969C795.699 123.609 796.178 123.852 798.577 121.425C801.215 118.999 802.415 119.241 804.813 122.638C807.932 126.521 807.932 126.521 808.172 122.153C808.172 119.241 809.371 118.271 811.53 118.999C813.928 119.969 814.648 119.241 813.689 116.815C812.969 114.874 813.928 113.418 815.608 113.418C818.486 113.418 818.486 112.932 815.608 111.234C813.689 110.021 813.209 107.837 814.168 105.896C815.608 103.712 814.888 103.226 812.249 104.44C809.611 105.41 808.172 104.682 808.172 102.499C808.172 100.557 807.212 98.8588 805.773 98.8588C804.574 98.8588 803.374 100.557 803.374 102.499Z" fill="black"/>
<path d="M827.061 104.358C821.651 106.361 821.406 106.806 825.586 107.474C828.045 108.142 831.241 107.474 832.717 106.139C836.651 102.577 833.946 101.686 827.061 104.358Z" fill="black"/>
<path d="M475.459 111.834C473.676 113.902 473.008 116.199 473.899 117.118C475.905 119.186 480.363 114.132 479.248 110.915C478.802 109.077 477.465 109.307 475.459 111.834Z" fill="black"/>
<path d="M818.378 123.003C816.615 125.972 818.881 130.425 822.406 130.425C823.665 130.425 824.672 128.198 824.672 125.477C824.672 120.282 820.895 118.797 818.378 123.003Z" fill="black"/>
<path d="M463.814 128.003C460.843 131.884 464.084 132.797 467.864 128.916C470.025 126.861 470.025 125.492 468.404 125.492C466.784 125.492 464.624 126.633 463.814 128.003Z" fill="black"/>
<path d="M453.607 141.008C451.145 147.14 454.702 148.122 458.259 142.48C460.174 138.801 460.174 137.329 458.259 137.329C456.617 137.329 454.702 139.046 453.607 141.008Z" fill="black"/>
<path d="M824.672 140.781C824.672 142.755 825.905 145.221 827.138 145.961C828.618 146.701 829.604 145.715 829.604 143.741C829.604 141.768 828.618 139.301 827.138 138.561C825.905 137.821 824.672 138.808 824.672 140.781Z" fill="black"/>
<path d="M442.411 155.767C439.528 158.647 439.288 160.327 441.21 162.728C444.813 167.048 450.818 164.648 450.818 159.127C450.818 152.647 446.975 151.206 442.411 155.767Z" fill="black"/>
<path d="M829.464 152.025C827.797 158.448 828.511 161.531 832.321 162.559C837.558 164.1 839.701 161.274 837.796 155.622C836.606 152.282 830.178 149.713 829.464 152.025Z" fill="black"/>
<path d="M927.403 170.282C930.78 176.642 933.674 182.512 933.674 183.735C933.674 184.958 930.056 185.936 925.474 185.936C920.891 185.936 916.309 186.914 915.585 188.382C914.621 189.849 917.997 190.828 923.786 190.828H933.433L929.815 201.1C925.233 214.553 927.886 216.51 932.951 203.546C935.121 197.921 937.774 193.274 938.739 193.274C939.704 193.274 943.321 196.942 946.698 201.1C953.451 209.906 955.381 207.704 948.869 198.41L945.01 192.54L954.416 194.252C963.581 195.72 963.581 195.72 957.792 192.295C954.416 190.094 949.833 188.626 947.663 188.382C940.91 188.382 940.427 184.224 945.733 173.462C948.627 168.081 950.316 162.945 949.592 162.211C948.869 161.477 946.457 164.901 944.286 169.793C941.874 174.685 939.221 178.598 938.257 178.598C937.292 178.598 933.915 174.196 931.021 168.815C927.886 163.434 924.509 159.031 923.303 159.031C922.097 159.031 924.027 164.167 927.403 170.282Z" fill="black"/>
<path d="M431.648 170.375C429.461 173.137 429.461 173.827 432.523 173.827C434.491 173.827 436.022 172.216 436.022 170.375C436.022 168.533 435.585 166.922 435.147 166.922C434.71 166.922 433.179 168.533 431.648 170.375Z" fill="black"/>
<path d="M848.569 171.388C852.108 173.621 855.394 175.184 855.9 174.737C857.922 172.951 850.338 166.922 846.294 166.922C843.26 166.922 843.766 168.039 848.569 171.388Z" fill="black"/>
<path d="M373.976 176.021C372.013 177.218 371.277 178.414 372.504 178.414C373.731 178.414 373.485 179.85 372.013 181.286C368.332 186.073 374.712 191.098 379.621 187.269C385.02 182.962 386.492 176.5 382.32 175.064C377.657 173.389 378.394 173.149 373.976 176.021Z" fill="black"/>
<path d="M861.169 180.856C861.169 182.039 862.802 183.694 864.902 184.403C870.501 186.531 871.434 186.058 868.168 182.275C864.902 178.255 861.169 177.546 861.169 180.856Z" fill="black"/>
<path d="M419.178 184.861C416.372 188.569 416.606 189.099 420.347 188.304C422.919 187.775 425.257 185.656 425.958 183.802C427.127 179.3 422.919 179.83 419.178 184.861Z" fill="black"/>
<path d="M871.318 191.838C870.592 193.777 871.318 197.656 872.77 200.808C875.191 204.93 876.159 205.415 877.853 202.748C879.064 200.808 880.032 200.323 880.274 201.778C880.274 202.99 881.242 202.02 882.21 199.354C883.421 196.444 882.937 193.535 881 191.595C876.885 187.474 873.012 187.716 871.318 191.838Z" fill="black"/>
<path d="M380.782 197.801C380.782 200.448 382.015 202.434 383.248 202.434C384.728 202.434 385.714 201.11 385.714 199.345C385.714 197.58 384.728 195.374 383.248 194.712C382.015 194.05 380.782 195.374 380.782 197.801Z" fill="black"/>
<path d="M411.149 194.454C410.143 195.173 409.389 197.091 409.389 198.53C409.389 199.969 410.646 199.729 412.406 198.05C413.914 196.612 414.668 194.694 414.166 193.974C413.411 193.255 411.903 193.495 411.149 194.454Z" fill="black"/>
<path d="M399.42 204.226C396.016 207.536 397.587 212.375 401.515 211.102C403.609 210.083 405.442 208.046 405.442 206.008C405.442 202.188 402.3 201.17 399.42 204.226Z" fill="black"/>
<path d="M385.302 218.301C386.004 223.031 385.302 224.525 382.028 224.525C377.818 224.774 377.818 224.774 381.56 228.01C384.834 230.5 385.068 231.745 382.729 234.234C380.391 236.973 380.859 237.222 385.068 235.977C388.81 234.732 390.447 235.479 391.149 238.715C392.084 242.948 392.318 242.948 392.552 238.715C392.786 236.226 394.657 234.483 397.697 234.483C401.673 234.483 402.141 233.736 400.036 230.998C397.931 228.259 397.931 227.263 400.27 226.268C402.141 225.272 401.907 224.774 399.334 224.774C396.528 224.525 395.826 223.28 396.762 220.293C397.697 217.803 397.229 216.807 395.826 217.803C394.423 218.799 392.084 217.803 390.447 215.811C386.004 210.334 383.899 211.33 385.302 218.301Z" fill="black"/>
<path d="M386.833 303.087C392.111 311.103 391.872 311.589 382.274 309.889C376.756 308.917 373.877 309.403 373.877 311.346C373.877 312.804 377.956 314.019 383.474 314.019C394.511 314.019 394.751 314.747 388.273 323.007C385.633 326.651 384.194 330.052 384.914 330.781C385.633 331.51 388.033 329.809 389.952 326.651C394.991 319.12 397.15 319.849 400.269 330.295C404.108 341.956 408.427 347.3 406.027 337.097C405.068 332.967 403.388 327.38 402.428 324.222C399.309 315.962 399.309 315.962 410.106 321.307C415.624 324.222 420.423 325.922 421.143 325.193C421.863 324.708 417.784 321.792 412.026 318.634L401.709 313.533L409.386 306.488C418.504 298.228 417.304 297.499 405.547 304.787L397.15 309.889L392.591 303.573C386.593 295.313 381.555 294.827 386.833 303.087Z" fill="black"/>
<path d="M799.168 446.71C796.517 447.44 790.492 449.142 785.673 450.358C777.961 452.304 776.033 454.25 771.454 466.167C766.393 478.571 766.152 479.787 770.008 482.462C773.141 484.651 775.551 493.893 778.684 515.782C781.335 532.32 783.022 546.183 782.781 546.426C782.54 546.669 775.792 547.399 767.598 548.129L753.139 549.345L754.103 542.778C754.585 539.13 752.657 520.889 750.006 501.919C747.114 483.192 744.945 464.951 744.945 461.789C744.945 455.709 744.464 455.709 719.401 454.007C695.543 452.547 632.163 454.007 620.354 456.439C616.499 457.168 614.33 460.573 611.197 471.031C608.064 481.976 606.618 484.165 603.244 482.948C601.075 481.976 586.857 478.084 571.916 474.193C545.407 467.383 544.202 467.383 537.454 471.274C529.984 475.895 529.02 478.084 533.117 480.76C535.045 481.732 534.804 482.948 532.635 484.408C529.984 486.353 530.225 487.326 534.081 490.245C540.587 495.352 576.495 506.54 581.555 505.324C583.965 504.594 585.893 505.081 585.893 506.297C585.893 507.513 588.544 508.486 591.918 508.486C599.148 508.486 599.148 508.729 593.123 530.861C590.472 540.589 588.303 549.345 588.303 550.561C588.303 551.777 624.692 552.263 669.034 551.777C713.617 551.29 747.355 552.02 744.464 552.993C732.173 557.614 718.678 565.153 717.473 568.072C716.991 569.774 717.714 573.179 719.642 575.855C722.534 579.989 727.112 580.232 778.202 580.232C808.807 580.232 834.352 579.503 835.075 578.773C836.521 577.314 846.643 520.646 849.775 496.811C850.739 489.029 852.908 483.192 855.077 482.462C859.174 480.76 857.005 466.897 851.944 463.978C850.016 463.005 848.571 459.844 848.571 457.411C848.571 454.25 845.92 452.061 839.654 450.115C828.809 446.953 805.916 445.008 799.168 446.71ZM791.938 453.52C785.191 456.439 784.95 456.682 789.528 459.357C793.384 461.546 793.625 462.032 790.492 462.276C788.323 462.276 785.191 460.573 783.504 458.628C781.094 455.709 781.576 454.736 786.155 452.79C794.83 449.142 800.132 449.872 791.938 453.52ZM742.536 463.978C742.536 467.626 744.705 486.84 747.596 506.783C750.247 526.726 751.934 543.751 750.97 544.481C750.006 545.453 714.581 546.426 672.167 546.913C609.992 547.399 595.051 546.913 596.015 544.481C596.738 542.778 599.87 533.293 603.003 523.565C606.136 513.836 609.992 506.053 611.679 506.053C615.294 506.053 615.535 509.458 612.643 519.673L610.474 527.213L626.861 530.131C636.019 531.59 665.901 532.807 693.133 532.807H742.777L741.09 513.836C740.367 503.621 738.921 488.542 737.957 480.516L736.511 465.924L695.302 464.708C672.408 463.978 648.309 463.978 641.079 464.708C628.548 465.924 628.307 465.924 624.933 476.868C620.595 490.002 620.354 490.731 616.981 487.326C615.053 485.381 615.535 480.76 618.668 471.031L623.005 457.411H682.77H742.536V463.978ZM809.53 463.978C807.121 464.465 802.783 464.465 799.891 463.978C796.758 463.492 798.686 463.005 803.988 463.005C809.289 462.762 811.699 463.248 809.53 463.978ZM729.763 469.086C732.414 470.788 740.367 527.942 737.957 528.672C736.993 528.915 712.653 528.672 683.493 527.942L630.476 526.726L682.289 525.267L734.101 524.051H674.336C636.019 524.294 614.812 523.321 615.053 521.862C616.499 508.242 617.945 507.269 634.814 507.999C652.888 508.972 655.057 506.54 642.766 499.244C633.127 493.65 621.077 489.515 626.861 493.893C629.753 496.082 629.271 496.325 624.451 494.866C621.077 493.893 614.571 491.704 609.992 489.758C602.28 486.84 606.136 487.083 618.427 490.488C622.764 491.461 623.969 490.002 626.62 479.544L629.753 467.14H678.192C704.941 467.14 728.076 468.113 729.763 469.086ZM781.094 474.436C783.022 475.652 783.745 476.868 782.299 476.868C781.094 476.868 778.202 475.652 776.274 474.436C774.346 473.22 773.864 472.004 775.069 472.004C776.515 472.004 779.166 473.22 781.094 474.436ZM589.508 481.732C592.882 483.192 591.436 483.678 583.483 483.435C575.29 482.948 572.639 483.921 571.916 487.083C571.193 490.245 575.531 491.947 594.81 496.325C607.823 499.244 622.282 502.405 626.861 503.621L635.296 505.81L626.861 504.837C622.282 504.351 613.607 503.135 607.823 502.405C601.075 501.189 597.943 501.432 598.907 503.135C599.87 504.594 596.979 504.837 590.231 503.135C576.254 499.973 575.049 497.784 588.303 499.73C597.461 500.703 596.738 500.216 583.483 496.568C567.819 492.19 565.891 489.758 571.916 482.462C574.808 478.814 582.278 478.571 589.508 481.732ZM799.65 480.76C798.927 481.489 796.758 481.732 795.071 481.003C793.143 480.273 793.866 479.544 796.517 479.544C799.168 479.3 800.614 480.03 799.65 480.76ZM827.605 481.003C825.918 481.489 823.026 481.489 821.58 481.003C819.893 480.273 821.098 479.787 824.472 479.787C827.846 479.787 829.05 480.273 827.605 481.003ZM812.422 490.245C817.001 490.245 826.882 489.272 834.352 488.299L847.848 486.353L846.884 494.379C845.679 503.865 837.003 560.289 835.075 569.774C833.87 575.855 832.665 576.584 823.508 576.584C817.724 576.584 808.325 575.855 802.301 575.125L791.697 573.666L787.6 550.074C783.986 528.429 783.986 526.483 787.6 523.808C793.143 519.673 795.553 522.105 795.553 531.59C795.553 536.211 796.758 540.589 797.963 541.319C799.409 542.292 800.373 538.887 800.373 533.05C800.373 522.348 794.83 516.998 788.082 520.889C784.709 522.592 783.504 520.16 780.612 504.594L776.997 486.353L790.492 488.299C797.963 489.272 807.843 490.245 812.422 490.245ZM547.335 491.461C549.263 492.677 549.986 493.893 548.54 493.893C547.335 493.893 544.443 492.677 542.515 491.461C540.587 490.245 540.105 489.029 541.31 489.029C542.756 489.029 545.407 490.245 547.335 491.461ZM564.204 496.325C562.276 497.541 559.625 498.757 558.179 498.757C556.975 498.757 557.457 497.541 559.384 496.325C561.312 495.109 564.204 493.893 565.409 493.893C566.855 493.893 566.132 495.109 564.204 496.325ZM572.639 498.757C566.132 501.676 562.276 501.676 566.614 498.757C568.542 497.541 571.916 496.568 573.844 496.568C576.254 496.568 575.772 497.298 572.639 498.757Z" fill="black"/>
<path d="M658.68 480.113L674.347 482.824L655.065 484.303C643.496 485.042 654.342 485.535 682.783 485.535C721.588 485.535 725.203 485.289 703.27 484.056L676.757 482.577L698.208 482.085C732.434 481.345 720.142 478.387 679.89 477.894C645.906 477.402 644.219 477.402 658.68 480.113Z" fill="black"/>
<path d="M663.998 493.098C675.512 493.536 693.984 493.536 704.778 493.098C715.573 492.879 706.218 492.44 683.669 492.44C661.359 492.44 652.484 492.879 663.998 493.098Z" fill="black"/>
<path d="M805.328 523.951C803.593 525.908 802.602 531.289 803.097 535.692C803.593 542.052 805.081 544.008 809.543 544.498C814.996 545.231 815.244 544.742 814.501 533.735C813.757 521.505 810.286 517.837 805.328 523.951ZM812.518 533.98C812.518 538.627 811.526 542.541 810.286 542.541C807.56 542.541 804.337 530.8 806.32 527.865C809.543 522.728 812.518 525.908 812.518 533.98Z" fill="black"/>
<path d="M819.643 527.926C817.41 533.716 819.643 543.125 823.363 543.125C824.603 543.125 827.084 544.09 828.82 545.296C831.3 546.744 832.044 544.572 831.3 535.646C830.804 526.72 829.564 523.584 826.091 523.101C823.363 522.619 821.131 524.307 819.643 527.926ZM828.82 533.716C827.58 540.471 821.875 540.712 821.875 533.957C821.875 530.821 822.619 527.444 823.611 526.479C826.091 524.066 829.812 528.891 828.82 533.716Z" fill="black"/>
<path d="M956.069 478.519C954.867 479.001 945.249 479.965 935.15 480.928C917.598 482.373 916.396 482.855 916.396 488.154C916.396 493.453 920.724 496.825 926.735 496.343C928.418 496.343 927.216 495.38 924.331 494.176C914.473 490.081 917.839 485.264 931.544 483.578C962.561 479.965 976.506 483.818 976.506 496.343C976.506 499.716 982.998 516.094 990.933 532.473C998.867 548.852 1005.36 563.063 1005.36 564.268C1005.36 565.472 996.463 566.435 985.643 566.435C974.583 566.676 954.386 567.64 940.681 568.844C926.735 570.048 915.194 570.771 914.713 570.53C913.511 569.085 902.21 483.578 903.172 482.373C904.615 480.928 909.183 493.694 909.183 499.475C909.183 504.533 909.904 504.533 938.517 503.088C954.386 502.365 968.812 500.438 970.014 499.234C972.419 496.825 963.522 497.066 924.331 499.956L912.068 500.92L910.385 492.249C908.221 480.446 899.565 474.425 899.565 484.541C899.565 487.431 897.882 489.358 895.718 489.358C891.15 489.358 891.15 489.117 900.527 534.4C903.893 550.538 906.778 566.435 906.778 569.808C906.778 573.18 907.74 576.311 908.702 577.034C909.904 577.756 924.812 576.793 941.883 574.866C958.954 572.939 979.151 571.253 986.605 571.253C994.058 571.253 1002.95 570.048 1006.08 568.603L1012.09 565.954L995.501 531.51C986.364 512.481 978.911 494.657 978.911 492.008C978.911 489.358 975.544 485.264 970.736 482.373C962.801 477.315 960.878 476.833 956.069 478.519Z" fill="black"/>
<path d="M939.605 493.17C942.471 493.512 946.77 493.512 949.159 493.17C951.309 492.656 948.92 492.314 943.665 492.485C938.411 492.485 936.5 492.827 939.605 493.17Z" fill="black"/>
<path d="M932.581 517.196C930.173 517.922 928.246 519.858 928.246 522.036C928.246 524.941 928.969 525.183 931.859 522.762C936.676 518.89 938.843 520.826 943.66 533.654C946.068 539.705 948.959 544.546 950.163 544.546C951.367 544.546 951.126 541.883 949.922 538.253C948.477 534.864 947.995 530.992 948.959 529.781C951.608 525.425 957.147 527.845 958.592 534.138C959.315 538.011 960.76 544.062 961.723 548.176C963.65 555.679 970.153 559.068 974.729 554.469C976.415 552.775 975.692 552.533 972.08 553.259C967.744 554.469 966.781 553.017 964.373 541.399C961.482 526.877 957.629 522.036 950.404 523.246C947.754 523.731 943.66 522.278 941.252 520.1C938.602 518.164 934.749 516.712 932.581 517.196Z" fill="black"/>
<path d="M561.067 584.17C555.989 588.546 554.538 593.407 550.911 617.23C548.493 632.545 542.931 660.986 538.579 680.433C534.226 699.88 531.083 716.167 531.808 716.896C532.292 717.625 568.563 718.355 612.087 718.841C709.051 719.813 701.555 722.973 697.202 682.135C695.752 667.306 692.85 639.108 690.915 619.661C688.014 591.463 686.321 584.17 682.936 581.982C680.518 580.524 656.821 579.551 622.969 579.308C569.772 579.065 566.87 579.308 561.067 584.17ZM569.046 592.921C570.255 592.921 571.222 591.22 571.222 589.275C571.222 587.33 572.915 585.629 574.85 585.629C576.784 585.629 578.477 587.33 578.477 589.275C578.477 591.22 579.686 592.921 580.895 592.921C582.345 592.921 583.313 591.22 583.313 589.275C583.313 587.33 584.522 585.629 585.731 585.629C587.182 585.629 588.149 587.33 588.149 589.275C588.149 591.22 589.358 592.921 590.567 592.921C592.018 592.921 593.71 591.22 594.436 589.275C595.403 587.33 596.854 585.629 598.063 585.629C599.272 585.629 600.239 587.33 600.239 589.275C600.239 591.22 601.448 592.921 602.657 592.921C604.108 592.921 605.075 591.22 605.075 589.275C605.075 584.413 607.493 584.656 611.362 589.761C614.505 593.894 614.989 593.894 617.891 590.004C620.792 586.358 621.276 586.358 623.694 590.004C626.354 593.894 626.596 593.894 626.596 589.761C626.837 584.656 631.673 584.17 631.673 589.275C631.673 591.22 632.883 592.921 634.092 592.921C635.542 592.921 636.51 591.22 636.51 589.032C636.51 586.844 637.96 585.629 639.653 586.358C641.104 586.844 642.313 588.789 642.071 590.247C641.587 591.706 642.555 592.921 643.764 592.921C645.215 592.921 646.182 591.22 646.182 589.275C646.182 587.33 647.874 585.629 650.051 585.629C652.469 585.629 653.436 587.087 652.469 589.275C651.743 591.463 652.469 592.921 654.645 592.921C656.579 592.921 658.272 591.22 658.272 589.275C658.272 587.33 659.481 585.629 660.69 585.629C662.141 585.629 663.108 587.33 663.108 589.275C663.108 591.22 664.317 592.921 665.526 592.921C666.977 592.921 667.944 591.22 667.944 589.275C667.944 587.33 669.637 585.629 671.571 585.629C673.506 585.629 675.198 587.33 675.198 589.275C675.198 591.22 676.407 592.921 677.616 592.921C679.067 592.921 680.034 591.22 680.034 589.275C680.034 586.358 684.87 583.441 684.87 586.115C684.87 586.601 687.047 609.694 689.706 637.893C692.366 665.848 694.543 694.289 694.543 700.609V712.278L619.583 711.548C555.022 710.819 544.624 710.333 544.624 707.173C544.624 705.228 548.493 681.405 553.087 654.179C557.681 626.954 561.55 601.186 561.55 596.811C561.55 588.303 564.694 582.711 565.903 589.032C566.386 591.22 567.837 592.921 569.046 592.921Z" fill="black"/>
<path d="M640.473 604.287C636.41 609.142 643.101 614.266 648.598 610.49C650.988 608.872 650.51 607.793 646.925 605.366C644.296 604.017 641.429 603.478 640.473 604.287Z" fill="black"/>
<path d="M627.039 617.358C623.989 620.128 622.582 622.396 623.989 622.647C627.508 622.647 635.72 615.846 634.077 614.083C633.374 613.075 630.089 614.587 627.039 617.358Z" fill="black"/>
<path d="M654.261 615.08C653.526 616.266 654.506 618.163 656.709 618.875C662.096 621.009 663.809 618.637 659.402 615.317C656.954 613.42 655.485 613.183 654.261 615.08Z" fill="black"/>
<path d="M569.68 623.229C566.222 627.138 566.438 632.513 570.112 632.513C574.436 632.513 576.381 628.36 574.219 623.962C572.706 621.031 571.626 621.031 569.68 623.229Z" fill="black"/>
<path d="M669.623 621.558C666.567 624.438 667.586 627.58 671.406 627.58C673.443 627.58 675.481 625.747 676.499 623.652C677.773 619.725 672.934 618.154 669.623 621.558Z" fill="black"/>
<path d="M609.886 627.07C607.852 628.339 607.09 630.117 608.107 631.133C609.123 632.148 611.919 631.133 614.206 628.847C618.781 624.277 616.239 623.007 609.886 627.07Z" fill="black"/>
<path d="M587.931 629.533C587.931 631.528 597.835 634.631 599.526 633.079C600.009 632.636 599.768 631.306 598.801 629.976C596.869 627.095 587.931 626.651 587.931 629.533Z" fill="black"/>
<path d="M661.602 635.332C657.747 640.213 657.988 642.77 663.048 645.792C665.939 647.652 667.625 647.884 667.625 646.025C667.625 644.862 668.83 644.397 670.035 645.095C672.685 646.722 672.203 639.748 669.312 635.099C666.903 631.612 664.734 631.612 661.602 635.332Z" fill="black"/>
<path d="M572.175 639.913C571.958 643.576 573.046 646.323 574.134 646.323C576.746 646.323 576.746 644.492 574.134 638.31C572.393 634.189 572.175 634.418 572.175 639.913Z" fill="black"/>
<path d="M642.762 636.159C639.863 638.661 641.181 641.391 645.134 641.391C647.243 641.391 649.088 640.481 649.088 639.344C649.088 636.387 644.871 634.34 642.762 636.159Z" fill="black"/>
<path d="M616.424 640.439C612.915 643.845 614.67 648.954 619.181 648.225C621.436 647.738 623.441 645.791 623.441 644.088C623.441 640.195 618.93 638.006 616.424 640.439Z" fill="black"/>
<path d="M638.797 650.901C635.463 657.226 635.463 661.118 638.559 661.118C641.179 661.118 644.513 649.442 642.608 647.495C641.893 646.766 640.226 648.225 638.797 650.901Z" fill="black"/>
<path d="M572.147 658.653C572.147 661.316 573.959 663.092 576.546 663.092C579.651 663.092 580.686 661.76 579.651 658.653C578.875 656.212 576.805 654.214 575.252 654.214C573.7 654.214 572.147 656.212 572.147 658.653Z" fill="black"/>
<path d="M607.658 659.817C607.658 661.756 607.658 664.181 607.658 665.15C607.658 666.362 610.005 667.09 612.822 667.332C615.873 667.574 620.332 668.302 622.914 669.271C626.434 670.483 626.2 670.241 622.444 668.059C619.393 666.362 617.046 664.181 617.046 663.211C617.046 661.999 614.934 660.059 612.352 658.605C608.597 656.423 607.658 656.665 607.658 659.817Z" fill="black"/>
<path d="M586.831 671.444C582.896 675.302 585.601 680.848 591.258 680.848C596.668 680.848 597.406 675.543 592.733 671.444C590.274 669.515 588.798 669.515 586.831 671.444Z" fill="black"/>
<path d="M633.17 669.86C630.011 672.756 631.064 675.915 635.276 675.915C637.382 675.915 639.224 674.072 639.224 671.966C639.224 667.754 636.065 666.701 633.17 669.86Z" fill="black"/>
<path d="M625.331 684.697C620.968 688.14 620.455 689.861 623.021 692.075C624.817 693.55 627.127 694.288 627.897 693.55C628.667 692.566 629.437 693.55 629.437 695.272C629.437 697.485 630.72 696.993 633.03 693.796C635.083 691.337 635.852 688.631 634.826 687.894C633.543 687.156 632.26 685.188 631.746 683.467C630.976 681.008 629.437 681.253 625.331 684.697Z" fill="black"/>
<path d="M1027.18 582.182C1022.82 584.357 1020.64 587.982 1019.68 594.749C1018.71 599.824 1016.77 604.658 1015.32 605.141C1011.44 606.349 1012.17 615.533 1016.29 618.675C1018.95 620.608 1021.37 629.791 1023.55 646.708C1025.49 660.725 1027.67 676.192 1028.63 681.026L1030.09 689.968L1018.95 692.868C1005.39 696.251 1004.42 701.085 1017.01 703.018C1029.36 704.951 1078.51 701.085 1084.8 697.701C1088.19 695.768 1090.13 692.626 1090.13 688.276C1090.13 684.651 1093.28 668.701 1097.15 652.75C1102.24 631.241 1104.9 623.508 1107.8 623.025C1113.37 621.816 1112.89 614.808 1107.08 609.733C1104.41 607.558 1102.24 602.966 1102.24 599.583C1102.24 591.607 1094.49 587.016 1074.15 582.666C1053.57 578.315 1035.17 578.074 1027.18 582.182ZM1047.28 583.149C1045.58 583.632 1042.19 583.632 1040.01 583.149C1037.59 582.424 1039.04 581.941 1042.92 581.941C1047.03 581.941 1048.73 582.424 1047.28 583.149ZM1035.17 587.016C1036.62 590.882 1064.47 595.957 1082.14 595.957C1092.79 595.716 1093.52 595.474 1089.16 592.332C1086.5 590.399 1085.53 588.707 1086.74 588.707C1088.19 588.707 1091.34 590.157 1094 592.091C1098.36 595.474 1098.36 595.716 1091.58 597.408C1080.93 600.066 1045.82 595.957 1027.67 589.916C1023.79 588.466 1026.21 583.874 1030.81 583.874C1032.51 583.874 1034.44 585.324 1035.17 587.016ZM1071.49 585.566C1069.79 586.049 1066.4 586.049 1064.22 585.566C1061.8 584.841 1063.26 584.357 1067.13 584.357C1071.25 584.357 1072.94 584.841 1071.49 585.566ZM1082.14 587.741C1081.41 588.466 1079.23 588.707 1077.54 587.982C1075.6 587.257 1076.33 586.532 1078.99 586.532C1081.66 586.291 1083.11 587.016 1082.14 587.741ZM1105.87 617.708C1103.2 618.916 1097.88 619.641 1093.76 619.641C1086.74 619.4 1086.74 619.4 1094.97 617.708C1106.84 615.291 1111.68 615.291 1105.87 617.708ZM1077.54 626.166C1089.65 626.166 1099.81 626.891 1099.81 627.858C1099.81 628.583 1097.15 640.667 1094 654.442C1090.61 667.976 1087.71 682.476 1087.22 686.584C1086.5 694.559 1081.41 696.734 1063.5 697.218C1048.97 697.459 1034.93 693.351 1033.48 688.276C1030.81 679.334 1024.76 640.183 1024.76 631.483V622.3L1040.01 624.233C1048.24 625.2 1065.19 626.166 1077.54 626.166Z" fill="black"/>
<path d="M1054.86 643.781C1053.88 645.251 1050.93 645.742 1048.23 644.761C1044.06 643.536 1043.81 644.026 1046.02 648.193C1047.5 651.134 1048.72 657.507 1048.97 662.655L1049.21 671.97L1052.9 660.204C1054.86 653.831 1057.31 648.683 1058.3 648.683C1059.52 648.683 1061 653.34 1061.98 658.978C1063.21 666.822 1064.19 668.538 1065.91 665.842C1067.13 663.881 1068.36 659.223 1068.36 655.301C1068.36 651.625 1069.59 648.683 1070.82 648.683C1072.29 648.683 1073.27 653.831 1073.27 660.204C1073.27 668.783 1074.01 670.989 1075.73 668.293C1076.95 666.332 1078.18 659.959 1078.18 654.076C1078.18 642.8 1073.52 638.388 1067.38 643.536C1064.93 645.496 1063.45 645.742 1062.22 643.781C1060.26 640.594 1056.82 640.594 1054.86 643.781Z" fill="black"/>
<path d="M866.964 603.175C853.946 610.431 852.5 612.366 847.92 626.153C844.545 636.311 830.082 692.908 828.635 700.89C828.394 702.341 830.564 703.309 833.698 702.825C837.555 702.341 839.001 703.309 839.001 706.695C839.001 711.048 841.894 711.29 886.971 712.742C946.03 714.435 946.03 714.435 950.128 692.666C953.021 677.671 953.262 677.429 954.708 685.41C956.878 697.746 959.53 701.616 962.422 696.536C965.556 690.731 965.556 638.73 962.181 637.52C960.494 637.037 960.012 632.199 960.735 624.218C962.904 604.384 959.771 602.208 931.085 601.482C918.309 601.24 900.712 600.515 892.034 599.547C878.775 598.338 874.918 598.821 866.964 603.175ZM953.262 605.836C953.985 606.319 950.852 627.846 946.754 653.484C937.834 707.42 940.968 703.792 907.461 700.648C895.649 699.681 877.329 699.439 866.723 700.164C842.135 701.857 843.581 702.099 894.685 703.551C928.192 704.518 937.834 704.034 940.004 701.616C941.45 699.681 945.548 679.364 949.164 656.144C952.539 632.925 955.914 613.575 956.396 613.092C956.878 612.608 957.842 612.85 958.565 613.575C959.53 614.543 958.565 624.701 956.396 636.311C954.226 648.163 950.852 668.48 948.682 681.782C946.512 695.085 944.102 706.453 943.62 707.179C942.897 707.904 933.495 707.904 922.648 707.179C911.8 706.695 889.623 706.211 873.231 706.211C852.982 706.211 843.822 705.485 844.545 703.792C845.268 702.341 847.92 690.248 850.813 676.945C853.705 663.642 857.803 645.26 859.973 636.311C861.901 627.362 863.107 619.38 862.625 618.897C862.142 618.171 859.25 628.329 856.116 641.39C853.223 654.209 849.125 672.108 846.956 681.057C844.786 690.731 842.135 697.504 840.206 697.504C838.037 697.504 840.447 684.685 848.161 653.967C855.634 623.492 859.973 610.431 862.383 610.431C864.071 610.431 866.24 608.738 867.205 606.803C868.41 603.659 874.436 603.175 910.354 603.901C933.254 604.384 952.78 605.11 953.262 605.836ZM961.217 682.266C960.735 687.345 960.253 683.234 960.253 673.317C960.253 663.4 960.735 659.289 961.217 664.126C961.699 669.205 961.699 677.429 961.217 682.266ZM956.396 672.591C955.673 675.01 955.191 673.559 955.191 669.689C955.191 665.577 955.673 663.884 956.396 665.335C956.878 667.028 956.878 670.415 956.396 672.591Z" fill="black"/>
<path d="M913.728 612.456C907.457 616.477 908.422 620.748 914.933 619.24C917.827 618.235 926.509 618.487 934.227 619.743C944.597 621.251 947.973 620.999 947.973 618.487C947.973 612.959 920.48 608.185 913.728 612.456Z" fill="black"/>
<path d="M873.599 634.621C870.476 635.789 868.073 637.19 868.073 637.424C868.073 637.891 876.962 637.891 887.772 637.424C900.024 636.957 913.717 638.125 923.327 640.227C931.975 642.095 939.663 643.03 940.864 641.862C943.987 638.825 910.594 632.285 893.538 632.519C885.61 632.519 876.481 633.453 873.599 634.621Z" fill="black"/>
<path d="M875.413 646.316C860.901 649.76 863.803 651.728 880.976 650.006C893.07 648.776 902.745 649.514 914.355 652.219C944.105 659.353 950.152 656.155 921.369 648.284C904.438 643.856 888.716 643.118 875.413 646.316Z" fill="black"/>
<path d="M873.379 658.435C860.692 661.334 861.171 663.75 874.098 662.059C881.519 661.093 894.685 661.817 908.33 664.233C933.944 668.823 939.45 669.065 936.338 665.924C934.423 663.992 885.349 655.295 882.237 656.261C881.758 656.503 877.688 657.469 873.379 658.435Z" fill="black"/>
<path d="M871.43 670.283C859.89 673.236 864.458 674.958 882.728 674.958C893.786 674.712 910.374 675.696 919.509 676.926C940.424 679.633 938.5 676.188 916.624 672.005C900.277 668.806 880.565 668.068 871.43 670.283Z" fill="black"/>
<path d="M805.985 621.236C799.277 626.111 793.527 630.498 793.527 631.229C793.527 631.96 794.964 631.717 796.641 630.742C798.558 629.523 798.558 630.254 796.162 632.935C792.808 637.322 789.933 638.785 792.089 634.885C794.006 631.717 774.84 629.279 769.569 632.204C757.83 638.541 751.362 657.551 758.789 663.888C761.424 666.082 761.663 667.788 759.986 669.981C754.955 676.318 764.299 677.78 779.871 673.393C785.86 671.687 788.735 669.494 788.735 666.569C788.735 664.132 790.412 660.72 792.329 659.014C794.246 657.308 795.923 653.652 795.923 650.727C795.923 647.559 801.672 639.759 810.297 630.985C818.203 622.943 824.672 615.631 824.672 614.656C824.672 610.756 818.203 612.95 805.985 621.236ZM811.495 627.33C810.776 628.548 806.703 631.96 802.391 634.641L794.725 640.003L803.11 632.448C811.495 624.649 814.13 623.186 811.495 627.33ZM790.173 643.172C792.089 646.34 793.287 650.24 792.329 651.702C789.933 655.602 784.183 648.29 784.663 642.197C785.142 635.616 785.381 635.86 790.173 643.172ZM769.569 657.064C771.965 660.232 773.403 663.401 772.684 664.376C770.767 667.788 762.382 661.451 762.382 656.576C762.382 650.24 764.299 650.483 769.569 657.064Z" fill="black"/>
<path d="M842.843 -134.564C805.994 -128.233 787.337 -111.819 774.743 -75.7085C767.979 -56.4808 767.746 -54.3705 769.845 -38.66C774.043 -8.88055 787.103 12.4575 806.694 21.1334C821.62 27.699 851.939 33.0921 864.999 31.4507C891.82 27.9335 915.142 11.2851 925.404 -11.9288C943.362 -52.0256 939.863 -84.6189 914.675 -110.178C909.078 -115.805 901.848 -121.667 898.35 -123.543C892.286 -126.592 853.805 -136.674 850.306 -135.971C849.373 -135.737 846.108 -135.033 842.843 -134.564ZM875.261 -127.764C895.318 -123.309 910.011 -113.929 919.573 -100.095C935.199 -77.3499 937.531 -58.1222 927.969 -27.1703C920.739 -3.48741 909.544 10.3472 889.021 20.6645C876.66 26.9955 872.229 27.9335 855.904 27.9335C834.681 27.9335 812.291 22.0714 798.764 13.161C781.973 1.90573 767.746 -37.4876 772.644 -59.2947C778.474 -84.619 792.701 -109.709 807.16 -119.088C816.956 -125.654 836.313 -131.281 848.207 -131.516C854.271 -131.516 866.632 -129.874 875.261 -127.764Z" fill="black"/>
<path d="M424.911 -129.403C406.953 -122.134 395.992 -112.051 386.896 -93.2926C360.542 -38.4233 382.465 15.2736 437.971 31.453C454.763 36.3771 465.958 34.9702 486.015 25.3564C508.404 14.8046 519.599 4.48728 528.461 -13.8025C535.458 -27.8715 536.158 -31.6233 536.158 -49.4441C536.158 -67.7338 535.458 -70.5477 527.995 -84.6167C517.733 -103.844 501.174 -120.727 485.549 -127.996C469.69 -135.5 441.703 -135.969 424.911 -129.403ZM488.114 -123.307C503.273 -114.865 517.733 -99.1547 526.829 -80.865C540.589 -53.1958 533.592 -14.5059 511.203 5.89419C496.277 19.2598 471.322 30.2805 455.463 30.2805C428.176 30.2805 399.024 11.9908 386.43 -12.8646C373.602 -38.1888 378.034 -80.396 396.225 -104.313C403.921 -114.631 424.211 -128.231 434.473 -130.107C437.738 -130.576 448.466 -130.81 458.028 -130.576C472.488 -130.107 478.085 -128.7 488.114 -123.307Z" fill="black"/>
<path d="M997.29 8.6867C972.102 13.8454 968.37 15.4867 956.243 27.9144C938.285 45.9697 930.355 64.4939 929.189 91.4596C927.323 128.274 939.218 150.315 966.738 160.632C986.795 168.136 1024.81 171.888 1039.04 167.901C1065.86 160.398 1093.38 121.708 1095.94 88.6458C1099.21 42.6869 1070.05 8.6867 1025.74 7.04531C1016.65 6.81082 1003.82 7.51428 997.29 8.6867ZM1045.33 13.1419C1064.92 19.004 1075.89 28.6179 1084.51 46.6731C1096.41 71.5285 1096.18 95.2114 1083.58 121.943C1075.42 139.06 1056.06 158.757 1041.6 164.384C1031.34 168.136 1028.07 168.37 1007.78 166.026C964.639 160.867 946.448 151.722 937.352 130.618C928.256 109.046 929.656 75.9837 940.617 53.2387C948.08 37.5283 967.204 18.7695 978.632 15.9557C1010.35 7.74876 1026.21 7.04531 1045.33 13.1419Z" fill="black"/>
<path d="M1022.01 41.7504C1019.21 44.5642 1016.41 49.4884 1015.71 52.3022C1014.08 58.8678 1010.82 59.3367 1009.18 53.4746C1006.62 45.2677 996.822 38.2332 990.525 39.8745C980.03 42.4539 964.871 84.4265 972.567 89.3507C976.532 91.6956 977.232 90.5231 979.564 77.1575C982.596 61.2126 989.126 48.0815 993.557 48.7849C1001.02 50.1919 1004.05 62.385 1008.48 107.406C1009.42 117.723 1009.18 118.661 1004.52 118.661C996.822 118.661 983.529 122.882 978.631 126.868C974.2 130.385 974.899 130.62 987.96 128.979C995.656 128.041 1014.08 127.572 1028.77 127.572L1055.59 127.806L1050 123.351C1045.8 119.834 1041.13 118.661 1029.94 118.661H1015.25L1016.18 109.751C1016.65 105.061 1017.35 93.1025 1018.05 83.4886C1019.21 64.4954 1026.44 43.6263 1032.04 43.6263C1035.54 43.6263 1039.97 53.7091 1045.1 72.2334C1046.96 79.5024 1049.3 83.4886 1051.63 83.4886C1056.53 83.4886 1053.73 62.385 1046.96 48.5505C1042.53 39.6401 1040.43 37.5297 1034.14 37.0607C1029.01 36.5918 1025.51 37.7642 1022.01 41.7504Z" fill="black"/>
<path d="M305.86 19.2883C255.951 42.7367 240.558 116.834 277.174 158.572C280.906 163.027 290.701 169.593 298.63 173.11C313.09 179.676 313.323 179.676 339.444 177.331C370.696 174.282 386.555 167.717 399.615 152.475C411.743 138.406 421.771 116.365 423.404 100.889C424.57 89.1646 423.87 85.8818 417.34 72.5162C408.478 54.2265 386.555 33.1229 366.498 23.0401C348.307 14.1296 320.553 12.2538 305.86 19.2883ZM352.971 20.4607C375.593 27.4953 404.28 51.4127 414.775 72.7507C425.969 95.2612 418.973 125.744 396.583 151.068C383.523 165.841 368.597 171.938 339.911 174.517C312.157 176.862 299.097 173.813 284.637 161.151C269.011 147.786 262.481 132.779 261.315 107.22C259.916 77.9094 265.746 59.8541 282.538 41.3298C302.828 19.0538 325.684 12.2538 352.971 20.4607Z" fill="black"/>
<path d="M296.996 62.902C295.83 63.371 291.865 64.3089 288.367 65.0124C284.636 65.9503 281.837 67.8262 281.837 69.4676C281.837 71.8124 290.233 72.5159 317.52 72.2814C336.877 72.2814 361.832 72.7503 372.793 73.4538C389.352 74.3917 392.617 74.1572 392.617 71.109C392.617 68.2951 387.253 66.8882 369.295 64.7779C347.605 62.433 302.36 61.0261 296.996 62.902Z" fill="black"/>
<path d="M286.968 91.2744C283.703 92.2124 281.837 94.0883 282.303 96.4331C282.77 99.4814 285.568 99.9504 298.162 99.2469C320.318 97.84 326.149 98.0745 364.164 100.185C398.447 102.061 405.211 100.654 393.55 94.3227C388.419 91.5089 297.463 88.9296 286.968 91.2744Z" fill="black"/>
<path d="M300.495 121.992C290.467 122.93 283.237 126.447 285.103 129.495C285.569 130.199 310.524 130.902 340.376 130.902C379.557 130.902 394.717 130.199 395.416 128.089C395.883 126.682 394.483 124.806 392.151 124.337C386.088 122.461 313.089 120.585 300.495 121.992Z" fill="black"/>
<path d="M1053.91 180.115C1033.85 185.274 1016.59 199.812 1008.66 217.867C1002.6 231.936 998.168 262.888 1000.03 278.833C1003.77 310.254 1026.62 333.233 1060.9 339.564C1080.49 343.316 1089.82 342.847 1106.85 337.454C1128.54 330.654 1141.13 318.93 1150.93 295.716C1157.69 280.474 1158.86 274.847 1158.86 258.902C1158.86 242.253 1157.92 238.267 1151.16 224.432C1142.07 205.674 1129.7 194.653 1108.48 185.743C1092.62 179.411 1066.97 176.598 1053.91 180.115ZM1094.95 184.101C1130.64 194.887 1149.06 213.881 1155.83 246.943C1158.62 261.715 1155.83 278.364 1146.96 297.592C1136.23 321.04 1118.74 333.937 1091.22 338.392C1078.63 340.502 1051.58 336.047 1039.21 329.716C1027.09 323.619 1011.69 307.674 1006.8 295.716C999.567 278.833 1003.07 235.688 1013.33 215.288C1027.32 187.149 1061.14 174.018 1094.95 184.101Z" fill="black"/>
<path d="M1041.31 207.549C1037.58 210.128 1036.88 212.239 1038.52 213.88C1040.15 215.522 1042.01 215.287 1044.35 213.177C1049.94 208.722 1052.74 219.508 1054.37 251.398C1055.77 277.425 1057.87 285.632 1062.07 278.832C1063 277.191 1064.4 271.094 1065.1 264.998C1066.74 251.398 1075.6 222.556 1078.16 222.556C1081.89 222.556 1082.59 286.101 1079.33 296.184C1075.6 306.736 1075.13 324.791 1078.4 326.902C1079.56 327.605 1081.2 325.26 1082.13 321.743C1082.83 318.226 1084.46 311.191 1085.86 306.032L1087.96 297.122L1093.32 302.046C1100.55 308.846 1107.78 308.143 1115.95 299.936C1122.24 293.839 1122.94 291.729 1122.24 280.708C1121.54 269.687 1120.84 268.046 1115.48 266.17C1110.58 264.529 1107.08 265.232 1099.85 268.984L1090.52 273.908L1089.59 247.177C1089.12 230.763 1087.73 219.273 1086.09 217.632C1080.96 212.473 1071.4 217.397 1066.97 227.48L1062.77 236.86L1061.14 224.901C1060.21 217.866 1057.64 211.066 1055.07 208.487C1049.48 202.859 1048.31 202.859 1041.31 207.549ZM1115.01 282.819C1113.38 292.667 1109.65 297.591 1103.82 297.591C1098.92 297.591 1093.79 289.384 1095.65 284.46C1097.29 280.239 1111.28 271.563 1114.08 273.439C1115.25 274.143 1115.71 278.363 1115.01 282.819Z" fill="black"/>
<path d="M223.641 192.777C202.418 200.046 186.559 212.474 176.997 229.826C170.233 242.019 170 243.66 170 272.971C170 297.123 170.7 304.861 173.965 310.723C180.029 321.978 196.82 336.985 210.814 344.019C221.775 349.413 226.206 350.35 244.631 350.116C263.288 350.116 267.486 349.178 281.013 342.613C301.537 332.764 318.562 315.647 325.092 298.295C329.523 286.805 329.99 281.412 329.29 263.591C327.891 239.674 323.226 227.246 309 212.474C294.773 197.232 281.246 191.839 255.359 190.667C240.666 189.963 229.705 190.901 223.641 192.777ZM281.013 197.232C302.003 204.267 317.862 222.322 323.926 245.302C334.421 285.398 319.028 320.102 282.879 338.861C272.384 344.254 266.554 345.426 247.896 346.364C222.242 347.537 211.513 344.019 193.089 329.012C175.131 314.24 172.332 306.033 173.032 272.033C173.498 247.646 174.431 241.081 178.396 233.343C187.725 215.053 205.216 201.219 226.906 195.122C238.8 191.839 268.419 192.777 281.013 197.232Z" fill="black"/>
<path d="M206.382 231.467C202.417 232.874 203.35 236.156 208.248 237.798C210.813 238.501 213.378 241.315 214.078 243.894C215.011 246.239 216.177 250.46 216.877 253.039C217.81 257.026 217.11 257.729 211.046 257.729C200.784 257.729 200.085 261.715 209.647 264.998C217.81 268.046 218.043 268.281 217.343 280.005C216.643 291.495 216.41 291.729 208.947 292.433C204.283 292.902 201.484 294.309 202.184 295.95C202.65 297.826 213.612 298.998 238.1 299.467L273.083 300.171L275.182 307.44C278.447 318.46 284.278 319.398 282.412 308.612C281.246 301.343 281.712 300.171 285.91 299.467C293.606 298.295 293.373 293.605 285.444 291.026C279.613 288.915 278.447 287.274 278.447 281.177C278.447 275.784 279.846 273.439 284.278 271.798C291.741 268.984 291.507 267.577 284.044 264.764C278.68 262.653 278.214 261.481 278.914 250.226C279.613 238.032 279.846 237.798 287.543 236.625C291.974 235.922 295.939 234.281 296.405 232.639C297.338 230.294 287.076 229.825 253.026 230.294C228.771 230.529 207.548 230.998 206.382 231.467ZM237.167 240.377C245.33 241.784 245.796 242.253 245.796 250.929C245.796 260.074 245.796 260.074 236.701 260.074C226.206 260.074 225.739 259.839 223.64 247.646C221.774 238.032 222.008 238.032 237.167 240.377ZM271.45 250.695V262.419H263.521C256.291 262.419 255.591 261.715 254.192 253.508C251.86 239.205 252.093 238.97 262.122 238.97H271.45V250.695ZM245.33 280.24C246.029 289.619 245.796 289.853 237.4 291.26C232.736 292.198 228.071 292.433 227.372 291.729C226.439 291.26 226.206 286.102 226.672 280.005L227.605 269.219L236.234 269.922C244.397 270.626 244.63 271.095 245.33 280.24ZM271.45 281.646V290.791L262.821 290.088C255.125 289.384 253.959 288.446 253.259 282.819C252.093 272.267 253.726 270.157 263.054 271.329C271.217 272.267 271.45 272.736 271.45 281.646Z" fill="black"/>
<path d="M1196.17 18.4418C1159.32 24.7729 1140.66 41.1867 1128.06 77.2973C1121.3 96.525 1121.07 98.6354 1123.17 114.346C1127.37 144.125 1140.43 165.463 1160.02 174.139C1174.94 180.705 1205.26 186.098 1218.32 184.457C1245.14 180.939 1268.46 164.291 1278.73 141.077C1296.68 100.98 1293.19 68.3869 1268 42.8281C1262.4 37.2005 1255.17 31.3384 1251.67 29.4625C1245.61 26.4142 1207.13 16.3314 1203.63 17.0349C1202.7 17.2694 1199.43 17.9728 1196.17 18.4418ZM1228.58 25.2418C1248.64 29.697 1263.33 39.0764 1272.9 52.911C1288.52 75.6559 1290.85 94.8836 1281.29 125.836C1274.06 149.518 1262.87 163.353 1242.34 173.67C1229.98 180.001 1225.55 180.939 1209.23 180.939C1188 180.939 1165.61 175.077 1152.09 166.167C1135.29 154.912 1121.07 115.518 1125.97 93.7112C1131.8 68.3869 1146.02 43.2971 1160.48 33.9177C1170.28 27.3522 1189.64 21.7246 1201.53 21.4901C1207.59 21.4901 1219.95 23.1315 1228.58 25.2418Z" fill="black"/>
<path d="M1207.83 43.2985C1204.56 44.9399 1199.9 50.3331 1197.56 55.2572L1193.13 64.1676L1190.1 56.8986C1184.27 43.0641 1174.24 45.1744 1167.01 61.3538L1162.58 71.2022L1160.02 62.2918C1157.45 52.4434 1150.69 47.7537 1152.79 57.1331C1153.49 59.9469 1155.12 76.8298 1156.52 94.1816C1158.85 126.54 1162.81 146.003 1167.25 147.41C1168.64 147.878 1169.58 134.982 1169.34 110.127C1169.34 77.7677 1170.04 70.7332 1173.54 64.1676C1175.87 60.1814 1178.44 56.6641 1179.61 56.6641C1182.64 56.6641 1186.84 75.6574 1189.17 101.92C1192.2 132.637 1193.6 140.375 1197.33 143.423C1202.23 147.41 1203.86 142.251 1202 129.823C1198.96 110.361 1200.36 64.4021 1204.09 56.8986C1209.23 47.2848 1214.12 46.3468 1218.79 53.8503C1222.52 59.2435 1222.99 64.8711 1222.29 95.1195C1221.59 137.327 1222.99 141.078 1239.54 141.078C1247.47 141.078 1251.44 139.672 1255.64 135.451C1266.83 124.196 1265.43 105.906 1253.3 105.906C1250.04 105.906 1246.77 107.547 1245.84 109.423C1243.98 114.582 1247.24 117.161 1250.04 112.94C1251.9 109.892 1252.37 109.892 1254.24 112.706C1257.27 117.396 1254 124.899 1246.54 130.292C1241.64 134.044 1239.31 134.513 1236.28 132.403C1232.78 130.292 1232.31 125.602 1232.08 98.6368C1231.85 54.5538 1231.85 54.7883 1224.38 47.0503C1216.69 39.3123 1215.99 39.0778 1207.83 43.2985Z" fill="black"/>
</g>
<path d="M83.124 35.5958C65.166 42.8648 54.2046 52.9477 45.109 71.7064C18.755 126.576 40.6778 180.273 96.1844 196.452C112.976 201.376 124.171 199.969 144.228 190.355C166.617 179.804 177.812 169.486 186.674 151.197C193.671 137.127 194.37 133.376 194.37 115.555C194.37 97.2652 193.671 94.4514 186.208 80.3823C175.946 61.1546 159.387 44.2717 143.761 37.0027C127.902 29.4992 99.9159 29.0303 83.124 35.5958ZM146.327 41.6924C161.486 50.1338 175.946 65.8443 185.042 84.1341C198.802 111.803 191.805 150.493 169.416 170.893C154.49 184.259 129.535 195.28 113.676 195.28C86.3891 195.28 57.2365 176.99 44.6425 152.134C31.8154 126.81 36.2466 84.603 54.4378 60.6856C62.1341 50.3683 82.4243 36.7682 92.6861 34.8924C95.9511 34.4234 106.679 34.1889 116.241 34.4234C130.701 34.8924 136.298 36.2993 146.327 41.6924Z" fill="black"/>
<path d="M133.266 68.6574C123.004 73.3471 120.672 75.692 111.809 91.8714L105.279 104.065L102.014 96.561C95.7171 80.8506 74.494 62.7953 69.1299 68.1885C67.7306 69.5954 70.9957 74.5195 78.4588 82.023C90.5863 94.2162 92.9185 100.547 98.749 137.361C99.6819 143.927 101.314 146.037 103.88 145.568C106.445 145.099 109.244 138.299 112.742 123.292C115.541 111.334 120.439 96.561 123.704 90.4645C129.068 79.9127 139.796 70.5333 143.061 73.8161C143.994 74.5195 142.828 80.8506 140.962 87.6506C135.131 107.113 136.064 123.058 143.294 131.968C148.425 138.065 150.991 139.237 157.987 138.534C163.351 138.065 166.616 136.423 167.083 134.079C167.549 131.03 166.383 130.561 161.952 131.265C147.959 134.079 142.361 114.147 150.291 87.6506C156.121 67.485 150.291 60.9194 133.266 68.6574Z" fill="black"/>
<path d="M128.926 369.554C107.936 374.947 90.2116 388.079 82.0489 404.492C65.9566 436.851 64.7905 464.286 78.3173 493.362C94.876 529.473 127.993 544.011 167.175 532.286C197.26 523.376 213.119 509.776 226.179 482.341C232.71 468.272 233.409 464.755 233.409 443.417C233.409 421.844 232.943 419.03 226.413 407.306C213.819 384.092 187.232 369.554 155.28 368.147C145.718 367.678 133.824 368.382 128.926 369.554ZM183.966 375.885C197.493 381.278 212.419 391.596 219.183 400.741C225.713 409.182 232.243 431.458 232.243 444.589C232.243 468.038 214.985 503.914 197.727 515.638C183.034 525.955 163.21 532.052 142.453 532.286C110.269 532.755 92.5438 520.562 77.8509 487.5C70.3878 470.851 70.3878 439.196 78.0841 419.499C87.8794 393.237 107.47 376.589 133.591 371.899C148.284 369.32 171.839 371.196 183.966 375.885Z" fill="black"/>
<path d="M176.505 393.705C175.106 395.581 172.54 400.74 170.441 405.429C167.176 413.167 166.01 414.105 158.081 414.105C153.416 414.105 145.487 415.278 140.356 416.216C131.96 418.326 130.794 417.857 123.797 410.353C110.504 396.284 94.6445 401.678 94.6445 420.202C94.6445 432.395 96.7435 435.209 105.606 435.209C110.037 435.209 115.401 434.271 117.733 432.864C121.698 430.754 122.165 432.395 123.098 458.188C124.264 485.623 127.529 498.52 133.592 498.52C137.324 498.52 137.324 497.347 134.059 491.016C131.727 486.795 130.561 428.878 132.66 426.533C133.126 426.298 139.889 425.126 147.586 424.423L161.812 422.781L160.646 439.195C159.713 451.857 160.413 457.485 163.445 464.519C167.876 473.43 178.837 482.106 186.3 482.106C193.763 482.106 203.326 475.54 207.757 467.333C211.488 460.299 211.722 457.719 209.389 449.981C205.658 437.788 194.463 424.657 183.269 419.733L174.173 415.747L178.837 403.788C181.17 397.222 183.269 391.595 183.269 391.126C183.269 389.484 178.837 391.126 176.505 393.705ZM116.101 413.402C122.165 419.029 121.232 422.781 113.069 425.595C103.973 428.643 101.641 427.471 101.641 419.029C101.641 408.478 107.938 406.133 116.101 413.402ZM195.629 437.554C207.757 450.919 201.693 472.726 185.601 472.726C175.339 472.726 169.275 462.643 169.275 445.057C169.275 424.188 170.208 422.781 180.47 427.002C185.368 429.112 191.898 433.802 195.629 437.554Z" fill="black"/>
<defs>
<clipPath id="clip0_285_113">
<rect width="1312" height="736" fill="white"/>
</clipPath>
</defs>
</svg>
