<svg width="290" height="290" viewBox="0 0 290 290" fill="none" xmlns="http://www.w3.org/2000/svg">
<rect width="290" height="290" rx="145" fill="#0E1116"/>
<path d="M98.054 47.9806C97.3625 48.2572 92.5219 48.8104 87.4046 49.3636L78 50.3318V116.579V182.826H82.564C84.9152 182.826 95.0113 181.858 104.831 180.752C125.715 178.262 133.875 174.667 140.237 165.539C145.354 158.07 147.152 151.155 147.152 138.569C147.152 125.707 143.971 118.1 136.502 112.707L131.109 108.834L135.119 105.515C141.62 100.121 144.386 92.5143 144.386 79.3755C144.386 62.7791 139.545 54.6192 126.545 49.2253C122.395 47.5657 102.065 46.5976 98.054 47.9806ZM120.597 64.7153C128.342 70.1092 130.417 85.8758 124.608 94.4506C120.597 100.398 117.002 102.057 105.384 103.164L95.9794 104.132V84.0778V64.0238L100.543 63.4706C110.916 62.2259 117.555 62.6408 120.597 64.7153ZM120.183 119.76C126.821 122.664 129.725 128.888 129.864 140.644C129.864 157.379 123.364 163.879 105.384 165.262L95.9794 165.953V142.58V119.345L103.31 118.792C107.182 118.515 111.608 118.239 112.991 118.1C114.374 117.962 117.555 118.654 120.183 119.76Z" fill="#FF006E"/>
<path fill-rule="evenodd" clip-rule="evenodd" d="M212.342 109.56C196.455 111.672 178.743 124.872 166.359 143.784C160.167 153.24 153.831 167.208 150.855 177.96L150.039 180.936L147.879 181.224C140.967 182.184 131.511 181.176 126.567 178.968C119.751 175.944 116.871 170.472 118.023 162.6C119.319 153.336 125.175 145.224 135.255 138.696C142.311 134.088 149.415 131.112 157.959 129.192C161.607 128.328 162.615 127.944 162.519 127.368C162.279 126.12 159.351 125.736 152.295 125.976C125.271 126.984 104.727 140.328 102.135 158.52C100.599 169.416 107.175 178.728 119.367 182.664C125.991 184.824 128.247 185.112 138.807 185.064H148.791L148.503 187.032C146.247 202.248 147.735 215.352 153.063 226.151C155.175 230.375 156.183 231.815 159.447 235.079C165.831 241.415 172.647 244.247 182.775 244.727C202.646 245.591 219.302 234.023 229.814 211.992C231.302 208.824 233.126 204.504 233.894 202.392C234.614 200.28 234.892 198.065 234.892 198.065C234.892 198.065 232.79 188.568 231.206 193.272C225.35 210.696 214.886 225.719 205.094 230.567C197.847 234.215 188.775 234.215 182.199 230.615C176.727 227.639 171.591 220.007 169.287 211.464C167.799 206.04 167.463 192.216 168.615 185.208C169.047 182.52 169.671 180.072 169.959 179.784C170.295 179.496 171.927 178.872 173.655 178.392C194.151 172.872 212.63 162.552 224.342 150.168C230.582 143.544 233.51 138.216 234.71 131.208C235.814 124.584 233.702 117.576 229.286 113.64C225.254 109.992 219.494 108.6 212.342 109.56ZM225.302 117.864C224.15 116.664 222.518 115.656 221.414 115.32C215.702 113.736 208.07 116.328 200.486 122.376C190.743 130.2 180.183 146.568 174.615 162.552C172.599 168.456 170.727 174.792 171.015 174.792C171.495 174.792 180.135 171.624 183.015 170.376C203.75 161.4 221.846 146.28 226.454 134.136C229.142 126.936 228.758 121.32 225.302 117.864Z" fill="white"/>
<path fill-rule="evenodd" clip-rule="evenodd" d="M144.264 122H123.822C127.902 125.467 129.754 131.313 129.864 140.644C129.864 143.358 129.693 145.803 129.33 148H146.689C147.009 145.214 147.152 142.117 147.152 138.569C147.152 131.703 146.245 126.334 144.264 122Z" fill="#FF006E"/>
</svg>
