<svg width="1312" height="736" viewBox="0 0 1312 736" fill="none" xmlns="http://www.w3.org/2000/svg">
<path d="M831.36 1.44C828.8 1.92 826.4 3.36 825.92 4.64C825.28 6.4 826.72 6.56 832.32 5.76C841.44 4.32 847.04 6.56 849.44 12.32C851.84 18.08 849.76 24.48 844.48 27.68C842.4 28.96 830.72 31.36 818.4 32.8C806.08 34.4 795.36 36.16 794.56 36.96C791.36 39.84 798.72 40 821.28 37.12C843.04 34.24 845.28 33.6 849.76 29.44C853.6 25.76 854.4 23.68 854.4 17.6C854.4 11.52 853.6 9.44 850.08 6.08C845.12 1.44 838.4 -0.160004 831.36 1.44Z" fill="#0E1116"/>
<path d="M791.52 6.39994C778.56 8.15994 767.84 10.3999 765.6 11.8399C757.92 16.7999 758.56 27.9999 766.72 34.0799L771.2 37.4399L798.4 33.5999C819.68 30.7199 825.6 29.4399 825.6 27.5199C825.6 25.7599 824.16 25.4399 819.68 26.0799C816.32 26.5599 804 28.1599 792.32 29.7599C772 32.3199 771.04 32.3199 768 29.5999C764.32 26.2399 763.84 21.1199 766.88 16.9599C768.64 14.7199 774.4 13.2799 795.04 10.5599C809.28 8.79994 820.96 6.39994 820.96 5.59994C820.96 3.03994 815.36 3.19994 791.52 6.39994Z" fill="#0E1116"/>
<path d="M723.68 37.12C719.52 41.12 716.96 42.24 710.08 42.88C703.04 43.36 700.64 42.88 696 39.68L690.4 35.84L686.72 40.32C679.84 48.48 665.6 49.76 656.8 42.88L652.64 39.68L648.8 43.84C640.8 52.48 627.36 53.92 619.2 46.88L614.08 42.72L610.72 46.72C605.76 52.64 601.44 54.4 592.32 54.4C586.24 54.4 583.52 53.6 580.32 50.56L576.16 46.72L572.48 50.72C564.32 59.68 552.64 61.44 543.2 55.04L537.12 51.04L533.76 54.88C531.84 57.12 528.8 59.68 526.88 60.64C522.4 62.88 511.2 62.88 506.88 60.64C502.24 58.08 500.96 60.64 505.44 64.16C510.72 68.48 520.96 68.16 530.4 63.2C537.92 59.36 538.56 59.36 545.6 61.76C554.56 64.8 563.84 63.68 571.36 58.56C576.48 55.04 577.12 54.88 581.44 57.12C588 60.48 603.36 59.2 609.28 54.88C613.76 51.68 614.24 51.52 621.28 53.92C630.4 56.96 640.8 55.68 648.32 50.72C653.12 47.36 654.08 47.36 658.24 49.28C665.6 52.96 677.28 52.16 685.12 47.68C691.36 44 692.48 43.84 696.8 45.76C704.48 49.12 713.76 48.48 722.88 43.84C729.76 40.48 731.52 40.16 734.56 41.76C738.24 43.68 755.52 44.16 758.4 42.4C762.56 39.84 759.04 38.4 748.32 38.4C738.56 38.4 736 37.92 733.6 35.2C729.92 31.04 729.6 31.04 723.68 37.12Z" fill="#0E1116"/>
<path d="M372.8 39.68C361.6 45.6 352 67.68 345.6 102.56C343.84 112.64 341.92 122.24 341.6 124.16C340.8 128.16 335.52 130.72 325.28 132.16C314.4 133.6 305.28 130.72 299.36 124C294.88 118.88 294.4 117.12 294.4 108.32C294.4 90.56 305.28 74.88 324.8 64.16C331.36 60.64 332.8 59.2 330.88 58.4C326.4 56.64 311.68 61.92 302.4 68.32C285.28 80.32 274.24 104.32 278.4 120C280.8 128.96 288.64 136.8 297.76 139.2C305.6 141.44 324 140.48 332.48 137.44C335.36 136.48 338.24 136 338.72 136.48C339.68 137.44 332.32 172.96 329.92 179.36C328.48 183.04 326.88 183.84 320.16 184.8C296.96 188 280.96 204.48 291.52 214.4C300 222.24 321.28 215.68 335.2 200.8L343.36 192.16L367.2 198.56C398.08 206.88 412.32 209.6 424.48 209.6C441.76 209.44 454.4 200.96 454.4 189.28C454.4 182.24 451.68 181.44 443.2 185.76C437.28 188.8 433.76 189.44 418.56 189.44C403.68 189.44 355.68 185.12 349.28 183.2C347.84 182.72 348 180.8 350.24 175.52C354.24 166.24 359.84 143.84 361.12 132.32C362.08 123.36 362.4 122.72 370.24 116.96C389.44 102.72 401.28 83.84 402.72 64.96C404.64 42.24 390.56 30.4 372.8 39.68ZM385.12 52.32C388.96 61.6 387.36 80 381.76 91.2C377.76 99.04 367.2 112 364.8 112C363.68 112 367.2 75.36 369.6 62.56C372.64 46.08 380.32 40.96 385.12 52.32ZM322.08 196.96C316 207.36 302.24 211.84 301.12 203.84C300.32 198.72 311.2 192.48 321.28 192.16C324.96 192 324.96 192 322.08 196.96Z" fill="#0E1116"/>
<path d="M963.52 71.2C945.44 73.6 935.84 77.6 927.04 86.08C914.24 98.4 911.36 114.4 912.32 164.8C912.8 192.96 913.28 196.64 916.32 202.56C921.12 211.68 928.16 217.12 938.88 220.16C947.36 222.72 949.76 222.72 972.8 220.16C1007.04 216.48 1016 211.84 1026.08 192.96C1029.44 186.72 1029.6 184.16 1030.08 143.36C1030.56 106.24 1030.24 99.2 1028 93.28C1019.68 71.68 1002.88 65.92 963.52 71.2ZM1001.44 90.56C1003.52 92 1006.56 96.16 1008.16 99.84C1010.72 105.6 1011.2 110.72 1011.2 142.4C1011.2 176.64 1011.04 178.88 1007.68 185.6C1002.24 196.16 995.36 199.04 969.44 201.6C949.44 203.68 948 203.68 942.56 200.64C933.28 195.68 932.8 193.6 932.8 152.32C932.8 112.48 933.6 107.68 941.28 99.52C946.72 93.6 952.64 91.2 965.28 89.76C985.28 87.36 997.28 87.68 1001.44 90.56Z" fill="#0E1116"/>
<path d="M224 85.92C224.16 93.12 230.24 109.12 233.44 110.08C236.48 111.04 234.56 96.16 230.4 86.72C226.72 78.4 224 78.08 224 85.92Z" fill="#0E1116"/>
<path d="M833.6 84C824.32 85.12 816.64 86.08 816.48 86.24C816.16 86.4 816 120.48 816 162.08V237.76L822.08 237.28C836.48 235.84 835.2 238.88 835.2 205.12C835.2 188.64 835.84 174.08 836.8 172.8C838.88 169.44 860.16 167.68 866.72 170.4C875.36 174.08 876.8 179.2 876.8 206.4V230.4H881.28C883.68 230.4 888.32 229.92 891.68 229.44L897.6 228.32V206.08C897.6 179.2 895.84 171.2 888.8 164.96C885.92 162.4 882.72 160.16 881.6 159.68C880.64 159.36 882.88 155.84 886.72 151.84C894.88 143.52 897.6 135.68 897.6 121.44C897.6 106.56 895.04 99.36 887.36 92C876.32 81.28 867.2 80 833.6 84ZM866.4 101.44C873.6 104.48 876.64 109.6 877.76 120.96C878.56 128.8 878.08 131.52 874.88 137.6C870.08 146.88 863.68 149.92 848 150.72L836 151.2L836.16 127.68C836.16 114.72 836.8 103.52 837.44 102.88C838.4 101.76 848.32 100.16 858.08 99.36C859.68 99.36 863.36 100.16 866.4 101.44Z" fill="#0E1116"/>
<path d="M1135.36 88.32C1133.28 90.4 1121.6 106.72 1109.6 124.8C1088.8 156 1087.68 157.92 1088.48 164C1089.76 172.48 1095.52 177.6 1104.16 177.6C1107.68 177.6 1112 176.8 1113.76 176C1116.48 174.4 1137.28 144.64 1154.88 117.12C1163.36 103.68 1163.84 96.48 1156.96 89.44C1150.88 83.52 1141.44 83.04 1135.36 88.32ZM1154.4 92C1161.44 98.88 1160.16 102.4 1136.8 137.6C1124.8 155.68 1113.92 171.36 1112.48 172.32C1105.12 177.92 1091.2 171.52 1091.2 162.56C1091.2 160 1097.6 148.96 1108.48 133.28C1117.92 119.36 1128.16 104.16 1131.04 99.52C1133.92 94.88 1137.6 90.4 1139.04 89.6C1143.68 86.88 1150.4 87.84 1154.4 92Z" fill="#0E1116"/>
<path d="M1120.48 121.28C1105.28 144 1104.8 145.12 1107.84 149.6C1109.76 152.64 1111.84 153.6 1115.84 153.6C1121.76 153.6 1125.76 149.6 1134.88 134.88C1142.4 123.04 1136.48 125.92 1127.84 138.4C1119.2 150.88 1114.88 153.28 1110.4 148C1108.64 145.92 1110.24 142.88 1119.84 128.8C1126.08 119.52 1131.2 111.36 1131.2 110.4C1131.2 106.72 1128.32 109.6 1120.48 121.28Z" fill="#0E1116"/>
<path d="M769.6 90.5601C758.56 91.6801 744.64 93.2801 738.4 93.9201L727.36 95.2001V104C727.36 114.08 726.24 113.6 746.08 111.52L756.8 110.24V177.6V244.8L764.48 243.84C768.64 243.36 772.96 242.72 774.08 242.24C775.52 241.76 776 226.88 776 174.56V107.52L788.8 106.4L801.6 105.28V96.6401V88.0001L795.68 88.1601C792.32 88.3201 780.64 89.2801 769.6 90.5601Z" fill="#0E1116"/>
<path d="M426.56 97.6C409.6 102.72 395.84 123.36 394.08 146.4C392.96 161.76 394.4 168.48 400.16 175.2C409.92 186.24 428.32 186.24 441.28 175.04C448.16 169.28 458.72 150.24 456.8 147.2C454.88 144 452.96 145.76 447.84 155.36C441.28 167.68 436.8 171.2 427.84 171.2C418.88 171.2 414.08 165.6 414.72 156.32C415.2 150.4 415.52 150.08 423.52 147.36C441.92 141.12 451.04 130.56 451.2 115.52C451.2 100 441.76 93.12 426.56 97.6ZM437.6 115.36C437.6 122.72 436.8 125.44 432.96 130.24C428.32 136.32 420.16 142.4 416.48 142.4C413.6 142.4 413.92 137.92 417.6 125.92C421.76 112.64 427.52 105.28 433.44 105.92C437.44 106.4 437.6 106.88 437.6 115.36Z" fill="#0E1116"/>
<path d="M201.6 100.16C201.6 103.36 211.2 112.64 217.92 116.16C227.04 120.8 226.4 117.12 216.48 107.36C206.56 97.6 201.6 95.2 201.6 100.16Z" fill="#0E1116"/>
<path d="M671.52 99.84C653.44 104.8 641.6 119.84 641.6 137.6C641.6 155.04 647.36 163.68 668.48 178.72C694.72 197.28 700.8 204 700.8 214.72C700.8 229.92 682.72 240 668.64 232.8C662.88 229.76 660.8 224.8 660.8 214.56V206.88L653.28 208.16C648.96 208.8 644.64 209.44 643.36 209.44C641.76 209.6 641.44 212.32 641.92 221.28C642.72 239.68 650.88 248.8 670.08 252.96C686.08 256.32 705.76 248.64 714.4 235.52C720.96 225.6 722.72 213.92 719.36 202.4C716.96 194.56 714.88 191.2 707.52 184C702.56 179.2 691.84 170.72 683.68 165.12C675.68 159.68 667.36 152.96 665.6 150.24C654.56 134.88 665.92 115.36 684.8 117.28C693.92 118.24 698.72 123.52 700.16 134.4C701.28 142.4 701.28 142.4 707.04 142.4C710.24 142.4 714.56 141.92 716.64 141.28C720.16 140.32 720.32 139.84 719.52 131.2C718.08 114.24 708.64 102.88 692.8 99.36C683.68 97.28 680.96 97.28 671.52 99.84Z" fill="#0E1116"/>
<path d="M610.88 106.72L604.8 107.36V184V260.64L614.08 259.68C619.04 259.2 623.36 258.56 623.68 258.4C623.84 258.24 624.16 223.84 624.48 181.92L624.8 105.6L620.8 105.92C618.56 106.08 614.08 106.4 610.88 106.72Z" fill="#0E1116"/>
<path d="M532 114.4C531.2 114.72 525.6 115.36 519.68 116L508.8 117.12V193.76V270.4H514.08C516.8 270.4 528.48 269.28 539.84 268C564 265.12 573.44 260.96 580.8 250.4C586.72 241.76 588.8 233.76 588.8 219.2C588.8 204.32 585.12 195.52 576.48 189.28L570.24 184.8L574.88 180.96C582.4 174.72 585.6 165.92 585.6 150.72C585.6 131.52 580 122.08 564.96 115.84C560.16 113.92 536.64 112.8 532 114.4ZM558.08 133.76C567.04 140 569.44 158.24 562.72 168.16C558.08 175.04 553.92 176.96 540.48 178.24L529.6 179.36V156.16V132.96L534.88 132.32C546.88 130.88 554.56 131.36 558.08 133.76ZM557.6 197.44C565.28 200.8 568.64 208 568.8 221.6C568.8 240.96 561.28 248.48 540.48 250.08L529.6 250.88V223.84V196.96L538.08 196.32C542.56 196 547.68 195.68 549.28 195.52C550.88 195.36 554.56 196.16 557.6 197.44Z" fill="#0E1116"/>
<path d="M120.64 116.64C121.28 117.44 126.56 121.6 132.48 125.76C138.4 129.92 145.6 135.52 148.64 138.08C152.64 141.44 154.4 142.24 155.84 140.8C157.12 139.52 155.84 137.44 150.56 133.12C137.92 122.4 117.12 110.88 120.64 116.64Z" fill="#0E1116"/>
<path d="M240 135.52C244.16 149.44 252.8 163.2 257.6 163.2C260.64 163.2 259.2 159.68 250.24 145.44C241.12 131.04 237.6 127.68 240 135.52Z" fill="#0E1116"/>
<path d="M1194.08 136.32C1178.08 149.76 1166.4 160.8 1166.4 162.24C1166.4 163.2 1157.6 172.32 1146.88 182.72C1136 192.96 1127.68 201.92 1128.48 202.56C1130.56 204.8 1139.68 199.04 1153.92 186.56C1161.44 179.84 1168.48 174.4 1169.6 174.4C1172 174.4 1209.12 142.88 1210.24 139.84C1211.68 136 1208.32 131.2 1204.16 131.2C1202.08 131.2 1197.44 133.6 1194.08 136.32ZM1207.2 137.92C1207.2 139.36 1198.88 147.52 1188.8 156.16C1178.72 164.8 1171.84 170.08 1173.6 168.16C1175.36 166.08 1183.52 158.72 1191.68 151.68C1199.68 144.64 1206.4 138.24 1206.4 137.44C1206.4 136.64 1205.12 136 1203.52 136C1200.96 136 1193.44 142.08 1175.68 158.24C1173.12 160.32 1171.2 161.76 1171.2 161.12C1171.2 160.64 1177.76 154.4 1185.92 147.2C1195.84 138.4 1201.6 134.4 1203.84 134.72C1205.76 135.04 1207.2 136.32 1207.2 137.92Z" fill="#0E1116"/>
<path d="M167.36 153.44C166.88 154.24 181.28 168.8 199.52 185.76C239.36 223.2 233.6 217.92 247.68 230.24C254.08 235.84 258.88 240.8 258.56 241.12C258.08 241.6 250.56 238.24 241.6 233.6C232.64 229.12 211.84 219.04 195.52 211.36C179.04 203.52 156.64 192.8 145.76 187.36C127.04 178.4 123.2 177.28 123.2 180.96C123.2 181.76 134.24 187.84 147.68 194.24C160.96 200.8 183.52 211.52 197.6 218.4C219.04 228.8 266.24 249.6 268.16 249.6C273.28 249.6 250.72 226.24 200 179.36C183.84 164.32 170.08 152 169.44 152C168.64 152 167.84 152.64 167.36 153.44Z" fill="#0E1116"/>
<path d="M156.16 166.08C154.88 168.16 160.64 172.96 193.28 197.6C212.48 212.16 223.04 219.2 224 218.24C225.12 217.12 224.48 215.52 222.08 213.28C216.96 208.8 158.72 164.8 157.76 164.8C157.28 164.8 156.64 165.44 156.16 166.08Z" fill="#0E1116"/>
<path d="M1207.2 208.96C1189.28 212.48 1188.8 212.64 1188.8 216C1188.8 217.76 1188.16 219.2 1187.2 219.2C1183.68 219.2 1152.48 222.56 1148.96 223.36C1143.04 224.64 1147.84 227.2 1156.16 227.2C1161.92 227.2 1213.76 219.04 1223.68 216.48C1227.84 215.52 1228.48 218.4 1224.48 220.64C1222.88 221.44 1213.92 223.04 1204.48 224.16C1183.04 226.72 1181.28 229.76 1202.08 228.32C1219.36 227.04 1226.88 225.28 1232.64 220.64C1237.6 216.64 1237.92 213.92 1233.6 209.6C1229.92 205.92 1223.84 205.76 1207.2 208.96ZM1231.04 212.16C1232.48 213.44 1233.12 215.36 1232.64 216.16C1232.16 217.12 1230.88 216.64 1229.76 215.04C1227.84 212.64 1226.72 212.64 1212.48 215.04C1196.32 217.76 1189.12 218.24 1190.88 216.64C1192 215.52 1219.04 210.08 1225.12 209.76C1227.04 209.76 1229.76 210.72 1231.04 212.16Z" fill="#0E1116"/>
<path d="M104.8 212.64C103.2 215.2 106.72 216.16 134.88 220.96C164.64 225.92 169.6 226.4 169.6 224.16C169.6 221.44 167.36 220.96 137.12 216C103.04 210.4 106.08 210.72 104.8 212.64Z" fill="#0E1116"/>
<path d="M381.76 230.56C328.8 237.6 269.76 281.6 228.48 344.64C207.84 376.16 186.72 422.72 176.8 458.56L174.08 468.48L166.88 469.44C143.84 472.64 112.32 469.28 95.8398 461.92C73.1198 451.84 63.5198 433.6 67.3598 407.36C71.6798 376.48 91.1998 349.44 124.8 327.68C148.32 312.32 172 302.4 200.48 296C212.64 293.12 216 291.84 215.68 289.92C214.88 285.76 205.12 284.48 181.6 285.28C91.5198 288.64 23.0398 333.12 14.3998 393.76C9.27985 430.08 31.1998 461.12 71.8398 474.24C93.9198 481.44 101.44 482.4 136.64 482.24H169.92L168.96 488.8C161.44 539.52 166.4 583.2 184.16 619.2C191.2 633.28 194.56 638.08 205.44 648.96C226.72 670.08 249.44 679.52 283.2 681.12C349.44 684 404.96 645.44 440 572C444.96 561.44 451.04 547.04 453.6 540C456 532.96 458.24 527.04 458.4 526.72C458.72 526.4 462.56 530.08 467.04 534.88C478.56 547.04 490.72 552.32 508.96 553.28C550.4 555.36 582.08 528.8 604.48 473.44C605.76 470.08 607.52 469.12 612.8 468.32C622.24 467.04 638.08 458.88 645.12 451.68C655.04 441.44 664.32 419.2 676.8 376.32L680.16 364.64L687.36 365.44C691.2 366.08 697.76 366.88 702.08 367.36C716.8 369.28 716.96 372.32 703.36 401.28C685.28 440 679.68 467.36 685.28 489.28C691.36 512.64 711.2 522.88 737.44 516.16C749.76 512.96 756.48 509.12 767.68 498.56C772.16 494.24 776 491.04 776 491.36C776 491.68 774.24 497.76 772 504.64C767.2 520 764.64 529.12 763.84 534.4C763.52 536.64 757.6 559.84 750.4 586.08C743.36 612.32 737.6 635.52 737.6 637.76C737.6 642.88 740.16 642.72 751.2 636.8C756.16 634.08 769.6 628.96 780.96 625.44L801.6 618.88V611.2C801.6 595.52 808.96 560.8 834.4 455.84C856.32 365.44 865.44 338.72 881.44 318.72C889.76 308.32 896.48 304 904.48 304C917.76 304 921.12 313.76 919.36 347.2C918.24 370.24 914.24 392.32 907.04 415.52L901.92 431.84L895.36 432.8C869.6 436.96 849.92 447.68 843.36 461.28C834.24 480 845.12 494.56 868 494.72C885.6 494.88 903.04 487.68 918.72 473.6C925.6 467.68 945.6 440.16 945.6 436.8C945.6 436 949.76 434.24 954.88 432.8C962.4 430.56 970.56 426.88 992.16 416.32C992.64 416.16 993.92 419.68 995.04 424.32C1000.16 444.8 1011.84 459.36 1028.64 465.92C1042.56 471.36 1064.16 471.04 1080 465.12C1108.32 454.72 1132 428 1145.44 391.04L1149.92 379.04L1162.24 373.6C1185.92 363.36 1205.28 346.24 1218.56 323.84C1234.4 296.8 1243.04 264 1236 256.96C1230.72 251.84 1226.4 257.12 1224.8 270.56C1221.28 299.36 1209.6 321.92 1187.84 342.24C1178.24 351.36 1161.12 361.6 1155.52 361.6C1154.24 361.6 1153.76 360.16 1154.24 357.92C1158.24 338.88 1157.92 310.4 1153.6 293.76C1146.4 265.76 1133.76 254.4 1109.28 254.4C1078.24 254.4 1046.88 271.84 1024.8 301.28C1014.88 314.4 1000.96 343.36 996.8 359.2C995.04 366.24 993.12 377.92 992.48 385.12C991.52 397.76 991.2 398.56 986.24 402.4C976.8 409.6 955.2 418.72 955.2 415.52C955.2 415.2 956.96 410.72 959.04 405.44C972 373.44 974.4 333.76 964.8 308.48C951.36 272.96 913.12 273.28 878.88 309.28C873.28 315.04 868.8 319.2 868.8 318.56C868.8 318.08 871.36 308.96 874.56 298.4C881.28 276.48 882.08 269.92 878.08 269.12C875.52 268.64 833.28 284.48 827.2 288.32C824.8 289.92 824 292.16 824 297.44C824 301.28 817.44 330.56 809.44 362.24C794.88 419.52 794.72 420.16 782.4 445.6C769.76 471.52 761.92 482.88 753.44 487.2C747.36 490.4 743.68 490.24 739.68 486.56C732.8 480 734.08 460.16 743.84 422.4C749.76 399.68 765.28 353.12 771.36 339.36C776.8 327.2 776.96 325.28 772.8 324C769.76 323.04 766.72 324.16 724.8 341.76C709.92 348 704.64 349.44 696.8 349.6H687.2L687.36 344.8C687.52 342.08 689.92 331.2 692.8 320.32C698.56 298.24 698.4 289.28 692.32 283.52C686.72 278.24 681.6 277.92 673.6 281.92C659.52 289.12 648.96 308.96 648.96 328C648.96 340.96 653.28 349.76 662.4 355.84C669.92 360.8 670.08 358.4 660.48 385.28C647.2 423.2 637.76 439.36 625.6 445.6C615.36 450.88 610.4 451.04 612 445.92C612.64 444 613.44 432.64 613.92 420.64C614.88 394.88 612.32 379.36 604.32 364.32C596.16 348.8 584.96 342.4 566.08 342.4C546.72 342.4 528.48 348.96 509.76 362.24C476.16 386.24 451.2 435.52 451.2 478.08C451.2 488.16 449.92 493.92 444.64 509.6C425.12 567.68 390.24 617.76 357.6 633.92C333.44 646.08 303.2 646.08 281.28 634.08C263.04 624.16 245.92 598.72 238.24 570.24C233.28 552.16 232.16 506.08 236 482.72C237.44 473.76 239.52 465.6 240.48 464.64C241.6 463.68 247.04 461.6 252.8 460C321.12 441.6 382.72 407.2 421.76 365.92C442.56 343.84 452.32 326.08 456.32 302.72C460 280.64 452.96 257.28 438.24 244.16C424.8 232 405.6 227.36 381.76 230.56ZM412 249.76C415.68 250.88 421.12 254.24 424.96 258.24C436.48 269.76 437.76 288.48 428.8 312.48C413.44 352.96 353.12 403.36 284 433.28C274.4 437.44 245.6 448 244 448C243.04 448 249.28 426.88 256 407.2C274.56 353.92 309.76 299.36 342.24 273.28C367.52 253.12 392.96 244.48 412 249.76ZM1119.52 270.72C1122.24 272.32 1126.08 276.8 1127.84 280.48C1131.68 288.8 1134.88 308.16 1134.08 320L1133.6 328.8L1127.04 329.76C1117.44 331.52 1106.24 337.28 1100.96 343.36C1088.8 357.12 1095.2 373.44 1114.88 379.36C1118.56 380.48 1121.6 381.44 1121.6 381.6C1121.6 383.52 1115.68 397.76 1111.04 407.04C1099.84 429.76 1084.48 445.28 1071.2 447.36C1061.44 448.8 1056 445.76 1051.2 436C1047.68 428.96 1047.2 425.44 1046.72 406.24C1045.6 368.64 1052.48 336.16 1068.32 304C1084.8 270.56 1101.44 259.84 1119.52 270.72ZM573.92 356.64C584.8 361.76 590.56 376.96 590.88 402.72L591.2 416.64L584.64 417.76C558.88 422.24 545.12 444.64 558.56 460C561.44 463.2 566.72 466.72 571.36 468.32C575.68 469.92 579.2 471.84 579.2 472.8C579.2 476 568.16 497.44 561.76 506.88C550.88 523.04 536.96 532.8 525.12 532.8C509.92 532.8 504.8 520.48 504.96 484C505.28 446.88 513.12 415.04 529.92 384.64C538.88 368 547.04 359.2 556.16 356C564.32 353.12 565.92 353.12 573.92 356.64ZM892.64 451.2C881.6 472.16 867.68 482.24 858.4 476.16C851.68 471.68 854.4 461.44 864.48 453.76C871.04 448.64 886.88 442.72 896.48 441.76C897.28 441.6 895.52 445.92 892.64 451.2Z" fill="#0E1116"/>
<path d="M1067.36 327.36C1067.36 329.12 1067.84 329.6 1068.32 328.32C1068.8 327.2 1068.64 325.76 1068.16 325.28C1067.68 324.64 1067.2 325.6 1067.36 327.36Z" fill="#0E1116"/>
<path d="M1082.72 348.32C1083.2 349.44 1084.16 349.92 1084.96 349.44C1087.2 348.16 1086.72 346.08 1084.16 346.08C1082.88 346.08 1082.24 347.04 1082.72 348.32Z" fill="#0E1116"/>
<path d="M1103.2 385.6C1103.68 386.4 1105.6 388 1107.52 388.96C1110.08 390.24 1110.56 390.24 1110.08 388.64C1109.76 387.68 1107.84 386.08 1105.76 385.44C1103.52 384.48 1102.56 384.64 1103.2 385.6Z" fill="#0E1116"/>
<path d="M104.32 232.32C104.96 233.92 117.28 234.56 157.28 234.88C203.2 235.2 209.6 234.88 209.6 232.8C209.6 230.72 202.88 230.4 156.64 230.4C115.04 230.4 103.84 230.88 104.32 232.32Z" fill="#0E1116"/>
<path d="M1165.12 345.6C1165.12 347.84 1165.44 348.64 1165.92 347.52C1166.24 346.56 1166.24 344.64 1165.92 343.52C1165.44 342.56 1165.12 343.36 1165.12 345.6Z" fill="#0E1116"/>
<path d="M985.92 374.4C985.92 376.64 986.24 377.44 986.72 376.32C987.04 375.36 987.04 373.44 986.72 372.32C986.24 371.36 985.92 372.16 985.92 374.4Z" fill="#0E1116"/>
<path d="M1218.4 390.08C1213.6 399.2 1192.64 432 1174.56 459.04C1165.12 472.96 1161.6 479.68 1162.56 481.12C1164 483.36 1191.2 496.32 1215.68 506.56C1223.04 509.6 1230.88 513.28 1233.12 514.72C1238.08 518.08 1236.8 519.52 1255.36 488.8C1262.88 476.48 1272 461.76 1275.52 456C1279.2 450.24 1286.08 438.56 1290.88 429.92C1298.24 416.64 1299.36 413.76 1297.44 412C1295.04 409.76 1270.72 400.16 1244.8 391.2C1235.52 388 1226.72 384.8 1225.28 383.84C1222.88 382.72 1221.76 383.68 1218.4 390.08ZM1248.32 398.4C1281.44 409.76 1291.84 413.76 1292.32 415.52C1292.64 416.32 1291.04 419.68 1288.8 423.04C1286.56 426.24 1279.36 438.4 1272.48 450.08C1256.8 477.28 1250.88 486.72 1250.24 485.92C1249.44 485.28 1254.4 470.4 1256 468C1258.4 464.64 1267.2 436.48 1266.4 435.04C1263.52 430.4 1260.32 437.6 1244.64 483.52C1240 497.44 1235.52 508.8 1234.88 508.8C1233.6 508.8 1213.28 499.68 1184.48 486.4C1176.32 482.56 1169.6 478.88 1169.6 478.08C1169.6 477.28 1173.76 470.4 1179.04 462.72C1194.88 439.04 1217.12 404 1220.64 396.96C1222.56 393.44 1224.32 390.4 1224.64 390.4C1225.12 390.4 1235.68 393.92 1248.32 398.4Z" fill="#0E1116"/>
<path d="M1220.8 408.64C1220.8 410.24 1224 411.68 1229.76 412.8C1234.88 413.92 1244.64 417.12 1251.52 420.16C1258.56 423.2 1265.28 425.6 1266.72 425.6C1270.72 425.6 1268.16 421.76 1262.24 418.88C1259.2 417.44 1256 415.36 1254.88 414.4C1253.76 413.6 1252.32 412.96 1251.68 413.12C1251.04 413.28 1245.28 411.84 1238.88 409.92C1225.6 405.76 1220.8 405.44 1220.8 408.64Z" fill="#0E1116"/>
<path d="M1212.32 418.24C1211.68 419.84 1213.76 421.28 1218.88 423.04C1223.04 424.32 1232.48 427.84 1240 430.88C1249.44 434.72 1253.92 435.84 1254.72 434.56C1256.48 432 1252.48 429.6 1234.24 422.4C1216.32 415.36 1213.6 414.88 1212.32 418.24Z" fill="#0E1116"/>
<path d="M1206.4 432.64C1206.4 434.08 1208.16 435.52 1210.88 436.16C1217.6 437.6 1228.8 441.76 1237.12 445.76C1246.08 450.24 1250.08 450.72 1249.28 447.04C1248.64 444 1223.04 432.64 1213.28 431.04C1207.52 430.24 1206.4 430.4 1206.4 432.64Z" fill="#0E1116"/>
<path d="M1200 445.44C1200 446.88 1202.56 448 1206.88 448.64C1210.72 449.28 1219.36 452.48 1226.08 456C1239.68 463.04 1241.6 463.52 1241.6 460C1241.6 456.32 1213.76 443.2 1206.08 443.2C1201.92 443.2 1200 443.84 1200 445.44Z" fill="#0E1116"/>
<path d="M1193.6 456.48C1193.6 458.08 1196.16 459.52 1201.6 460.64C1206.08 461.6 1213.92 464.48 1219.2 467.2C1229.28 472.32 1234.24 473.28 1233.28 469.92C1232.16 466.72 1209.44 456 1201.28 454.88C1195.04 454.08 1193.6 454.4 1193.6 456.48Z" fill="#0E1116"/>
<path d="M1185.44 467.36C1184.32 468 1183.84 469.12 1184.48 469.76C1186.24 471.52 1220.64 482.72 1221.6 481.92C1223.68 479.84 1221.6 478.4 1210.88 473.92C1195.68 467.68 1188.16 465.6 1185.44 467.36Z" fill="#0E1116"/>
<path d="M363.2 495.52C354.72 501.44 280.8 560.32 279.36 562.24C278.4 563.68 284 570.08 298.56 584.16C309.92 595.04 325.44 610.08 333.28 617.44C343.84 627.84 347.68 630.56 349.12 629.12C351.2 627.04 351.36 627.36 308.48 586.08L284.8 563.36L290.08 559.68C292.8 557.76 310.88 543.68 330.08 528.48C349.12 513.28 365.44 500.8 366.24 500.8C366.88 500.8 371.36 505.28 376.16 510.72C380.8 516.32 389.12 525.28 394.4 530.88L404 541.12L398.56 545.44L393.28 549.76L393.44 567.36C393.6 576.96 394.4 585.44 395.04 586.08C396.32 587.36 401.92 579.68 410.88 564.64C414.4 558.88 414.4 558.72 411.2 556.64C408.32 554.72 408.16 553.76 409.76 548.16C411.36 542.4 411.2 541.6 406.88 536.96C404.32 534.24 395.52 524.48 387.2 515.2C364.96 489.92 367.84 492.32 363.2 495.52ZM403.84 551.04C403.36 552.48 401.76 553.6 400.32 553.6C398.24 553.6 398.4 553.12 400.8 550.4C404 546.72 405.44 547.04 403.84 551.04Z" fill="#0E1116"/>
<path d="M937.6 509.6C926.56 514.4 909.76 521.44 900.32 525.12C888.96 529.44 883.68 532.16 885.12 532.96C887.84 534.4 990.08 568.16 1037.6 583.2C1056.16 589.12 1072.96 594.56 1075.2 595.52L1079.2 597.28L1075.04 598.56C1072 599.68 1061.6 597.28 1027.84 587.36C963.84 568.48 895.52 548.8 879.52 544.8C864 540.64 862.08 539.52 859.2 532.8C856.16 525.44 858.4 516.96 864 515.04C869.28 513.12 872 508.64 867.04 509.92C865.44 510.4 862.72 509.76 861.28 508.64C859.36 507.04 859.04 507.04 859.84 508.32C860.48 509.6 860 510.4 858.4 510.4C856.96 510.4 856 509.44 856.16 508.32C856.64 504.64 856 502.4 854.4 502.4C853.6 502.4 853.28 503.52 853.76 504.8C854.4 506.08 853.92 507.2 852.96 507.2C849.92 507.2 840 514.24 840 516.48C840 517.6 841.76 519.2 843.84 520C847.52 521.28 847.68 521.92 846.24 526.72C845.44 529.6 845.12 535.2 845.6 539.2C846.24 543.84 845.76 548.96 844.16 553.44C840.48 563.52 840.96 570.08 845.6 575.68C850.4 581.44 850.4 581.6 846.24 597.92C840.64 618.88 840.96 619.2 876 629.76C886.56 632.96 895.68 636 896.32 636.48C896.96 637.12 895.68 644.48 893.6 652.8C888.8 671.2 888.64 675.84 892.64 679.84C896.96 684.16 950.08 699.84 972 703.2C981.44 704.64 983.36 702.4 988.8 682.56C991.36 673.12 993.6 664.96 993.92 664.64C994.24 664.48 1005.44 667.36 1019.04 671.36C1033.44 675.52 1046.88 678.4 1051.68 678.4L1060 678.56L1086.08 651.68C1100.48 636.96 1113.28 622.88 1114.4 620.64C1115.68 618.4 1119.52 603.52 1122.88 587.84C1133.6 539.04 1135.04 531.2 1133.44 529.6C1132.64 528.8 1117.92 524.64 1100.8 520.16C1075.36 513.6 1063.68 511.52 1037.6 508.8C1020 506.88 998.08 504.32 988.96 503.04C962.56 499.52 960.16 499.84 937.6 509.6ZM856.8 539.84C860.16 544.96 863.2 546.08 924 563.36C952.16 571.36 995.84 583.84 1021.12 591.36C1046.24 598.72 1069.28 604.8 1072.32 604.8C1075.2 604.8 1080 603.36 1082.88 601.6C1087.84 598.56 1088 598.56 1086.56 601.44C1084.64 604.96 1076.8 608 1069.6 608C1059.84 608 864.32 551.36 856.96 546.4C850.88 542.24 848.8 536.64 850.4 528.64L851.68 522.4L852.96 529.12C853.6 532.8 855.36 537.6 856.8 539.84ZM900 566.4C923.68 573.6 943.36 579.52 943.52 579.84C943.68 580 942.88 583.68 941.76 588C939.84 595.68 939.52 596 934.24 595.68C929.12 595.36 867.36 580.96 856.32 577.44C847.04 574.4 844.8 565.6 849.92 552.16C851.2 548.64 851.52 548.64 854.08 550.88C855.52 552.32 876.16 559.2 900 566.4ZM1116.96 588.32C1110.24 621.6 1113.92 615.2 1079.04 651.52C1068.32 662.88 1058.88 672 1057.92 672C1056.96 672 1056.8 669.76 1057.6 665.92C1058.4 662.72 1059.68 656 1060.8 651.04C1062.56 642.08 1062.72 641.92 1069.6 640.16C1078.72 637.92 1081.12 635.36 1084 624.32C1087.04 613.44 1093.76 598.4 1095.84 598.4C1096.64 598.4 1102.88 589.44 1109.76 578.4C1116.64 567.52 1122.4 558.72 1122.56 558.88C1122.72 559.04 1120.16 572.32 1116.96 588.32ZM964 584.96C969.28 586.4 974.24 588.16 974.88 588.8C976.32 590.08 971.68 609.28 969.44 611.84C968.32 613.12 945.92 608.64 943.68 606.56C943.04 605.92 943.2 603.04 944 600C944.8 596.96 946.24 591.36 947.2 587.52C948.48 582.24 949.6 580.8 951.68 581.44C953.12 581.92 958.72 583.36 964 584.96ZM927.68 600.16C936.96 602.08 937.6 602.56 937.6 606.56C937.6 610.56 938.24 611.04 954.4 615.04C974.4 620 974.08 620 974.72 616.16C975.2 613.44 978.88 614.4 1014.72 626.4C1036.48 633.76 1055.04 640.16 1055.84 640.64C1056.64 641.12 1056.64 644.48 1055.84 648.32C1055.2 652.16 1053.76 659.36 1052.8 664.32C1051.52 670.72 1050.24 673.6 1048.48 673.6C1047.2 673.6 1024.8 667.36 998.72 659.84C972.48 652.32 937.6 642.24 920.8 637.44C876.48 624.64 849.92 616.16 848.8 614.4C848 613.28 852.48 592.32 855.2 584.64C855.52 583.36 866.08 585.44 886.72 590.56C903.68 594.72 922.08 599.04 927.68 600.16ZM1020.32 600.96C1050.56 609.92 1058.88 611.68 1069.12 611.84C1076 612 1081.6 612.64 1081.6 613.28C1081.6 618.08 1076.16 632.16 1073.92 633.44C1065.44 637.76 1061.28 636.8 1018.88 622.4C995.84 614.4 976.8 608 976.48 608C976.32 608 976.48 607.04 976.8 605.92C977.12 604.96 978.24 600.96 979.2 597.12C980.16 593.44 981.6 590.4 982.4 590.4C983.04 590.4 1000.16 595.2 1020.32 600.96ZM946.4 650.4C964 655.52 978.56 659.84 978.88 660C980 660.96 972.16 688.96 970.24 691.04C968.48 692.96 967.68 692.8 965.28 689.76C961.44 685.12 913.6 671.36 906.56 672.96C903.04 673.76 902.08 673.44 902.72 671.84C903.2 670.56 905.28 662.88 907.36 654.72C909.44 646.56 911.84 640.16 912.8 640.48C913.6 640.8 928.8 645.28 946.4 650.4Z" fill="#0E1116"/>
<path d="M949.44 594.56C948.16 601.44 950.24 603.84 959.68 605.6C966.08 606.72 969.6 604 969.6 597.44C969.6 592.8 966.88 590.88 958.08 589.6L950.56 588.48L949.44 594.56ZM964 596.96C966.4 599.36 962.88 601.44 958.08 600.48C955.04 599.84 953.6 598.72 953.6 596.48C953.6 593.76 954.24 593.44 958.08 594.4C960.48 594.88 963.04 596.16 964 596.96Z" fill="#0E1116"/>
<path d="M332.32 541.28C306.72 563.52 300 570.72 306.4 569.28C309.12 568.64 363.2 521.76 363.2 520C363.2 515.36 357.44 519.36 332.32 541.28Z" fill="#0E1116"/>
<path d="M1188.8 529.76C1187.36 532.16 1187.52 533.6 1188.96 535.36C1193.28 540.64 1201.6 535.2 1198.24 529.12C1196 525.44 1190.88 525.76 1188.8 529.76Z" fill="#0E1116"/>
<path d="M340.96 552.16C325.92 565.44 313.6 576.8 313.6 577.6C313.6 578.4 314.24 579.36 315.04 580C316.64 580.96 371.2 533.44 371.2 531.2C371.2 526.56 365.44 530.56 340.96 552.16Z" fill="#0E1116"/>
<path d="M1142.4 530.08C1142.4 531.2 1151.68 536.8 1163.04 542.24C1181.12 551.04 1183.84 552.96 1184.32 556.64C1184.8 560.16 1187.52 562.24 1204.48 571.04C1224.64 581.28 1234.08 583.68 1236.8 579.2C1237.76 577.6 1237.44 575.68 1236.16 573.6C1234.24 570.72 1196.96 550.88 1177.6 542.4C1172.8 540.32 1163.68 536.16 1157.28 533.28C1144.64 527.52 1142.4 527.04 1142.4 530.08ZM1226.4 572.8C1229.76 575.04 1230.4 576 1228.48 576C1224.96 576 1190.4 558.4 1190.4 556.64C1190.4 555.2 1218.88 568 1226.4 572.8Z" fill="#0E1116"/>
<path d="M360.64 553.28C326.72 583.04 323.2 586.4 323.2 588.48C323.2 592.8 328.32 589.12 355.04 565.12C378.72 543.84 384.48 537.6 379.52 537.6C378.88 537.6 370.4 544.64 360.64 553.28Z" fill="#0E1116"/>
<path d="M115.52 543.84C114.24 544.48 113.6 546.88 113.92 548.96C114.24 551.84 115.36 552.8 118.4 552.8C122.88 552.8 124.64 548.48 121.6 544.8C119.36 542.08 118.4 541.92 115.52 543.84Z" fill="#0E1116"/>
<path d="M358.88 576.16C337.44 594.4 330.88 601.6 335.68 601.6C338.24 601.6 385.6 559.84 385.6 557.44C385.6 556.32 385.12 555.2 384.48 555.2C383.68 555.2 372.16 564.64 358.88 576.16Z" fill="#0E1116"/>
<path d="M648.8 564.8C640.96 565.6 624 568 611.2 570.24C535.68 583.36 462.88 595.2 456.64 595.2C455.68 595.2 453.76 597.92 452.16 601.12C450.56 604.48 443.84 615.52 437.12 625.6C417.6 655.2 391.52 678.56 367.36 688.16C359.2 691.36 358.56 693.6 364.64 696.64C371.2 700.16 380.64 699.84 391.52 696C396.64 694.24 400.64 692.8 400.8 692.8C400.8 692.8 400.8 698.4 400.8 705.28C400.8 719.68 404.48 727.68 413.44 731.84C425.44 737.6 429.12 736.8 534.4 706.08C564 697.44 638.4 672.8 672.48 660.32C680.96 657.12 688 655.04 688 655.68C687.84 656.32 681.76 660.32 674.24 664.8C648.48 680 624.96 695.2 624.8 696.8C624.8 700.64 634.24 699.04 646.72 693.12C665.28 684.48 699.52 663.68 712.16 653.44C726.88 641.6 733.92 626.4 729.76 615.52L728 610.88L720.32 617.28C694.88 638.56 640.8 654.56 586.4 656.96C569.76 657.6 564.32 658.56 559.52 661.12C551.84 665.12 546.4 664 544.8 658.08C543.36 652 548.8 647.52 555.84 648.96C559.52 649.6 563.68 648.64 570.56 645.6C582.56 640.16 646.56 614.08 662.4 608C691.2 597.12 712.64 592.8 719.68 596.64C723.04 598.4 723.2 598.24 723.2 591.68C723.2 579.52 714.72 570.4 700 566.72C690.4 564.32 665.12 563.36 648.8 564.8Z" fill="#0E1116"/>
<path d="M108 572.32C98.4001 573.44 81.1201 575.68 69.6001 577.12C46.5601 580 40.0001 581.44 38.2401 584.16C36.4801 587.04 38.5601 591.84 42.0801 592.96C46.4001 594.4 91.5201 587.2 93.6001 584.8C94.5601 583.68 104.48 581.28 115.84 579.36C137.92 575.68 144.48 573.44 140.64 571.04C137.76 569.28 129.6 569.6 108 572.32ZM84.8001 584C84.8001 584.8 82.4001 585.44 79.6801 585.44L74.4001 585.28L79.2001 584C81.9201 583.36 84.1601 582.72 84.4801 582.56C84.6401 582.56 84.8001 583.04 84.8001 584ZM42.0801 586.72C41.1201 588.96 42.0801 589.12 49.7601 588.32C54.5601 587.68 62.0801 586.88 66.4001 586.4C73.4401 585.76 73.7601 585.76 68.8001 587.2C58.7201 589.76 42.0801 590.88 40.9601 588.96C40.3201 588 40.3201 586.4 40.8001 585.6C42.4001 583.04 43.2001 583.68 42.0801 586.72Z" fill="#0E1116"/>
<path d="M700 607.84C687.04 611.2 679.36 613.92 666.4 620C661.28 622.24 639.04 630.24 616.96 637.6C581.44 649.6 577.76 651.2 584.8 651.2C604 651.2 647.52 641.12 677.76 629.6C691.84 624.16 713.6 610.88 714.88 606.72C715.68 604.32 713.76 604.32 700 607.84Z" fill="#0E1116"/>
<path d="M1145.28 608.16C1141.92 610.08 1141.44 617.6 1144.32 620.48C1145.44 621.6 1147.68 622.4 1149.6 622.4C1151.52 622.4 1153.76 621.6 1154.88 620.48C1157.92 617.44 1157.28 609.92 1153.76 608C1149.92 606.08 1148.8 606.08 1145.28 608.16Z" fill="#0E1116"/>
<path d="M119.68 617.12C80.1598 644 73.5997 648.96 71.9997 652.96C69.5997 658.56 71.3597 664.96 76.3197 668.8C83.9997 674.88 88.7998 673.28 112.48 656.48C133.12 641.92 134.4 640.8 134.4 635.84C134.4 629.28 128.64 624.64 122.24 626.24C117.44 627.52 95.9997 641.44 95.9997 643.36C95.9997 645.92 98.2397 644.96 108.8 637.76C121.76 628.8 126.4 627.52 130.24 631.68C134.24 636.16 132 639.04 116.16 649.6C109.12 654.4 99.9997 660.64 96.1597 663.52C87.5197 670.08 81.4397 670.4 76.9597 664.64C75.0397 662.24 73.5997 659.36 73.5997 658.08C73.5997 654.4 82.2397 647.2 109.44 628.64C138.4 608.8 142.24 607.68 149.44 616.16C156.64 624.64 154.24 630.88 140.8 639.84C116 656.32 106.72 664 111.36 664C113.12 664 151.36 637.12 153.76 634.24C155.04 632.8 156 628.32 156 624.48C156 618.4 155.2 616.64 150.72 612.64C142.4 605.12 136.16 606.08 119.68 617.12Z" fill="#0E1116"/>
<path d="M651.2 703.04C628.8 709.6 610.24 715.68 609.92 716.64C608.96 719.68 613.6 720.16 620.96 717.76C624.8 716.64 642.72 711.36 660.8 706.4C693.44 697.28 698.4 695.36 696.64 692.64C695.36 690.4 694.88 690.56 651.2 703.04Z" fill="#0E1116"/>
</svg>
