<svg width="190" height="100" viewBox="0 0 190 100" fill="none" xmlns="http://www.w3.org/2000/svg">
<path d="M55.7001 0.492664C53.963 1.41083 52.4741 4.83532 51.4815 10.245C51.2086 11.8084 50.9108 13.2973 50.8611 13.5951C50.7371 14.2154 49.9182 14.6125 48.33 14.8358C46.6426 15.0592 45.2281 14.6125 44.3099 13.5703C43.6151 12.7762 43.5407 12.5032 43.5407 11.1384C43.5407 8.38389 45.2281 5.952 48.2556 4.28938C49.273 3.74345 49.4963 3.52011 49.1985 3.39604C48.5037 3.12307 46.2207 3.94197 44.7814 4.93458C42.1262 6.79571 40.414 10.518 41.0592 12.9499C41.4314 14.3395 42.6473 15.5555 44.0618 15.9277C45.2777 16.2751 48.1315 16.1262 49.4467 15.6547C49.8934 15.5058 50.34 15.4314 50.4145 15.5058C50.5634 15.6547 49.4219 21.1637 49.0496 22.1563C48.8263 22.7271 48.5781 22.8511 47.5359 23C43.9377 23.4963 41.4562 26.0523 43.094 27.5908C44.4092 28.8068 47.7096 27.7893 49.8685 25.4815L51.1341 24.1415L54.8316 25.1341C59.6209 26.4245 61.8294 26.8464 63.7154 26.8464C66.3954 26.8216 68.3558 25.5064 68.3558 23.6948C68.3558 22.603 67.934 22.4789 66.6188 23.1489C65.7006 23.6204 65.1547 23.7197 62.7972 23.7197C60.4894 23.7197 53.0449 23.0496 52.0523 22.7519C51.8289 22.6774 51.8538 22.3796 52.2012 21.5607C52.8215 20.1215 53.6901 16.6473 53.8886 14.8606C54.0375 13.471 54.0871 13.3717 55.3031 12.4784C58.2809 10.2698 60.1172 7.34165 60.3405 4.41346C60.6383 0.889705 58.4546 -0.946616 55.7001 0.492664ZM57.6109 2.45306C58.2064 3.89234 57.9583 6.74608 57.0898 8.48315C56.4694 9.69909 54.8316 11.7091 54.4593 11.7091C54.2856 11.7091 54.8316 6.02644 55.2038 4.04123C55.6753 1.48527 56.8664 0.691185 57.6109 2.45306ZM47.8337 24.886C46.8907 26.499 44.7566 27.1938 44.5829 25.953C44.4588 25.1589 46.1463 24.1911 47.7096 24.1415C48.2804 24.1167 48.2804 24.1167 47.8337 24.886Z" fill="white"/>
<path d="M64.0382 9.47578C61.4078 10.2699 59.2737 13.471 59.0007 17.0444C58.827 19.4267 59.0503 20.4689 59.9437 21.5111C61.4574 23.2234 64.3112 23.2234 66.3212 21.4863C67.3882 20.593 69.026 17.64 68.7283 17.1685C68.4305 16.6722 68.1327 16.9451 67.3386 18.4341C66.3212 20.3448 65.6264 20.8908 64.2367 20.8908C62.8471 20.8908 62.1026 20.0222 62.2019 18.5829C62.2763 17.6648 62.3259 17.6152 63.5667 17.1933C66.4204 16.2255 67.8349 14.5877 67.8597 12.2551C67.8597 9.84801 66.3956 8.78096 64.0382 9.47578ZM65.7504 12.2303C65.7504 13.3718 65.6264 13.7936 65.0308 14.5381C64.3112 15.4811 63.0456 16.424 62.4748 16.424C62.0282 16.424 62.0778 15.7292 62.6485 13.8681C63.2937 11.8084 64.1871 10.6669 65.1052 10.7662C65.7256 10.8406 65.7504 10.9151 65.7504 12.2303Z" fill="white"/>
<path d="M147.318 5.38122C144.514 5.75345 143.025 6.37383 141.66 7.68903C139.675 9.5998 139.228 12.0813 139.377 19.8981C139.451 24.2656 139.526 24.8363 139.997 25.7545C140.742 27.1689 141.834 28.0127 143.496 28.4841C144.811 28.8812 145.184 28.8812 148.757 28.4841C154.067 27.9134 155.457 27.1938 157.02 24.2656C157.542 23.2978 157.566 22.9007 157.641 16.5729C157.715 10.8157 157.666 9.72387 157.318 8.80571C156.028 5.45566 153.422 4.56232 147.318 5.38122ZM153.199 8.38385C153.522 8.60719 153.993 9.25239 154.241 9.82313C154.638 10.7165 154.713 11.5106 154.713 16.424C154.713 21.7344 154.688 22.0818 154.167 23.1241C153.323 24.7619 152.256 25.2085 148.236 25.6056C145.134 25.9282 144.911 25.9282 144.067 25.4567C142.628 24.6874 142.553 24.3648 142.553 17.9625C142.553 11.7835 142.677 11.0391 143.868 9.7735C144.712 8.85534 145.63 8.48312 147.591 8.25978C150.693 7.88755 152.554 7.93718 153.199 8.38385Z" fill="white"/>
<path d="M127.167 7.36649C125.728 7.5402 124.537 7.68909 124.512 7.7139C124.462 7.73872 124.438 13.0244 124.438 19.4763V31.2139L125.38 31.1394C127.614 30.9161 127.415 31.3876 127.415 26.1516C127.415 23.5956 127.515 21.3374 127.663 21.1389C127.986 20.6178 131.286 20.3448 132.304 20.7667C133.644 21.3374 133.867 22.1315 133.867 26.3501V30.0724H134.562C134.934 30.0724 135.654 29.9979 136.175 29.9235L137.093 29.7498V26.3005C137.093 22.1315 136.82 20.8908 135.728 19.923C135.282 19.5259 134.785 19.1785 134.612 19.1041C134.463 19.0544 134.81 18.5085 135.406 17.8881C136.671 16.5977 137.093 15.3818 137.093 13.1732C137.093 10.8654 136.696 9.74875 135.505 8.60725C133.793 6.94463 132.378 6.74611 127.167 7.36649ZM132.254 10.0713C133.371 10.5428 133.842 11.3369 134.016 13.0988C134.14 14.3147 134.066 14.7366 133.569 15.6796C132.825 17.1189 131.832 17.5903 129.401 17.7144L127.539 17.7889L127.564 14.141C127.564 12.131 127.663 10.3939 127.763 10.2947C127.912 10.121 129.45 9.87282 130.964 9.74875C131.212 9.74875 131.783 9.87282 132.254 10.0713Z" fill="white"/>
<path d="M117.241 8.38384C115.529 8.55755 113.37 8.8057 112.403 8.90496L110.69 9.10348V10.4683C110.69 12.0317 110.517 11.9572 113.594 11.6346L115.256 11.4361V21.8833V32.3057L116.447 32.1568C117.093 32.0823 117.763 31.9831 117.936 31.9086C118.16 31.8342 118.234 29.5264 118.234 21.4118V11.0142L120.219 10.8405L122.205 10.6668V9.32682V7.9868L121.286 8.01161C120.765 8.03643 118.954 8.18532 117.241 8.38384Z" fill="white"/>
<path d="M102.03 9.82316C99.226 10.5924 97.3896 12.9251 97.3896 15.6795C97.3896 18.3844 98.283 19.7244 101.559 22.057C105.628 24.9356 106.571 25.9778 106.571 27.6405C106.571 29.9979 103.767 31.5612 101.583 30.4446C100.69 29.9731 100.367 29.2038 100.367 27.6156V26.4245L99.2012 26.623C98.5311 26.7223 97.8611 26.8216 97.6626 26.8216C97.4145 26.8464 97.3648 27.2682 97.4393 28.6579C97.5634 31.5116 98.8289 32.9261 101.807 33.5713C104.288 34.0924 107.341 32.9013 108.681 30.8664C109.698 29.3279 109.971 27.5164 109.45 25.7297C109.078 24.5137 108.755 23.9926 107.613 22.8759C106.844 22.1315 105.182 20.8163 103.916 19.9478C102.675 19.104 101.385 18.0618 101.112 17.6399C99.3997 15.2577 101.162 12.2302 104.09 12.528C105.504 12.6769 106.249 13.4958 106.472 15.1832C106.646 16.424 106.646 16.424 107.539 16.424C108.035 16.424 108.705 16.3496 109.028 16.2503C109.574 16.1014 109.599 16.027 109.475 14.6869C109.251 12.0565 107.787 10.2946 105.331 9.74872C103.916 9.42612 103.494 9.42612 102.03 9.82316Z" fill="white"/>
<path d="M92.6246 10.8901L91.6816 10.9894V22.8759V34.7623L93.1209 34.6134C93.8902 34.539 94.5602 34.4397 94.6098 34.4149C94.6346 34.3901 94.6843 29.0548 94.7339 22.5533L94.7835 10.7164L94.1632 10.7661C93.8157 10.7909 93.1209 10.8405 92.6246 10.8901Z" fill="white"/>
<path d="M80.3912 12.0813C80.2671 12.131 79.3986 12.2302 78.4804 12.3295L76.793 12.5032V24.3897V36.2761H77.6119C78.0337 36.2761 79.8452 36.1024 81.6071 35.9039C85.3542 35.4572 86.8183 34.812 87.9598 33.1742C88.878 31.8342 89.2006 30.5935 89.2006 28.3353C89.2006 26.0275 88.6298 24.6626 87.2898 23.6948L86.322 23L87.0416 22.4044C88.2079 21.4367 88.7042 20.0718 88.7042 17.7144C88.7042 14.7366 87.8357 13.2725 85.5031 12.3047C84.7586 12.0069 81.1108 11.8332 80.3912 12.0813ZM84.436 15.084C85.8257 16.0518 86.1979 18.8807 85.1557 20.4192C84.436 21.4863 83.7908 21.7841 81.7064 21.9826L80.0189 22.1563V18.5581V14.9599L80.8378 14.8606C82.699 14.6373 83.8901 14.7117 84.436 15.084ZM84.3616 24.9604C85.5527 25.4815 86.0738 26.5982 86.0987 28.7075C86.0987 31.7101 84.9323 32.8764 81.7064 33.1246L80.0189 33.2487V29.0549V24.886L81.3341 24.7867C82.029 24.7371 82.8231 24.6874 83.0712 24.6626C83.3194 24.6378 83.8901 24.7619 84.3616 24.9604Z" fill="white"/>
<path d="M57.0895 30.0972C48.8757 31.189 39.7189 38.0132 33.3166 47.7904C30.1154 52.679 26.8398 59.9002 25.3013 65.4588L24.8794 66.9973L23.7627 67.1462C20.1894 67.6425 15.3008 67.1214 12.7448 65.9799C9.22105 64.4165 7.73215 61.5876 8.32771 57.5179C8.99772 52.7286 12.0252 48.5348 17.2364 45.16C20.8842 42.7777 24.5568 41.2392 28.9739 40.2466C30.8599 39.7999 31.381 39.6014 31.3314 39.3036C31.2073 38.6584 29.6936 38.4599 26.0457 38.584C12.0748 39.1051 1.45391 46.0037 0.113889 55.4086C-0.680196 61.0417 2.71948 65.8558 9.02253 67.8907C12.447 69.0073 13.6133 69.1562 19.0727 69.1314H24.2342L24.0853 70.1488C22.919 78.0153 23.6883 84.7898 26.4428 90.3732C27.5346 92.5569 28.0558 93.3014 29.7432 94.9888C33.0436 98.2644 36.5674 99.7285 41.8034 99.9767C52.0768 100.423 60.6877 94.4429 66.1222 83.0527C66.8915 81.4149 67.8345 79.1816 68.2315 78.0897C68.6038 76.9978 68.9512 76.0797 68.976 76.03C69.0256 75.9804 69.6212 76.5512 70.316 77.2956C72.1027 79.1816 73.9886 80.0005 76.8176 80.1494C83.2447 80.472 88.1581 76.3526 91.6322 67.7666C91.8307 67.2455 92.1037 67.0966 92.9226 66.9725C94.3867 66.774 96.8434 65.5084 97.9353 64.3917C99.4738 62.8036 100.913 59.3542 102.849 52.7038L103.37 50.8923L104.486 51.0164C105.082 51.1156 106.099 51.2397 106.769 51.3141C109.052 51.6119 109.077 52.0834 106.968 56.5749C104.164 62.5802 103.295 66.8236 104.164 70.2233C105.107 73.8463 108.184 75.4345 112.254 74.3922C114.164 73.8959 115.207 73.3004 116.944 71.6626C117.639 70.9926 118.234 70.4963 118.234 70.5459C118.234 70.5955 117.961 71.5385 117.614 72.6055C116.869 74.9878 116.472 76.4023 116.348 77.2212C116.298 77.5686 115.38 81.1668 114.264 85.2365C113.172 89.3062 112.278 92.9044 112.278 93.2518C112.278 94.0459 112.675 94.021 114.388 93.1029C115.157 92.681 117.241 91.8869 119.003 91.341L122.205 90.3236V89.1324C122.205 86.7006 123.346 81.3157 127.292 65.0369C130.691 51.0164 132.106 46.8722 134.587 43.7703C135.878 42.1573 136.92 41.4873 138.161 41.4873C140.22 41.4873 140.741 43.0011 140.468 48.1874C140.295 51.7608 139.674 55.1853 138.558 58.7835L137.764 61.3146L136.746 61.4635C132.751 62.1087 129.699 63.7713 128.681 65.8806C127.267 68.784 128.954 71.0422 132.503 71.067C135.232 71.0918 137.937 69.9751 140.369 67.7914C141.436 66.8732 144.538 62.605 144.538 62.0839C144.538 61.9598 145.183 61.6869 145.977 61.4635C147.144 61.1161 148.409 60.5454 151.759 58.9076C151.834 58.8828 152.032 59.4287 152.206 60.1483C153 63.3247 154.812 65.5829 157.417 66.6003C159.576 67.444 162.926 67.3944 165.383 66.4762C169.775 64.8632 173.448 60.7191 175.532 54.9868L176.227 53.1256L178.138 52.2819C181.811 50.6938 184.813 48.0385 186.873 44.5644C189.33 40.3706 190.67 35.2835 189.578 34.1917C188.759 33.3976 188.089 34.2165 187.841 36.301C187.295 40.7677 185.483 44.2666 182.108 47.4182C180.619 48.8326 177.964 50.4208 177.096 50.4208C176.897 50.4208 176.823 50.1975 176.897 49.85C177.518 46.897 177.468 42.4799 176.798 39.8992C175.681 35.5565 173.721 33.7946 169.924 33.7946C165.11 33.7946 160.246 36.4995 156.822 41.0655C155.283 43.1003 153.124 47.5919 152.479 50.0486C152.206 51.1404 151.908 52.9519 151.809 54.0686C151.66 56.029 151.61 56.1531 150.841 56.7487C149.377 57.8653 146.027 59.2798 146.027 58.7835C146.027 58.7339 146.3 58.039 146.623 57.2201C148.633 52.2571 149.005 46.1029 147.516 42.1822C145.431 36.6732 139.501 36.7228 134.19 42.3062C133.322 43.1996 132.627 43.8448 132.627 43.7455C132.627 43.6711 133.024 42.2566 133.52 40.6188C134.562 37.2191 134.687 36.2017 134.066 36.0776C133.669 36.0032 127.118 38.4599 126.175 39.0554C125.803 39.3036 125.679 39.651 125.679 40.4699C125.679 41.0655 124.661 45.6066 123.42 50.52C121.162 59.4039 121.137 59.5031 119.227 63.4488C117.266 67.4688 116.05 69.2307 114.735 69.9007C113.792 70.397 113.221 70.3722 112.601 69.8014C111.534 68.784 111.733 65.7069 113.246 59.8506C114.164 56.3268 116.571 49.1056 117.514 46.9715C118.358 45.0855 118.383 44.7877 117.738 44.5892C117.266 44.4403 116.795 44.614 110.293 47.3437C107.985 48.3115 107.167 48.5348 105.951 48.5597H104.462L104.486 47.8152C104.511 47.3933 104.884 45.7059 105.33 44.0185C106.224 40.594 106.199 39.2043 105.256 38.311C104.387 37.4921 103.593 37.4425 102.352 38.0628C100.169 39.1795 98.5308 42.2566 98.5308 45.2096C98.5308 47.2196 99.2009 48.5845 100.615 49.5274C101.782 50.2967 101.806 49.9245 100.318 54.0934C98.2579 59.9746 96.7938 62.481 94.9078 63.4488C93.3197 64.2677 92.5504 64.2925 92.7985 63.4984C92.8978 63.2006 93.0219 61.4387 93.0963 59.5776C93.2452 55.5823 92.8482 53.1753 91.6074 50.8426C90.3418 48.4356 88.6048 47.443 85.6766 47.443C82.674 47.443 79.845 48.4604 76.9416 50.52C71.7305 54.2423 67.8593 61.8854 67.8593 68.4862C67.8593 70.0496 67.6608 70.9429 66.8419 73.3748C63.8144 82.3827 58.4047 90.1499 53.3424 92.6562C49.5953 94.5422 44.9053 94.5422 41.5056 92.681C38.6767 91.1425 36.0214 87.1969 34.8303 82.7798C34.061 79.9757 33.8873 72.8289 34.4829 69.2059C34.7062 67.8162 35.0288 66.5506 35.1777 66.4018C35.3514 66.2529 36.1951 65.9303 37.0885 65.6821C47.6846 62.8284 57.2384 57.4931 63.2933 51.0908C66.5193 47.6663 68.033 44.9118 68.6534 41.2888C69.2241 37.8643 68.1323 34.2413 65.8493 32.2065C63.7648 30.3205 60.787 29.6009 57.0895 30.0972ZM61.7796 33.075C62.3503 33.2487 63.194 33.7698 63.7896 34.3902C65.5763 36.1769 65.7748 39.0803 64.3852 42.8025C62.0029 49.0808 52.6476 56.8975 41.9274 61.538C40.4385 62.1832 35.9718 63.821 35.7237 63.821C35.5748 63.821 36.5426 60.5454 37.5848 57.4931C40.4633 49.2297 45.9227 40.7677 50.9602 36.7228C54.881 33.5961 58.8266 32.2561 61.7796 33.075ZM171.512 36.3258C171.934 36.5739 172.53 37.2687 172.803 37.8395C173.398 39.1299 173.894 42.1325 173.77 43.9688L173.696 45.3337L172.679 45.4826C171.19 45.7555 169.453 46.6489 168.634 47.5919C166.748 49.726 167.74 52.2571 170.793 53.1753C171.363 53.349 171.835 53.4979 171.835 53.5227C171.835 53.8205 170.917 56.029 170.197 57.4683C168.46 60.992 166.078 63.3991 164.018 63.7217C162.504 63.9451 161.661 63.4736 160.916 61.9598C160.37 60.868 160.296 60.322 160.221 57.3442C160.048 51.5127 161.115 46.4752 163.571 41.4873C166.127 36.301 168.708 34.6383 171.512 36.3258ZM86.8925 49.6515C88.58 50.4456 89.4733 52.803 89.5229 56.7983L89.5726 58.9572L88.5551 59.1309C84.5599 59.8257 82.4258 63.2999 84.5103 65.6821C84.9569 66.1784 85.7758 66.7244 86.4955 66.9725C87.1655 67.2207 87.7114 67.5184 87.7114 67.6673C87.7114 68.1636 85.9992 71.4889 85.0066 72.953C83.3191 75.4593 81.1602 76.973 79.3239 76.973C76.9665 76.973 76.1724 75.0622 76.1972 69.4044C76.2468 63.6473 77.4628 58.7091 80.0684 53.9942C81.458 51.4134 82.7236 50.0486 84.138 49.5523C85.4036 49.1056 85.6518 49.1056 86.8925 49.6515ZM136.324 64.3173C134.612 67.5681 132.453 69.1314 131.014 68.1884C129.972 67.4936 130.394 65.9055 131.957 64.7143C132.974 63.9202 135.431 63.0021 136.92 62.8532C137.044 62.8284 136.771 63.4984 136.324 64.3173Z" fill="white"/>
<path d="M168.981 54.1431C169.056 54.2672 169.354 54.5153 169.651 54.6642C170.048 54.8628 170.123 54.8628 170.048 54.6146C169.999 54.4657 169.701 54.2176 169.378 54.1183C169.031 53.9694 168.882 53.9942 168.981 54.1431Z" fill="white"/>
</svg>
