<svg width="290" height="290" viewBox="0 0 290 290" fill="none" xmlns="http://www.w3.org/2000/svg">
<rect width="290" height="290" fill="white"/>
<path d="M193.286 69.0638C202.886 81.1296 207.362 96.1295 211.103 110.859C211.345 111.628 211.588 112.396 211.838 113.188C215.122 124.089 216.122 135.396 217.431 146.665C217.59 147.989 217.59 147.989 217.752 149.34C219.338 162.58 220.446 175.845 221.381 189.146C221.566 191.77 221.755 194.394 221.946 197.018C222.264 201.402 222.57 205.787 222.873 210.173C222.975 211.565 223.076 212.957 223.181 214.392C223.268 215.693 223.355 216.994 223.444 218.335C223.525 219.492 223.606 220.649 223.689 221.841C223.703 224.648 223.385 226.673 222.44 229.295C217.508 226.447 217.076 223.455 215.619 218.283C215.367 217.433 215.115 216.582 214.856 215.706C213.211 210.106 211.693 204.474 210.23 198.824C209.455 196.028 208.548 193.314 207.588 190.577C206.135 186.434 204.928 182.282 203.821 178.033C202.504 172.997 200.987 168.107 199.268 163.197C195.733 152.834 192.575 142.354 189.82 131.759C188.515 127.027 186.888 122.415 185.242 117.792C184.969 116.993 184.696 116.194 184.415 115.371C183.241 112.005 182.296 109.691 179.905 106.994C179.529 114.823 182.075 121.971 184.646 129.264C186.651 134.993 188.196 140.812 189.69 146.691C191.025 151.854 192.654 156.862 194.402 161.899C196.366 167.692 198.057 173.57 199.798 179.433C201.258 184.31 202.776 189.148 204.446 193.957C206.078 198.688 207.401 203.436 208.612 208.289C210.452 215.43 212.79 222.22 215.5 229.085C217.224 233.673 218.49 238.33 219.615 243.096C218.385 243.023 218.385 243.023 217.13 242.947C215.236 240.521 213.494 238.095 211.773 235.549C211.24 234.775 210.708 234.001 210.159 233.203C208.407 230.651 206.666 228.092 204.925 225.532C203.712 223.761 202.498 221.991 201.284 220.221C197.681 214.965 194.093 209.699 190.51 204.429C190.013 203.699 189.516 202.968 189.004 202.216C185.182 196.595 181.363 190.972 177.552 185.345C171.168 175.939 164.626 166.652 158.053 157.378C153.602 151.062 149.251 144.697 145.011 138.237C144.549 137.531 144.086 136.826 143.609 136.1C141.371 132.683 139.144 129.26 136.931 125.827C132.691 119.289 128.378 113.229 122.996 107.576C122.445 108.531 121.893 109.486 121.325 110.47C122.095 111.413 122.095 111.413 122.881 112.376C125.358 115.607 127.585 118.971 129.801 122.382C130.749 123.831 131.698 125.28 132.646 126.729C133.142 127.487 133.638 128.246 134.149 129.027C142.905 142.413 151.843 155.627 161.108 168.666C166.389 176.119 171.475 183.674 176.455 191.331C184.668 203.949 193.536 216.054 202.556 228.103C198.189 229.444 195.307 229.051 190.799 228.147C186.296 227.244 181.798 226.358 177.271 225.587C164.637 223.411 152.433 220.251 140.134 216.66C138.692 216.244 138.692 216.244 137.221 215.819C113.658 209.007 91.421 201.44 70.0677 189.229C68.2363 188.211 68.2363 188.211 66.3678 187.173C57.9653 182.369 50.8811 177.531 46.3523 168.785C46.1435 162.803 48.6206 158.814 52.3407 154.237C56.6184 151.456 60.737 150.328 65.6241 149.045C64.9483 148.358 64.2725 147.671 63.5763 146.964C54.7292 137.749 45.8273 127.037 45.6806 113.578C46.6275 104.94 51.7207 97.9286 58.0621 92.2714C62.8889 88.5359 67.7482 86.0901 73.517 84.1537C74.3779 83.8567 75.2389 83.5597 76.126 83.2537C87.1277 79.8661 95.2845 80.6708 105.507 85.9594C106.621 86.5751 106.621 86.5751 107.757 87.2033C107.456 85.7959 107.456 85.7959 107.149 84.3601C105.865 72.7266 108.866 62.6503 115.785 53.2557C121.255 48.6734 127.574 47.2541 134.597 47.3973C139.566 47.9632 143.826 49.5613 148.309 51.702C150.704 52.8894 150.704 52.8894 153.186 53.7445C161.106 57.163 163.578 63.8887 166.635 71.4411C168.353 75.9027 169.965 80.3923 171.339 84.9728C172.081 87.339 172.081 87.339 174.459 89.7031C175.708 84.4048 174.703 81.0721 172.786 76.0372C172.383 74.9769 172.383 74.9769 171.972 73.8951C169.355 67.1893 166.12 60.8416 162.603 54.564C173.93 53.0761 185.614 60.8936 193.286 69.0638ZM162.615 112.445C161.561 113.534 160.508 114.624 159.423 115.746C160.352 117.981 161.282 120.216 162.212 122.45C163.034 124.428 163.857 126.406 164.68 128.385C166.746 133.352 168.813 138.319 170.886 143.284C174.863 152.814 178.797 162.36 182.673 171.932C183.848 174.826 185.026 177.719 186.204 180.612C186.902 182.325 187.599 184.039 188.295 185.753C189.175 187.917 190.066 190.075 190.962 192.231C191.447 193.408 191.931 194.584 192.43 195.797C193.752 198.444 194.878 199.985 197.151 201.833C198.92 198.261 199.056 196.745 197.935 192.856C197.343 191.433 196.732 190.018 196.107 188.61C195.774 187.823 195.441 187.035 195.098 186.223C194.352 184.462 193.599 182.703 192.841 180.947C191.516 177.86 190.227 174.76 188.945 171.655C183.867 159.376 178.65 147.166 173.281 135.011C170.482 128.648 167.87 122.262 165.496 115.726C164.736 113.416 164.736 113.416 162.615 112.445ZM86.2965 128.828C85.7452 129.783 85.1939 130.738 84.6258 131.722C91.9832 139.151 99.8154 145.877 107.873 152.519C109.913 154.201 111.947 155.889 113.981 157.578C115.298 158.668 116.616 159.759 117.933 160.849C118.531 161.344 119.128 161.839 119.743 162.349C127.943 169.115 127.943 169.115 136.881 174.833C137.622 175.249 138.363 175.665 139.126 176.094C139.67 176.393 140.213 176.692 140.773 176.999C141.398 174.814 141.398 174.814 142.036 172.584C135.627 167.368 129.214 162.156 122.796 156.949C119.816 154.531 116.837 152.111 113.861 149.688C110.436 146.9 107.006 144.118 103.575 141.336C101.981 140.036 101.981 140.036 100.354 138.709C99.3545 137.9 98.3548 137.092 97.3248 136.258C96.4502 135.548 95.5757 134.837 94.6746 134.105C91.9896 132.1 89.2288 130.445 86.2965 128.828ZM74.7513 146.598C74.2 147.553 73.6486 148.508 73.0806 149.492C74.6601 151.885 75.9169 152.574 78.388 153.997C79.2256 154.482 80.0633 154.968 80.9262 155.468C81.8501 155.997 82.7739 156.525 83.7257 157.07C85.1792 157.91 85.1792 157.91 86.662 158.766C89.8765 160.621 93.0949 162.469 96.3134 164.317C98.5386 165.6 100.764 166.882 102.988 168.165C108.853 171.546 114.721 174.922 120.589 178.296C126.574 181.738 132.555 185.185 138.537 188.632C150.28 195.398 162.027 202.159 173.776 208.915C174.512 207.642 175.247 206.368 176.004 205.057C142.591 185.765 109.177 166.474 74.7513 146.598Z" fill="#FF006E"/>
<path d="M111.374 64.4301C107.815 80.1494 89.4292 138.18 73.0625 186.345C64.4369 211.193 61.8396 222.769 63.8726 224.555C66.9545 227.356 113.288 235.924 154.412 241.484C166.76 243.097 180.093 245.482 184.059 246.751C192.912 249.819 191.561 252.512 207.163 198.595C213.536 176.941 221.355 151.014 224.34 140.888C227.568 130.697 233.233 110.269 236.987 95.2747C242.73 72.2352 243.256 67.4313 239.643 65.5499C235.111 63.1376 194.488 58.4797 151.707 55.4363C136.394 54.3586 121.805 53.0866 119.241 52.2193C115.163 51.4989 113.859 53.4023 111.374 64.4301ZM159.939 64.8877C214.567 68.6423 231.896 70.4751 233.334 72.9395C234.141 74.0184 233.084 79.7416 231.06 85.7238C228.972 91.4643 223.017 112.747 217.352 133.176C204.676 180.61 199.554 197.266 198.263 196.317C196.796 195.674 198.265 171.189 199.711 166.916C201.976 160.869 203.872 114.769 202.08 112.917C195.852 107.074 193.932 119.245 188.833 194.958C187.458 217.863 185.288 236.837 184.322 237.096C182.388 237.614 148.002 232.062 99.1216 223.659C85.241 221.161 73.6003 218.322 73.2765 217.114C72.9527 215.905 76.4521 203.829 81.3194 190.09C95.6623 147.908 115.075 85.9755 117.543 73.9162C119.018 67.8218 120.446 62.5173 120.93 62.3878C121.655 62.1935 139.031 63.2365 159.939 64.8877Z" fill="#0E1116"/>
<path d="M122.512 91.4951C123.16 93.912 128.576 94.792 137.731 94.1525C145.918 93.7719 161.957 94.6554 173.58 96.4628C185.445 98.2055 196.568 99.1109 198.743 98.528C204.785 96.909 199.364 92.1445 189.255 90.1902C184.08 89.2455 178.404 87.3987 176.324 86.4018C174.308 85.6467 171.874 85.2628 170.972 85.7635C170.07 86.2642 160.786 86.4204 150.341 86.1106C128.597 85.2017 121.217 86.6612 122.512 91.4951Z" fill="#0E1116"/>
<path d="M113.588 109.429C113.269 112.105 116.994 113.438 125.44 114.025C132.242 114.274 147.927 115.771 160.517 117.319C176.331 119.299 183.552 119.177 184.242 116.92C185.865 112.34 178.851 110.334 148.384 106.841C118.465 103.459 114.162 103.835 113.588 109.429Z" fill="#0E1116"/>
<path d="M110.474 133.578C111.057 135.753 114.298 137.216 118.666 137.082C129.4 136.537 148.002 138.288 162.189 140.962C177.537 144.103 183.774 143.209 181.076 137.974C178.879 133.641 135.61 126.842 120.219 128.376C111.194 129.499 109.567 130.194 110.474 133.578Z" fill="#0E1116"/>
<path d="M105.987 155.504C106.57 157.679 110.89 158.334 117.675 157.553C123.735 156.965 138.081 158.302 149.657 160.899C173.051 166.029 176.145 165.977 174.72 160.66C173.231 155.101 125.866 146.55 114.265 149.659C107.981 151.343 105.339 153.087 105.987 155.504Z" fill="#0E1116"/>
<path d="M100.788 174.771C101.436 177.188 105.885 178.327 114.556 177.817C121.712 177.454 134.721 178.631 143.798 180.602C161.097 184.257 168.978 183.699 166.168 179.012C163.181 174.632 124.521 167.634 111.742 169.245C101.992 170.562 99.946 171.629 100.788 174.771Z" fill="#0E1116"/>
<path d="M92.8653 194.509C91.4325 195.929 91.1606 197.815 92.3864 198.523C95.7574 200.469 152.255 203.464 153.381 201.867C155.681 197.883 151.956 196.55 133.95 194.121C108.463 190.848 96.2617 190.749 92.8653 194.509Z" fill="#0E1116"/>
</svg>
