<svg width="2286" height="1310" viewBox="0 0 2286 1310" fill="none" xmlns="http://www.w3.org/2000/svg">
<path d="M1318.36 288.44C1315.8 288.92 1313.4 290.36 1312.92 291.64C1312.28 293.4 1313.72 293.56 1319.32 292.76C1328.44 291.32 1334.04 293.56 1336.44 299.32C1338.84 305.08 1336.76 311.48 1331.48 314.68C1329.4 315.96 1317.72 318.36 1305.4 319.8C1293.08 321.4 1282.36 323.16 1281.56 323.96C1278.36 326.84 1285.72 327 1308.28 324.12C1330.04 321.24 1332.28 320.6 1336.76 316.44C1340.6 312.76 1341.4 310.68 1341.4 304.6C1341.4 298.52 1340.6 296.44 1337.08 293.08C1332.12 288.44 1325.4 286.84 1318.36 288.44Z" fill="#0E1116"/>
<path d="M1278.52 293.4C1265.56 295.16 1254.84 297.4 1252.6 298.84C1244.92 303.8 1245.56 315 1253.72 321.08L1258.2 324.44L1285.4 320.6C1306.68 317.72 1312.6 316.44 1312.6 314.52C1312.6 312.76 1311.16 312.44 1306.68 313.08C1303.32 313.56 1291 315.16 1279.32 316.76C1259 319.32 1258.04 319.32 1255 316.6C1251.32 313.24 1250.84 308.12 1253.88 303.96C1255.64 301.72 1261.4 300.28 1282.04 297.56C1296.28 295.8 1307.96 293.4 1307.96 292.6C1307.96 290.04 1302.36 290.2 1278.52 293.4Z" fill="#0E1116"/>
<path d="M1210.68 324.12C1206.52 328.12 1203.96 329.24 1197.08 329.88C1190.04 330.36 1187.64 329.88 1183 326.68L1177.4 322.84L1173.72 327.32C1166.84 335.48 1152.6 336.76 1143.8 329.88L1139.64 326.68L1135.8 330.84C1127.8 339.48 1114.36 340.92 1106.2 333.88L1101.08 329.72L1097.72 333.72C1092.76 339.64 1088.44 341.4 1079.32 341.4C1073.24 341.4 1070.52 340.6 1067.32 337.56L1063.16 333.72L1059.48 337.72C1051.32 346.68 1039.64 348.44 1030.2 342.04L1024.12 338.04L1020.76 341.88C1018.84 344.12 1015.8 346.68 1013.88 347.64C1009.4 349.88 998.2 349.88 993.88 347.64C989.24 345.08 987.96 347.64 992.44 351.16C997.72 355.48 1007.96 355.16 1017.4 350.2C1024.92 346.36 1025.56 346.36 1032.6 348.76C1041.56 351.8 1050.84 350.68 1058.36 345.56C1063.48 342.04 1064.12 341.88 1068.44 344.12C1075 347.48 1090.36 346.2 1096.28 341.88C1100.76 338.68 1101.24 338.52 1108.28 340.92C1117.4 343.96 1127.8 342.68 1135.32 337.72C1140.12 334.36 1141.08 334.36 1145.24 336.28C1152.6 339.96 1164.28 339.16 1172.12 334.68C1178.36 331 1179.48 330.84 1183.8 332.76C1191.48 336.12 1200.76 335.48 1209.88 330.84C1216.76 327.48 1218.52 327.16 1221.56 328.76C1225.24 330.68 1242.52 331.16 1245.4 329.4C1249.56 326.84 1246.04 325.4 1235.32 325.4C1225.56 325.4 1223 324.92 1220.6 322.2C1216.92 318.04 1216.6 318.04 1210.68 324.12Z" fill="#0E1116"/>
<path d="M859.8 326.68C848.6 332.6 839 354.68 832.6 389.56C830.84 399.64 828.92 409.24 828.6 411.16C827.8 415.16 822.52 417.72 812.28 419.16C801.4 420.6 792.28 417.72 786.36 411C781.88 405.88 781.4 404.12 781.4 395.32C781.4 377.56 792.28 361.88 811.8 351.16C818.36 347.64 819.8 346.2 817.88 345.4C813.4 343.64 798.68 348.92 789.4 355.32C772.28 367.32 761.24 391.32 765.4 407C767.8 415.96 775.64 423.8 784.76 426.2C792.6 428.44 811 427.48 819.48 424.44C822.36 423.48 825.24 423 825.72 423.48C826.68 424.44 819.32 459.96 816.92 466.36C815.48 470.04 813.88 470.84 807.16 471.8C783.96 475 767.96 491.48 778.52 501.4C787 509.24 808.28 502.68 822.2 487.8L830.36 479.16L854.2 485.56C885.08 493.88 899.32 496.6 911.48 496.6C928.76 496.44 941.4 487.96 941.4 476.28C941.4 469.24 938.68 468.44 930.2 472.76C924.28 475.8 920.76 476.44 905.56 476.44C890.68 476.44 842.68 472.12 836.28 470.2C834.84 469.72 835 467.8 837.24 462.52C841.24 453.24 846.84 430.84 848.12 419.32C849.08 410.36 849.4 409.72 857.24 403.96C876.44 389.72 888.28 370.84 889.72 351.96C891.64 329.24 877.56 317.4 859.8 326.68ZM872.12 339.32C875.96 348.6 874.36 367 868.76 378.2C864.76 386.04 854.2 399 851.8 399C850.68 399 854.2 362.36 856.6 349.56C859.64 333.08 867.32 327.96 872.12 339.32ZM809.08 483.96C803 494.36 789.24 498.84 788.12 490.84C787.32 485.72 798.2 479.48 808.28 479.16C811.96 479 811.96 479 809.08 483.96Z" fill="#0E1116"/>
<path d="M1450.52 358.2C1432.44 360.6 1422.84 364.6 1414.04 373.08C1401.24 385.4 1398.36 401.4 1399.32 451.8C1399.8 479.96 1400.28 483.64 1403.32 489.56C1408.12 498.68 1415.16 504.12 1425.88 507.16C1434.36 509.72 1436.76 509.72 1459.8 507.16C1494.04 503.48 1503 498.84 1513.08 479.96C1516.44 473.72 1516.6 471.16 1517.08 430.36C1517.56 393.24 1517.24 386.2 1515 380.28C1506.68 358.68 1489.88 352.92 1450.52 358.2ZM1488.44 377.56C1490.52 379 1493.56 383.16 1495.16 386.84C1497.72 392.6 1498.2 397.72 1498.2 429.4C1498.2 463.64 1498.04 465.88 1494.68 472.6C1489.24 483.16 1482.36 486.04 1456.44 488.6C1436.44 490.68 1435 490.68 1429.56 487.64C1420.28 482.68 1419.8 480.6 1419.8 439.32C1419.8 399.48 1420.6 394.68 1428.28 386.52C1433.72 380.6 1439.64 378.2 1452.28 376.76C1472.28 374.36 1484.28 374.68 1488.44 377.56Z" fill="#0E1116"/>
<path d="M711 372.92C711.16 380.12 717.24 396.12 720.44 397.08C723.48 398.04 721.56 383.16 717.4 373.72C713.72 365.4 711 365.08 711 372.92Z" fill="#0E1116"/>
<path d="M1320.6 371C1311.32 372.12 1303.64 373.08 1303.48 373.24C1303.16 373.4 1303 407.48 1303 449.08V524.76L1309.08 524.28C1323.48 522.84 1322.2 525.88 1322.2 492.12C1322.2 475.64 1322.84 461.08 1323.8 459.8C1325.88 456.44 1347.16 454.68 1353.72 457.4C1362.36 461.08 1363.8 466.2 1363.8 493.4V517.4H1368.28C1370.68 517.4 1375.32 516.92 1378.68 516.44L1384.6 515.32V493.08C1384.6 466.2 1382.84 458.2 1375.8 451.96C1372.92 449.4 1369.72 447.16 1368.6 446.68C1367.64 446.36 1369.88 442.84 1373.72 438.84C1381.88 430.52 1384.6 422.68 1384.6 408.44C1384.6 393.56 1382.04 386.36 1374.36 379C1363.32 368.28 1354.2 367 1320.6 371ZM1353.4 388.44C1360.6 391.48 1363.64 396.6 1364.76 407.96C1365.56 415.8 1365.08 418.52 1361.88 424.6C1357.08 433.88 1350.68 436.92 1335 437.72L1323 438.2L1323.16 414.68C1323.16 401.72 1323.8 390.52 1324.44 389.88C1325.4 388.76 1335.32 387.16 1345.08 386.36C1346.68 386.36 1350.36 387.16 1353.4 388.44Z" fill="#0E1116"/>
<path d="M1622.36 375.32C1620.28 377.4 1608.6 393.72 1596.6 411.8C1575.8 443 1574.68 444.92 1575.48 451C1576.76 459.48 1582.52 464.6 1591.16 464.6C1594.68 464.6 1599 463.8 1600.76 463C1603.48 461.4 1624.28 431.64 1641.88 404.12C1650.36 390.68 1650.84 383.48 1643.96 376.44C1637.88 370.52 1628.44 370.04 1622.36 375.32ZM1641.4 379C1648.44 385.88 1647.16 389.4 1623.8 424.6C1611.8 442.68 1600.92 458.36 1599.48 459.32C1592.12 464.92 1578.2 458.52 1578.2 449.56C1578.2 447 1584.6 435.96 1595.48 420.28C1604.92 406.36 1615.16 391.16 1618.04 386.52C1620.92 381.88 1624.6 377.4 1626.04 376.6C1630.68 373.88 1637.4 374.84 1641.4 379Z" fill="#0E1116"/>
<path d="M1607.48 408.28C1592.28 431 1591.8 432.12 1594.84 436.6C1596.76 439.64 1598.84 440.6 1602.84 440.6C1608.76 440.6 1612.76 436.6 1621.88 421.88C1629.4 410.04 1623.48 412.92 1614.84 425.4C1606.2 437.88 1601.88 440.28 1597.4 435C1595.64 432.92 1597.24 429.88 1606.84 415.8C1613.08 406.52 1618.2 398.36 1618.2 397.4C1618.2 393.72 1615.32 396.6 1607.48 408.28Z" fill="#0E1116"/>
<path d="M1256.6 377.56C1245.56 378.68 1231.64 380.28 1225.4 380.92L1214.36 382.2V391C1214.36 401.08 1213.24 400.6 1233.08 398.52L1243.8 397.24V464.6V531.8L1251.48 530.84C1255.64 530.36 1259.96 529.72 1261.08 529.24C1262.52 528.76 1263 513.88 1263 461.56V394.52L1275.8 393.4L1288.6 392.28V383.64V375L1282.68 375.16C1279.32 375.32 1267.64 376.28 1256.6 377.56Z" fill="#0E1116"/>
<path d="M913.56 384.6C896.6 389.72 882.84 410.36 881.08 433.4C879.96 448.76 881.4 455.48 887.16 462.2C896.92 473.24 915.32 473.24 928.28 462.04C935.16 456.28 945.72 437.24 943.8 434.2C941.88 431 939.96 432.76 934.84 442.36C928.28 454.68 923.8 458.2 914.84 458.2C905.88 458.2 901.08 452.6 901.72 443.32C902.2 437.4 902.52 437.08 910.52 434.36C928.92 428.12 938.04 417.56 938.2 402.52C938.2 387 928.76 380.12 913.56 384.6ZM924.6 402.36C924.6 409.72 923.8 412.44 919.96 417.24C915.32 423.32 907.16 429.4 903.48 429.4C900.6 429.4 900.92 424.92 904.6 412.92C908.76 399.64 914.52 392.28 920.44 392.92C924.44 393.4 924.6 393.88 924.6 402.36Z" fill="#0E1116"/>
<path d="M688.6 387.16C688.6 390.36 698.2 399.64 704.92 403.16C714.04 407.8 713.4 404.12 703.48 394.36C693.56 384.6 688.6 382.2 688.6 387.16Z" fill="#0E1116"/>
<path d="M1158.52 386.84C1140.44 391.8 1128.6 406.84 1128.6 424.6C1128.6 442.04 1134.36 450.68 1155.48 465.72C1181.72 484.28 1187.8 491 1187.8 501.72C1187.8 516.92 1169.72 527 1155.64 519.8C1149.88 516.76 1147.8 511.8 1147.8 501.56V493.88L1140.28 495.16C1135.96 495.8 1131.64 496.44 1130.36 496.44C1128.76 496.6 1128.44 499.32 1128.92 508.28C1129.72 526.68 1137.88 535.8 1157.08 539.96C1173.08 543.32 1192.76 535.64 1201.4 522.52C1207.96 512.6 1209.72 500.92 1206.36 489.4C1203.96 481.56 1201.88 478.2 1194.52 471C1189.56 466.2 1178.84 457.72 1170.68 452.12C1162.68 446.68 1154.36 439.96 1152.6 437.24C1141.56 421.88 1152.92 402.36 1171.8 404.28C1180.92 405.24 1185.72 410.52 1187.16 421.4C1188.28 429.4 1188.28 429.4 1194.04 429.4C1197.24 429.4 1201.56 428.92 1203.64 428.28C1207.16 427.32 1207.32 426.84 1206.52 418.2C1205.08 401.24 1195.64 389.88 1179.8 386.36C1170.68 384.28 1167.96 384.28 1158.52 386.84Z" fill="#0E1116"/>
<path d="M1097.88 393.72L1091.8 394.36V471V547.64L1101.08 546.68C1106.04 546.2 1110.36 545.56 1110.68 545.4C1110.84 545.24 1111.16 510.84 1111.48 468.92L1111.8 392.6L1107.8 392.92C1105.56 393.08 1101.08 393.4 1097.88 393.72Z" fill="#0E1116"/>
<path d="M1019 401.4C1018.2 401.72 1012.6 402.36 1006.68 403L995.8 404.12V480.76V557.4H1001.08C1003.8 557.4 1015.48 556.28 1026.84 555C1051 552.12 1060.44 547.96 1067.8 537.4C1073.72 528.76 1075.8 520.76 1075.8 506.2C1075.8 491.32 1072.12 482.52 1063.48 476.28L1057.24 471.8L1061.88 467.96C1069.4 461.72 1072.6 452.92 1072.6 437.72C1072.6 418.52 1067 409.08 1051.96 402.84C1047.16 400.92 1023.64 399.8 1019 401.4ZM1045.08 420.76C1054.04 427 1056.44 445.24 1049.72 455.16C1045.08 462.04 1040.92 463.96 1027.48 465.24L1016.6 466.36V443.16V419.96L1021.88 419.32C1033.88 417.88 1041.56 418.36 1045.08 420.76ZM1044.6 484.44C1052.28 487.8 1055.64 495 1055.8 508.6C1055.8 527.96 1048.28 535.48 1027.48 537.08L1016.6 537.88V510.84V483.96L1025.08 483.32C1029.56 483 1034.68 482.68 1036.28 482.52C1037.88 482.36 1041.56 483.16 1044.6 484.44Z" fill="#0E1116"/>
<path d="M607.64 403.64C608.28 404.44 613.56 408.6 619.48 412.76C625.4 416.92 632.6 422.52 635.64 425.08C639.64 428.44 641.4 429.24 642.84 427.8C644.12 426.52 642.84 424.44 637.56 420.12C624.92 409.4 604.12 397.88 607.64 403.64Z" fill="#0E1116"/>
<path d="M727 422.52C731.16 436.44 739.8 450.2 744.6 450.2C747.64 450.2 746.2 446.68 737.24 432.44C728.12 418.04 724.6 414.68 727 422.52Z" fill="#0E1116"/>
<path d="M1681.08 423.32C1665.08 436.76 1653.4 447.8 1653.4 449.24C1653.4 450.2 1644.6 459.32 1633.88 469.72C1623 479.96 1614.68 488.92 1615.48 489.56C1617.56 491.8 1626.68 486.04 1640.92 473.56C1648.44 466.84 1655.48 461.4 1656.6 461.4C1659 461.4 1696.12 429.88 1697.24 426.84C1698.68 423 1695.32 418.2 1691.16 418.2C1689.08 418.2 1684.44 420.6 1681.08 423.32ZM1694.2 424.92C1694.2 426.36 1685.88 434.52 1675.8 443.16C1665.72 451.8 1658.84 457.08 1660.6 455.16C1662.36 453.08 1670.52 445.72 1678.68 438.68C1686.68 431.64 1693.4 425.24 1693.4 424.44C1693.4 423.64 1692.12 423 1690.52 423C1687.96 423 1680.44 429.08 1662.68 445.24C1660.12 447.32 1658.2 448.76 1658.2 448.12C1658.2 447.64 1664.76 441.4 1672.92 434.2C1682.84 425.4 1688.6 421.4 1690.84 421.72C1692.76 422.04 1694.2 423.32 1694.2 424.92Z" fill="#0E1116"/>
<path d="M654.36 440.44C653.88 441.24 668.28 455.8 686.52 472.76C726.36 510.2 720.6 504.92 734.68 517.24C741.08 522.84 745.88 527.8 745.56 528.12C745.08 528.6 737.56 525.24 728.6 520.6C719.64 516.12 698.84 506.04 682.52 498.36C666.04 490.52 643.64 479.8 632.76 474.36C614.04 465.4 610.2 464.28 610.2 467.96C610.2 468.76 621.24 474.84 634.68 481.24C647.96 487.8 670.52 498.52 684.6 505.4C706.04 515.8 753.24 536.6 755.16 536.6C760.28 536.6 737.72 513.24 687 466.36C670.84 451.32 657.08 439 656.44 439C655.64 439 654.84 439.64 654.36 440.44Z" fill="#0E1116"/>
<path d="M643.16 453.08C641.88 455.16 647.64 459.96 680.28 484.6C699.48 499.16 710.04 506.2 711 505.24C712.12 504.12 711.48 502.52 709.08 500.28C703.96 495.8 645.72 451.8 644.76 451.8C644.28 451.8 643.64 452.44 643.16 453.08Z" fill="#0E1116"/>
<path d="M1694.2 495.96C1676.28 499.48 1675.8 499.64 1675.8 503C1675.8 504.76 1675.16 506.2 1674.2 506.2C1670.68 506.2 1639.48 509.56 1635.96 510.36C1630.04 511.64 1634.84 514.2 1643.16 514.2C1648.92 514.2 1700.76 506.04 1710.68 503.48C1714.84 502.52 1715.48 505.4 1711.48 507.64C1709.88 508.44 1700.92 510.04 1691.48 511.16C1670.04 513.72 1668.28 516.76 1689.08 515.32C1706.36 514.04 1713.88 512.28 1719.64 507.64C1724.6 503.64 1724.92 500.92 1720.6 496.6C1716.92 492.92 1710.84 492.76 1694.2 495.96ZM1718.04 499.16C1719.48 500.44 1720.12 502.36 1719.64 503.16C1719.16 504.12 1717.88 503.64 1716.76 502.04C1714.84 499.64 1713.72 499.64 1699.48 502.04C1683.32 504.76 1676.12 505.24 1677.88 503.64C1679 502.52 1706.04 497.08 1712.12 496.76C1714.04 496.76 1716.76 497.72 1718.04 499.16Z" fill="#0E1116"/>
<path d="M591.8 499.64C590.2 502.2 593.72 503.16 621.88 507.96C651.64 512.92 656.6 513.4 656.6 511.16C656.6 508.44 654.36 507.96 624.12 503C590.04 497.4 593.08 497.72 591.8 499.64Z" fill="#0E1116"/>
<path d="M868.76 517.56C815.8 524.6 756.76 568.6 715.48 631.64C694.84 663.16 673.72 709.72 663.8 745.56L661.08 755.48L653.88 756.44C630.84 759.64 599.32 756.28 582.84 748.92C560.12 738.84 550.52 720.6 554.36 694.36C558.68 663.48 578.2 636.44 611.8 614.68C635.32 599.32 659 589.4 687.48 583C699.64 580.12 703 578.84 702.68 576.92C701.88 572.76 692.12 571.48 668.6 572.28C578.52 575.64 510.04 620.12 501.4 680.76C496.28 717.08 518.2 748.12 558.84 761.24C580.92 768.44 588.44 769.4 623.64 769.24H656.92L655.96 775.8C648.44 826.52 653.4 870.2 671.16 906.2C678.2 920.28 681.56 925.08 692.44 935.96C713.72 957.08 736.44 966.52 770.2 968.12C836.44 971 891.96 932.44 927 859C931.96 848.44 938.04 834.04 940.6 827C943 819.96 945.24 814.04 945.4 813.72C945.72 813.4 949.56 817.08 954.04 821.88C965.56 834.04 977.72 839.32 995.96 840.28C1037.4 842.36 1069.08 815.8 1091.48 760.44C1092.76 757.08 1094.52 756.12 1099.8 755.32C1109.24 754.04 1125.08 745.88 1132.12 738.68C1142.04 728.44 1151.32 706.2 1163.8 663.32L1167.16 651.64L1174.36 652.44C1178.2 653.08 1184.76 653.88 1189.08 654.36C1203.8 656.28 1203.96 659.32 1190.36 688.28C1172.28 727 1166.68 754.36 1172.28 776.28C1178.36 799.64 1198.2 809.88 1224.44 803.16C1236.76 799.96 1243.48 796.12 1254.68 785.56C1259.16 781.24 1263 778.04 1263 778.36C1263 778.68 1261.24 784.76 1259 791.64C1254.2 807 1251.64 816.12 1250.84 821.4C1250.52 823.64 1244.6 846.84 1237.4 873.08C1230.36 899.32 1224.6 922.52 1224.6 924.76C1224.6 929.88 1227.16 929.72 1238.2 923.8C1243.16 921.08 1256.6 915.96 1267.96 912.44L1288.6 905.88V898.2C1288.6 882.52 1295.96 847.8 1321.4 742.84C1343.32 652.44 1352.44 625.72 1368.44 605.72C1376.76 595.32 1383.48 591 1391.48 591C1404.76 591 1408.12 600.76 1406.36 634.2C1405.24 657.24 1401.24 679.32 1394.04 702.52L1388.92 718.84L1382.36 719.8C1356.6 723.96 1336.92 734.68 1330.36 748.28C1321.24 767 1332.12 781.56 1355 781.72C1372.6 781.88 1390.04 774.68 1405.72 760.6C1412.6 754.68 1432.6 727.16 1432.6 723.8C1432.6 723 1436.76 721.24 1441.88 719.8C1449.4 717.56 1457.56 713.88 1479.16 703.32C1479.64 703.16 1480.92 706.68 1482.04 711.32C1487.16 731.8 1498.84 746.36 1515.64 752.92C1529.56 758.36 1551.16 758.04 1567 752.12C1595.32 741.72 1619 715 1632.44 678.04L1636.92 666.04L1649.24 660.6C1672.92 650.36 1692.28 633.24 1705.56 610.84C1721.4 583.8 1730.04 551 1723 543.96C1717.72 538.84 1713.4 544.12 1711.8 557.56C1708.28 586.36 1696.6 608.92 1674.84 629.24C1665.24 638.36 1648.12 648.6 1642.52 648.6C1641.24 648.6 1640.76 647.16 1641.24 644.92C1645.24 625.88 1644.92 597.4 1640.6 580.76C1633.4 552.76 1620.76 541.4 1596.28 541.4C1565.24 541.4 1533.88 558.84 1511.8 588.28C1501.88 601.4 1487.96 630.36 1483.8 646.2C1482.04 653.24 1480.12 664.92 1479.48 672.12C1478.52 684.76 1478.2 685.56 1473.24 689.4C1463.8 696.6 1442.2 705.72 1442.2 702.52C1442.2 702.2 1443.96 697.72 1446.04 692.44C1459 660.44 1461.4 620.76 1451.8 595.48C1438.36 559.96 1400.12 560.28 1365.88 596.28C1360.28 602.04 1355.8 606.2 1355.8 605.56C1355.8 605.08 1358.36 595.96 1361.56 585.4C1368.28 563.48 1369.08 556.92 1365.08 556.12C1362.52 555.64 1320.28 571.48 1314.2 575.32C1311.8 576.92 1311 579.16 1311 584.44C1311 588.28 1304.44 617.56 1296.44 649.24C1281.88 706.52 1281.72 707.16 1269.4 732.6C1256.76 758.52 1248.92 769.88 1240.44 774.2C1234.36 777.4 1230.68 777.24 1226.68 773.56C1219.8 767 1221.08 747.16 1230.84 709.4C1236.76 686.68 1252.28 640.12 1258.36 626.36C1263.8 614.2 1263.96 612.28 1259.8 611C1256.76 610.04 1253.72 611.16 1211.8 628.76C1196.92 635 1191.64 636.44 1183.8 636.6H1174.2L1174.36 631.8C1174.52 629.08 1176.92 618.2 1179.8 607.32C1185.56 585.24 1185.4 576.28 1179.32 570.52C1173.72 565.24 1168.6 564.92 1160.6 568.92C1146.52 576.12 1135.96 595.96 1135.96 615C1135.96 627.96 1140.28 636.76 1149.4 642.84C1156.92 647.8 1157.08 645.4 1147.48 672.28C1134.2 710.2 1124.76 726.36 1112.6 732.6C1102.36 737.88 1097.4 738.04 1099 732.92C1099.64 731 1100.44 719.64 1100.92 707.64C1101.88 681.88 1099.32 666.36 1091.32 651.32C1083.16 635.8 1071.96 629.4 1053.08 629.4C1033.72 629.4 1015.48 635.96 996.76 649.24C963.16 673.24 938.2 722.52 938.2 765.08C938.2 775.16 936.92 780.92 931.64 796.6C912.12 854.68 877.24 904.76 844.6 920.92C820.44 933.08 790.2 933.08 768.28 921.08C750.04 911.16 732.92 885.72 725.24 857.24C720.28 839.16 719.16 793.08 723 769.72C724.44 760.76 726.52 752.6 727.48 751.64C728.6 750.68 734.04 748.6 739.8 747C808.12 728.6 869.72 694.2 908.76 652.92C929.56 630.84 939.32 613.08 943.32 589.72C947 567.64 939.96 544.28 925.24 531.16C911.8 519 892.6 514.36 868.76 517.56ZM899 536.76C902.68 537.88 908.12 541.24 911.96 545.24C923.48 556.76 924.76 575.48 915.8 599.48C900.44 639.96 840.12 690.36 771 720.28C761.4 724.44 732.6 735 731 735C730.04 735 736.28 713.88 743 694.2C761.56 640.92 796.76 586.36 829.24 560.28C854.52 540.12 879.96 531.48 899 536.76ZM1606.52 557.72C1609.24 559.32 1613.08 563.8 1614.84 567.48C1618.68 575.8 1621.88 595.16 1621.08 607L1620.6 615.8L1614.04 616.76C1604.44 618.52 1593.24 624.28 1587.96 630.36C1575.8 644.12 1582.2 660.44 1601.88 666.36C1605.56 667.48 1608.6 668.44 1608.6 668.6C1608.6 670.52 1602.68 684.76 1598.04 694.04C1586.84 716.76 1571.48 732.28 1558.2 734.36C1548.44 735.8 1543 732.76 1538.2 723C1534.68 715.96 1534.2 712.44 1533.72 693.24C1532.6 655.64 1539.48 623.16 1555.32 591C1571.8 557.56 1588.44 546.84 1606.52 557.72ZM1060.92 643.64C1071.8 648.76 1077.56 663.96 1077.88 689.72L1078.2 703.64L1071.64 704.76C1045.88 709.24 1032.12 731.64 1045.56 747C1048.44 750.2 1053.72 753.72 1058.36 755.32C1062.68 756.92 1066.2 758.84 1066.2 759.8C1066.2 763 1055.16 784.44 1048.76 793.88C1037.88 810.04 1023.96 819.8 1012.12 819.8C996.92 819.8 991.8 807.48 991.96 771C992.28 733.88 1000.12 702.04 1016.92 671.64C1025.88 655 1034.04 646.2 1043.16 643C1051.32 640.12 1052.92 640.12 1060.92 643.64ZM1379.64 738.2C1368.6 759.16 1354.68 769.24 1345.4 763.16C1338.68 758.68 1341.4 748.44 1351.48 740.76C1358.04 735.64 1373.88 729.72 1383.48 728.76C1384.28 728.6 1382.52 732.92 1379.64 738.2Z" fill="#0E1116"/>
<path d="M1554.36 614.36C1554.36 616.12 1554.84 616.6 1555.32 615.32C1555.8 614.2 1555.64 612.76 1555.16 612.28C1554.68 611.64 1554.2 612.6 1554.36 614.36Z" fill="#0E1116"/>
<path d="M1569.72 635.32C1570.2 636.44 1571.16 636.92 1571.96 636.44C1574.2 635.16 1573.72 633.08 1571.16 633.08C1569.88 633.08 1569.24 634.04 1569.72 635.32Z" fill="#0E1116"/>
<path d="M1590.2 672.6C1590.68 673.4 1592.6 675 1594.52 675.96C1597.08 677.24 1597.56 677.24 1597.08 675.64C1596.76 674.68 1594.84 673.08 1592.76 672.44C1590.52 671.48 1589.56 671.64 1590.2 672.6Z" fill="#0E1116"/>
<path d="M591.32 519.32C591.96 520.92 604.28 521.56 644.28 521.88C690.2 522.2 696.6 521.88 696.6 519.8C696.6 517.72 689.88 517.4 643.64 517.4C602.04 517.4 590.84 517.88 591.32 519.32Z" fill="#0E1116"/>
<path d="M1652.12 632.6C1652.12 634.84 1652.44 635.64 1652.92 634.52C1653.24 633.56 1653.24 631.64 1652.92 630.52C1652.44 629.56 1652.12 630.36 1652.12 632.6Z" fill="#0E1116"/>
<path d="M1472.92 661.4C1472.92 663.64 1473.24 664.44 1473.72 663.32C1474.04 662.36 1474.04 660.44 1473.72 659.32C1473.24 658.36 1472.92 659.16 1472.92 661.4Z" fill="#0E1116"/>
<path d="M1705.4 677.08C1700.6 686.2 1679.64 719 1661.56 746.04C1652.12 759.96 1648.6 766.68 1649.56 768.12C1651 770.36 1678.2 783.32 1702.68 793.56C1710.04 796.6 1717.88 800.28 1720.12 801.72C1725.08 805.08 1723.8 806.52 1742.36 775.8C1749.88 763.48 1759 748.76 1762.52 743C1766.2 737.24 1773.08 725.56 1777.88 716.92C1785.24 703.64 1786.36 700.76 1784.44 699C1782.04 696.76 1757.72 687.16 1731.8 678.2C1722.52 675 1713.72 671.8 1712.28 670.84C1709.88 669.72 1708.76 670.68 1705.4 677.08ZM1735.32 685.4C1768.44 696.76 1778.84 700.76 1779.32 702.52C1779.64 703.32 1778.04 706.68 1775.8 710.04C1773.56 713.24 1766.36 725.4 1759.48 737.08C1743.8 764.28 1737.88 773.72 1737.24 772.92C1736.44 772.28 1741.4 757.4 1743 755C1745.4 751.64 1754.2 723.48 1753.4 722.04C1750.52 717.4 1747.32 724.6 1731.64 770.52C1727 784.44 1722.52 795.8 1721.88 795.8C1720.6 795.8 1700.28 786.68 1671.48 773.4C1663.32 769.56 1656.6 765.88 1656.6 765.08C1656.6 764.28 1660.76 757.4 1666.04 749.72C1681.88 726.04 1704.12 691 1707.64 683.96C1709.56 680.44 1711.32 677.4 1711.64 677.4C1712.12 677.4 1722.68 680.92 1735.32 685.4Z" fill="#0E1116"/>
<path d="M1707.8 695.64C1707.8 697.24 1711 698.68 1716.76 699.8C1721.88 700.92 1731.64 704.12 1738.52 707.16C1745.56 710.2 1752.28 712.6 1753.72 712.6C1757.72 712.6 1755.16 708.76 1749.24 705.88C1746.2 704.44 1743 702.36 1741.88 701.4C1740.76 700.6 1739.32 699.96 1738.68 700.12C1738.04 700.28 1732.28 698.84 1725.88 696.92C1712.6 692.76 1707.8 692.44 1707.8 695.64Z" fill="#0E1116"/>
<path d="M1699.32 705.24C1698.68 706.84 1700.76 708.28 1705.88 710.04C1710.04 711.32 1719.48 714.84 1727 717.88C1736.44 721.72 1740.92 722.84 1741.72 721.56C1743.48 719 1739.48 716.6 1721.24 709.4C1703.32 702.36 1700.6 701.88 1699.32 705.24Z" fill="#0E1116"/>
<path d="M1693.4 719.64C1693.4 721.08 1695.16 722.52 1697.88 723.16C1704.6 724.6 1715.8 728.76 1724.12 732.76C1733.08 737.24 1737.08 737.72 1736.28 734.04C1735.64 731 1710.04 719.64 1700.28 718.04C1694.52 717.24 1693.4 717.4 1693.4 719.64Z" fill="#0E1116"/>
<path d="M1687 732.44C1687 733.88 1689.56 735 1693.88 735.64C1697.72 736.28 1706.36 739.48 1713.08 743C1726.68 750.04 1728.6 750.52 1728.6 747C1728.6 743.32 1700.76 730.2 1693.08 730.2C1688.92 730.2 1687 730.84 1687 732.44Z" fill="#0E1116"/>
<path d="M1680.6 743.48C1680.6 745.08 1683.16 746.52 1688.6 747.64C1693.08 748.6 1700.92 751.48 1706.2 754.2C1716.28 759.32 1721.24 760.28 1720.28 756.92C1719.16 753.72 1696.44 743 1688.28 741.88C1682.04 741.08 1680.6 741.4 1680.6 743.48Z" fill="#0E1116"/>
<path d="M1672.44 754.36C1671.32 755 1670.84 756.12 1671.48 756.76C1673.24 758.52 1707.64 769.72 1708.6 768.92C1710.68 766.84 1708.6 765.4 1697.88 760.92C1682.68 754.68 1675.16 752.6 1672.44 754.36Z" fill="#0E1116"/>
<path d="M850.2 782.52C841.72 788.44 767.8 847.32 766.36 849.24C765.4 850.68 771 857.08 785.56 871.16C796.92 882.04 812.44 897.08 820.28 904.44C830.84 914.84 834.68 917.56 836.12 916.12C838.2 914.04 838.36 914.36 795.48 873.08L771.8 850.36L777.08 846.68C779.8 844.76 797.88 830.68 817.08 815.48C836.12 800.28 852.44 787.8 853.24 787.8C853.88 787.8 858.36 792.28 863.16 797.72C867.8 803.32 876.12 812.28 881.4 817.88L891 828.12L885.56 832.44L880.28 836.76L880.44 854.36C880.6 863.96 881.4 872.44 882.04 873.08C883.32 874.36 888.92 866.68 897.88 851.64C901.4 845.88 901.4 845.72 898.2 843.64C895.32 841.72 895.16 840.76 896.76 835.16C898.36 829.4 898.2 828.6 893.88 823.96C891.32 821.24 882.52 811.48 874.2 802.2C851.96 776.92 854.84 779.32 850.2 782.52ZM890.84 838.04C890.36 839.48 888.76 840.6 887.32 840.6C885.24 840.6 885.4 840.12 887.8 837.4C891 833.72 892.44 834.04 890.84 838.04Z" fill="#0E1116"/>
<path d="M1424.6 796.6C1413.56 801.4 1396.76 808.44 1387.32 812.12C1375.96 816.44 1370.68 819.16 1372.12 819.96C1374.84 821.4 1477.08 855.16 1524.6 870.2C1543.16 876.12 1559.96 881.56 1562.2 882.52L1566.2 884.28L1562.04 885.56C1559 886.68 1548.6 884.28 1514.84 874.36C1450.84 855.48 1382.52 835.8 1366.52 831.8C1351 827.64 1349.08 826.52 1346.2 819.8C1343.16 812.44 1345.4 803.96 1351 802.04C1356.28 800.12 1359 795.64 1354.04 796.92C1352.44 797.4 1349.72 796.76 1348.28 795.64C1346.36 794.04 1346.04 794.04 1346.84 795.32C1347.48 796.6 1347 797.4 1345.4 797.4C1343.96 797.4 1343 796.44 1343.16 795.32C1343.64 791.64 1343 789.4 1341.4 789.4C1340.6 789.4 1340.28 790.52 1340.76 791.8C1341.4 793.08 1340.92 794.2 1339.96 794.2C1336.92 794.2 1327 801.24 1327 803.48C1327 804.6 1328.76 806.2 1330.84 807C1334.52 808.28 1334.68 808.92 1333.24 813.72C1332.44 816.6 1332.12 822.2 1332.6 826.2C1333.24 830.84 1332.76 835.96 1331.16 840.44C1327.48 850.52 1327.96 857.08 1332.6 862.68C1337.4 868.44 1337.4 868.6 1333.24 884.92C1327.64 905.88 1327.96 906.2 1363 916.76C1373.56 919.96 1382.68 923 1383.32 923.48C1383.96 924.12 1382.68 931.48 1380.6 939.8C1375.8 958.2 1375.64 962.84 1379.64 966.84C1383.96 971.16 1437.08 986.84 1459 990.2C1468.44 991.64 1470.36 989.4 1475.8 969.56C1478.36 960.12 1480.6 951.96 1480.92 951.64C1481.24 951.48 1492.44 954.36 1506.04 958.36C1520.44 962.52 1533.88 965.4 1538.68 965.4L1547 965.56L1573.08 938.68C1587.48 923.96 1600.28 909.88 1601.4 907.64C1602.68 905.4 1606.52 890.52 1609.88 874.84C1620.6 826.04 1622.04 818.2 1620.44 816.6C1619.64 815.8 1604.92 811.64 1587.8 807.16C1562.36 800.6 1550.68 798.52 1524.6 795.8C1507 793.88 1485.08 791.32 1475.96 790.04C1449.56 786.52 1447.16 786.84 1424.6 796.6ZM1343.8 826.84C1347.16 831.96 1350.2 833.08 1411 850.36C1439.16 858.36 1482.84 870.84 1508.12 878.36C1533.24 885.72 1556.28 891.8 1559.32 891.8C1562.2 891.8 1567 890.36 1569.88 888.6C1574.84 885.56 1575 885.56 1573.56 888.44C1571.64 891.96 1563.8 895 1556.6 895C1546.84 895 1351.32 838.36 1343.96 833.4C1337.88 829.24 1335.8 823.64 1337.4 815.64L1338.68 809.4L1339.96 816.12C1340.6 819.8 1342.36 824.6 1343.8 826.84ZM1387 853.4C1410.68 860.6 1430.36 866.52 1430.52 866.84C1430.68 867 1429.88 870.68 1428.76 875C1426.84 882.68 1426.52 883 1421.24 882.68C1416.12 882.36 1354.36 867.96 1343.32 864.44C1334.04 861.4 1331.8 852.6 1336.92 839.16C1338.2 835.64 1338.52 835.64 1341.08 837.88C1342.52 839.32 1363.16 846.2 1387 853.4ZM1603.96 875.32C1597.24 908.6 1600.92 902.2 1566.04 938.52C1555.32 949.88 1545.88 959 1544.92 959C1543.96 959 1543.8 956.76 1544.6 952.92C1545.4 949.72 1546.68 943 1547.8 938.04C1549.56 929.08 1549.72 928.92 1556.6 927.16C1565.72 924.92 1568.12 922.36 1571 911.32C1574.04 900.44 1580.76 885.4 1582.84 885.4C1583.64 885.4 1589.88 876.44 1596.76 865.4C1603.64 854.52 1609.4 845.72 1609.56 845.88C1609.72 846.04 1607.16 859.32 1603.96 875.32ZM1451 871.96C1456.28 873.4 1461.24 875.16 1461.88 875.8C1463.32 877.08 1458.68 896.28 1456.44 898.84C1455.32 900.12 1432.92 895.64 1430.68 893.56C1430.04 892.92 1430.2 890.04 1431 887C1431.8 883.96 1433.24 878.36 1434.2 874.52C1435.48 869.24 1436.6 867.8 1438.68 868.44C1440.12 868.92 1445.72 870.36 1451 871.96ZM1414.68 887.16C1423.96 889.08 1424.6 889.56 1424.6 893.56C1424.6 897.56 1425.24 898.04 1441.4 902.04C1461.4 907 1461.08 907 1461.72 903.16C1462.2 900.44 1465.88 901.4 1501.72 913.4C1523.48 920.76 1542.04 927.16 1542.84 927.64C1543.64 928.12 1543.64 931.48 1542.84 935.32C1542.2 939.16 1540.76 946.36 1539.8 951.32C1538.52 957.72 1537.24 960.6 1535.48 960.6C1534.2 960.6 1511.8 954.36 1485.72 946.84C1459.48 939.32 1424.6 929.24 1407.8 924.44C1363.48 911.64 1336.92 903.16 1335.8 901.4C1335 900.28 1339.48 879.32 1342.2 871.64C1342.52 870.36 1353.08 872.44 1373.72 877.56C1390.68 881.72 1409.08 886.04 1414.68 887.16ZM1507.32 887.96C1537.56 896.92 1545.88 898.68 1556.12 898.84C1563 899 1568.6 899.64 1568.6 900.28C1568.6 905.08 1563.16 919.16 1560.92 920.44C1552.44 924.76 1548.28 923.8 1505.88 909.4C1482.84 901.4 1463.8 895 1463.48 895C1463.32 895 1463.48 894.04 1463.8 892.92C1464.12 891.96 1465.24 887.96 1466.2 884.12C1467.16 880.44 1468.6 877.4 1469.4 877.4C1470.04 877.4 1487.16 882.2 1507.32 887.96ZM1433.4 937.4C1451 942.52 1465.56 946.84 1465.88 947C1467 947.96 1459.16 975.96 1457.24 978.04C1455.48 979.96 1454.68 979.8 1452.28 976.76C1448.44 972.12 1400.6 958.36 1393.56 959.96C1390.04 960.76 1389.08 960.44 1389.72 958.84C1390.2 957.56 1392.28 949.88 1394.36 941.72C1396.44 933.56 1398.84 927.16 1399.8 927.48C1400.6 927.8 1415.8 932.28 1433.4 937.4Z" fill="#0E1116"/>
<path d="M1436.44 881.56C1435.16 888.44 1437.24 890.84 1446.68 892.6C1453.08 893.72 1456.6 891 1456.6 884.44C1456.6 879.8 1453.88 877.88 1445.08 876.6L1437.56 875.48L1436.44 881.56ZM1451 883.96C1453.4 886.36 1449.88 888.44 1445.08 887.48C1442.04 886.84 1440.6 885.72 1440.6 883.48C1440.6 880.76 1441.24 880.44 1445.08 881.4C1447.48 881.88 1450.04 883.16 1451 883.96Z" fill="#0E1116"/>
<path d="M819.32 828.28C793.72 850.52 787 857.72 793.4 856.28C796.12 855.64 850.2 808.76 850.2 807C850.2 802.36 844.44 806.36 819.32 828.28Z" fill="#0E1116"/>
<path d="M1675.8 816.76C1674.36 819.16 1674.52 820.6 1675.96 822.36C1680.28 827.64 1688.6 822.2 1685.24 816.12C1683 812.44 1677.88 812.76 1675.8 816.76Z" fill="#0E1116"/>
<path d="M827.96 839.16C812.92 852.44 800.6 863.8 800.6 864.6C800.6 865.4 801.24 866.36 802.04 867C803.64 867.96 858.2 820.44 858.2 818.2C858.2 813.56 852.44 817.56 827.96 839.16Z" fill="#0E1116"/>
<path d="M1629.4 817.08C1629.4 818.2 1638.68 823.8 1650.04 829.24C1668.12 838.04 1670.84 839.96 1671.32 843.64C1671.8 847.16 1674.52 849.24 1691.48 858.04C1711.64 868.28 1721.08 870.68 1723.8 866.2C1724.76 864.6 1724.44 862.68 1723.16 860.6C1721.24 857.72 1683.96 837.88 1664.6 829.4C1659.8 827.32 1650.68 823.16 1644.28 820.28C1631.64 814.52 1629.4 814.04 1629.4 817.08ZM1713.4 859.8C1716.76 862.04 1717.4 863 1715.48 863C1711.96 863 1677.4 845.4 1677.4 843.64C1677.4 842.2 1705.88 855 1713.4 859.8Z" fill="#0E1116"/>
<path d="M847.64 840.28C813.72 870.04 810.2 873.4 810.2 875.48C810.2 879.8 815.32 876.12 842.04 852.12C865.72 830.84 871.48 824.6 866.52 824.6C865.88 824.6 857.4 831.64 847.64 840.28Z" fill="#0E1116"/>
<path d="M602.52 830.84C601.24 831.48 600.6 833.88 600.92 835.96C601.24 838.84 602.36 839.8 605.4 839.8C609.88 839.8 611.64 835.48 608.6 831.8C606.36 829.08 605.4 828.92 602.52 830.84Z" fill="#0E1116"/>
<path d="M845.88 863.16C824.44 881.4 817.88 888.6 822.68 888.6C825.24 888.6 872.6 846.84 872.6 844.44C872.6 843.32 872.12 842.2 871.48 842.2C870.68 842.2 859.16 851.64 845.88 863.16Z" fill="#0E1116"/>
<path d="M595 859.32C585.4 860.44 568.12 862.68 556.6 864.12C533.56 867 527 868.44 525.24 871.16C523.48 874.04 525.56 878.84 529.08 879.96C533.4 881.4 578.52 874.2 580.6 871.8C581.56 870.68 591.48 868.28 602.84 866.36C624.92 862.68 631.48 860.44 627.64 858.04C624.76 856.28 616.6 856.6 595 859.32ZM571.8 871C571.8 871.8 569.4 872.44 566.68 872.44L561.4 872.28L566.2 871C568.92 870.36 571.16 869.72 571.48 869.56C571.64 869.56 571.8 870.04 571.8 871ZM529.08 873.72C528.12 875.96 529.08 876.12 536.76 875.32C541.56 874.68 549.08 873.88 553.4 873.4C560.44 872.76 560.76 872.76 555.8 874.2C545.72 876.76 529.08 877.88 527.96 875.96C527.32 875 527.32 873.4 527.8 872.6C529.4 870.04 530.2 870.68 529.08 873.72Z" fill="#0E1116"/>
<path d="M1187 894.84C1174.04 898.2 1166.36 900.92 1153.4 907C1148.28 909.24 1126.04 917.24 1103.96 924.6C1068.44 936.6 1064.76 938.2 1071.8 938.2C1091 938.2 1134.52 928.12 1164.76 916.6C1178.84 911.16 1200.6 897.88 1201.88 893.72C1202.68 891.32 1200.76 891.32 1187 894.84Z" fill="#0E1116"/>
<path d="M1632.28 895.16C1628.92 897.08 1628.44 904.6 1631.32 907.48C1632.44 908.6 1634.68 909.4 1636.6 909.4C1638.52 909.4 1640.76 908.6 1641.88 907.48C1644.92 904.44 1644.28 896.92 1640.76 895C1636.92 893.08 1635.8 893.08 1632.28 895.16Z" fill="#0E1116"/>
<path d="M606.68 904.12C567.16 931 560.6 935.96 559 939.96C556.6 945.56 558.36 951.96 563.32 955.8C571 961.88 575.8 960.28 599.48 943.48C620.12 928.92 621.4 927.8 621.4 922.84C621.4 916.28 615.64 911.64 609.24 913.24C604.44 914.52 583 928.44 583 930.36C583 932.92 585.24 931.96 595.8 924.76C608.76 915.8 613.4 914.52 617.24 918.68C621.24 923.16 619 926.04 603.16 936.6C596.12 941.4 587 947.64 583.16 950.52C574.52 957.08 568.44 957.4 563.96 951.64C562.04 949.24 560.6 946.36 560.6 945.08C560.6 941.4 569.24 934.2 596.44 915.64C625.4 895.8 629.24 894.68 636.44 903.16C643.64 911.64 641.24 917.88 627.8 926.84C603 943.32 593.72 951 598.36 951C600.12 951 638.36 924.12 640.76 921.24C642.04 919.8 643 915.32 643 911.48C643 905.4 642.2 903.64 637.72 899.64C629.4 892.12 623.16 893.08 606.68 904.12Z" fill="#0E1116"/>
<path d="M1138.2 990.04C1115.8 996.6 1097.24 1002.68 1096.92 1003.64C1095.96 1006.68 1100.6 1007.16 1107.96 1004.76C1111.8 1003.64 1129.72 998.36 1147.8 993.4C1180.44 984.28 1185.4 982.36 1183.64 979.64C1182.36 977.4 1181.88 977.56 1138.2 990.04Z" fill="#0E1116"/>
</svg>
