<svg width="1312" height="736" viewBox="0 0 1312 736" fill="none" xmlns="http://www.w3.org/2000/svg">
<path d="M586.149 41.9047V49.9527L579.532 50.1316L572.736 50.3104L579.89 52.4565L587.043 54.7815L581.678 55.6757C577.386 56.3911 577.922 56.5699 584.361 56.9276C589.726 57.1065 591.514 57.643 589.905 58.7161C587.938 59.968 587.938 60.3257 589.905 61.2199C591.336 61.7564 586.328 62.4718 578.995 62.6506L565.582 63.1872L578.995 64.2602C587.043 64.9756 589.905 65.691 586.149 65.8698L579.89 66.4064L585.076 67.6583C587.938 68.1948 590.62 69.8044 591.157 70.8775C591.693 72.6659 588.116 73.2025 577.743 73.5601C570.053 73.5601 566.655 74.0967 570.053 74.4544C588.832 76.2428 591.514 76.9582 591.514 80.3562C591.514 82.6812 589.905 83.9331 586.686 84.4696L581.678 85.185L586.686 85.5427C590.441 85.7216 591.514 86.6158 591.693 89.6561C591.693 91.9811 592.051 95.2003 592.409 96.8099C592.945 99.4926 591.336 100.029 582.036 100.387L570.947 100.566L581.678 101.639C589.905 102.533 592.588 103.427 592.945 105.752C593.482 108.256 592.23 108.971 587.58 109.15L581.678 109.329L587.043 110.76L592.409 112.012L587.043 112.906L581.678 113.8L587.58 114.158C592.588 114.337 593.303 114.873 593.303 119.523C593.303 123.994 592.409 124.888 588.474 125.604L583.466 126.319L588.832 126.856C593.839 127.392 593.661 127.392 587.043 128.644C583.109 129.36 613.512 130.075 654.646 130.254L729.225 130.433V92.8753C729.225 61.0411 729.582 54.9603 731.907 54.245C733.874 53.3507 734.59 50.4892 734.59 43.5143V33.8567H660.369H586.149V41.9047ZM732.801 42.7989V49.9527H662.158H591.514V43.6932V37.4336L645.704 36.8971C675.392 36.7182 707.227 36.3605 716.348 36.0029L732.801 35.6452V42.7989ZM724.396 72.6659C725.111 82.3235 725.648 98.0618 725.648 107.541V125.067H690.236C670.564 125.067 642.485 124.531 627.641 123.815L600.457 122.742V107.362C600.457 98.956 600.993 84.112 601.709 74.6332L602.782 57.1065L657.508 56.5699C687.554 56.3911 714.738 56.0334 717.778 55.6757L723.323 55.318L724.396 72.6659Z" fill="black"/>
<path d="M621.024 41.0111C602.781 41.7265 613.691 42.0841 655.004 42.263C693.634 42.4418 713.486 41.9053 709.551 40.8322C703.292 39.2226 670.027 39.4015 621.024 41.0111Z" fill="black"/>
<path d="M727.615 43.8725C727.615 45.8398 728.152 46.3763 728.688 44.9456C729.225 43.6937 729.046 42.0841 728.509 41.5475C727.973 40.8321 727.436 41.9052 727.615 43.8725Z" fill="black"/>
<path d="M621.918 90.1939V114.338H630.681C636.583 114.338 639.802 113.444 640.339 111.834C641.77 108.436 640.16 107.184 634.079 107.184C629.429 107.184 629.072 106.648 629.072 100.209C629.072 94.3073 629.787 93.0554 633.185 92.5189C635.331 92.1612 637.12 90.7305 637.12 89.2997C637.12 87.8689 635.331 86.4382 633.185 86.0805C629.787 85.544 629.072 84.2921 629.072 78.3902C629.072 71.773 629.429 71.4153 634.437 71.4153C638.014 71.4153 639.802 70.5211 639.802 68.7326C639.802 66.7653 637.656 66.0499 630.86 66.0499H621.918V90.1939Z" fill="black"/>
<path d="M645.168 68.5538C645.168 70.1634 646.778 75.5287 648.566 80.3575C651.964 89.4785 651.964 89.6574 648.566 99.4938C644.453 111.476 644.274 114.338 647.672 114.338C649.103 114.338 651.428 110.94 652.858 106.648C655.004 100.388 655.72 99.6727 656.793 102.713C660.012 112.013 661.443 114.338 663.947 114.338C667.345 114.338 667.345 113.623 662.874 100.388C658.939 88.7632 659.118 87.3324 666.272 68.1961C666.629 66.9442 665.556 66.0499 663.231 66.0499C660.727 66.0499 659.118 67.4807 658.402 70.8787C656.435 79.1056 655.362 79.6421 653.216 73.0249C651.07 66.7653 645.168 63.5461 645.168 68.5538Z" fill="black"/>
<path d="M671.994 90.3726C671.994 112.549 672.352 114.517 675.213 113.98C677.896 113.443 678.254 110.582 678.79 89.6572C679.148 66.944 679.148 66.0498 675.571 66.0498C672.173 66.0498 671.994 67.1228 671.994 90.3726Z" fill="black"/>
<path d="M682.725 68.732C682.725 70.1627 684.334 71.4147 686.301 71.4147C689.7 71.4147 689.878 72.6666 689.878 91.9817C689.878 111.297 690.057 112.549 693.455 112.549C696.853 112.549 697.032 111.297 697.032 91.9817C697.032 72.6666 697.211 71.4147 700.609 71.4147C702.576 71.4147 704.186 70.1627 704.186 68.732C704.186 66.5859 701.861 66.0493 693.455 66.0493C685.05 66.0493 682.725 66.5859 682.725 68.732Z" fill="black"/>
<path d="M578.637 81.6087C580.783 81.9664 584.36 81.9664 586.685 81.6087C588.831 81.251 587.042 80.8933 582.571 80.8933C578.1 80.8933 576.312 81.251 578.637 81.6087Z" fill="black"/>
<path d="M793.43 98.2406C792.714 102.533 791.999 102.712 776.618 103.785L760.522 104.679L776.261 105.037C789.674 105.394 791.82 105.752 791.999 108.435C791.999 110.402 792.536 110.76 793.072 109.329C793.609 108.077 797.722 107.004 803.087 106.825L812.387 106.646L804.339 105.573C797.186 104.679 796.112 103.964 795.218 99.1348C794.324 93.9484 794.145 93.9484 793.43 98.2406Z" fill="black"/>
<path d="M515.684 103.07L516.757 108.793L506.384 109.509L495.832 110.045L507.099 110.403C517.472 110.76 518.188 110.582 518.188 106.647C518.188 104.501 517.293 101.461 516.399 100.03C515.147 98.0625 514.968 98.9567 515.684 103.07Z" fill="black"/>
<path d="M528.561 112.013C532.674 112.371 539.47 112.371 543.763 112.013C547.876 111.655 544.478 111.298 536.072 111.298C527.667 111.298 524.269 111.655 528.561 112.013Z" fill="black"/>
<path d="M764.099 114.516C763.383 115.41 764.277 117.914 766.066 119.881L769.464 123.637L772.504 119.702C774.293 117.556 775.187 115.052 774.65 114.158C773.398 111.833 765.529 112.191 764.099 114.516ZM770.358 117.198C770.358 118.808 769.464 119.702 768.212 119.344C764.993 118.271 764.456 114.337 767.497 114.337C769.106 114.337 770.358 115.589 770.358 117.198Z" fill="black"/>
<path d="M908.605 121.133C895.728 125.783 888.038 131.506 881.957 140.984C875.698 150.821 875.698 151.179 874.982 168.526C874.625 176.038 873.909 183.013 873.373 183.907C872.836 184.801 873.731 186.053 875.519 186.769C878.202 188.02 878.023 188.378 874.088 189.451C869.975 190.703 869.975 190.882 873.552 191.061C878.917 191.24 880.348 194.459 875.519 195.353C872.3 195.89 872.479 196.247 876.771 196.426C880.527 196.605 881.421 197.141 879.811 198.215C878.023 199.288 878.559 200.003 881.957 200.897C884.64 201.613 886.25 202.865 885.713 203.759C884.998 204.832 886.071 206.084 887.859 206.62C889.648 207.157 892.867 208.588 895.192 209.661C898.948 211.449 899.126 211.807 896.265 212.701C891.078 214.668 920.23 218.603 929.351 217.172C964.762 211.986 985.866 177.29 971.737 147.423C960.828 124.531 932.391 112.548 908.605 121.133ZM940.618 123.279C968.339 130.969 982.289 161.73 969.591 187.305C957.609 211.27 928.993 220.749 906.101 208.051C871.584 188.557 875.519 137.408 912.719 124.173C921.124 121.133 931.676 120.775 940.618 123.279Z" fill="black"/>
<path d="M911.645 136.157C902.703 140.985 894.297 152.789 892.688 162.804C889.29 183.729 908.247 203.76 931.318 203.76C943.837 203.581 959.039 193.208 963.331 181.762C966.729 173.177 965.656 158.87 961.185 151.001C951.528 134.011 928.635 127.214 911.645 136.157ZM939.366 135.978C954.389 140.27 965.299 157.976 962.795 174.072C958.681 199.646 927.026 210.198 906.995 192.671C898.411 185.16 895.549 178.9 895.549 167.812C895.549 144.562 916.116 129.539 939.366 135.978Z" fill="black"/>
<path d="M927.204 137.051C924.879 139.197 925.952 141.164 929.529 141.164C931.496 141.164 933.106 139.912 933.106 138.481C933.106 135.799 929.35 134.726 927.204 137.051Z" fill="black"/>
<path d="M942.943 141.164C942.406 142.058 942.764 142.952 943.658 142.952C944.731 142.952 945.625 142.058 945.625 141.164C945.625 140.091 945.267 139.375 944.91 139.375C944.373 139.375 943.479 140.091 942.943 141.164Z" fill="black"/>
<path d="M911.645 142.952C911.645 143.846 912.539 144.74 913.612 144.74C914.506 144.74 914.864 143.846 914.327 142.952C913.791 141.879 912.896 141.163 912.36 141.163C912.002 141.163 911.645 141.879 911.645 142.952Z" fill="black"/>
<path d="M902.345 153.147C903.597 153.683 905.207 153.504 905.743 152.968C906.459 152.431 905.386 151.895 903.419 152.074C901.451 152.074 900.915 152.61 902.345 153.147Z" fill="black"/>
<path d="M908.068 157.081C908.068 157.975 912.718 162.804 918.441 167.633C925.416 173.714 929.53 176.217 931.139 175.144C932.57 174.429 933.107 172.998 932.391 171.925C931.855 171.031 934.537 167.991 938.472 165.308C942.406 162.625 945.268 159.943 944.91 159.406C943.837 158.512 933.107 165.666 930.066 169.421C927.92 171.925 927.741 171.925 927.741 169.421C927.741 167.812 926.847 165.844 925.595 165.129C924.343 164.235 924.164 164.592 925.237 166.381C925.953 167.812 923.091 165.844 918.799 162.089C910.93 155.471 908.068 154.041 908.068 157.081Z" fill="black"/>
<path d="M958.145 167.811C958.145 168.884 959.039 170.136 959.933 170.672C961.006 171.209 961.721 170.494 961.721 169.063C961.721 167.453 961.006 166.201 959.933 166.201C959.039 166.201 958.145 166.917 958.145 167.811Z" fill="black"/>
<path d="M955.462 182.297C955.999 183.192 956.893 184.086 957.429 184.086C957.787 184.086 958.145 183.192 958.145 182.297C958.145 181.224 957.25 180.509 956.177 180.509C955.283 180.509 954.926 181.224 955.462 182.297Z" fill="black"/>
<path d="M925.953 197.5C925.953 199.109 926.847 200.182 927.92 199.825C928.993 199.467 929.888 198.394 929.888 197.5C929.888 196.605 928.993 195.532 927.92 195.175C926.847 194.817 925.953 195.89 925.953 197.5Z" fill="black"/>
<path d="M458.454 123.637C455.772 127.393 455.95 127.93 460.064 132.222C463.641 135.799 465.25 136.335 467.754 134.726C472.225 131.864 472.404 127.572 467.933 123.459C462.746 118.809 461.852 118.809 458.454 123.637ZM467.218 125.068C470.258 128.466 469.9 134.01 466.681 134.01C463.641 134.01 459.17 127.393 460.243 124.353C461.673 120.597 463.283 120.776 467.218 125.068Z" fill="black"/>
<path d="M529.634 123.458C529.098 124.531 530.528 127.572 533.211 130.075C538.219 135.262 540.365 134.368 542.332 126.32C543.584 121.67 543.226 121.491 537.324 121.491C533.748 121.491 530.349 122.385 529.634 123.458ZM540.365 127.214C538.576 133.116 538.219 133.295 534.284 128.645C529.634 123.279 529.634 123.279 536.251 123.279C541.08 123.279 541.617 123.816 540.365 127.214Z" fill="black"/>
<path d="M609.756 133.473C622.275 133.831 643.199 133.831 656.255 133.473C669.311 133.294 659.117 132.936 633.542 132.936C607.967 132.936 597.236 133.294 609.756 133.473Z" fill="black"/>
<path d="M502.629 323.943L503.88 496.706L499.767 497.422C496.19 498.137 495.832 497.6 496.369 492.235C497.084 486.512 496.905 486.333 491.182 486.333C487.784 486.154 456.487 486.154 421.612 485.975C374.218 485.975 361.52 485.439 371.536 484.366C378.868 483.472 406.231 482.935 432.343 483.114L479.736 483.651L480.273 438.045C480.631 393.334 480.631 392.44 476.875 389.221C473.477 386.538 467.754 386.18 416.247 386.18C363.845 386.18 359.374 386.359 356.692 389.4C354.188 392.261 353.651 398.878 353.294 438.045L352.757 483.293L345.603 485.26C339.701 487.049 338.45 488.122 338.45 491.698C338.271 494.202 339.165 496.706 340.238 497.422C341.132 498.137 326.467 498.852 307.688 498.852H273.171V507.794V516.737H281.219H289.267V590.957V665.177H276.569C265.66 665.177 264.05 664.82 264.945 662.316C265.481 660.706 266.554 654.089 267.091 647.293C268.164 637.278 268.879 634.953 271.741 634.237C274.066 633.522 274.96 632.091 274.602 629.945C274.066 627.262 271.919 626.547 262.798 626.189L251.71 625.653V619.393C251.71 615.816 252.425 613.491 253.498 614.207C256.897 616.353 274.781 604.192 278.716 597.038C280.325 593.819 279.789 593.64 270.489 593.64C262.262 593.64 259.758 594.355 256.181 598.111L251.71 602.403V594.534C251.71 590.063 252.604 586.486 253.677 586.486C254.572 586.486 254.929 585.771 254.393 584.697C253.856 583.803 254.393 583.446 256.002 583.982C257.612 584.697 261.725 582.194 266.375 577.544L274.066 570.211L267.27 573.967C259.043 578.259 256.718 578.438 261.546 574.325C263.693 572.715 265.839 569.853 266.375 568.244C267.806 564.846 274.96 560.375 274.96 563.057C274.96 563.952 274.066 565.025 272.814 565.382C271.204 565.919 271.204 566.455 272.814 567.528C275.496 569.138 277.821 563.594 275.496 561.269C272.814 558.586 262.083 563.594 257.075 569.675L252.962 574.861L254.214 567.171C254.929 562.342 254.393 557.513 252.783 553.757C250.1 547.319 241.695 538.735 239.727 540.523C239.191 541.238 238.654 546.604 238.654 552.506C238.654 561.805 239.37 564.488 244.199 571.463C249.743 579.153 252.068 588.096 247.954 585.413C246.524 584.697 246.524 585.413 247.954 588.096C250.637 593.103 248.491 592.924 241.874 587.559C237.403 583.982 237.045 582.909 238.833 580.584C240.801 578.259 240.622 577.544 237.76 575.934C232.395 573.073 220.77 571.821 217.73 573.967C215.405 575.576 216.12 576.828 221.843 582.015C227.745 587.559 228.997 588.096 232.574 586.307C235.972 584.34 236.329 584.519 234.183 586.844C231.322 590.421 232.753 591.315 242.41 592.924L249.922 594.176V609.915V625.832H240.979C234.183 625.832 231.68 626.547 230.785 628.693C230.07 630.482 230.785 632.27 232.395 633.164C234.004 634.059 235.614 638.351 236.329 643.18C237.045 648.008 237.939 654.804 238.476 658.381L239.549 665.177H176.774C136.177 665.177 114 665.893 114 666.966C114 668.039 133.136 668.933 167.296 668.933C196.447 669.112 217.193 669.827 213.259 670.543C207.357 671.616 208.609 671.973 221.307 672.51L236.508 673.047L216.835 674.12C197.878 675.193 198.414 675.193 230.249 675.908C255.466 676.266 260.831 676.802 252.604 677.875C246.702 678.591 261.368 678.948 285.69 678.591C320.923 678.233 325.752 678.412 310.729 679.664C282.829 681.989 281.219 682.525 300.892 682.883C333.084 683.241 492.077 679.306 499.409 677.697C504.953 676.623 501.734 676.266 485.102 675.908C465.25 675.55 464.535 675.372 475.265 674.12C491.182 672.152 629.071 668.218 630.323 669.47C631.039 670.006 624.6 670.543 616.373 670.722C608.147 670.9 594.197 671.437 585.255 672.152C576.491 672.689 606.179 673.225 651.427 673.047C697.032 672.868 723.322 673.404 710.446 673.941C687.196 675.193 687.196 675.193 702.398 675.908C714.201 676.445 710.267 676.981 684.513 677.875C657.865 678.77 662.694 678.948 708.657 678.77C740.134 678.591 761.416 678.948 756.051 679.664C750.685 680.2 774.472 680.558 808.81 680.379C871.048 679.843 871.048 679.843 828.483 681.273C750.328 684.135 685.228 687.891 686.838 689.5C687.196 689.858 744.068 688.964 813.46 687.533C882.672 686.102 958.324 684.85 981.395 684.85C1012.16 684.85 1022.71 684.314 1021.28 682.883C1019.85 681.452 996.239 680.379 947.951 679.485C882.315 678.233 886.249 678.054 997.848 678.412C1064.38 678.591 1118.57 678.412 1118.03 677.875C1117.67 677.339 1109.45 676.445 1099.79 675.908L1082.44 674.656L1102.47 674.477C1125.19 674.12 1134.13 671.973 1120 670.364C1115.17 669.827 1127.51 669.112 1147.72 668.754C1167.93 668.575 1189.57 667.681 1196.01 666.966C1202.8 666.25 1177.94 665.535 1137.53 665.535L1067.24 665.177V590.957V516.737H1077.08H1086.91V509.583V502.429H1072.78C1059.19 502.429 1058.83 502.25 1059.37 498.316C1060.8 490.804 1055.79 487.406 1042.2 486.691C1031.47 485.975 1029.68 485.439 1029.68 482.577C1029.68 475.96 1046.14 429.103 1048.46 429.103C1049.71 429.103 1052.75 426.778 1055.26 423.917C1058.48 419.982 1060.8 418.909 1063.48 419.624C1065.63 420.161 1067.24 419.803 1067.24 418.551C1067.24 417.478 1065.27 416.584 1062.95 416.584C1059.73 416.584 1058.48 415.332 1057.76 411.397C1056.33 404.423 1049.89 398.699 1043.45 398.699C1039.52 398.699 1032.01 394.228 1015.2 381.53C1001.96 371.694 992.662 363.467 993.377 362.394C993.914 361.321 994.987 357.386 995.702 353.631C996.954 347.55 996.417 346.298 992.483 343.258C986.223 338.25 977.46 338.608 970.843 344.331C965.656 348.623 964.941 348.802 955.82 346.835C945.983 344.51 920.051 344.867 917.726 347.371C917.011 348.087 918.978 351.306 922.018 354.525C926.847 359.533 927.562 361.142 926.668 366.686C925.237 375.629 931.139 389.221 937.22 390.651C939.724 391.367 943.301 391.009 945.268 389.936C947.414 388.863 949.381 387.969 949.739 387.969C950.276 387.969 954.389 394.05 959.039 401.382C968.518 416.584 969.412 416.763 976.208 402.634C979.248 396.732 980.321 391.367 980.143 383.14C980.143 373.661 980.5 371.873 983.183 371.873C984.793 371.873 995.344 380.279 1006.43 390.473C1020.74 403.707 1027.36 411.04 1028.97 415.69C1030.22 419.445 1032.01 423.201 1032.9 424.095C1033.8 424.99 1030.58 437.509 1024.32 455.572L1014.3 485.439L999.279 485.975C980.143 486.691 979.606 486.87 979.606 493.487V498.852H949.203C923.449 498.852 918.799 498.495 918.799 496.17C918.799 494.023 921.661 493.487 934.537 493.487C958.502 493.487 974.42 491.52 975.493 488.658C976.029 487.227 975.314 483.293 973.704 480.074L970.843 474.172L980.679 470.237C986.044 467.912 990.158 465.945 989.8 465.408C989.264 465.051 984.435 466.66 978.891 469.164L968.697 473.635L971.558 479.001C977.281 490.268 978.354 489.91 933.464 489.91H892.688L884.282 458.076C879.632 440.549 875.876 425.526 875.876 424.99C875.876 423.38 887.144 423.38 898.053 424.811C911.645 426.778 907.89 429.64 893.761 428.388C886.249 427.672 881.242 427.851 881.242 428.745C881.242 429.818 890.363 431.07 901.451 431.786C928.814 433.395 952.958 435.899 954.21 437.151C954.747 437.688 954.21 439.118 953.137 440.191C951.885 441.443 950.991 446.093 950.991 450.743C950.991 457.718 952.064 460.222 957.787 466.66C961.364 470.953 964.404 474.887 964.404 475.424C964.404 475.96 965.12 477.57 966.014 478.822C966.729 480.074 966.908 481.683 966.193 482.399C965.477 483.114 949.918 483.829 931.497 484.187L898.053 484.724L894.834 472.562C893.045 465.945 891.078 459.149 890.72 457.36C890.184 455.572 891.078 454.141 893.224 453.605C895.907 452.889 895.907 452.71 892.688 452.532C887.144 452.174 885.713 443.947 890.899 442.874C893.761 442.337 893.582 441.98 889.826 441.801C881.957 441.443 883.924 438.403 892.509 437.509L900.02 436.793L891.972 436.436C885.713 436.078 884.64 435.72 887.501 434.468C890.542 433.038 890.363 432.859 885.892 432.859C882.136 432.68 881.063 433.395 881.957 435.363C882.494 436.793 885.892 448.955 889.469 462.189L896.086 486.333H932.212C952.064 486.333 968.697 485.797 969.233 485.26C970.664 484.008 964.762 468.27 960.291 460.937C958.324 457.718 956.177 453.247 955.641 451.101C954.568 447.703 955.283 446.987 961.006 445.914C966.908 444.841 967.266 444.484 964.583 442.516C961.9 440.549 962.079 440.191 966.193 440.191C968.518 440.191 970.127 441.086 969.591 441.98C968.875 443.053 970.127 442.874 972.095 441.801C974.062 440.728 976.208 439.834 976.745 439.834C977.281 439.834 980.143 444.662 983.362 450.564C986.581 456.466 989.442 460.937 989.8 460.58C990.337 460.043 988.012 454.678 984.614 448.418L978.712 437.151L970.306 437.509C962.795 437.688 961.9 437.151 959.933 432.68C957.966 428.03 957.251 427.851 941.512 426.599C918.262 424.99 913.434 423.917 913.434 420.34C913.434 417.836 913.076 417.836 911.645 420.161C910.215 422.307 909.857 421.949 909.857 418.73C909.857 416.047 910.572 414.974 911.824 415.869C913.076 416.584 913.613 416.047 913.076 414.617C912.539 413.186 910.393 411.755 908.068 411.576C904.313 411.04 904.134 411.397 905.207 417.478C906.28 423.201 906.101 423.917 903.24 423.022C900.378 422.307 878.023 421.234 873.015 421.77C870.511 421.949 871.584 428.03 880.169 460.401C886.965 485.618 889.29 491.698 892.509 493.845C893.582 494.381 891.615 495.812 888.217 496.706C882.494 498.495 882.494 498.495 887.144 498.673C895.37 499.031 892.509 502.429 883.924 502.429H875.876V483.829C875.876 473.635 875.34 462.726 874.803 459.685L873.73 454.141H852.269C834.385 454.141 830.808 453.605 829.913 451.28C829.377 449.67 829.735 447.882 830.808 447.166C833.669 445.557 830.271 440.907 827.052 442.159C823.296 443.589 822.223 451.637 822.223 478.643V502.608L817.752 502.071L813.102 501.535L813.281 329.487V157.439L807.558 156.544C804.339 156.008 751.759 155.114 690.773 154.577C629.787 154.041 562.184 153.146 540.722 152.431L501.555 151.358L502.629 323.943ZM798.437 170.673C795.754 173.177 793.966 175.144 794.502 175.144C795.039 175.144 793.429 178.006 790.747 181.404C786.097 187.663 785.918 187.663 771.968 187.663C759.449 187.663 757.839 187.306 757.839 184.265C757.839 180.51 750.328 179.615 705.974 177.827C692.74 177.29 678.075 176.396 673.425 175.86L664.84 174.965V181.225V187.484L602.424 188.021C568.085 188.379 540.365 188.021 540.901 187.127C541.259 186.411 540.543 185.875 539.113 185.875C537.682 185.875 535.178 184.265 533.39 182.477C530.349 178.9 530.528 178.9 541.617 178.185L553.063 177.648L540.365 177.29C530.171 176.933 526.951 176.217 524.448 173.356C521.228 169.779 521.407 169.779 538.04 169.6C605.106 168.527 738.166 166.917 767.676 166.56L803.445 166.381L798.437 170.673ZM536.072 195.175C536.072 197.321 534.642 198.394 532.138 198.573L528.024 198.93L532.138 199.646L536.072 200.361V411.934C536.072 528.362 535.536 633.343 534.82 645.147L533.747 666.966H525.342H516.936L517.473 637.814C519.976 524.248 518.724 272.078 515.326 197.5L514.253 170.852L525.163 181.404C531.065 187.306 536.072 193.565 536.072 195.175ZM804.339 297.116C802.55 393.692 802.55 444.305 804.16 526.573C805.233 584.519 806.664 639.96 807.379 649.439L808.452 666.966H797.364H786.454V430.176V193.386L795.754 182.477C800.762 176.396 805.233 171.925 805.769 172.283C806.127 172.819 805.412 228.976 804.339 297.116ZM732.264 182.119C743.353 182.835 752.832 183.908 753.189 184.265C753.547 184.623 753.547 190.346 753.01 196.963L751.937 209.125H726.541C702.04 209.125 700.967 208.946 700.073 205.369C698.999 201.434 699.178 201.434 721.176 202.686C746.036 204.117 743.711 205.19 745.857 191.061L746.572 186.411L730.476 185.159C721.534 184.623 705.259 184.086 693.992 184.086C677.359 184.086 673.782 183.55 673.782 181.404C673.782 178.542 679.327 178.721 732.264 182.119ZM680.579 188.915C678.79 189.273 675.571 189.273 673.425 188.915C671.1 188.558 672.531 188.2 676.465 188.2C680.4 188.021 682.188 188.379 680.579 188.915ZM686.302 203.759C686.302 207.157 685.05 207.336 665.377 207.694L644.273 208.052L664.84 208.588C676.107 208.946 686.123 210.019 687.017 210.913C688.269 212.165 685.586 212.701 679.863 212.88L671.1 213.059L680.936 214.848C686.302 215.742 710.267 216.278 734.232 215.921C772.147 215.384 777.512 215.742 777.154 218.067C776.618 220.392 769.822 220.928 731.907 221.644L687.196 222.717L732.264 223.074C776.081 223.432 777.333 223.611 776.976 227.009C776.797 228.976 775.545 230.586 773.935 230.586C771.61 230.586 771.61 230.765 773.935 232.374C775.724 233.626 768.928 234.163 752.474 234.52L728.33 234.878L752.474 235.951L776.618 237.024L754.262 237.561C728.33 238.276 732.443 240.78 760.164 241.138C774.293 241.317 777.512 241.853 777.512 243.999C777.512 245.967 775.008 246.682 767.318 247.04L756.945 247.397L767.139 247.934C776.797 248.649 777.512 248.828 777.154 252.941C776.797 257.234 776.081 257.413 764.993 257.77L753.368 257.949L764.993 259.022L776.618 260.095L777.154 275.655L777.87 291.393L770.001 291.751L762.31 291.929L770.001 292.645C778.764 293.539 780.374 297.831 772.683 299.62C764.456 301.408 763.92 301.766 769.822 301.945C777.512 302.124 779.301 305.7 771.789 305.879C768.212 306.058 767.318 306.416 769.464 306.952C777.512 308.741 778.406 309.993 772.147 311.066L765.887 312.318L771.789 312.675L777.512 312.854V329.844V346.835L770.895 347.013L764.099 347.371L771.253 348.623L778.406 349.875L769.822 350.233C759.27 350.412 760.164 353.988 770.895 354.167C776.797 354.167 777.691 354.525 774.829 355.777C771.789 357.029 771.789 357.386 774.472 357.386C780.374 357.744 777.512 361.142 771.074 361.142C763.562 361.142 764.278 363.646 772.504 365.613L778.406 367.044L773.041 368.296C767.854 369.548 767.854 369.727 772.147 370.084C775.545 370.442 774.829 370.979 769.464 371.873L762.31 373.125L770.358 373.661L778.406 374.198L771.253 375.45L764.099 376.702L771.253 377.238C778.227 377.596 778.227 377.775 773.041 379.027L767.676 380.457L772.683 380.636C776.26 380.815 777.512 381.709 777.512 384.392C777.512 387.075 776.26 387.969 772.683 388.148L767.676 388.505L772.683 389.221C775.366 389.578 777.512 391.188 777.512 392.619C777.512 394.05 775.545 395.301 772.683 395.301L767.676 395.659L772.683 396.375C777.333 397.09 779.658 402.276 775.366 402.276C773.756 402.276 773.935 402.992 775.724 404.065C777.87 405.496 777.512 405.853 773.935 406.032L769.464 406.211L773.935 407.642L778.406 409.072L773.935 409.43L769.464 409.788L773.935 411.219C778.406 412.649 778.406 412.649 773.041 413.186L767.676 413.544L772.683 414.259C776.618 414.974 777.512 415.869 777.512 420.34C777.512 424.811 776.797 425.526 772.683 425.705L767.676 426.063L772.683 426.778C776.797 427.493 777.512 428.388 777.512 433.753C777.512 438.224 776.797 439.834 774.472 440.013C771.789 440.013 771.789 440.37 773.935 441.264C778.406 443.411 778.227 448.776 773.578 448.955C769.464 449.134 769.643 449.134 773.935 450.564C777.87 451.816 777.691 451.995 771.253 452.532L764.099 452.889L770.895 453.605C777.512 454.32 780.374 457.539 774.472 457.897C771.789 457.897 771.789 458.255 774.829 459.507C777.691 460.758 776.618 461.116 770.358 461.474L762.31 461.832L769.464 462.905C773.578 463.62 776.618 464.872 776.439 466.124C776.26 467.376 776.081 469.164 775.902 470.058C775.902 470.774 773.578 471.31 770.895 470.953C766.603 470.416 766.603 470.595 771.789 472.026C779.837 474.708 779.301 479.179 770.895 479.358L764.099 479.716L771.253 481.147C777.691 482.399 777.333 482.399 768.033 482.041C762.131 481.683 758.733 482.22 759.985 482.935C761.237 483.829 765.708 484.545 770.001 484.545C775.545 484.545 777.512 485.26 777.512 487.227C777.512 489.195 775.187 489.91 769.106 490.268L760.522 490.447L768.57 491.698C773.935 492.593 775.008 492.95 771.789 493.129C765.887 493.487 765.172 496.527 770.716 497.422C778.227 498.495 776.439 502.429 768.212 502.787L760.522 502.966L768.57 504.218C775.366 505.291 775.902 505.469 771.253 506.006L765.887 506.543L770.895 507.258C776.618 508.152 778.049 514.948 772.326 514.948C766.603 514.948 766.066 518.525 771.61 518.704C775.187 518.704 773.756 519.598 767.139 521.029C754.083 524.248 753.726 525.679 765.53 525.679C777.87 525.679 779.301 529.077 767.318 529.435C761.953 529.613 760.522 530.15 763.205 530.687C767.318 531.402 767.497 531.581 764.099 533.012C761.416 534.085 762.489 534.442 768.212 534.442C776.976 534.621 778.585 538.019 770.001 538.556L764.099 538.735L770.358 539.629C776.26 540.523 776.439 540.523 772.147 541.775L767.676 543.206L772.147 543.563C776.26 543.742 776.26 543.921 773.041 545.352C770.001 546.604 770.001 546.961 772.683 546.961C774.293 547.14 775.724 548.392 775.724 549.823C775.724 551.254 774.293 552.506 772.683 552.684C770.001 552.684 770.001 553.042 773.041 554.294C775.724 555.367 774.114 555.904 766.781 556.261L756.945 556.798L766.424 557.334C775.008 558.05 775.724 558.407 775.724 562.521C775.724 566.277 775.008 566.813 768.212 567.171L760.522 567.35L768.57 568.602C776.618 569.853 776.439 569.853 765.53 570.032C759.27 570.211 754.262 571.105 754.262 572.178C754.262 573.073 759.27 574.146 765.53 574.325L776.618 574.682L762.31 575.755L748.003 576.828L761.953 577.186C774.293 577.544 775.724 577.901 775.724 580.942C775.724 583.803 773.935 584.697 765.53 585.592C749.255 587.38 748.897 587.738 763.205 588.453L776.618 588.99L763.205 590.063L749.791 591.136L763.026 591.494C775.724 591.851 779.658 593.282 769.822 593.997C764.099 594.534 765.351 597.217 771.431 597.217C774.114 597.217 775.724 598.29 775.724 599.899C775.724 602.045 772.683 602.582 759.807 602.582C740.67 602.582 732.801 604.728 746.214 606.338C754.799 607.411 754.62 607.411 741.743 607.947C730.297 608.663 731.728 608.841 751.401 609.736C767.676 610.272 774.829 611.345 775.366 612.776C775.902 614.564 768.57 615.101 743.174 615.459L710.446 615.638L742.101 616.889C772.326 617.963 786.454 620.109 767.497 620.824L758.733 621.003L767.676 622.255C775.724 623.328 776.081 623.507 770.358 624.043L764.099 624.58L770.358 625.832C774.651 626.726 769.106 627.262 753.368 627.799L730.118 628.335L751.58 629.409L773.041 630.482L747.109 631.197L721.176 631.734L748.003 633.88L774.829 636.026L741.743 636.562C723.501 636.741 699.894 637.457 688.984 638.172C670.027 639.245 670.921 639.424 710.267 640.855C778.585 643.358 782.52 644.61 727.436 646.041C700.43 646.756 663.767 647.83 646.062 648.545L613.87 649.976L637.119 651.049C649.996 651.764 678.432 652.479 700.609 652.658C739.955 653.195 740.312 653.195 717.599 654.447C704.901 655.162 664.125 656.414 626.925 657.129L559.68 658.381L558.607 643.358C557.891 635.31 557.176 624.401 556.997 619.572C556.639 614.564 556.282 621.361 556.103 634.237L555.745 658.024H549.665H543.763L542.511 612.061C540.365 517.273 539.292 352.737 540.543 290.856L541.795 227.009L547.518 226.83L553.063 226.651L547.697 225.221L542.332 223.79L548.591 223.432L554.851 223.074L549.307 221.465C544.657 220.213 543.584 218.782 543.047 213.953C542.69 210.913 542.511 206.442 542.868 204.117L543.405 200.182H614.943C685.05 200.182 686.302 200.182 686.302 203.759ZM964.404 357.565C966.193 359.533 967.266 361.142 966.729 361.142C966.193 361.142 964.404 359.533 962.616 357.565C960.827 355.598 959.754 353.988 960.291 353.988C960.827 353.988 962.616 355.598 964.404 357.565ZM943.837 379.205C946.878 383.319 947.056 384.213 944.731 386.18C943.301 387.253 940.618 387.79 938.651 387.075C934.358 385.823 928.635 371.694 930.424 367.044C931.497 364.183 932.034 364.361 935.968 369.19C938.472 372.052 942.049 376.702 943.837 379.205ZM1024.67 392.798C1034.51 399.594 1034.69 400.13 1032.19 403.886C1029.5 407.642 1029.15 407.463 1010.37 390.294C999.815 380.815 990.516 372.409 989.621 371.694C988.906 370.979 988.727 369.548 989.264 368.475C990.158 367.223 995.166 370.084 1002.5 375.986C1009.12 381.173 1019.13 388.684 1024.67 392.798ZM476.16 391.546C477.233 392.44 477.769 409.251 477.411 436.972L476.875 480.968H418.214H359.553L358.48 436.793C357.586 405.138 357.765 392.082 359.195 390.294C360.984 388.327 371.178 388.148 417.856 389.042C448.975 389.757 475.265 390.83 476.16 391.546ZM935.432 428.209C948.666 429.103 955.462 430.355 957.251 432.143C960.291 435.005 960.827 439.834 958.145 439.834C957.251 439.834 956.356 438.761 956.356 437.33C956.356 434.468 950.812 433.395 931.318 431.786C914.149 430.355 909.857 429.461 909.857 427.136C909.857 426.063 911.288 425.705 913.076 426.241C914.686 426.599 924.701 427.493 935.432 428.209ZM1039.52 439.476C1037.19 445.199 1032.9 457.897 1029.68 467.912C1025.93 480.074 1023.24 486.333 1021.46 486.333C1020.02 486.333 1018.95 485.797 1018.95 485.26C1018.95 484.545 1023.07 471.31 1027.89 455.93C1035.76 431.249 1037.37 427.851 1040.23 428.566C1043.45 429.461 1043.45 429.818 1039.52 439.476ZM872.3 478.822V501.535L851.732 502.071C832.775 502.787 831.165 502.429 830.987 499.389C830.987 496.527 830.808 496.527 829.377 499.746C828.483 502.071 827.767 494.381 827.767 479.179L827.588 455.035L849.944 455.572L872.3 456.108V478.822ZM396.574 490.983C396.574 492.95 400.33 493.487 417.141 493.487C434.31 493.487 437.708 493.129 437.708 490.804C437.708 488.479 441.643 488.122 465.787 488.479C491.004 489.016 494.044 489.374 494.581 492.056C495.117 495.097 490.825 495.275 420.36 495.097C379.226 494.918 349.359 494.202 354.009 493.666C358.659 492.95 362.951 491.877 363.667 491.341C364.203 490.625 361.878 490.447 358.48 491.162C354.903 491.698 349.896 491.52 347.213 490.983C337.376 488.479 346.676 487.227 371.357 487.764C391.924 488.122 396.574 488.837 396.574 490.983ZM435.025 489.91C435.741 490.983 429.302 491.698 417.141 491.698C404.98 491.698 398.541 490.983 399.257 489.91C399.793 488.837 407.841 488.122 417.141 488.122C426.441 488.122 434.489 488.837 435.025 489.91ZM906.816 494.739C905.565 495.097 903.418 495.097 902.345 494.739C901.093 494.202 901.988 493.845 904.491 493.845C906.995 493.845 907.89 494.202 906.816 494.739ZM503.88 508.868V514.948L423.043 514.591C378.511 514.412 346.497 513.875 351.863 513.16C358.301 512.444 348.465 511.729 324.142 511.371C303.575 511.014 291.95 510.477 298.746 510.119C317.346 509.046 313.054 506.006 292.487 505.648C264.05 504.933 349.717 503.323 431.091 502.966L503.88 502.608V508.868ZM825.442 507.258C822.581 507.616 818.289 507.616 815.606 507.258C812.744 506.9 815.069 506.543 820.435 506.543C825.8 506.543 828.125 506.9 825.442 507.258ZM1047.57 507.794L1009.12 508.868L1041.31 509.404L1073.5 510.119L1014.48 512.266C982.11 513.517 940.797 515.127 922.912 515.842L890.184 517.094V511.55V506.006L988.191 506.364C1055.97 506.721 1074.21 507.079 1047.57 507.794ZM872.657 510.835C863.536 511.193 849.05 511.193 840.465 510.835C831.881 510.656 839.392 510.298 857.098 510.298C874.803 510.298 881.778 510.656 872.657 510.835ZM821.865 512.623C820.077 512.981 817.216 512.981 815.606 512.623C813.817 512.087 815.248 511.729 818.646 511.729C822.044 511.729 823.475 512.087 821.865 512.623ZM882.494 514.412C878.917 514.769 873.194 514.769 869.975 514.412C866.934 514.054 869.975 513.696 876.771 513.696C883.746 513.696 886.249 514.054 882.494 514.412ZM1004.29 516.2C1000.53 516.558 994.092 516.558 989.979 516.2C985.687 515.842 988.727 515.485 996.596 515.485C1004.47 515.485 1007.86 515.842 1004.29 516.2ZM505.669 524.785V531.044L483.85 530.865C468.827 530.687 464.177 530.15 469.006 529.256C474.192 528.362 470.615 527.825 455.592 527.467L435.025 526.931L451.121 525.5C460.064 524.785 474.371 524.248 483.134 524.069C491.898 523.89 498.694 523.354 498.157 522.817C497.621 522.281 471.867 521.744 441.106 521.565C386.916 521.387 386.201 521.387 421.612 520.314C441.821 519.777 469.006 519.062 482.061 518.883L505.669 518.525V524.785ZM888.396 526.037C888.217 529.256 888.038 543.384 888.217 557.334L888.396 582.909H972.452H1056.51V557.871V532.833H1061.34H1065.99L1064.91 598.29C1064.38 634.237 1063.66 663.926 1063.31 664.283C1062.95 664.462 1021.99 665.356 972.095 666.072L881.242 667.324V600.078C881.242 547.498 881.778 532.833 883.567 532.654C884.819 532.654 884.997 532.296 883.746 531.76C880.884 530.508 883.03 520.314 886.071 520.314C887.859 520.314 888.574 522.102 888.396 526.037ZM897.874 521.565C896.622 521.923 894.476 521.923 893.403 521.565C892.151 521.029 893.045 520.671 895.549 520.671C898.053 520.671 898.947 521.029 897.874 521.565ZM1065.45 521.029C1065.45 521.387 1063.84 522.102 1061.87 522.639C1059.91 523.175 1058.3 522.817 1058.3 521.923C1058.3 521.029 1059.91 520.314 1061.87 520.314C1063.84 520.314 1065.45 520.671 1065.45 521.029ZM821.865 525.142C820.077 525.5 817.216 525.5 815.606 525.142C813.817 524.606 815.248 524.248 818.646 524.248C822.044 524.248 823.475 524.606 821.865 525.142ZM896.801 524.964C896.265 525.5 894.655 525.679 893.403 525.142C891.972 524.606 892.509 524.069 894.476 524.069C896.443 523.89 897.517 524.427 896.801 524.964ZM298.925 528.362C299.461 530.15 298.746 531.044 296.6 531.044C294.812 531.044 293.381 529.792 293.381 528.362C293.381 526.931 294.454 525.679 295.706 525.679C296.779 525.679 298.21 526.931 298.925 528.362ZM877.665 528.362C877.665 530.508 874.982 531.044 864.788 531.044C849.944 531.044 849.05 532.654 863.715 533.012C881.242 533.548 879.632 536.41 861.569 536.767L844.579 537.125L861.569 538.198C873.373 538.913 875.698 539.45 869.617 539.808C862.821 540.165 861.569 540.523 864.252 541.775C866.219 542.669 870.332 543.384 873.194 543.384C877.307 543.563 878.023 544.1 875.876 545.352C874.446 546.246 874.088 547.14 874.982 547.14C876.055 547.14 876.949 568.244 877.128 606.159L877.486 665.177H867.65H857.992V659.276C857.992 656.235 858.707 648.724 859.602 642.822C863.536 616.353 863.536 616.889 860.496 616.889C857.992 616.889 857.813 615.459 858.707 607.232C860.138 596.144 857.634 590.063 851.732 590.063C849.765 590.063 846.725 591.672 844.936 593.64C843.327 595.607 842.611 597.217 843.327 597.217C844.042 597.217 844.221 601.688 844.042 607.053C843.506 614.028 842.611 616.889 840.823 616.889C838.14 616.889 838.14 616.532 833.669 590.957C830.271 570.211 829.735 568.602 826.873 568.602C820.435 568.78 820.077 571.105 823.296 593.64C825.621 610.451 825.979 615.995 824.369 616.532C821.508 617.426 821.687 626.905 824.906 646.399C826.337 655.162 827.588 663.031 827.588 663.747C827.588 665.714 814.712 665.535 811.671 663.568C809.704 662.316 809.525 650.512 810.598 594.534L812.029 526.931L843.863 528.183C865.146 528.898 875.876 528.719 875.876 527.467C875.876 526.573 876.234 525.679 876.771 525.679C877.307 525.679 877.665 526.931 877.665 528.362ZM1049.36 530.15C1049.36 533.548 1048.28 534.621 1045.42 534.8L1041.31 535.158L1045.42 535.873C1048.64 536.588 1049.36 537.84 1049.36 542.848C1049.36 547.319 1048.64 548.929 1046.31 549.107C1043.63 549.107 1043.63 549.465 1045.78 550.359C1047.21 551.075 1048.64 553.042 1049 554.652C1049.36 557.155 1048.1 557.871 1042.74 558.229L1035.94 558.407L1043.1 559.302C1049.53 560.017 1049.89 560.375 1045.78 561.448C1041.49 562.878 1041.49 562.878 1045.42 563.057C1049.53 563.236 1051.14 566.813 1047.21 566.813C1045.6 566.813 1045.78 567.35 1047.57 568.602C1051.14 570.926 1050.07 571.463 1036.84 573.43L1025.21 575.219L1037.37 575.576C1043.99 575.576 1049.36 576.292 1049.36 577.186C1049.36 578.259 904.849 578.796 894.297 577.723C893.045 577.723 891.972 576.292 891.972 574.861C891.972 572.715 895.907 572.178 915.759 571.821L939.366 571.463L915.759 570.926C893.403 570.39 891.972 570.032 891.972 566.813C891.972 563.594 893.403 563.236 905.922 562.878L919.693 562.521L905.922 561.984C889.647 561.269 887.144 558.05 902.345 557.513L912.539 557.155L902.345 556.619C889.469 555.725 888.753 552.684 901.451 552.148L910.751 551.79L900.915 550.896C894.119 550.181 899.484 549.644 918.799 548.929L946.52 547.856L919.336 547.498C897.517 547.14 891.972 546.604 891.972 544.636C891.972 542.669 901.809 541.954 943.48 540.344L994.808 538.556L943.48 539.45C906.459 540.165 891.972 539.808 891.972 538.377C891.972 537.125 899.484 536.231 914.864 536.052L937.578 535.694L914.328 534.621L891.078 533.548L907.174 532.833L923.27 532.117L907.711 531.581C898.947 531.223 891.972 530.329 891.972 529.613C891.972 528.898 926.31 528.362 968.339 528.54C1014.48 528.54 1033.44 528.183 1016.27 527.467L987.654 526.394L1018.59 526.037L1049.36 525.679V530.15ZM1064.2 526.931C1062.95 527.288 1060.44 527.288 1058.83 526.931C1057.05 526.394 1058.12 526.037 1060.98 526.037C1064.02 526.037 1065.27 526.394 1064.2 526.931ZM1064.2 530.508C1062.95 530.865 1060.44 530.865 1058.83 530.508C1057.05 529.971 1058.12 529.613 1060.98 529.613C1064.02 529.613 1065.27 529.971 1064.2 530.508ZM774.472 532.296C773.22 532.654 771.074 532.654 770.001 532.296C768.749 531.76 769.643 531.402 772.147 531.402C774.651 531.402 775.545 531.76 774.472 532.296ZM299.998 535.515C299.998 536.946 298.567 538.198 296.779 538.198C294.99 538.198 293.381 536.946 293.381 535.515C293.381 534.085 294.99 532.833 296.779 532.833C298.567 532.833 299.998 534.085 299.998 535.515ZM506.384 589.526C506.921 620.824 507.994 650.691 508.709 655.699L509.782 665.177H501.377H493.15V624.222C493.15 572.536 494.581 575.04 467.039 574.325C445.935 573.609 443.073 572.178 443.61 563.952L443.968 558.765H417.141H390.314L389.778 563.952C388.705 572.894 386.022 573.967 365.634 573.967C345.961 573.967 344.53 574.503 342.026 582.909C341.311 585.413 339.701 587.917 338.628 588.632C337.198 589.705 337.376 590.063 338.986 590.063C342.921 590.063 341.311 593.64 337.198 593.819L333.084 594.176L337.198 594.892C341.311 595.786 342.742 600.615 338.986 600.972C337.198 600.972 337.198 601.33 338.986 602.045C342.205 603.297 341.669 606.159 338.092 606.338C335.051 606.517 335.051 606.695 338.092 607.411C339.701 607.768 341.132 609.378 341.132 610.63C341.132 612.24 340.059 612.776 338.45 612.24C335.23 610.988 330.044 614.743 331.475 617.068C332.011 617.963 334.515 618.857 337.198 618.857L342.026 619.036L336.661 620.466L331.296 621.897L336.661 622.255C342.026 622.612 342.026 622.612 337.555 624.043L333.084 625.474L338.092 625.653C347.034 626.011 342.384 630.303 332.011 631.376L322.354 632.449L331.475 632.628C339.88 632.985 340.774 633.343 341.49 637.457C342.563 642.285 340.596 644.61 334.873 646.041C332.19 646.756 332.548 646.935 336.303 647.114C343.457 647.472 342.742 652.658 335.409 653.016L329.507 653.195L335.409 653.91C343.278 654.983 342.742 657.666 334.515 658.56C327.719 659.276 327.719 659.276 335.767 659.633C342.563 660.17 343.099 660.349 339.344 661.601L334.873 663.031L339.701 663.21C342.384 663.389 345.067 664.104 345.603 665.177C346.855 667.145 321.28 667.681 310.371 665.893L303.575 664.641V618.499V572.178L310.371 571.821L316.988 571.642L310.371 570.926C304.469 570.211 303.575 569.496 303.575 565.74C303.575 561.627 304.111 561.448 315.736 561.09L327.719 560.732L315.2 559.838C303.754 558.944 304.469 558.765 325.036 557.871L347.392 556.798L325.573 556.44C312.338 556.261 303.575 555.367 303.575 554.294C303.575 553.221 317.704 552.327 341.669 552.148L379.584 551.79L341.132 550.717C320.029 550.181 304.29 549.465 306.258 549.286C309.298 548.929 309.477 548.571 307.152 547.14C305.363 545.888 308.046 545.531 316.094 545.531C325.93 545.709 326.646 546.067 321.459 547.14C317.882 547.856 328.613 548.392 346.497 548.392C363.667 548.392 374.576 547.856 370.641 547.14C357.586 544.994 367.959 543.742 413.564 542.133C441.643 541.238 450.943 540.523 438.602 540.165C426.799 539.986 416.068 538.913 411.776 537.304C403.012 534.263 310.729 533.369 310.729 536.41C310.729 539.271 305.9 538.556 304.648 535.515C303.754 533.19 315.557 532.833 404.443 532.833H505.132L506.384 589.526ZM299.998 602.582C299.998 664.462 299.998 665.177 296.421 665.177C292.844 665.177 292.844 664.462 292.844 602.582C293.023 542.311 293.202 539.986 296.421 539.986C299.64 539.986 299.819 542.311 299.998 602.582ZM249.385 558.229C248.849 559.659 248.312 559.123 248.312 557.155C248.133 555.188 248.67 554.115 249.206 554.831C249.743 555.367 249.922 556.977 249.385 558.229ZM426.62 560.911C420.897 561.269 411.597 561.269 406.053 560.911C400.33 560.554 404.98 560.375 416.247 560.375C427.514 560.375 432.164 560.554 426.62 560.911ZM435.92 566.455C435.92 573.073 433.952 573.967 417.32 573.967C401.403 573.967 396.574 572.536 396.574 567.707C396.574 566.634 404.085 565.74 416.247 565.382C428.766 564.846 435.92 565.382 435.92 566.455ZM396.037 573.251C395.501 573.788 393.891 573.967 392.639 573.43C391.209 572.894 391.745 572.357 393.712 572.357C395.68 572.178 396.753 572.715 396.037 573.251ZM443.61 573.43C442.358 573.788 440.212 573.788 439.139 573.43C437.887 572.894 438.781 572.536 441.285 572.536C443.789 572.536 444.683 572.894 443.61 573.43ZM831.881 592.745C835.1 610.809 835.458 618.499 833.133 615.995C831.702 614.207 825.8 580.763 825.8 574.503C825.979 567.35 829.198 577.007 831.881 592.745ZM238.297 578.974C237.76 579.511 236.329 578.974 235.078 577.723C233.468 575.934 233.647 575.755 236.151 576.828C237.939 577.365 238.833 578.438 238.297 578.974ZM486.89 580.048C491.361 583.267 492.792 600.257 489.036 605.265C486.533 608.484 483.85 608.841 459.348 609.378L432.343 609.915V605.443C432.343 602.94 431.449 600.793 430.554 600.793C429.481 600.793 428.945 601.33 428.945 602.045C429.124 602.94 429.124 606.159 428.945 609.199C428.766 615.101 428.587 615.101 420.002 615.101H411.239L410.524 607.947L409.987 600.972L418.929 600.257C426.799 599.72 426.62 599.542 417.141 599.72C406.768 599.899 406.41 600.078 405.874 604.728L405.337 609.736L385.307 609.557C364.918 609.557 349.896 606.695 366.17 606.159L374.218 605.801L363.667 603.655C353.651 601.867 347.749 597.395 354.903 597.038C357.765 597.038 357.765 596.859 354.545 595.428L350.969 593.819L354.545 593.64L358.122 593.461L354.545 592.03C351.326 590.599 351.684 590.242 357.228 588.632L363.488 586.844L357.765 586.665C353.115 586.486 351.863 585.771 351.863 583.088C351.863 581.121 352.936 579.153 354.188 578.796C355.261 578.259 384.949 577.723 420.002 577.723C470.615 577.544 484.208 578.08 486.89 580.048ZM232.931 583.267C231.322 584.34 229.533 584.519 228.997 583.982C228.281 583.446 228.818 582.909 230.07 582.909C231.322 582.909 231.68 582.194 231.143 581.121C230.428 580.048 231.322 579.869 233.11 580.584C235.793 581.657 235.793 581.836 232.931 583.267ZM262.441 580.048C262.441 580.405 261.189 581.299 259.579 581.836C258.148 582.373 257.433 582.194 257.97 581.121C259.043 579.332 262.441 578.617 262.441 580.048ZM276.748 596.859C276.748 601.509 268.343 604.013 261.725 601.509C256.539 599.542 260.831 597.038 267.448 598.111C272.456 599.005 273.35 598.826 271.383 597.395C269.237 595.786 269.416 595.428 272.814 595.428C274.96 595.428 276.748 596.144 276.748 596.859ZM857.277 603.834C856.74 607.59 856.204 611.882 856.204 613.491C856.204 615.101 854.952 616.353 853.521 616.353C850.659 616.353 850.123 611.882 851.911 602.761C852.627 599.542 854.236 597.217 855.846 597.217C857.813 597.217 858.171 598.647 857.277 603.834ZM266.554 605.622C265.302 605.98 263.156 605.98 262.083 605.622C260.831 605.086 261.725 604.728 264.229 604.728C266.733 604.728 267.627 605.086 266.554 605.622ZM489.573 635.489C489.573 656.235 489.215 658.202 485.638 662.316L481.525 666.608L432.343 667.502C405.337 667.86 388.347 667.681 394.785 666.966L406.41 665.714L396.932 665.535C391.745 665.356 385.664 664.283 383.697 663.21C381.73 662.137 373.503 660.706 365.455 660.17L350.969 658.918L360.805 657.845L370.641 656.772L362.236 656.593C351.147 656.056 349.001 652.658 359.732 652.658C370.641 652.658 370.284 649.439 359.553 648.724L350.969 648.187L357.228 646.041L363.488 644.074L357.765 643.895C351.147 643.716 349.538 640.318 355.976 639.96L359.911 639.603L355.976 638.887C351.147 637.993 350.432 634.774 355.082 634.595C357.586 634.595 357.586 634.237 354.545 632.985C351.505 631.555 351.684 631.376 356.334 631.018L361.699 630.66L356.87 629.945C352.042 629.23 349.717 624.043 354.188 624.043C355.797 624.043 355.797 623.686 354.009 622.434C350.79 620.466 366.17 618.678 386.737 618.678H403.012L405.516 626.189C408.199 633.701 408.556 633.88 416.604 634.416C428.587 635.132 432.343 632.628 432.343 624.043V616.889L451.658 616.711C462.21 616.711 474.371 615.995 478.842 615.28C483.313 614.386 487.427 613.67 488.321 613.491C489.036 613.491 489.573 623.328 489.573 635.489ZM428.766 623.149V629.409H419.824C411.06 629.409 410.881 629.409 410.881 623.864C410.881 618.32 410.881 618.141 418.929 619.036C423.401 619.572 426.977 619.393 426.977 618.499C426.977 617.605 427.335 616.889 427.872 616.889C428.408 616.889 428.766 619.751 428.766 623.149ZM856.382 650.154C854.415 663.568 852.448 674.835 852.269 675.014C851.911 675.372 851.732 667.86 851.732 658.381C851.732 648.545 851.017 640.497 849.944 639.603C848.692 638.887 848.692 637.814 849.944 636.92C851.017 636.205 851.911 632.628 852.09 628.872C852.627 622.612 852.269 622.255 846.725 621.897C842.611 621.718 843.506 621.361 849.944 620.645C857.455 619.751 859.065 620.109 859.423 622.612C859.78 624.222 858.35 636.562 856.382 650.154ZM273.171 631.197C273.171 632.091 272.277 632.985 271.204 632.985C270.31 632.985 269.952 632.091 270.489 631.197C271.025 630.124 271.919 629.409 272.456 629.409C272.814 629.409 273.171 630.124 273.171 631.197ZM264.945 646.756C264.229 652.301 263.156 659.097 262.262 661.601C261.189 665.177 261.01 664.462 260.831 657.487L260.652 649.081L253.141 648.724L245.451 648.545L253.498 647.472C263.156 646.22 265.302 641.57 257.612 638.708C252.604 636.92 252.604 636.92 259.4 636.741L266.196 636.562L264.945 646.756ZM754.62 650.333C745.499 650.691 731.013 650.691 722.428 650.333C713.844 650.154 721.355 649.797 739.061 649.797C756.766 649.797 763.741 650.154 754.62 650.333ZM768.212 657.487C765.351 657.845 761.058 657.845 758.376 657.487C755.514 657.129 757.839 656.772 763.205 656.772C768.57 656.772 770.895 657.129 768.212 657.487ZM373.861 666.429C370.641 666.787 365.276 666.787 362.236 666.429C359.017 666.072 361.52 665.714 367.959 665.714C374.397 665.714 376.901 666.072 373.861 666.429Z" fill="black"/>
<path d="M533.032 174.609C534.641 174.966 537.145 174.966 538.397 174.609C539.47 174.072 538.218 173.714 535.178 173.714C532.316 173.714 531.243 174.072 533.032 174.609Z" fill="black"/>
<path d="M522.302 206.8C523.912 207.158 526.416 207.158 527.667 206.8C528.74 206.264 527.489 205.906 524.448 205.906C521.587 205.906 520.514 206.264 522.302 206.8Z" fill="black"/>
<path d="M617.446 202.866C618.519 203.223 634.079 203.76 652.321 204.118C670.563 204.654 680.936 204.296 675.571 203.581C665.913 202.329 613.87 201.614 617.446 202.866Z" fill="black"/>
<path d="M660.905 287.459C656.792 287.995 655.719 289.247 654.109 295.507C653.036 299.62 651.069 306.058 649.996 309.993L647.671 316.789L642.663 302.303C637.656 287.995 637.477 287.816 631.575 287.816C628.177 287.816 625.494 288.532 625.494 289.247C625.494 289.962 628.713 299.441 632.648 310.351C636.582 321.081 639.802 331.276 639.802 332.885C639.802 334.495 636.582 344.868 632.648 355.777C628.713 366.687 625.494 376.523 625.494 377.417C625.494 378.49 628.177 379.027 631.396 378.669C636.94 378.133 637.298 377.596 641.769 363.825C644.452 355.956 646.955 350.77 647.492 352.2C657.328 379.563 656.434 378.133 663.588 378.669C667.165 379.027 670.205 379.027 670.205 378.669C670.205 378.133 667.701 371.158 664.661 362.752C652.857 330.918 653.036 333.779 661.442 310.172C665.376 298.726 668.059 288.711 667.165 287.995C666.449 287.28 663.588 287.101 660.905 287.459Z" fill="black"/>
<path d="M708.299 287.28C697.211 287.995 697.032 287.995 697.032 293.182C697.032 298.19 697.39 298.547 704.186 298.547H711.34L711.697 338.251L712.234 378.133L718.136 378.67L723.859 379.206V338.966V298.547H731.191C738.166 298.547 738.345 298.368 737.809 292.645C737.272 287.101 737.093 286.922 728.33 286.744C723.501 286.744 714.38 286.922 708.299 287.28Z" fill="black"/>
<path d="M583.108 309.636C583.824 321.439 584.36 342.006 584.36 355.241V379.206L602.781 378.67C620.844 378.133 621.023 378.133 621.023 373.662C621.023 369.37 620.487 369.191 609.041 368.654L596.879 368.118V353.095V337.893H604.927C612.975 337.893 612.975 337.893 612.975 331.633C612.975 325.374 612.975 325.374 604.927 325.374H596.879V311.961V298.547H607.431C618.698 298.547 621.023 297.117 619.235 291.394C618.162 288.174 616.552 287.817 600.098 287.817H582.035L583.108 309.636Z" fill="black"/>
<path d="M677.359 333.422V379.027H683.619H689.878V333.422V287.817H683.619H677.359V333.422Z" fill="black"/>
<path d="M562.899 404.066C572.915 406.57 573.988 409.431 572.736 431.787C571.663 446.988 570.768 452.175 568.265 454.857C564.509 458.613 558.249 457.361 556.64 452.533C554.315 444.842 552.705 408.537 554.672 405.854C556.461 403.529 556.282 403.529 553.421 405.675C550.38 408 550.201 410.683 550.738 431.429C551.274 453.069 551.453 454.679 555.567 457.898C560.932 462.369 567.37 462.19 571.841 457.719C575.061 454.5 575.418 451.817 575.418 431.787C575.418 411.756 575.061 409.073 571.841 405.854C569.695 403.708 566.118 402.277 562.542 402.456L556.64 402.635L562.899 404.066Z" fill="black"/>
<path d="M558.071 414.08C557.534 415.511 558.25 418.015 559.68 419.445C561.826 421.592 562.721 421.592 565.582 419.624C569.696 416.584 568.086 411.219 562.9 411.219C560.932 411.219 558.786 412.471 558.071 414.08Z" fill="black"/>
<path d="M559.322 448.955C559.322 453.427 565.224 452.89 566.118 448.24C566.476 446.094 565.582 445.2 563.078 445.2C560.395 445.2 559.322 446.273 559.322 448.955Z" fill="black"/>
<path d="M764.635 512.623C766.782 512.981 770.001 512.981 771.789 512.623C773.399 512.087 771.61 511.729 767.676 511.908C763.741 511.908 762.31 512.266 764.635 512.623Z" fill="black"/>
<path d="M703.828 628.872C704.901 629.23 707.048 629.23 708.3 628.872C709.373 628.336 708.478 627.978 705.975 627.978C703.471 627.978 702.577 628.336 703.828 628.872Z" fill="black"/>
<path d="M363.309 399.414C361.878 403.17 363.309 473.277 364.919 474.886C366.707 476.675 448.975 478.106 461.673 476.675L471.689 475.423V437.508C471.689 412.291 470.973 400.487 469.9 402.276C469.006 403.706 468.112 420.16 468.112 439.118V473.277L452.016 474.529C443.073 475.244 420.181 475.244 401.045 474.529L366.349 473.277L365.813 436.077L365.276 398.699L418.035 398.162L470.794 397.804L417.499 397.268C373.682 396.91 364.024 397.268 363.309 399.414Z" fill="black"/>
<path d="M409.093 405.854C413.027 407.106 412.849 407.285 406.768 407.464C401.403 407.643 399.614 408.537 398.899 411.22C398.183 414.081 396.395 414.796 391.03 414.796C387.095 414.796 384.055 415.691 384.055 416.764C384.055 417.837 386.737 418.373 390.851 418.016C396.931 417.479 397.468 417.837 397.647 421.95C397.647 428.925 399.793 430.892 407.483 430.892H414.458V443.948V457.004H399.256C382.087 456.825 378.868 454.679 394.428 453.606L404.622 453.069L394.607 452.711L384.591 452.354L383.16 434.29C382.445 422.129 381.372 416.764 380.12 418.016C377.974 420.162 377.437 455.931 379.405 459.15C380.478 460.938 386.38 461.117 403.37 460.581C415.889 460.044 433.058 459.686 441.821 459.686L457.381 459.507V444.485C457.381 436.258 456.844 426.958 456.308 423.917L455.235 418.373H439.318H423.579L423.043 413.366C422.685 409.968 421.433 408.358 418.572 408C416.247 407.643 414.458 406.57 414.458 405.675C414.458 404.781 412.312 404.066 409.629 404.245L404.622 404.423L409.093 405.854ZM413.206 410.504C419.645 411.577 419.824 411.935 419.824 419.446V427.316H409.987H400.151V418.373C400.151 408.537 400.33 408.537 413.206 410.504ZM452.91 438.046V455.931H439.139C431.627 455.931 424.295 456.467 422.685 457.004C420.181 457.898 419.824 456.109 419.824 444.663C419.824 437.331 420.36 428.746 420.897 425.706L422.149 420.162H437.529H452.91V438.046Z" fill="black"/>
<path d="M430.197 426.779C433.237 427.136 438.602 427.136 441.822 426.779C444.862 426.421 442.358 426.063 435.92 426.063C429.481 426.063 426.977 426.421 430.197 426.779Z" fill="black"/>
<path d="M434.667 435.721C437.35 436.079 441.284 436.079 443.609 435.721C445.755 435.363 443.609 435.006 438.602 435.006C433.773 435.006 431.806 435.363 434.667 435.721Z" fill="black"/>
<path d="M429.302 441.085C431.985 441.443 435.919 441.443 438.244 441.085C440.39 440.728 438.244 440.37 433.236 440.37C428.408 440.37 426.44 440.728 429.302 441.085Z" fill="black"/>
<path d="M387.274 423.201C388.347 423.559 390.493 423.559 391.745 423.201C392.818 422.665 391.924 422.307 389.42 422.307C386.916 422.307 386.022 422.665 387.274 423.201Z" fill="black"/>
<path d="M386.38 428.567C387.99 428.924 390.851 428.924 392.639 428.567C394.249 428.03 392.818 427.672 389.42 427.672C386.022 427.672 384.591 428.03 386.38 428.567Z" fill="black"/>
<path d="M389.063 437.509C391.209 437.867 394.786 437.867 397.111 437.509C399.257 437.151 397.468 436.794 392.997 436.794C388.526 436.794 386.738 437.151 389.063 437.509Z" fill="black"/>
<path d="M389.956 444.662C392.639 445.02 396.931 445.02 399.793 444.662C402.475 444.305 400.15 443.947 394.785 443.947C389.42 443.947 387.095 444.305 389.956 444.662Z" fill="black"/>
<path d="M830.629 458.971C829.913 459.507 829.377 463.978 829.377 468.807V477.392H849.944H870.511V468.449V459.507L858.529 459.865C846.904 460.044 846.725 460.044 854.415 461.296C861.748 462.369 861.032 462.548 848.156 463.084C839.929 463.442 836.71 463.978 840.644 464.336C844.221 464.694 846.904 465.767 846.367 466.661C845.115 468.807 848.513 470.774 851.017 469.165C852.448 468.449 852.269 467.555 850.659 466.482C849.05 465.409 851.196 464.873 856.561 464.873C861.569 464.873 865.146 463.978 865.682 462.548C866.219 461.474 866.755 463.799 866.755 467.913L866.934 475.603H849.765H832.775L833.312 468.092C833.848 461.117 834.385 460.223 839.213 459.328C844.579 458.076 844.579 458.076 838.14 457.898C834.563 457.898 831.165 458.255 830.629 458.971Z" fill="black"/>
<path d="M900.557 589.527L888.396 590.242V612.955C888.396 625.474 888.932 641.034 889.647 647.651L890.72 659.812H972.631H1054.72V624.938V590.063H1007.68C981.752 590.063 949.739 589.706 936.505 589.348C923.27 588.99 907.174 588.99 900.557 589.527ZM1047.57 600.615C1047.57 605.086 1046.85 606.159 1043.63 606.338L1039.52 606.696L1043.63 607.411C1047.75 608.305 1049.18 613.134 1045.42 613.492C1043.63 613.492 1043.63 613.85 1045.42 614.565C1050.25 616.532 1047.57 620.467 1040.95 620.824L1034.15 621.003L1040.95 621.719C1047.75 622.434 1050.61 627.442 1044.53 627.799C1041.49 627.978 1041.49 628.157 1044.53 628.872C1046.31 629.409 1047.57 631.376 1047.57 634.059C1047.57 637.278 1046.49 638.351 1043.63 638.53C1039.7 638.53 1039.7 638.709 1043.1 639.961C1046.49 641.392 1046.31 641.57 1042.2 642.286C1038.09 643.18 1038.09 643.18 1043.1 643.538C1048.28 643.895 1048.28 644.074 1041.31 646.22L1034.15 648.366L1040.95 649.797C1044.88 650.513 1047.57 652.122 1047.57 653.553C1047.57 655.878 1036.84 656.236 970.306 655.878C903.955 655.699 898.411 655.52 931.676 654.447C953.137 653.911 971.2 652.838 971.737 652.122C972.452 651.407 968.339 650.691 962.437 650.513L951.885 650.155L965.299 648.903C973.704 648.188 965.299 647.83 942.943 648.188C923.27 648.366 913.613 648.009 921.482 647.472C934.18 646.578 935.074 646.22 928.635 645.147C924.701 644.432 915.222 643.359 907.711 642.822C898.232 641.928 893.761 640.855 893.045 639.067C892.33 637.457 893.582 635.847 896.086 634.774C900.02 633.165 900.02 633.165 895.549 632.807C893.045 632.628 895.192 631.913 900.02 631.197L908.963 629.946L900.02 629.409L891.078 628.872L900.02 627.621L908.963 626.369L900.736 626.19C893.224 625.832 892.509 625.474 892.509 621.361C892.509 617.069 892.867 616.89 905.207 616.532L917.905 616.175L904.491 615.101L891.078 614.028L908.068 613.492C917.368 613.134 930.782 612.24 937.578 611.525C945.089 610.809 938.293 610.63 921.124 611.167C899.842 611.882 891.972 611.525 891.972 609.915C891.972 608.484 903.955 607.769 934.537 607.59L976.923 607.053L934.537 606.696C911.109 606.338 891.972 605.444 891.972 604.728C891.972 603.119 906.816 602.403 976.923 600.794L1032.37 599.542L961.722 599.363C922.912 599.184 892.151 598.29 893.403 597.575C894.655 596.68 929.887 595.786 971.558 595.607L1047.57 595.25V600.615Z" fill="black"/>
<path d="M837.067 534.085C839.75 534.443 844.042 534.443 846.904 534.085C849.587 533.728 847.262 533.37 841.896 533.37C836.531 533.37 834.206 533.728 837.067 534.085Z" fill="black"/>
<path d="M957.787 534.085C967.802 534.443 984.256 534.443 994.45 534.085C1004.46 533.906 996.238 533.549 976.029 533.549C955.819 533.549 947.593 533.906 957.787 534.085Z" fill="black"/>
<path d="M922.913 575.219C925.596 575.577 929.53 575.577 931.855 575.219C934.002 574.861 931.855 574.504 926.848 574.504C922.019 574.504 920.052 574.861 922.913 575.219Z" fill="black"/>
<path d="M414.1 535.873C415.352 536.41 416.962 536.231 417.498 535.694C418.214 535.158 417.141 534.621 415.173 534.8C413.206 534.8 412.67 535.337 414.1 535.873Z" fill="black"/>
<path d="M315.736 644.969C317.882 645.327 321.459 645.327 323.784 644.969C325.93 644.611 324.142 644.254 319.671 644.254C315.2 644.254 313.411 644.611 315.736 644.969Z" fill="black"/>
<path d="M481.166 593.103C482.776 593.461 485.28 593.461 486.532 593.103C487.605 592.566 486.353 592.209 483.312 592.209C480.451 592.209 479.378 592.566 481.166 593.103Z" fill="black"/>
<path d="M482.062 596.68C483.135 597.038 485.281 597.038 486.533 596.68C487.606 596.143 486.712 595.786 484.208 595.786C481.704 595.786 480.81 596.143 482.062 596.68Z" fill="black"/>
<path d="M483.85 600.257C485.102 600.794 486.712 600.615 487.248 600.078C487.964 599.542 486.891 599.005 484.923 599.184C482.956 599.184 482.42 599.721 483.85 600.257Z" fill="black"/>
<path d="M473.12 605.622C475.266 605.98 478.485 605.98 480.274 605.622C481.883 605.086 480.095 604.728 476.16 604.907C472.226 604.907 470.795 605.265 473.12 605.622Z" fill="black"/>
<path d="M473.119 657.487C475.265 657.844 478.842 657.844 481.167 657.487C483.313 657.129 481.525 656.771 477.054 656.771C472.583 656.771 470.794 657.129 473.119 657.487Z" fill="black"/>
<path d="M472.225 661.064C473.834 661.421 476.696 661.421 478.484 661.064C480.094 660.527 478.663 660.17 475.265 660.17C471.867 660.17 470.436 660.527 472.225 661.064Z" fill="black"/>
<path d="M390.851 160.3C392.997 160.658 396.574 160.658 398.899 160.3C401.045 159.942 399.256 159.585 394.785 159.585C390.314 159.585 388.526 159.942 390.851 160.3Z" fill="black"/>
<path d="M409.272 160.121C408.914 162.982 414.637 181.046 415.531 180.151C415.889 179.615 414.816 174.607 412.849 168.705C411.06 162.982 409.451 159.048 409.272 160.121Z" fill="black"/>
<path d="M426.262 161.374C420.896 165.308 423.4 170.674 430.554 171.031C433.952 171.031 435.025 170.852 432.7 170.316C430.554 169.958 428.05 167.991 426.977 166.202C425.546 163.52 426.083 162.626 430.196 161.195C432.879 160.122 433.773 159.228 432.164 159.228C430.733 159.049 428.05 160.122 426.262 161.374Z" fill="black"/>
<path d="M351.506 172.82C359.554 173.177 372.788 173.177 381.015 172.82C389.063 172.641 382.446 172.283 366.171 172.283C349.896 172.283 343.279 172.641 351.506 172.82Z" fill="black"/>
<path d="M451.479 185.159C450.942 185.696 451.658 189.452 453.088 193.386C457.023 204.475 456.486 205.369 447.187 205.905L438.602 206.442L438.423 213.596C438.244 222.359 442.715 232.911 446.292 231.48C447.544 230.944 455.413 230.586 463.64 230.586H478.305L479.378 223.79C480.094 220.213 480.988 214.49 481.703 211.271C482.598 206.8 482.24 205.548 480.094 205.548C478.484 205.548 475.98 204.296 474.55 202.686C472.94 201.255 471.688 200.719 471.688 201.792C471.688 202.865 470.973 203.759 470.079 203.759C469.184 203.759 469.363 200.361 470.436 196.069L472.404 188.557L473.655 193.923L474.907 199.288L475.086 193.565C475.086 190.525 474.371 187.306 473.119 186.59C470.257 184.802 466.323 191.061 466.323 197.857C466.323 206.978 461.673 205.19 458.275 194.817C455.413 186.054 453.446 183.192 451.479 185.159ZM479.736 207.694C480.094 208.052 479.378 212.701 478.305 218.067L476.159 227.903L465.429 228.261C457.738 228.44 455.95 228.082 459.169 227.009L463.64 225.578L459.169 225.221C456.665 225.042 455.771 224.505 457.023 223.969C460.6 222.538 457.559 219.855 452.373 220.034C448.081 220.034 447.902 220.213 451.121 221.644C454.519 223.074 454.519 223.253 450.763 223.253C448.26 223.432 446.65 222.359 446.65 220.749C446.65 218.961 448.617 218.067 452.552 217.888C458.096 217.53 458.096 217.53 451.121 216.278L443.967 215.026L452.015 214.49L460.063 213.953L452.91 212.701C445.935 211.628 445.935 211.628 451.121 210.555C456.129 209.661 455.95 209.661 449.333 209.125L442.179 208.588L450.227 207.157C457.738 205.905 478.305 206.263 479.736 207.694Z" fill="black"/>
<path d="M362.594 191.062C362.594 191.956 364.025 194.46 365.813 196.606L369.032 200.541L372.251 195.712C374.04 193.03 374.934 190.526 374.576 189.989C374.04 189.632 372.609 190.883 371.536 193.03C369.926 196.07 369.032 196.428 366.886 194.639C364.74 192.851 364.74 192.135 366.528 191.062C368.317 189.81 368.138 189.453 365.813 189.453C364.025 189.453 362.594 190.168 362.594 191.062Z" fill="black"/>
<path d="M364.203 242.57C362.057 247.398 359.196 252.585 357.765 254.194C354.367 258.129 354.188 266.177 357.407 268.323C358.838 269.217 363.13 269.754 367.065 269.754L374.219 269.575L366.349 267.965C356.334 265.998 354.188 264.031 363.488 265.283C367.423 265.819 369.211 265.819 367.601 265.283C365.813 264.746 364.382 263.137 364.382 261.885C364.382 260.633 363.667 259.202 362.594 258.844C361.521 258.487 361.521 257.414 362.594 255.625C364.025 253.3 364.382 253.479 364.382 255.983C364.382 257.771 365.276 259.202 366.349 259.202C367.601 259.202 367.959 257.235 367.423 253.837C366.349 249.008 366.528 248.65 370.463 250.26C372.788 251.154 375.292 251.333 375.828 250.796C377.974 248.65 376.901 254.194 374.04 259.381C372.609 262.421 371.715 265.283 372.251 265.819C373.861 267.429 379.047 253.837 377.974 250.975C377.438 249.723 377.974 245.968 379.047 242.927C381.194 236.668 379.226 234.164 372.073 234.164C369.032 234.164 367.065 236.131 364.203 242.57ZM376.186 244.179L373.324 249.366L374.397 244.179C375.292 240.602 374.934 239.35 373.682 240.245C372.609 240.781 371.178 240.423 370.463 239.35C369.748 238.098 369.926 237.741 371.178 238.456C372.251 238.993 373.682 238.635 374.219 237.562C375.113 236.31 376.186 236.31 377.259 237.383C378.332 238.456 377.974 240.96 376.186 244.179Z" fill="black"/>
<path d="M854.773 238.097C853.521 239.349 852.627 242.21 852.627 244.535C852.627 247.755 853.342 248.649 855.488 247.755C857.098 247.218 859.244 246.682 860.496 246.682C861.748 246.682 864.073 245.609 866.04 244.357C868.544 242.389 868.723 241.495 866.934 240.422C865.504 239.528 864.967 239.707 865.683 240.78C866.934 242.747 863.179 244.893 858.529 244.893C856.562 244.893 856.025 243.641 856.562 240.422C857.635 235.236 857.635 235.236 854.773 238.097Z" fill="black"/>
<path d="M403.727 240.422C400.866 243.999 402.118 245.429 414.995 253.299C423.4 258.485 425.189 260.095 422.506 260.631C417.32 261.704 416.604 262.777 416.068 270.825C415.71 275.118 414.279 278.516 412.67 279.231C410.524 280.125 410.524 280.483 413.206 280.483C417.856 280.662 416.962 286.027 412.312 286.206C408.377 286.385 408.377 286.385 412.67 287.637L417.141 289.067L412.67 289.962C408.556 290.856 408.556 290.856 412.312 291.214C416.962 291.392 417.498 294.433 413.206 295.506C410.524 296.221 410.524 296.4 413.564 296.579C416.604 296.758 416.783 297.115 414.458 298.546C412.67 299.619 412.491 300.335 414.1 300.335C415.174 300.335 416.247 301.05 416.247 302.123C416.247 303.017 413.206 304.09 409.629 304.09L402.833 304.448L409.093 305.521C417.856 306.952 472.046 304.09 474.55 301.944C475.981 300.692 476.696 294.075 476.517 281.019L476.159 261.883L468.648 261.347C464.356 260.989 460.958 260.095 460.958 259.022C460.958 258.127 456.308 257.412 450.585 257.412C441.821 257.412 438.781 256.518 430.554 250.974C421.075 244.893 408.199 237.739 406.768 237.739C406.231 237.739 404.979 238.991 403.727 240.422ZM431.091 255.624C430.733 256.518 431.627 256.876 433.058 256.339C434.489 255.802 436.098 256.16 436.814 257.233C437.35 258.306 436.456 259.2 434.668 259.2C430.733 259.2 418.035 250.795 418.035 248.291C418.035 247.218 417.141 247.039 415.889 247.754C414.637 248.47 414.458 248.291 415.174 246.86C416.783 244.535 431.806 252.762 431.091 255.624ZM464.535 262.062L469.9 263.135V280.841V298.546H448.439H426.977V279.768C426.977 265.639 427.514 261.347 429.302 261.883C430.375 262.42 435.562 262.062 440.391 261.168C448.975 259.558 452.91 259.737 464.535 262.062Z" fill="black"/>
<path d="M440.391 275.297C439.855 276.191 439.855 278.874 440.213 281.557C440.749 284.239 440.213 286.028 438.961 286.207C437.709 286.207 438.424 286.922 440.391 287.816C442.359 288.711 442.895 289.426 441.822 289.426C440.57 289.605 439.497 290.32 439.497 291.393C439.497 292.287 442.716 293.182 446.83 293.182C451.122 293.182 453.626 292.466 452.911 291.393C452.374 290.32 452.911 289.068 454.52 288.532C457.918 287.28 456.13 282.451 452.195 282.451C450.407 282.451 447.903 280.484 446.651 277.98C444.147 273.33 442.18 272.436 440.391 275.297Z" fill="black"/>
<path d="M442.715 296.222C444.862 296.58 448.081 296.58 449.869 296.222C451.479 295.685 449.69 295.328 445.756 295.507C441.821 295.507 440.391 295.864 442.715 296.222Z" fill="black"/>
<path d="M997.491 242.033C994.808 249.365 995.702 252.048 998.564 245.073C999.995 241.854 1000.89 238.635 1000.35 238.098C999.816 237.74 998.564 239.35 997.491 242.033Z" fill="black"/>
<path d="M885.892 252.584C882.315 255.266 883.745 260.989 887.859 260.989C890.005 260.989 890.184 260.453 888.395 258.307C883.567 252.584 891.078 249.722 896.264 255.445C899.305 258.664 899.305 258.843 896.086 259.737C893.94 260.274 894.476 260.632 897.874 260.81C900.557 260.81 902.703 260.632 902.703 260.095C902.703 258.307 893.045 250.437 890.899 250.259C890.005 250.259 887.68 251.332 885.892 252.584Z" fill="black"/>
<path d="M949.738 251.511C952.421 251.869 956.713 251.869 959.575 251.511C962.257 251.153 959.932 250.796 954.567 250.796C949.202 250.796 946.877 251.153 949.738 251.511Z" fill="black"/>
<path d="M971.201 253.299C974.778 253.657 980.858 253.657 984.614 253.299C988.191 252.941 985.151 252.584 977.818 252.584C970.486 252.584 967.445 252.941 971.201 253.299Z" fill="black"/>
<path d="M964.046 271.005C962.794 274.403 967.623 279.769 970.484 278.159C971.557 277.444 973.346 275.119 974.419 272.973C976.565 269.038 976.386 269.038 971.915 273.151C967.265 277.444 963.867 276.013 966.013 270.826C966.55 269.396 966.55 268.144 966.013 268.144C965.656 268.144 964.761 269.396 964.046 271.005Z" fill="black"/>
<path d="M857.277 273.687C855.131 276.906 853.522 277.264 848.335 276.37L841.897 275.118V294.075C841.897 307.846 841.36 312.854 839.751 312.854C838.141 312.854 838.32 313.569 840.108 314.643C842.254 316.073 841.897 316.431 838.32 316.61L833.849 316.789L838.32 318.219C842.254 319.471 841.897 319.65 835.637 320.008L828.483 320.544L834.564 321.617C839.929 322.512 840.645 323.406 840.824 328.414C841.002 333.242 840.287 334.315 836.531 334.852C832.239 335.567 832.239 335.567 837.068 335.925C839.929 335.925 841.897 337.177 841.897 338.608C841.897 340.038 839.751 341.648 837.068 342.006L832.06 342.721L837.426 343.079C842.791 343.615 842.791 343.615 838.32 345.046C835.637 345.94 846.189 346.477 864.073 346.656C880.706 346.834 893.94 346.477 893.583 345.94C893.046 345.583 888.217 344.331 882.852 343.436L873.194 341.827L888.396 341.648C903.061 341.469 910.573 339.681 906.638 337.177C902.883 334.852 898.59 316.789 897.517 298.547L896.444 279.768L884.819 279.231C869.081 278.695 865.683 277.801 864.61 273.508C863.358 268.858 860.675 269.037 857.277 273.687ZM857.635 283.345C856.741 287.816 856.741 287.816 868.545 287.458C878.56 287.279 879.275 287.1 873.194 286.206C869.26 285.67 865.862 284.06 865.683 282.808C865.325 281.199 869.081 280.662 880.348 280.662H895.55V300.693C895.55 318.398 896.087 322.154 900.021 330.202L904.313 339.681H883.389C871.943 339.681 859.602 340.217 856.025 340.754L849.587 341.827L847.62 320.723C846.368 308.919 845.295 294.791 844.937 289.068L844.579 278.874H851.554C857.993 278.874 858.35 279.231 857.635 283.345Z" fill="black"/>
<path d="M862.106 296.222C864.788 296.58 869.08 296.58 871.942 296.222C874.625 295.864 872.3 295.507 866.934 295.507C861.569 295.507 859.244 295.864 862.106 296.222Z" fill="black"/>
<path d="M861.211 306.952C865.325 307.31 871.763 307.31 875.519 306.952C879.096 306.595 875.698 306.237 867.828 306.237C859.959 306.237 856.919 306.595 861.211 306.952Z" fill="black"/>
<path d="M862.999 317.684C867.113 318.042 873.909 318.042 878.201 317.684C882.315 317.326 878.917 316.969 870.511 316.969C862.105 316.969 858.707 317.326 862.999 317.684Z" fill="black"/>
<path d="M857.635 324.837C858.886 325.374 860.496 325.195 861.033 324.658C861.748 324.122 860.675 323.585 858.708 323.764C856.74 323.764 856.204 324.301 857.635 324.837Z" fill="black"/>
<path d="M870.154 326.626C873.373 326.984 878.202 326.984 880.884 326.626C883.567 326.269 880.884 325.911 874.982 325.911C869.08 325.911 866.934 326.269 870.154 326.626Z" fill="black"/>
<path d="M277.821 287.101C276.39 290.678 278.357 293.361 288.552 303.018C294.99 309.099 296.242 311.424 296.957 318.578C297.851 327.162 297.673 327.162 292.128 327.341L286.584 327.52L291.95 328.772C295.526 329.487 297.494 331.276 298.388 334.316C301.071 343.616 300.355 345.047 293.738 345.047C290.34 345.047 287.478 345.762 287.478 346.835C287.478 347.729 290.698 348.624 294.632 348.624C299.998 348.624 301.786 349.339 301.786 351.485C301.786 352.916 301.249 353.81 300.534 353.452C299.64 352.916 292.665 353.095 284.796 353.989L270.488 355.241L286.048 355.598C298.388 355.777 301.965 356.314 303.217 358.639C304.648 361.321 308.403 361.5 333.799 360.785C349.537 360.427 362.951 359.533 363.487 358.997C364.203 358.281 371.535 308.026 371.535 303.376C371.535 302.661 362.235 302.124 350.968 302.124C331.653 302.124 330.401 302.303 330.401 305.701C330.401 308.92 329.149 309.278 320.386 309.278C310.549 309.278 310.549 309.278 297.851 296.759C285.154 284.24 279.967 281.736 277.821 287.101ZM293.917 298.547C301.786 306.059 304.111 309.278 301.786 309.278C299.998 309.278 298.209 308.562 297.851 307.668C297.673 306.774 293.38 301.945 288.73 296.938C276.748 284.418 280.325 285.492 293.917 298.547ZM369.747 307.489C369.747 310.53 368.495 311.066 362.593 311.066C358.658 311.066 355.439 310.351 355.439 309.636C355.439 308.741 350.611 308.562 344.709 308.92C335.766 309.636 333.978 309.278 333.978 306.774C333.978 304.27 336.482 303.912 351.862 303.912C368.495 303.912 369.747 304.091 369.747 307.489ZM326.288 344.51C325.93 351.127 325.751 346.12 325.751 333.422C325.751 320.545 325.93 315.18 326.288 321.26C326.645 327.341 326.645 337.893 326.288 344.51ZM367.78 314.107C370.105 315.895 363.666 318.757 356.512 318.935C348.464 319.114 345.961 320.545 350.611 322.333C351.684 322.87 349.895 323.407 346.497 323.407C340.595 323.585 340.416 323.764 343.993 326.268C346.139 327.699 351.684 329.487 356.512 330.381L365.276 332.17L352.757 332.528C345.961 332.885 342.205 333.422 344.53 333.779C346.855 334.316 349.895 335.747 351.147 336.999C352.399 338.251 355.618 338.787 358.301 338.251L363.13 337.356L361.699 346.12C360.983 350.949 360.268 354.883 360.268 354.883C360.089 354.883 352.935 354.704 344.351 354.347L328.613 353.81V332.349V311.066L347.928 312.139C358.48 312.855 367.422 313.57 367.78 314.107Z" fill="black"/>
<path d="M340.774 319.472C341.847 319.83 343.993 319.83 345.245 319.472C346.318 318.935 345.424 318.578 342.92 318.578C340.416 318.578 339.522 318.935 340.774 319.472Z" fill="black"/>
<path d="M835.815 303.196C833.848 304.627 832.953 305.7 834.026 305.7C836.351 305.7 841.001 302.481 840.107 301.408C839.571 301.05 837.603 301.766 835.815 303.196Z" fill="black"/>
<path d="M429.303 308.741C433.952 309.099 441.464 309.099 446.293 308.741C450.943 308.384 447.008 308.205 437.708 308.205C428.408 308.205 424.474 308.384 429.303 308.741Z" fill="black"/>
<path d="M463.64 334.316C466.681 335.032 470.615 335.747 472.583 335.747C475.444 335.747 475.265 335.389 471.688 334.316C469.185 333.601 465.25 332.886 462.746 332.886C458.812 332.886 458.812 333.064 463.64 334.316Z" fill="black"/>
<path d="M1034.33 336.105C1034.87 338.608 1036.3 341.828 1037.19 343.258C1038.27 345.047 1038.45 344.51 1037.55 341.47C1037.01 338.966 1035.58 335.747 1034.69 334.316C1033.62 332.528 1033.44 333.064 1034.33 336.105Z" fill="black"/>
<path d="M447.009 345.046C440.928 362.573 440.749 362.036 459.706 365.076C468.649 366.686 476.697 367.58 477.233 367.222C478.843 366.328 482.956 343.973 482.062 341.111C481.525 339.859 479.558 344.688 477.233 351.842C475.087 358.817 472.404 364.719 471.153 364.719C467.754 364.54 446.472 359.89 445.578 358.996C445.22 358.459 446.472 353.451 448.439 347.728C450.407 341.827 451.837 336.282 451.48 335.388C451.122 334.315 449.155 338.607 447.009 345.046Z" fill="black"/>
<path d="M383.518 337.357C381.908 338.966 382.087 345.405 383.697 348.087C384.591 349.339 385.128 347.372 384.949 343.259C384.949 339.324 384.949 336.105 384.77 336.105C384.77 336.105 384.055 336.641 383.518 337.357Z" fill="black"/>
<path d="M1016.81 337.357C1018.95 337.714 1022.17 337.714 1023.96 337.357C1025.57 336.82 1023.78 336.463 1019.85 336.641C1015.91 336.641 1014.48 336.999 1016.81 337.357Z" fill="black"/>
<path d="M1059.55 337.357C1062.77 337.714 1068.49 337.714 1072.07 337.357C1075.82 336.999 1073.32 336.641 1066.35 336.641C1059.55 336.641 1056.51 336.999 1059.55 337.357Z" fill="black"/>
<path d="M389.419 344.152C390.85 346.119 393.533 348.981 395.321 350.59C398.183 352.915 398.54 353.988 396.573 357.387C393.533 363.288 395.679 364.183 399.435 358.46C401.044 355.956 401.76 353.273 400.865 352.558C399.971 351.842 396.394 348.802 392.996 345.94C389.419 342.9 387.989 342.006 389.419 344.152Z" fill="black"/>
<path d="M1026.64 348.086C1028.25 348.444 1031.11 348.444 1032.9 348.086C1034.51 347.55 1033.08 347.192 1029.68 347.192C1026.28 347.192 1024.85 347.55 1026.64 348.086Z" fill="black"/>
<path d="M1043.63 348.086C1045.78 348.444 1049 348.444 1050.79 348.086C1052.39 347.55 1050.61 347.192 1046.67 347.371C1042.74 347.371 1041.31 347.729 1043.63 348.086Z" fill="black"/>
<path d="M423.4 354.346C424.116 357.565 425.725 362.394 426.977 365.077C429.123 369.548 430.196 370.084 437.529 369.727C444.146 369.548 444.683 369.369 439.854 368.833C434.846 368.117 433.416 366.686 429.123 358.281C423.937 347.371 421.254 345.762 423.4 354.346Z" fill="black"/>
<path d="M437.35 349.875C438.423 350.233 440.569 350.233 441.821 349.875C442.894 349.339 442 348.981 439.496 348.981C436.992 348.981 436.098 349.339 437.35 349.875Z" fill="black"/>
<path d="M457.024 349.875C458.276 350.412 459.886 350.233 460.422 349.696C461.138 349.16 460.065 348.623 458.097 348.802C456.13 348.802 455.593 349.339 457.024 349.875Z" fill="black"/>
<path d="M839.213 350.412C841.18 351.306 850.48 351.843 859.78 351.843C874.624 351.664 875.697 351.485 867.828 350.412C855.309 348.445 834.563 348.445 839.213 350.412Z" fill="black"/>
<path d="M464.177 351.663C465.428 352.2 467.038 352.021 467.575 351.485C468.29 350.948 467.217 350.411 465.25 350.59C463.282 350.59 462.746 351.127 464.177 351.663Z" fill="black"/>
<path d="M838.855 355.241C843.505 355.598 851.017 355.598 855.845 355.241C860.495 354.883 856.561 354.704 847.261 354.704C837.961 354.704 834.026 354.883 838.855 355.241Z" fill="black"/>
<path d="M460.599 357.029C461.851 357.565 463.461 357.386 463.997 356.85C464.713 356.313 463.64 355.777 461.672 355.956C459.705 355.956 459.169 356.492 460.599 357.029Z" fill="black"/>
<path d="M317.525 364.183C320.744 364.541 325.573 364.541 328.255 364.183C330.938 363.825 328.255 363.468 322.353 363.468C316.452 363.468 314.305 363.825 317.525 364.183Z" fill="black"/>
<path d="M286.227 365.971C288.909 366.329 292.844 366.329 295.169 365.971C297.315 365.613 295.169 365.256 290.161 365.256C285.332 365.256 283.365 365.613 286.227 365.971Z" fill="black"/>
<path d="M846.01 382.962C841.717 387.611 839.929 395.302 842.969 396.375C844.221 396.733 844.758 395.481 844.221 392.798C843.685 390.473 844.758 386.896 846.904 384.392C849.944 380.637 851.196 380.279 855.488 381.71C861.211 383.856 863.179 390.473 859.781 396.911C858.707 398.879 858.529 400.488 859.602 400.488C864.788 400.488 864.609 385.465 859.423 381.888C853.879 377.954 850.302 378.312 846.01 382.962Z" fill="black"/>
<path d="M892.509 391.546C884.64 393.334 881.42 396.374 882.493 400.488C883.924 406.032 887.322 407.999 892.151 405.853C896.264 404.065 896.264 404.065 892.33 404.78C888.574 405.495 884.818 401.74 884.818 397.269C884.818 395.838 897.874 391.546 902.345 391.546C905.564 391.546 906.101 401.203 903.239 404.422C901.451 406.39 901.272 407.642 902.345 407.642C905.564 407.642 907.711 401.919 906.816 395.48C905.743 389.221 903.955 388.684 892.509 391.546Z" fill="black"/>
<path d="M848.334 396.732C847.798 397.626 848.513 398.878 850.123 399.415C853.7 400.846 855.309 399.594 853.521 397.09C852.09 394.765 849.586 394.586 848.334 396.732Z" fill="black"/>
<path d="M834.742 405.853C829.913 410.682 830.092 417.657 835.279 420.876C849.944 429.997 865.146 427.493 865.146 415.689C865.146 411.039 856.919 403.349 853.879 405.316C852.806 406.032 853.521 406.926 855.488 407.82C864.43 411.039 865.325 420.876 856.919 423.022C851.911 424.274 837.961 419.624 834.742 415.689C831.344 411.755 837.067 404.064 843.148 404.064C846.904 404.064 847.44 404.601 845.831 406.211C842.611 409.43 843.148 414.795 846.904 414.616C848.692 414.616 849.05 414.08 847.798 413.543C844.579 412.291 844.936 407.82 848.334 406.389C850.659 405.495 850.659 405.138 848.692 403.886C844.579 401.203 838.498 402.097 834.742 405.853Z" fill="black"/>
<path d="M281.219 454.142C280.504 459.149 280.325 463.62 280.862 464.157C281.219 464.694 282.114 460.759 282.829 455.751C283.544 450.744 283.723 446.273 283.366 445.736C282.829 445.378 281.935 449.134 281.219 454.142Z" fill="black"/>
<path d="M296.064 452.532C292.487 454.499 291.592 459.507 294.812 459.507C295.706 459.507 296.064 458.613 295.348 457.54C294.812 456.466 295.348 454.857 296.6 453.963C300.713 451.459 305.006 452.174 305.9 455.393C306.615 457.897 306.794 457.54 306.973 454.499C307.152 451.459 306.258 450.565 303.217 450.565C300.892 450.565 297.673 451.459 296.064 452.532Z" fill="black"/>
<path d="M1090.49 460.4C1087.45 463.977 1089.06 469.164 1093.35 469.879C1096.93 470.416 1099.25 466.481 1099.43 459.864C1099.43 456.823 1093.17 457.181 1090.49 460.4ZM1097.64 461.116C1097.64 464.871 1095.32 468.448 1092.99 468.448C1089.95 468.448 1089.77 464.514 1092.64 461.652C1095.14 459.148 1097.64 458.791 1097.64 461.116Z" fill="black"/>
<path d="M328.793 464.335C328.793 465.051 329.508 467.376 330.402 469.343C331.833 472.741 332.012 472.741 332.012 468.985C332.191 466.839 331.475 464.514 330.402 463.978C329.508 463.441 328.614 463.441 328.793 464.335Z" fill="black"/>
<path d="M232.038 469.521C238.297 470.773 276.57 471.31 274.602 469.879C273.351 469.164 262.62 468.627 250.816 468.627C239.012 468.806 230.607 469.164 232.038 469.521Z" fill="black"/>
<path d="M310.729 472.741C310.729 474.172 323.426 481.326 324.321 480.432C324.857 480.074 322.353 477.928 318.777 475.782C312.338 472.026 310.729 471.49 310.729 472.741Z" fill="black"/>
<path d="M239.191 485.797C239.191 491.52 242.232 494.561 245.809 492.414C247.418 491.341 249.207 489.374 249.564 487.943C250.28 486.155 249.564 486.334 246.882 488.659C243.305 491.699 240.98 491.163 240.98 487.049C240.98 485.797 243.126 484.366 245.987 484.009C250.459 483.293 250.459 483.293 245.093 482.936C240.622 482.757 239.191 483.472 239.191 485.797Z" fill="black"/>
<path d="M215.763 602.761C213.795 604.192 214.332 605.265 218.624 608.842C227.924 616.532 245.451 619.572 247.597 614.028C249.385 609.199 245.63 605.265 239.37 605.801C232.932 606.338 232.216 604.907 237.939 602.582C240.801 601.509 238.834 601.151 230.07 601.151C223.632 601.151 217.193 601.867 215.763 602.761ZM246.345 609.736C246.345 610.63 245.63 611.524 244.557 611.524C243.662 611.524 242.768 610.63 242.768 609.736C242.768 608.663 243.662 607.947 244.557 607.947C245.63 607.947 246.345 608.663 246.345 609.736Z" fill="black"/>
<path d="M1092.81 614.565C1097.46 614.922 1104.8 614.922 1108.91 614.565C1113.02 614.207 1109.27 614.028 1100.33 614.028C1091.56 614.028 1088.16 614.207 1092.81 614.565Z" fill="black"/>
<path d="M1120.36 624.401C1121.61 639.245 1123.22 640.676 1122.32 626.368L1121.79 615.28L1134.31 614.565L1146.83 614.028L1133.05 613.67L1119.46 613.313L1120.36 624.401Z" fill="black"/>
<path d="M1095.86 626.368C1095.86 628.872 1102.47 635.847 1103.72 634.595C1104.08 634.237 1105.33 631.912 1106.41 629.409L1108.55 624.938L1105.16 629.23C1101.58 633.522 1101.58 633.522 1099.61 629.766C1098 626.726 1098.18 626.011 1100.86 625.295C1103.19 624.58 1102.83 624.401 1099.97 624.222C1097.64 624.222 1095.86 625.116 1095.86 626.368Z" fill="black"/>
<path d="M637.657 680.738C638.73 681.095 640.876 681.095 642.128 680.738C643.201 680.201 642.306 679.843 639.803 679.843C637.299 679.843 636.405 680.201 637.657 680.738Z" fill="black"/>
<path d="M350.074 684.851C341.669 685.387 364.74 685.924 401.045 686.103C438.066 686.103 462.567 685.566 456.487 684.851C443.789 683.241 371.715 683.241 350.074 684.851Z" fill="black"/>
<path d="M321.996 687.891C324.679 688.249 328.613 688.249 330.938 687.891C333.085 687.533 330.938 687.176 325.931 687.176C321.102 687.176 319.135 687.533 321.996 687.891Z" fill="black"/>
<path d="M823.118 690.395C802.551 691.289 777.155 692.72 766.782 693.614C750.507 695.045 752.653 695.224 783.772 694.508C900.557 691.826 958.86 690.037 959.576 689.322C961.007 687.891 865.683 688.785 823.118 690.395Z" fill="black"/>
<path d="M737.809 696.832C738.882 697.19 741.028 697.19 742.28 696.832C743.353 696.296 742.459 695.938 739.955 695.938C737.451 695.938 736.557 696.296 737.809 696.832Z" fill="black"/>
<path d="M776.975 699.158C765.35 700.052 755.335 700.946 754.798 701.662C753.725 702.556 803.086 701.662 867.828 699.158L903.597 697.906H850.838C821.865 697.906 788.6 698.443 776.975 699.158Z" fill="black"/>
</svg>
