<svg width="1280" height="720" viewBox="0 0 1280 720" fill="none" xmlns="http://www.w3.org/2000/svg">
<path d="M451.04 47.0402C437.92 51.6802 428.32 58.2402 418.56 68.9602C405.76 83.2002 393.44 108.96 391.04 126.08L390.08 134.08L383.84 121.76C376.64 107.2 365.28 95.2002 352.48 88.4802C327.84 75.3602 291.2 70.8802 291.2 80.9602C291.2 82.2402 292.96 84.0002 295.2 84.8002C297.44 85.6002 299.2 87.3602 299.2 88.6402C299.2 91.3602 302.56 92.8002 308.96 92.8002C312.16 92.8002 313.6 93.6002 313.6 95.3602C313.6 96.6402 316.64 99.2002 320.8 100.96C324.8 102.72 328 105.12 328 106.4C328 107.68 329.92 109.92 332.48 111.36C334.88 112.8 339.52 117.12 342.88 120.96L348.96 127.84H336.48C308.96 127.84 286.72 136.96 264.32 157.44C254.4 166.56 246.24 178.4 247.52 181.76C248.8 185.12 250.88 184.64 259.84 178.88C264.32 176 269.92 173.6 272.32 173.44C274.56 173.28 279.68 171.84 283.52 170.08C291.68 166.24 304.96 163.68 321.6 162.4L333.6 161.44L321.92 167.36C315.52 170.56 307.2 176 303.36 179.36C294.56 187.04 279.36 209.6 273.44 223.84C263.36 248 259.04 281.6 265.92 282.88C268 283.36 270.4 279.68 275.68 268.48C286.24 246.4 291.84 238.72 310.4 221.6C324.64 208.48 345.28 193.6 349.44 193.6C350.08 193.6 348.32 196.96 345.6 200.96C338.56 211.04 332.16 225.76 328.64 240C324.32 257.12 324.48 288.8 328.96 300C333.76 312.16 336 310.56 340 292C346.56 261.44 354.88 242.72 375.04 213.6C385.12 199.2 387.2 196.8 387.2 200.48C387.2 202.88 390.24 217.28 393.92 232.48C399.04 254.08 400.48 263.04 400.48 274.08V288.16L394.08 294.72L387.68 301.12L386.56 292.96C385.92 288.48 384.8 284.8 383.84 284.8C382.08 284.8 376.16 297.12 376 300.96C376 303.36 375.36 303.36 370.08 300.64C363.68 297.44 352.8 296.64 351.2 299.2C350.72 300 352.16 303.36 354.56 306.4L358.88 312L354.4 316.48C345.28 325.44 341.76 340 345.76 351.68C349.12 361.28 352.8 359.84 360.16 346.4C363.04 341.12 366.56 335.2 368 333.28C370.72 329.76 370.72 329.92 371.68 339.2C373.12 356 381.12 365.76 388.32 359.84C391.2 357.28 390.56 349.28 386.56 340.8L384 335.2L384.64 341.6C385.12 345.12 385.92 349.44 386.4 351.2C386.88 352.96 386.56 355.52 385.6 356.8C384.16 358.88 383.52 358.72 380.8 355.52C375.2 348.8 373.12 330.72 376.8 321.12C380.16 312.8 366.88 323.2 359.04 335.04C357.6 337.44 356.16 339.04 355.84 338.72C355.2 338.24 357.12 331.2 359.36 325.6C360.48 322.88 360.32 322.72 358.08 324.48C354.56 327.36 350.4 339.84 350.24 347.84C350.24 352.96 349.92 353.76 348.8 351.2C345.12 342.56 349.12 326.56 356.96 319.04C360.16 316 364 314.24 369.28 313.6L376.8 312.48L370.08 311.2C365.76 310.4 361.92 308.32 359.36 305.44L355.2 300.8H358.72C363.04 300.8 375.2 306.08 376.64 308.64C378.72 311.84 380.8 310.4 379.84 306.56C379.04 303.04 382.4 287.04 383.36 290.4C383.52 291.2 384.32 296.32 384.8 301.6L385.92 311.04L392.96 303.2C399.52 295.52 399.84 295.36 400 299.52C400 301.76 400.48 304.96 400.96 306.4C401.76 308.16 400.96 309.28 398.56 309.92C396.8 310.4 395.2 311.36 395.2 312C395.2 312.8 396.64 312.96 398.4 312.48C401.12 311.68 401.6 312.48 401.6 316.64C401.6 322.4 402.08 322.24 394.56 319.2C386.88 316 387.2 318.08 395.68 325.12C403.36 331.52 406.4 338.88 406.4 351.36V359.04L400.96 348C395.68 336.96 386.72 326.4 384.48 328.48C384 329.12 385.76 332.48 388.64 336C391.52 339.52 395.84 346.88 398.4 352.48C403.36 362.88 408.8 382.08 407.36 383.52C407.04 384 404.64 383.04 402.08 381.28C390.56 373.44 381.92 372.64 367.2 377.6C362.08 379.36 357.44 380.8 356.8 380.8C356.32 380.8 354.56 378.08 353.12 374.72C349.92 367.68 343.2 363.2 335.36 363.2C328.96 363.2 326.4 366.4 326.4 374.56C326.4 379.36 326.24 379.52 323.68 377.28C313.44 368.48 279.84 370.4 272.16 380.32C268.8 384.48 267.68 391.2 270.08 392.64C270.72 392.96 275.52 391.84 280.8 390.08C288.48 387.52 292.64 387.04 301.44 387.84C307.52 388.48 312.96 389.28 313.76 389.76C314.56 390.24 312.64 392.8 309.6 395.36C300.64 403.36 298.72 416.96 305.28 426.88C306.56 428.96 308.64 430.4 309.92 430.08C312.64 429.44 328.96 400 326.56 400C325.6 400 321.44 405.76 317.44 412.8C313.28 419.84 309.44 425.6 308.8 425.6C306.72 425.6 305.6 420.96 305.6 412.48C305.6 405.28 306.24 403.84 311.84 398.24C317.44 392.48 318.4 392.16 323.2 393.6C329.92 395.52 330.56 394.88 327.2 389.92C323.2 383.68 316 381.6 299.2 381.6C286.24 381.6 283.04 382.08 277.92 385.28C272.64 388.32 271.84 388.48 272.32 386.08C273.28 380.8 282.88 377.12 296.8 376.32C311.68 375.52 319.2 377.44 326.72 383.68L331.68 387.84L330.56 380.48C329.12 370.72 330.72 364.8 334.72 364.8C341.6 364.8 352 373.12 352 378.72C352 379.84 349.28 381.44 346.08 382.4C334.08 385.6 334.56 387.36 347.2 386.08C364.64 384.16 379.68 384.96 384.96 387.84L389.6 390.24L382.08 389.28C377.6 388.8 368.16 389.6 358.56 391.36L342.4 394.24L350.56 398.4C355.2 400.64 359.84 404 361.28 406.08C363.52 409.44 363.36 409.6 360.8 408.64C358.72 407.84 358.24 408 359.04 409.28C362.4 414.72 343.2 409.12 336.48 402.88C332.16 398.88 331.68 400.8 335.36 406.24C340.48 413.44 358.24 418.72 362.72 414.24C365.28 411.68 367.52 413.6 371.2 420.96C372.96 424.32 374.72 427.2 375.2 427.2C376.96 427.2 371.68 416.16 365.6 407.04L358.72 396.96L367.04 395.36C371.52 394.56 378.56 393.44 382.88 392.8C394.88 391.2 391.36 384.16 377.12 381.44C369.12 380 372.48 377.6 382.4 377.6C387.84 377.6 392 378.88 398.4 382.88L407.2 388L408 402.4C408.48 410.4 408.8 416.96 408.64 417.28C408.48 417.6 405.6 416.96 402.08 416C388.16 411.84 379.84 416.64 378.08 429.92L377.28 436.32L366.4 437.28C360.32 437.76 352.48 439.04 348.96 440.16C345.28 441.28 342.08 441.76 341.6 441.28C339.52 439.2 334.24 416.64 335.2 413.28C335.68 411.2 335.36 409.6 334.4 409.6C332.16 409.6 332.48 418.4 335.2 429.6C337.92 441.28 338.4 446.72 336 443.2C335.2 441.92 334.4 438.88 334.4 436.64C334.4 434.4 332.96 428.32 331.2 423.2C329.44 418.08 328 412 327.84 409.76V405.6L326.08 409.28C324.64 412 324.96 415.68 326.88 424.48C328.48 430.88 329.6 438.72 329.6 441.92C329.6 447.2 329.12 448 323.84 449.6C320.64 450.72 314.88 454.72 310.88 458.56C306.88 462.24 302.08 465.6 300.16 465.92C295.2 466.56 292.64 476.16 291.68 497.92C290.72 516.48 290.88 516.8 294.24 516.8C297.28 516.8 297.6 517.6 297.6 525.6V534.4L274.08 534.56C248.96 534.72 250.56 537.12 276 537.76C303.68 538.24 296.64 540.32 262.4 541.44C218.56 543.04 220 545.28 265.76 546.72C283.36 547.2 297.6 548.32 297.6 549.12C297.6 549.76 295.52 550.4 292.96 550.4C290.24 550.4 287.68 551.04 287.2 552C286.56 552.96 288.48 553.6 291.84 553.6C296.48 553.6 297.6 554.24 297.6 556.64C297.6 560.16 292.48 560.8 252 562.56C212.48 564.32 217.44 566.56 258.88 565.76C282.24 565.12 296 565.44 296 566.4C296 567.36 295.04 568 293.92 568C292.96 568 282.88 569.12 271.84 570.4C240.48 574.08 239.68 576 269.92 574.88L295.84 573.92L296.96 578.24C297.44 580.64 297.6 582.88 297.12 583.36C296.48 584.16 248.16 586.88 230.72 587.2C228.64 587.2 227.52 587.84 228 588.8C228.64 589.92 264 590.08 334.72 589.28C415.04 588.48 440.16 588.64 439.36 590.08C438.72 591.2 433.44 592 425.92 592.16C419.2 592.16 412.16 592.8 410.4 593.6C408.32 594.56 411.68 595.04 420.8 595.04C434.24 595.2 434.24 595.2 431.2 598.4C428.32 601.12 425.12 601.76 408.16 602.4C397.12 602.88 387.84 603.52 387.52 604C387.04 604.48 394.72 604.8 404.8 604.8C419.52 604.8 422.4 605.12 420.96 606.88C419.68 608.48 417.12 608.8 410.88 607.84C400.48 606.4 357.76 606.4 339.2 607.84C325.6 608.8 325.6 608.8 350.24 610.08C363.84 610.72 383.84 611.2 394.72 611.2C410.24 611.2 414.4 611.68 414.4 613.44C414.4 616.32 404.32 617.6 380.96 617.76C370.72 617.76 358.88 618.4 354.4 619.2C348.96 620 356.16 620.48 377.6 620.64C394.72 620.64 428.32 621.92 452.32 623.36C476.16 624.64 502.08 625.6 509.92 625.28L524 624.8L518.56 634.08C515.36 639.52 511.68 643.52 509.76 644C507.84 644.32 485.6 644.96 460 645.44C391.68 646.72 389.92 649.28 457.28 649.44C505.28 649.6 512 649.92 512 652C512 654.08 510.56 654.4 504.48 653.6C500.16 653.12 490.4 653.44 482.4 654.08L468 655.52L490.72 655.84C503.84 655.84 513.76 656.64 514.4 657.6C516.32 660.8 525.92 659.04 539.2 652.96L552.8 646.72L553.28 652.96C553.92 660.96 557.6 662.08 570.4 657.6C577.44 655.04 587.52 653.76 608.8 652.32L637.6 650.4L613.6 649.92L589.6 649.44L596.64 645.6C601.92 642.56 605.6 641.6 612.64 641.76C621.28 642.08 621.44 642.08 615.2 643.2C610.72 644 613.76 644.32 625.6 644.48C647.04 644.48 656.16 642.08 636.8 641.44L623.2 641.12L640.8 640C650.56 639.36 677.92 638.72 701.6 638.4C725.44 638.24 750.88 637.6 758.4 636.96C766.56 636.16 740.16 635.52 692 635.52L612 635.2L616.48 630.88C620.8 626.56 621.6 626.4 641.28 625.76C663.68 624.96 661.6 622.88 637.92 622.56C628.96 622.4 624.16 621.76 624.8 620.8C625.44 619.84 639.52 619.2 661.28 619.04C680.8 618.88 715.36 618.4 738.08 617.76C760.96 617.28 779.84 617.28 780.16 617.92C781.28 619.68 769.6 620.64 736 621.6C696.96 622.72 683.52 625.28 716 625.28C728.32 625.44 748.8 624.8 761.6 624.16C776 623.36 785.6 623.36 786.72 624.32C787.84 625.28 794.24 625.6 800.96 625.28C810.4 624.96 813.44 625.28 814.08 627.04C814.72 628.8 812.16 628.96 800 628C791.84 627.36 771.04 627.36 753.76 628.16L722.4 629.6L739.2 630.56C748.48 631.2 770.08 631.68 787.36 631.84C818.88 632 818.88 632 821.44 635.84C822.72 638.08 825.28 640.16 827.04 640.8C830.88 641.92 836.8 639.2 836.8 636.16C836.8 632.96 844 632.48 888.16 633.28C916.16 633.76 928 634.56 928 635.84C928 636.8 930.24 639.36 932.8 641.6L937.76 645.6L887.68 644.96C828.16 644.32 743.68 646.24 744.96 648.16C745.44 648.96 757.76 649.76 772.48 649.76C793.12 650.08 796.48 650.24 787.68 651.2C781.28 651.68 775.52 652.8 774.88 653.44C773.6 654.72 811.68 653.76 864 651.04C880.32 650.24 904 649.6 916.8 649.44C929.6 649.28 946.08 648.8 953.6 648.16L967.2 646.88L955.2 646.56C946.24 646.4 943.84 645.92 946.08 644.64C947.52 643.84 948.8 641.6 948.8 640C948.8 637.12 949.92 636.8 960.48 636.8C967.04 636.8 979.04 636.32 987.36 635.68C1007.68 634.24 1000.64 632.48 972.8 632L951.2 631.52L966.4 630.24C974.72 629.6 992.48 628.48 1005.6 627.84C1032.32 626.72 1033.12 624.48 1007.2 624C998.4 623.84 984.32 623.2 976 622.56L960.8 621.6L969.44 617.12C976 613.6 978.4 611.2 980.32 606.4C983.2 599.2 985.6 598.4 1007.84 598.24C1016.32 598.24 1024.64 597.6 1026.4 596.8C1028.32 596 1020.8 595.36 1006.4 595.36L983.04 595.2L983.68 589.6L984.32 584H995.36C1001.44 584 1006.4 583.36 1006.4 582.56C1006.4 580.96 989.28 578.72 987.04 580C986.24 580.64 985.6 579.52 985.6 577.6C985.6 574.72 986.24 574.24 990.08 575.2C998.4 576.96 1026.4 578.88 1027.68 577.76C1028.8 576.64 1002.72 571.68 991.52 570.88C987.52 570.56 987.04 570.08 988 566.4C988.48 564.16 989.44 545.44 989.92 524.64C990.56 493.12 990.4 484.64 988.16 473.76C984.96 457.92 981.6 450.4 976.64 448.32C970.72 445.44 955.68 443.52 933.28 442.4L912 441.28V428C912 410.88 910.72 409.6 893.6 409.6H881.12L882.24 399.84C882.72 394.4 883.2 387.52 883.2 384.64C883.2 380.16 883.84 379.36 888 378.56C890.72 378.08 895.04 377.12 897.6 376.64C902.24 375.84 902.4 375.84 900.8 380C898.88 384.96 900.8 389.44 905.76 392C909.44 394.08 924.32 390.72 934.4 385.6C937.76 383.84 940.96 382.4 941.28 382.4C941.76 382.4 940.32 386.56 938.24 391.52C931.52 407.84 933.92 422.24 944.64 431.68C951.04 437.28 958.4 439.36 963.04 436.8C969.28 433.6 970.72 419.68 967.04 399.84C965.92 394.4 966.08 394.56 978.72 406.72C992 419.52 996.32 421.44 1002.08 417.28C1008.32 412.64 1008 390.08 1001.6 377.6C997.28 369.12 991.2 364.8 983.68 364.8H977.28L980.8 359.2C985.12 352.16 988.8 339.04 988.8 329.92C988.8 324 988.32 323.2 985.12 323.2C980.32 323.2 960 330.08 953.76 333.76C947.68 337.28 944.96 344 946.08 351.52L947.04 357.28L941.92 352.48C932.16 343.2 922.4 340 910.72 342.4C901.6 344.48 891.68 352 888.64 359.36C884.64 368.96 885.12 369.6 898.08 369.6C911.68 369.76 909.92 371.84 894.88 373.6L884.8 374.72V369.12C884.8 359.52 891.04 327.2 896.64 307.68C899.68 297.28 904.32 280.16 907.04 269.6C909.76 259.04 913.28 246.4 914.88 241.44C916.64 236.64 918.56 229.6 919.2 225.76C920.48 217.92 921.92 218.56 924.64 228.8C925.76 232.8 929.44 245.28 933.12 256.64C938.88 275.04 939.36 278.24 938.4 287.52C937.28 297.6 939.2 303.68 942.56 301.44C944.64 300.16 944.32 301.92 941.6 307.2C936 318.08 944.48 320 954.4 309.92C969.76 294.56 970.72 261.12 956.48 233.12L951.68 223.52L958.08 228.96C961.6 232 969.12 240.16 974.72 247.04C986.88 262.24 986.72 262.08 987.84 267.52C988.32 269.76 990.56 273.76 992.64 276.32C994.88 278.88 997.12 282.88 997.6 285.28C999.04 290.4 1002.4 293.44 1005.6 292.16C1008.8 291.04 1008.8 272.16 1005.6 257.12C1001.28 236.32 988.8 216 972.48 203.04C968.16 199.68 964.8 196.8 965.28 196.8C968.16 196.8 980.8 203.84 984 207.04C986.08 209.44 989.44 211.2 991.68 211.2C993.76 211.2 998.08 213.28 1001.12 216C1004 218.56 1007.36 220.8 1008.16 220.8C1009.12 220.8 1012.8 223.04 1016.16 225.76C1027.36 234.72 1030.72 228 1022.4 213.28C1016.48 203.04 1001.76 187.04 992.32 180.48C988.32 177.76 981.12 174.24 976.16 172.64C967.52 170.08 967.36 169.92 972 168.8C988.64 165.12 998.72 161.28 999.52 158.24C1000 156.64 1000.8 155.2 1001.44 155.2C1002.08 155.2 1004 154.24 1005.6 152.96C1008.16 151.04 1008.32 150.4 1006.56 148.16C1004.96 146.24 1001.44 145.6 992.16 145.6C976.96 145.6 955.36 148.16 944.8 151.2C934.4 154.24 916.96 165.76 912.8 172.32C911.04 175.2 909.28 177.44 908.8 177.6C908.32 177.6 906.72 174.24 905.28 169.92C897.92 149.6 876.64 121.28 859.04 108.48C847.04 99.6802 839.04 97.1202 837.28 101.6C836.64 103.52 837.28 105.44 839.36 107.04C840.96 108.48 842.24 111.04 841.92 112.96C841.6 115.2 843.2 117.6 847.04 120.64C852.16 124.48 852.48 125.28 850.72 128.16C848.96 131.04 849.44 132 854.08 135.84C856.8 138.24 859.2 141.28 859.2 142.72C859.2 144.16 860.32 146.08 861.6 147.2C865.92 150.72 864.16 151.52 854.88 150.08C849.76 149.12 836.64 148.8 825.6 149.28C811.04 149.92 802.88 149.44 796 147.84C790.72 146.56 775.68 145.12 762.4 144.64C740.16 143.68 736.96 144 718.4 148C702.08 151.68 692.64 152.64 667.52 153.44C650.72 153.92 636.8 154.08 636.8 153.76C636.8 153.28 638.08 151.68 639.52 150.08C641.12 148.32 642.4 143.52 642.88 137.76C643.52 129.76 643.04 128 640 125.12C629.6 115.52 608.64 120.96 604.64 134.4C603.04 139.52 603.2 141.44 605.76 146.56C610.24 155.68 616.16 159.2 626.08 159.04C674.24 157.76 707.68 155.2 725.6 151.2C742.4 147.52 747.2 147.04 763.2 147.84C782.4 148.64 801.6 151.52 801.6 153.44C801.6 154.08 796.32 156.96 789.76 159.84C783.2 162.72 776.64 166.4 775.2 168C772.64 170.72 772.8 171.04 775.52 172.48C777.12 173.28 787.36 174.56 798.4 175.2C842.08 177.76 829.44 179.04 768.96 178.4C718.24 177.92 706.24 177.28 704.16 175.52C694.08 166.56 672.96 160.96 653.6 162.08C636.32 163.04 630.88 164.64 618.4 172.16L608.8 177.92L570.4 177.44L532 176.96L522.08 168.48C516.64 163.84 512.64 159.84 513.28 159.52C516.48 157.6 536.64 155.04 541.12 155.84C544 156.32 552 160.32 558.88 164.8C565.76 169.12 571.68 172.8 572 172.8C572.32 172.8 574.08 169.44 576 165.44L579.2 157.92L586.4 158.72L593.6 159.68V154.4C593.6 143.52 588.8 140.8 582.08 147.52C579.84 149.76 578.4 150.4 577.92 149.12C577.12 146.4 568.32 142.08 566.24 143.2C565.44 143.84 566.24 145.6 568.32 147.36L572 150.72L568.32 149.92C562.72 148.64 564.48 153.92 570.4 155.84C573.12 156.8 575.52 157.6 575.84 157.92C576.32 158.24 572.96 167.84 571.84 169.44C571.52 169.76 568.96 168 566.08 165.6C556.16 157.12 546.08 153.6 532 153.6C524.96 153.6 516.64 154.24 513.6 155.2C508.64 156.64 506.88 156.16 497.6 151.36C481.6 143.04 472.64 140.48 455.2 139.36L439.2 138.4L457.6 129.28C467.68 124.16 480 119.2 484.8 117.92C491.36 116.32 493.76 115.04 494.08 112.64C494.56 109.76 495.84 109.6 511.68 109.76C521.12 109.92 532.8 110.4 537.6 111.04C552.16 112.8 554.24 107.36 541.76 100C524 89.6002 479.68 85.7602 457.6 92.6402C451.84 94.4002 443.04 98.4002 437.76 101.6L428.48 107.2L432.8 101.12C435.36 97.9202 440.16 92.1602 443.52 88.6402C447.04 84.9602 449.6 80.9602 449.28 79.5202C448.96 78.0802 451.68 74.8802 455.84 72.0002C459.68 69.1202 463.2 65.6002 463.52 63.8402C464 62.2402 464.8 60.8002 465.44 60.8002C468.32 60.8002 480 49.1202 480 46.2402C480 43.5202 478.88 43.2002 470.88 43.2002C465.28 43.2002 457.28 44.8002 451.04 47.0402ZM456 51.8402C456 52.1602 453.12 54.2402 449.6 56.6402C446.08 58.8802 443.2 61.9202 443.2 63.2002C443.2 65.2802 444.32 65.1202 449.76 62.2402C459.36 57.4402 456 61.2802 445.44 67.2002C436.8 72.0002 434.08 75.8402 441.92 72.0002C445.12 70.4002 444.96 70.7202 441.28 73.6002C439.04 75.3602 435.36 78.4002 433.28 80.1602L429.6 83.3602L436 82.5602C442.4 81.7602 442.24 81.9202 432 87.3602C422.4 92.4802 422.08 92.8002 427.68 92.0002C430.88 91.5202 433.6 91.3602 433.6 91.8402C433.6 92.3202 430.08 94.5602 425.6 97.1202C417.12 101.92 415.36 104.16 421.28 102.88C424 102.4 423.2 103.52 417.6 108.96C412 114.24 411.2 115.36 414.24 114.4L418.08 113.28L414.4 118.4C412.48 121.12 409.76 123.84 408.64 124.32C407.36 124.8 406.88 125.76 407.36 126.56C407.84 127.36 407.04 129.6 405.76 131.52C400 139.68 404 137.28 417.28 124.64C431.68 110.88 444.32 102.24 456.16 98.0802C474.24 92.0002 504.96 92.4802 526.88 99.2002C537.12 102.4 542.08 105.44 533.28 103.36C530.72 102.56 528.64 102.88 527.84 104.16C527.04 105.6 524.16 105.12 516.8 101.92C506.56 97.4402 500.8 96.4802 500.8 99.2002C500.8 100.16 501.28 100.64 502.08 100.48C504.16 100 512 102.72 512 104C512 105.92 499.04 102.56 492.96 99.0402C487.04 95.5202 483.68 96.4802 488.64 100.16C491.52 102.24 490.56 102.4 480.16 102.4C467.52 102.4 465.92 104.8 477.6 106.56C491.2 108.48 486.72 110.4 468.16 110.4C457.6 110.4 449.44 111.04 448.8 112C448.16 112.96 452.64 113.6 460.96 113.6C477.92 113.6 476 116.16 457.44 118.4C437.12 120.8 434.08 122.08 445.6 123.2L455.2 124L443.2 127.84C433.28 131.04 431.84 131.84 435.2 132.64C439.04 133.76 438.88 133.76 433.28 136.48C430.08 137.92 427.2 139.2 426.72 139.2C424.8 139.2 401.28 150.56 401.92 151.2C402.4 151.68 407.68 150.4 413.76 148.48C423.04 145.44 428.32 144.8 447.2 144.8C467.36 144.96 470.72 145.28 480.32 149.12C486.24 151.36 495.2 155.68 500.16 158.56C512.16 165.76 531.36 183.68 539.84 195.84C553.12 214.56 557.28 227.68 545.28 212.64C535.84 200.96 530.88 195.84 531.84 198.88C534.72 207.68 533.92 209.44 530.56 202.08C525.12 190.72 520.64 188.48 524.8 199.04C528.16 208.16 524.32 202.24 516 185.6C511.2 175.84 506.4 168 505.6 168C503.36 168 503.36 168 508.8 180.32L513.6 191.2L507.52 184.8C504.32 181.28 499.68 175.84 497.28 172.8C491.52 165.44 489.44 168 494.08 176.48L497.76 183.2L490.88 176C487.04 172 482.4 166.56 480.32 164L476.8 159.2L477.76 164.8C478.24 167.84 479.36 171.04 480.16 171.84C482.08 174.08 481.92 176.48 480 175.2C479.04 174.56 476.48 170.4 474.08 165.92C469.76 157.44 467.2 157.76 470.24 166.4C472.64 173.6 468.16 172.64 460.64 164.48C454.4 157.76 452.8 157.28 456 163.36C459.36 169.44 447.52 165.28 441.12 157.92C437.12 153.28 436.64 153.12 437.76 156.64C438.72 160.16 438.4 160.32 434.24 159.36C431.68 158.88 423.2 157.92 415.2 157.44C402.4 156.64 400.16 156.96 395.52 159.84C390.72 162.88 390.24 163.84 390.72 170.08C391.2 175.84 391.84 177.12 396.48 179.2C403.36 182.4 402.88 187.52 395.68 188.96C390.08 190.08 389.28 188.96 392 184C392.96 182.24 392.96 180.64 392.16 180.16C391.36 179.68 388 183.2 384.8 188C378.24 197.44 376 197.92 376 189.92C375.84 185.6 375.68 185.28 374.24 187.68C373.28 189.28 372.96 193.28 373.6 196.8C374.4 201.28 373.92 204 372 207.04C368.64 212 366.4 211.04 366.4 204.64C366.4 201.76 365.76 200.16 364.8 200.8C364 201.28 363.2 205.28 363.2 209.76C363.2 214.08 362.56 217.6 361.6 217.6C360.8 217.6 360 216.48 360 215.2C360 213.92 359.2 212.8 358.4 212.8C357.28 212.8 357.12 215.68 357.76 220.64C358.56 226.72 358.08 229.6 355.84 233.44L352.8 238.56L351.04 230.88L349.12 223.2L348.96 234.4C348.64 247.84 346.4 253.12 344.8 244.32C343.2 235.84 340.8 238.72 340.64 249.28C340.48 254.24 340 256.48 339.68 253.92C338.4 245.44 336 251.52 335.84 263.68C335.68 272 335.36 274.72 334.4 272C333.28 268 332.96 268.16 330.72 275.2C328.8 280.8 329.76 264.96 332 252.64C338.88 215.84 350.88 195.84 378.08 176.16C386.08 170.24 389.28 166.4 386.24 166.4C385.6 166.4 380.16 169.28 374.24 172.64C363.52 178.88 363.36 178.88 364.96 174.88C367.36 168.48 365.6 168.8 361.44 175.52C357.44 182.08 356 183.2 346.72 187.52L340.8 190.24L343.36 185.44C347.68 176.96 344.8 176.8 339.68 185.12C336.96 189.6 331.36 195.36 327.36 198.08C323.36 200.8 320 202.72 320 202.24C320 201.76 321.44 198.56 323.36 195.04C325.12 191.36 326.24 188.16 325.92 187.68C324.96 186.88 319.84 194.08 315.52 202.4C313.76 205.92 308.96 212 304.96 216L297.6 223.2L300 215.2C303.04 205.12 303.04 203.84 300 206.4C298.72 207.52 295.84 214.4 293.6 221.6C289.44 235.04 284.8 242.4 284.8 235.36C284.8 229.28 282.08 233.12 280.96 240.8C280.32 244.64 279.04 248.32 278.08 248.96C277.12 249.6 274.4 254.4 271.84 259.84C265.92 272.64 265.6 266.72 271.2 247.04C276.64 228.32 284.64 211.68 294.56 198.24C304.16 185.28 310.56 180 325.76 172.32C339.84 165.28 352.96 162.72 370.88 164C387.04 164.96 384.64 162.56 367.52 160.8C358.72 159.84 357.12 159.2 358.56 157.44C359.84 155.84 359.84 155.2 358.72 155.2C357.76 155.2 356.48 155.84 356 156.8C355.52 157.6 352.48 158.4 349.44 158.4C344.16 158.4 344 158.24 345.76 154.88L347.68 151.52L343.36 154.72C340.8 156.8 337.92 157.76 335.68 157.12C332.64 156.32 332.64 156.16 335.04 154.4C336.48 153.28 337.6 152 337.6 151.36C337.6 150.72 335.52 151.68 332.96 153.44C328.16 156.96 321.6 157.92 321.6 155.36C321.6 154.4 322.24 153.28 323.2 152.8C324 152.32 325.6 150.24 326.72 148.32C328 145.76 326.72 146.24 321.12 150.72C317.12 154.08 312.8 156.8 311.36 156.8C309.28 156.8 309.44 155.84 312.16 150.72L315.52 144.8L309.76 150.72C304.64 156.16 296 160.48 296 157.6C296 156.96 297.28 154.56 298.88 152.32C304.96 143.52 304 143.52 295.68 152.16C288 160.16 278.24 166.56 278.4 163.52C278.56 162.88 280.64 160 283.2 156.96C289.6 149.44 287.68 148.48 280.32 155.52C273.28 162.24 259.36 171.84 258.24 170.72C257.12 169.6 276.32 152.48 285.6 146.24C300 136.64 310.4 133.76 331.2 133.76C347.84 133.6 350.4 134.08 358.4 137.76C363.2 140.16 371.04 144.96 375.84 148.64C380.64 152.16 385.12 155.2 385.92 155.2C389.28 155.2 383.04 148.32 373.44 141.28C367.68 137.12 361.28 132.32 359.36 130.72L356 127.84L359.68 128.8C365.6 130.4 363.68 127.04 356.8 124C353.28 122.4 349.28 119.84 347.84 118.24C345.12 115.36 345.28 115.2 350.56 116.16C357.28 117.44 356.16 116.16 344.32 109.28L335.2 103.84L341.28 104.64C349.92 105.76 347.2 103.2 335.52 99.3602C321.44 94.5602 318.88 92.3202 328.48 93.2802C339.2 94.2402 337.92 91.6802 326.56 89.4402C319.52 88.1602 316.8 86.8802 316.32 84.6402C315.84 82.5602 313.92 81.6002 310.88 81.4402C307.2 81.2802 307.04 80.9602 309.92 80.4802C315.2 79.5202 332.16 84.1602 345.28 90.4002C361.92 98.2402 371.84 108.96 382.08 129.92C386.56 139.04 390.72 148.48 391.36 150.88C391.84 153.28 393.12 155.04 394.24 154.72C395.36 154.4 396 148.64 396 138.24C396.16 124.32 396.64 120.96 401.12 109.92C407.84 93.2802 417.44 77.4402 425.92 69.2802C433.76 61.6002 456 48.6402 456 51.8402ZM856 112.96C856 113.44 853.92 112.32 851.2 110.4C848.64 108.48 846.4 106.56 846.4 106.24C846.4 105.76 848.64 106.88 851.2 108.8C853.92 110.72 856 112.64 856 112.96ZM882.88 141.6C890.24 152.48 902.24 175.36 902.4 178.24C902.4 179.2 900 177.6 897.28 174.88C894.4 172.32 888.32 167.2 883.84 163.84C879.36 160.32 876 156.64 876.32 155.68C876.64 154.72 874.4 151.84 871.36 149.28C865.12 144.32 863.68 141.28 868.96 144C870.72 144.96 873.28 145.6 874.72 145.28C876.32 144.96 873.76 142.72 867.84 139.2C857.92 133.28 856.64 131.04 862.72 129.6C866.08 128.8 865.76 128.16 858.56 122.72C854.24 119.52 851.36 116.8 852.32 116.8C853.12 116.8 855.2 117.92 856.96 119.2C862.4 123.36 864.96 122.08 860.64 117.12C858.56 114.72 861.12 116.8 866.08 121.6C871.2 126.4 878.72 135.36 882.88 141.6ZM636.96 128.16C643.2 131.52 638.56 149.12 630.4 153.6C625.44 156.32 625.28 155.36 629.76 149.6C632.16 146.4 633.6 143.52 633.12 143.04C632.64 142.56 630.4 144.8 628 147.84C624 153.12 619.52 155.04 617.12 152.64C616.64 152 618.4 148.8 621.12 145.44C623.84 141.92 625.76 138.88 625.28 138.4C624.8 137.92 622.4 140.48 620 144C615.04 151.04 614.08 151.52 611.2 148C609.44 145.76 610.08 144.48 615.68 138.72C624.32 129.92 624.48 126.88 616 135.2C609.12 141.92 606.56 141.76 608.96 134.72C611.84 126.08 626.72 122.56 636.96 128.16ZM590.4 152C590.4 155.52 590.24 155.68 586.56 154.24C584.48 153.44 584.32 152.8 585.76 151.04C588.32 147.84 590.4 148.32 590.4 152ZM982.4 153.6C980.64 154.72 981.28 155.2 985.28 155.2C988.16 155.2 990.24 155.84 989.76 156.64C988.32 158.88 980.48 159.84 973.28 158.56C965.76 157.12 964.32 158.4 970.08 161.28C972.96 162.72 971.52 163.04 962.08 163.04C955.68 163.2 950.4 163.68 950.4 164.16C950.4 164.8 951.68 166.24 953.28 167.52C955.84 169.6 955.68 169.76 952 168.96C940 166.56 935.36 166.24 937.6 167.84C939.68 169.28 939.68 169.6 937.6 170.24C936.32 170.72 931.36 172.48 926.56 174.24C921.76 176 917.6 177.28 917.28 176.96C915.84 175.68 931.2 164.64 939.84 160.64C952.16 155.04 989.92 148.8 982.4 153.6ZM861.6 157.44C867.84 159.36 896.8 177.44 895.52 178.56C895.2 178.88 891.84 177.92 888 176.64C884.16 175.36 875.04 173.76 867.68 173.28C856.64 172.48 854.72 172 856.16 170.08C859.36 166.4 856.32 165.92 851.84 169.44C849.44 171.2 845.28 172.8 842.56 172.8C838.08 172.64 837.92 172.48 840.48 170.56C844.96 167.04 843.52 166.24 837.44 168.8C828.96 172.32 825.44 171.84 830.24 167.84C836 163.04 833.28 162.56 825.44 167.2C816.32 172.32 812 172.32 818.4 167.2C823.04 163.36 821.76 161.76 816.32 164.64C814.88 165.28 811.52 166.4 808.96 167.04C804.96 168 804.48 167.84 806.08 165.92C807.68 164 806.88 164 799.68 165.92C795.04 167.04 789.44 167.84 787.2 167.68C784.32 167.36 787.04 165.76 797.28 161.76C805.12 158.72 814.08 155.68 817.28 155.04C825.28 153.28 852.8 154.88 861.6 157.44ZM430.88 164.16C441.44 166.56 443.2 167.68 453.28 177.44C464.8 188.48 477.44 207.68 484.16 224C488.8 235.52 489.12 238.24 484.64 229.92C480.8 222.72 479.2 222.24 480.64 228.8C482.08 236.48 480.16 234.4 474.4 221.92C465.76 203.52 458.08 196.16 465.6 213.6C470.88 225.76 465.6 219.68 459.04 205.76C452.96 193.28 452.8 193.12 453.76 200C454.72 206.56 454.56 206.88 452 204.8C450.56 203.68 446.72 197.44 443.68 191.36C437.92 180 434.56 178.56 439.04 189.44C441.28 195.04 441.28 195.2 438.56 193.28C427.68 185.44 422.4 179.36 420.96 172.96C418.88 163.52 416.96 162.56 417.92 171.36L418.72 178.88L413.12 177.28C409.92 176.32 404.48 175.52 400.96 175.52C395.36 175.2 394.24 174.56 393.92 171.52C393.6 169.44 394.56 166.4 396.16 164.64C399.68 160.64 414.56 160.48 430.88 164.16ZM680 167.52C684 168.8 689.76 171.52 692.8 173.44L698.4 176.8L678.08 177.28C666.88 177.44 648.16 177.44 636.48 177.28L615.2 176.8L624.8 172.32C642.88 163.68 663.04 161.92 680 167.52ZM979.84 179.04C992.8 185.44 1022.08 215.36 1018.56 218.72C1018.08 219.36 1014.4 216.32 1010.4 212C1004.96 206.24 1003.2 205.12 1003.2 207.36C1003.04 209.76 1002.4 209.44 999.52 205.6C997.6 203.04 994.4 199.04 992.32 196.8L988.64 192.8L989.28 197.6C990.08 202.24 989.76 202.08 982.72 193.92C975.04 185.28 971.36 183.04 974.4 188.96C977.76 195.2 975.04 195.52 968.16 189.76C960.32 183.2 959.2 182.72 961.6 187.2C963.04 189.92 962.88 190.4 960.48 190.4C958.88 190.24 955.84 189.28 953.6 188C948.64 185.12 946.56 184.96 948.16 187.52C948.96 188.64 948.48 188.96 946.88 188.48C940.8 186.08 929.6 185.44 923.36 187.2C918.24 188.48 916 188.48 914.24 187.04C910.72 184.16 911.52 182.88 917.28 181.76C920 181.28 927.52 179.36 933.6 177.6C949.44 173.12 969.12 173.76 979.84 179.04ZM468.8 179.2C470.88 180.48 470.88 180.8 468.48 180.8C467.04 180.8 465.28 180 464.8 179.2C463.52 177.12 465.6 177.12 468.8 179.2ZM887.84 182.56C891.68 183.36 898.56 185.76 902.88 187.52L911.04 191.04L904.64 193.92C896.64 197.44 890.88 197.76 892.16 194.4C893.44 191.36 891.36 191.36 888.16 194.24C886.72 195.52 882.4 196.96 878.72 197.6C871.84 198.72 871.68 198.72 873.6 195.2C876.48 189.92 874.08 189.28 869.12 194.08C863.36 199.68 861.92 199.52 863.2 193.6C863.84 190.56 863.68 188.8 862.56 188.8C861.6 188.8 860.8 189.92 860.8 191.2C860.8 194.56 853.6 201.6 850.4 201.6C847.84 201.6 848 200 850.72 192.32C852.48 187.68 848.48 191.04 844.64 197.44C841.92 201.92 839.04 204.64 836.32 205.12C832.64 205.92 832.32 205.6 833.76 202.08C835.52 197.28 835.52 196.8 833.76 196.8C832.96 196.8 830.4 200 828.16 204C823.36 212 821.6 213.28 824 207.2C826.72 200.16 821.6 202.56 816 210.72C811.68 217.28 811.04 217.76 812 213.92C813.44 207.36 810.08 208.96 803.2 218.08C800.16 222.08 797.44 225.12 797.12 224.96C795.2 223.04 805.44 208.64 816 198.08C828.64 185.6 834.4 182.56 850.4 180.16C856.8 179.2 879.04 180.64 887.84 182.56ZM904 183.36C904 183.68 902.56 183.36 900.8 182.4C899.04 181.44 897.6 180.32 897.6 179.84C897.6 179.52 899.04 179.84 900.8 180.8C902.56 181.76 904 182.88 904 183.36ZM427.52 192C434.4 198.24 434.4 198.24 430.08 198.4C423.84 198.4 422.08 202.88 421.12 221.92C420.64 231.04 420.16 238.24 419.84 237.92C419.36 237.44 406.4 182.88 406.4 181.44C406.4 181.12 409.6 182.08 413.6 183.36C417.44 184.8 423.84 188.64 427.52 192ZM482.4 184C485.12 185.12 484.8 185.44 480.48 185.44C477.6 185.6 475.2 186.24 475.2 187.2C475.2 188.16 479.84 188.8 485.92 188.8C495.84 188.8 497.12 189.12 501.92 193.92C504.8 196.8 507.2 199.68 507.2 200.32C507.2 200.96 500.96 201.6 493.28 201.6H479.2L474.08 193.6C471.2 189.28 468.8 184.96 468.8 184C468.8 182.08 477.92 182.08 482.4 184ZM803.2 185.6C800 186.56 800.8 186.88 807.36 187.04L815.52 187.2L808.8 194.4L802.24 201.6L676.16 200.96C606.88 200.64 549.92 200 549.76 199.68C549.6 199.52 547.04 196.16 544.16 192.32L538.88 185.6L634.72 185.92C694.72 186.08 722.72 186.56 709.6 187.36C698.24 187.84 680.96 188.48 671.2 188.64C661.6 188.8 652.48 189.6 651.2 190.4C648 192.48 677.28 192.48 732.64 190.4C765.12 189.12 775.68 188.32 778.24 186.56C780.48 184.96 785.6 184.16 794.4 184.32C803.2 184.32 805.92 184.8 803.2 185.6ZM403.2 192.32C403.2 193.44 403.68 195.84 404.16 197.76C404.96 200.64 404.16 201.44 399.68 202.4L394.4 203.84L400.16 204.32L405.92 204.96L408.96 218.08C410.56 225.28 412.16 232 412.48 233.12C413.12 235.36 403.36 237.6 401.44 235.68C400.48 234.72 399.52 231.52 398.88 228.32C398.08 223.2 398.4 222.4 400.96 222.4C402.72 222.4 405.12 221.6 406.4 220.64C408.16 219.52 407.2 219.2 402.4 219.52L396 220L392.96 207.84C391.2 201.28 390.24 194.56 390.88 193.12C392.16 189.92 403.2 189.28 403.2 192.32ZM943.04 192.96C955.84 196.16 963.68 200.96 973.92 211.36C992.8 230.72 1000 244.96 1002.4 268C1003.2 274.88 1002.88 276.96 1001.76 275.2C1000.8 273.92 1000 272 1000 270.88C1000 269.92 999.2 267.04 998.4 264.8C997.12 261.28 996.32 260.8 994.56 262.24C992.64 263.84 992 262.56 991.2 254.88C989.76 242.88 988 239.36 986.08 244.48C984.8 247.84 984.32 247.04 981.6 238.08C978.72 228.16 978.56 228 977.76 233.6L976.8 239.2L973.76 231.2C970.4 222.08 967.04 217.6 968.64 224.32C969.12 226.56 970.08 229.76 970.72 231.52C972.64 237.12 962.88 226.72 959.84 220C957.44 214.88 956.8 214.4 956.8 217.28V220.96L952.48 217.6C949.92 215.84 946.24 211.36 944 207.68C939.52 200.32 934.08 196.64 937.76 203.36C939.68 207.04 939.68 207.04 935.84 204.48C933.76 202.88 928.96 199.68 925.28 197.28C921.44 194.88 918.4 192.32 918.4 191.52C918.4 189.6 932.8 190.24 943.04 192.96ZM918.4 204.8C918.4 208 917.76 212.8 916.96 215.36C916.16 217.92 909.92 236.64 903.36 257.12C886.88 307.52 884.16 319.04 877.28 367.52L871.36 409.6H865.28C859.52 409.6 859.2 409.28 859.2 404.8C859.2 401.12 859.84 400 862.4 400C864.16 400 865.6 399.2 865.6 398.4C865.6 397.44 864.48 396.8 863.2 396.8C859.68 396.8 860.32 392.48 864.16 389.76C867.36 387.68 867.36 387.52 864.48 386.72C861.76 386.08 861.76 386.08 864.8 384.96C874.08 381.44 874.56 380.96 868.96 380.96C864.8 380.8 863.84 380.32 864.64 378.24C865.12 376.8 865.6 374.72 865.6 373.44C865.6 372.16 867.2 371.2 869.28 371.2C872.48 371.04 872.48 370.88 870.08 369.44C866.08 367.2 866.56 361.76 870.88 360C874.08 358.72 874.24 358.56 871.2 358.4C869.12 358.24 868.8 357.76 870.24 357.28C871.68 356.64 871.84 356.16 870.56 355.2C868 353.76 870.08 348.8 873.44 348.8C875.84 348.64 875.84 348.64 873.28 347.2C869.6 344.96 871.36 339.2 875.84 339.2C879.04 339.04 879.04 338.88 876.48 336.96C874.88 335.84 873.6 333.28 873.6 331.2C873.6 328.48 874.24 327.84 876.8 328.48C878.56 328.96 880 328.64 880 327.84C880 327.04 878.88 326.4 877.44 326.4C875.52 326.4 875.04 325.44 875.84 322.72C876.32 320.8 876.8 318.24 876.8 317.12C876.8 316.16 878.72 315.2 881.28 315.2C885.28 315.04 885.44 315.04 882.56 312.8C879.04 310.08 880.16 302.4 884.16 302.4C886.24 302.4 886.4 301.92 884.8 300C882.56 297.44 884 286.4 886.4 286.4C887.2 286.4 887.52 285.28 887.04 284C885.28 279.52 887.84 273.6 891.68 273.6C894.88 273.44 895.04 273.28 892.48 271.36C888.64 268.48 888.8 263.84 892.8 262.88C896.32 261.92 896.96 259.84 894.08 258.88C892.96 258.4 892.64 256.96 893.28 255.36C893.92 253.92 895.04 252.96 895.84 253.44C896.48 253.92 897.12 251.68 896.96 248.32C896.8 243.04 897.12 242.4 900.48 242.88C904.64 243.52 905.12 241.92 901.28 239.2C899.04 237.44 898.88 236.48 900.32 233.12C901.76 230.08 903.04 229.44 906.24 229.92C911.2 230.88 912 227.36 907.2 226.08C903.84 225.12 903.36 224.16 904.96 220.16C905.6 218.56 907.84 217.6 911.04 217.6L916 217.44L911.84 215.2C908.48 213.44 907.84 212 908.32 208.8C908.96 206.08 910.24 204.8 912.48 204.8C915.68 204.8 915.68 204.64 912.96 202.72C910.88 201.12 910.4 199.52 911.2 196.96C912.16 193.6 912.48 193.44 915.36 196.16C917.28 197.92 918.4 200.96 918.4 204.8ZM901.6 212.32C899.36 218.24 897.28 223.36 896.96 223.68C896.64 224 895.84 221.12 895.2 217.44C894.56 213.76 892.32 209.12 890.4 207.04L886.72 203.36L891.84 202.72C894.56 202.4 898.72 201.92 901.12 201.92L905.6 201.6L901.6 212.32ZM934.72 212C956.96 236.16 966.4 266.4 959.2 290.88C957.76 295.36 954.88 301.12 952.8 303.52L948.8 308L951.36 301.92C952.64 298.4 953.6 292.64 953.28 289.12L952.8 282.4L948.48 288.8C945.92 292.32 944 294.72 944 294.24C944 293.76 945.76 287.36 948 280C952.32 265.76 952.32 262.56 948 269.92C945.44 274.4 945.44 274.24 946.24 264.48C946.88 253.6 944.96 249.44 943.04 257.92L941.92 263.2L940.48 258.4C939.68 255.68 939.52 250.4 940 246.4C940.8 240 940.64 239.52 938.56 242.08C936.48 244.8 936.16 244.64 934.4 239.36C932.96 234.72 933.12 233.12 935.36 229.6C938.56 224.8 936.96 221.92 933.76 226.56C931.52 229.44 931.36 229.44 929.76 225.44C928.96 223.04 927.36 218.08 926.4 214.24C925.44 210.4 924.16 205.92 923.68 204.16C922.4 199.68 925.12 201.6 934.72 212ZM454.88 216.8L465.76 228.64L455.68 229.12L445.6 229.6L445.44 278.08C445.28 304.8 444.8 326.88 444.32 327.36C444 327.84 441.92 321.44 440 313.28C437.92 305.12 434.56 292.64 432.48 285.76C429.44 275.2 428.8 269.44 428.8 252.16C428.8 240.64 429.28 225.28 429.92 217.92L430.88 204.8H437.44C443.52 204.8 444.8 205.6 454.88 216.8ZM524.32 212.8C528.8 218.24 533.76 220.16 536.64 217.76C538.08 216.48 540 217.44 543.84 221.44L548.96 226.72L539.04 227.84C533.6 228.32 520.96 228.8 511.04 228.8H492.8L488 218.24C485.44 212.32 483.2 207.52 483.2 207.36C483.2 207.36 491.52 207.52 501.76 207.68C520 208.32 520.48 208.32 524.32 212.8ZM636.8 209.28C636.8 213.76 641.44 219.2 645.44 219.2C650.56 219.2 653.44 215.36 652.16 210.24L651.04 205.92L678.72 206.88C693.92 207.52 727.2 208 752.48 208H798.56L792.96 217.92L787.36 228L725.28 229.12C691.2 229.6 641.44 229.76 614.88 229.28L566.4 228.32L560.8 218.24C557.76 212.8 555.2 207.84 555.2 207.36C555.2 206.88 573.6 206.4 596 206.4C634.08 206.4 636.8 206.56 636.8 209.28ZM645.44 207.36C646.88 207.84 648 209.76 648 211.52C648 216 642.56 214.56 641.92 209.92C641.28 206.08 641.6 205.92 645.44 207.36ZM878.72 238.72C879.52 283.84 879.36 285.44 872.32 313.6C868.64 328.16 865.44 341.44 864.96 343.2C864.64 344.96 864.32 323.36 864.48 295.2C864.64 241.44 863.68 232 857.6 228.8C856 228 845.28 227.2 833.76 227.2H812.96L816.96 223.2C819.04 221.12 821.76 219.68 823.04 220.16C824.16 220.64 827.2 219.2 829.92 216.96C835.2 212.48 839.2 211.84 862.08 211.52L878.4 211.2L878.72 238.72ZM888.96 230.88C889.44 238.4 889.44 247.2 888.64 250.72C887.36 256.48 887.2 256.16 886.24 244.8C885.76 238.24 885.12 227.68 885.12 221.6C884.96 206.56 887.36 212.64 888.96 230.88ZM484.8 250.4C496.32 266.88 498.08 268.64 499.84 265.76C500.8 264.32 497.12 243.2 495.2 237.92C494.08 235.2 496 235.04 532.16 235.04C553.28 235.2 618.56 235.2 677.6 235.2L784.8 235.36L784.32 240C783.36 248 788.32 248.16 795.2 240.32L800.96 233.6H828.96H857.12L858.24 249.12C858.72 257.76 859.36 289.6 859.36 320C859.68 365.44 859.2 376.96 857.12 384.8C855.84 390.08 854.24 397.28 853.6 400.8C852.8 405.92 851.68 407.68 847.52 409.6C843.2 411.68 842.4 412.96 841.92 418.56C841.6 422.88 842.24 425.76 844 427.2C847.84 430.4 846.88 433.6 841.92 433.6C839.36 433.6 829.92 432.48 820.96 431.2C811.84 429.76 802.88 429.12 801.12 429.76C799.2 430.24 793.92 433.6 789.28 437.12C780.48 443.84 777.12 450.08 775.2 462.88L774.08 470.56L628.32 470.24C507.68 470.08 482.24 469.6 480.32 467.84C478.88 466.4 474.4 465.6 467.36 465.6H456.48L456.64 445.92C456.8 427.2 454.08 387.36 451.2 367.04C450.56 361.76 450.56 340.48 451.2 319.84C452 299.2 452.16 271.36 451.68 257.92L450.72 233.6H461.92H473.12L484.8 250.4ZM414.4 239.52C414.4 240.32 414.88 242.4 415.36 244.32C416.16 247.04 415.68 248 413.76 248C410.72 248 410.24 251.2 413.28 251.2C414.24 251.36 413.44 252.32 411.2 253.6C406.56 256.32 407.68 256.64 413.44 254.56C416.96 253.12 417.6 253.44 419.04 257.92C420.96 263.2 419.52 265.44 414.88 265.6C413.76 265.6 412.8 266.24 412.8 266.88C412.8 267.68 415.04 268 417.6 267.52C423.52 266.72 424.48 270.88 418.88 272.8C415.2 274.08 415.2 274.08 419.2 274.72C427.2 276.32 428 283.52 420.48 286.08L415.2 287.68L421.12 287.84C426.08 288 427.2 288.64 428.64 292.96C431.36 300.64 430.88 302.4 426.08 302.56C421.6 302.72 421.6 302.72 426.72 304.16C430.24 305.12 432.16 307.04 433.44 310.72C436.16 318.24 435.68 320 430.88 320.16C426.88 320.32 427.04 320.64 432.48 322.08C439.2 324 440.32 326.4 434.56 326.4C428.32 326.4 428.32 329.12 434.4 330.24C440.48 331.52 441.76 334.24 436.8 335.52C432.32 336.64 432.8 339.2 437.6 339.2C439.84 339.2 441.6 340.16 441.6 341.12C441.6 342.24 442.08 344.8 442.56 346.72C443.52 349.92 443.04 350.4 438.24 350.56L432.8 350.72L438.4 352.8L444 354.88L439.68 356C434.4 357.28 435.36 360 440.96 360C443.68 360 444.8 360.96 444.8 363.04C444.8 364.8 445.28 367.2 445.76 368.64C446.56 370.72 445.6 371.2 440.96 371.2C437.76 371.2 435.2 371.84 435.2 372.8C435.2 373.6 437.76 374.4 440.96 374.4C447.68 374.4 447.84 378.08 441.12 378.88C435.04 379.68 435.68 382.08 442.08 382.72C446.4 383.04 447.36 384 447.68 387.52C448.16 391.04 447.52 392 444.96 392C443.36 392 440.48 392.48 438.88 393.12C436.8 394.08 437.6 394.56 442.4 395.2C447.52 395.84 448.96 396.8 449.28 399.52C449.76 402.72 449.12 403.2 443.84 403.2C440.48 403.2 438.4 403.68 438.88 404.32C439.52 404.8 439.2 406.24 438.24 407.52C436.8 409.12 437.76 409.6 443.04 409.6C449.76 409.6 449.76 409.76 449.28 414.72C448.8 419.68 448.32 420 441.6 420.96L434.4 421.92L442.88 422.08C450.08 422.4 451.2 422.88 451.2 425.6C451.2 428.32 450.08 428.8 443.04 428.8C438.08 428.8 435.36 429.44 436 430.4C436.48 431.2 440.16 432 444.16 432H451.2V438.4V444.8H442.88C436.8 444.8 435.04 445.28 436.8 446.4C438.08 447.2 441.92 448 445.28 448C451.04 448 451.36 448.32 450.88 452.32C450.4 456.32 449.6 456.96 443.2 457.76L436 458.72L442.88 458.88C448.16 459.2 449.6 459.84 449.6 461.92C449.6 464.48 448.32 464.8 439.2 464.32L428.64 463.68L429.92 451.52C430.56 444.64 431.2 423.68 431.04 404.8C430.88 374.72 430.24 367.2 426.4 344.8C420.32 310.56 420.32 311.52 427.2 310.08C432.64 309.12 432.48 308.96 426.08 309.28C422.24 309.6 419.2 309.44 419.2 309.28C419.2 308.96 415.68 295.04 411.36 278.08C407.2 261.12 403.2 245.28 402.56 242.72C401.6 238.56 401.76 238.4 408 238.4C411.52 238.4 414.4 238.88 414.4 239.52ZM407.52 291.52C407.04 292.64 406.72 291.84 406.72 289.6C406.72 287.36 407.04 286.56 407.52 287.52C407.84 288.64 407.84 290.56 407.52 291.52ZM414.4 321.44C417.76 342.56 417.92 345.92 416 347.2C413.92 348.48 414.08 348.8 416.48 348.8C418.24 348.8 419.2 350.08 419.2 352.8C419.2 355.04 419.2 357.28 419.2 357.92C419.2 358.72 417.76 359.36 416 359.36C412 359.68 411.84 358.88 409.6 332.8C408.64 321.76 407.52 308.96 406.88 304.16C406.08 297.12 406.4 295.68 408.16 296.32C409.76 296.8 411.68 304.64 414.4 321.44ZM983.36 335.36C982.24 343.68 977.28 356 973.12 360.48C971.68 362.24 967.68 364.96 964.32 366.72C955.84 370.88 957.92 372 969.6 369.6C987.2 365.92 996.8 372 1001.6 390.24C1004.8 402.4 1000.64 415.84 994.24 413.76C991.04 412.8 963.84 387.2 965.92 387.2C966.72 387.2 971.84 390.88 977.6 395.2C996 409.44 995.2 409.12 997.76 405.6C999.04 404 1000 401.12 1000 399.36C999.84 396.16 999.68 396.32 997.76 399.84C994.88 404.96 992.96 401.6 994.24 393.92C995.2 388.48 995.04 388.16 992.96 391.04C991.52 392.64 990.24 394.72 989.92 395.68C989.6 396.64 988.64 396.8 987.68 396.32C986.24 395.36 986.4 393.6 988.16 389.44C989.44 386.24 990.24 382.88 989.92 381.92C989.12 380 988.96 380.32 985.6 389.44L983.84 394.08L980.32 390.72C975.68 386.4 961.92 379.2 958.24 379.2C954.4 379.2 954.4 380.96 958.24 388.48C966.72 405.28 966.88 432 958.4 432C955.36 432 955.2 431.84 957.6 427.2C960.32 421.92 960.64 418.24 958.56 416.8C957.76 416.32 956.16 418.72 955.2 421.92C952.32 430.72 951.04 431.52 946.4 427.2C941.92 422.88 941.28 420.8 944.8 420.8C946.08 420.8 947.84 419.36 948.8 417.76C951.36 412.96 950.72 412 947.2 415.2C945.6 416.64 943.04 417.6 941.6 417.12C938.24 415.68 938.56 411.2 942.08 411.2C943.52 411.2 945.92 410.4 947.2 409.44C949.12 408.16 948.32 408 944.48 408.48C939.68 408.96 939.2 408.64 939.2 404.64C939.2 402.24 941.28 394.4 944 387.04C946.56 379.68 948.32 373.44 947.84 372.96C947.52 372.48 944.96 373.44 942.24 375.04C938.24 377.44 936.96 377.6 935.84 375.84C934.88 374.08 933.12 374.08 926.08 375.84C921.44 377.12 915.2 379.04 912.16 380.16C907.04 382.24 906.88 382.56 909.6 384.64C911.36 385.92 911.84 387.04 910.72 387.84C908 389.44 904 387.04 904 383.84C904 376.8 912.96 372.48 931.2 370.4C936 369.76 941.12 368.96 942.4 368.48C945.92 367.2 939.84 365.12 932.48 364.96C927.2 364.8 926.4 364.32 926.4 360.96C926.4 358.72 925.76 356.48 924.8 356C923.84 355.36 923.2 356.8 923.2 359.04C923.2 362.08 922.4 363.2 920 363.2C917.44 363.2 916.8 362.08 916.8 357.6C916.8 354.56 916.16 352 915.2 352C914.4 352 913.6 354.56 913.6 357.6C913.6 362.08 912.96 363.2 910.4 363.2C907.84 363.2 907.2 362.08 907.2 357.12C907.2 352.8 906.72 351.84 905.6 353.6C904.8 354.88 904 357.76 904 359.84C904 362.88 903.36 363.36 900.64 362.72C898.56 362.08 896.16 362.88 894.72 364.32C893.12 365.92 892 366.24 891.52 365.12C889.44 358.56 905.6 347.2 916.8 347.2C926.24 347.2 941.76 354.72 948.64 362.4C951.36 365.44 954.56 368 955.84 368C957.12 368 962.08 364.32 966.72 359.84C974.88 352 975.04 351.84 968 357.28C957.92 364.96 953.6 367.2 953.6 364.32C953.6 363.2 955.52 360.48 957.76 358.24C962.24 353.92 971.2 341.12 971.2 338.72C971.2 337.76 968.96 340.32 966.24 344.16C959.2 354.08 953.28 360 951.68 359.04C951.04 358.56 950.4 354.24 950.4 349.6C950.4 342.24 950.88 340.64 953.92 339.04C958.08 336.8 980.96 328.16 983.04 328C983.84 328 984 331.36 983.36 335.36ZM419.68 362.72C420.16 363.52 420.96 367.04 421.6 370.72C422.72 377.44 422.56 377.6 418.08 377.76C413.6 377.92 413.6 377.92 417.6 379.04C423.2 380.64 424.16 387.84 418.88 389.6L415.2 390.72L419.2 391.84C421.92 392.64 423.36 394.24 423.68 397.28C424.16 400.64 423.36 401.76 420 402.56C417.12 403.2 415.2 402.88 414.24 401.44C413.44 400.16 412.8 390.72 412.8 380.32C412.8 362.88 412.96 361.6 415.84 361.6C417.6 361.6 419.36 362.08 419.68 362.72ZM930.56 380C927.04 382.72 924.8 383.04 924.8 381.12C924.8 378.88 926.72 377.6 930.24 377.6C933.6 377.76 933.6 377.76 930.56 380ZM921.6 383.04C921.6 385.92 914.08 387.36 912.96 384.64C912.16 382.4 914.24 381.12 918.88 380.96C920.32 380.8 921.6 381.76 921.6 383.04ZM425.28 409.92C425.76 414.08 425.44 414.4 420.16 414.4C414.88 414.4 414.4 414.08 414.4 409.44C414.4 404.96 414.72 404.64 419.68 405.12C424 405.44 424.96 406.4 425.28 409.92ZM902.24 415.52C897.44 422.08 895.84 422.4 871.68 422.4C846.88 422.4 844.48 421.76 847.04 415.2C847.68 413.12 852.48 412.8 876.16 412.8C902.72 412.8 904.32 412.96 902.24 415.52ZM401.28 418.4C411.36 421.44 412.16 424 402.88 422.88C397.76 422.4 396.64 422.56 398.4 423.84C399.68 424.8 402.4 425.6 404.32 425.6C407.52 425.6 410.72 428.16 409.28 429.6C408.96 430.08 405.92 429.6 402.56 428.64C399.2 427.68 396.16 427.36 395.68 427.84C395.2 428.32 398.08 429.44 402.08 430.56C407.2 431.84 409.12 432.96 408.48 434.56C408 435.84 406.08 436.96 404.16 436.96C400.96 437.28 400.96 437.28 404.48 437.92C408 438.56 408.96 441.92 407.04 447.04C406.24 449.12 405.12 448.8 400.48 444.8C397.44 442.08 391.84 439.04 387.84 438.08C384 436.96 380.8 435.36 380.8 434.4C380.8 429.44 384.64 420.64 387.68 418.4C391.84 415.52 391.2 415.52 401.28 418.4ZM424.8 422.4C424.8 425.12 423.68 426.56 420.8 427.36L416.8 428.48L420.48 429.6C423.2 430.56 424 432 424 436.16C424 441.12 423.68 441.6 419.04 441.6C414.08 441.6 414.08 441.44 415.04 435.52C415.52 432.32 416 426.56 416 422.88C416 416.48 416.16 416.32 420.48 417.44C423.68 418.24 424.8 419.68 424.8 422.4ZM906.4 439.68C905.76 442.88 904.8 444.48 903.68 443.84C901.76 442.56 902.88 422.24 905.12 418.72C906.72 416.32 907.84 432.48 906.4 439.68ZM854.4 433.6C854.4 438.24 853.76 440 852 440C850.24 440 849.6 438.24 849.6 433.6C849.6 428.96 850.24 427.2 852 427.2C853.76 427.2 854.4 428.96 854.4 433.6ZM870.4 432C870.4 436.48 869.92 436.8 864.8 436.8C859.68 436.8 859.2 436.48 859.2 432C859.2 427.52 859.68 427.2 864.8 427.2C869.92 427.2 870.4 427.52 870.4 432ZM897.6 433.76C897.6 439.04 897.12 440.16 895.04 439.36C893.6 438.88 890.08 438.4 887.04 438.4C881.92 438.4 881.6 438.08 881.6 432.8V427.2H889.6H897.6V433.76ZM831.84 436.8C848.96 438.72 851.2 440.8 834.4 439.36C801.28 436.64 797.6 436.48 800 438.24C802.08 439.68 802.08 440 799.84 440C795.52 440 794.88 437.92 798.72 435.68C801.12 434.24 805.12 433.92 810.4 434.56C814.88 435.04 824.48 436 831.84 436.8ZM872.8 440.8C873.76 441.12 871.04 441.44 866.88 441.44C862.56 441.6 859.2 440.96 859.2 440.32C859.2 439.2 869.12 439.52 872.8 440.8ZM384.64 441.76C391.68 443.68 404.8 455.04 404.8 459.2C404.8 461.76 402.88 462.24 391.68 463.04C363.36 464.96 312 465.76 312 464.16C312 463.36 315.36 460.48 319.68 457.92C341.76 443.68 368 437.12 384.64 441.76ZM807.52 440.96C807.04 441.44 805.6 441.6 804.48 441.12C803.2 440.64 803.68 440.16 805.44 440.16C807.2 440 808.16 440.48 807.52 440.96ZM843.2 444.8C849.76 445.6 856.64 446.08 858.4 445.92C865.12 445.28 896.96 448.48 898.88 450.08C900 450.88 910.08 452 921.28 452.16C941.12 452.8 975.2 457.76 978.08 460.64C978.88 461.44 979.84 464.8 980.16 468.16C980.96 474.24 980.8 474.56 972.16 479.52C967.52 482.4 962.88 484.8 961.92 484.8C961.12 484.8 960 480.48 959.68 475.2C958.56 459.2 958.24 459.04 920.8 456C864.32 451.36 823.68 446.56 813.6 443.2C808.16 441.44 821.44 442.08 843.2 444.8ZM895.2 443.04C896.96 443.84 893.6 444 887.2 443.52C881.12 443.2 875.68 442.56 875.36 442.24C874.08 440.96 892.16 441.92 895.2 443.04ZM422.4 447.52C422.4 450.08 421.92 454.72 421.44 457.92C420.48 463.36 419.84 464 415.84 464C412 464 411.2 463.36 411.2 460C411.2 456.96 412 456 414.88 455.84C417.44 455.68 417.76 455.52 415.68 454.88C410.4 453.6 412.96 443.2 418.56 443.2C421.76 443.2 422.4 444 422.4 447.52ZM800.16 445.6C817.28 451.68 852.8 456.8 895.52 459.2C912.96 460.16 930.08 461.76 933.6 462.88C944.48 466.08 946.08 471.52 947.68 510.4C948.96 541.76 948 603.84 946.08 616.32L945.28 622.08L900.16 621.44C875.52 621.12 841.28 620.32 824.48 619.84C795.36 618.88 793.76 618.72 795.2 616C797.44 611.84 797.28 611.36 793.12 609.76C786.88 607.36 785.12 591.84 784.48 536.8C783.84 487.52 785.76 454.72 788.96 452.64C790.08 452 791.84 451.84 793.12 452.32C794.24 452.8 795.2 452.32 795.2 451.36C795.2 449.28 787.84 448.96 786.4 451.04C785.92 452 784.32 460.8 782.88 470.72C780.8 484.64 780.16 500.64 780 540.8C780 596.64 780.64 602.08 788 610.88C792.48 616.32 793.12 619.2 789.6 619.2C784 619.2 778.24 598.56 776.64 572.8C775.68 556.8 778.24 477.28 780.16 459.52C781.28 450.4 785.76 443.2 790.24 443.2C791.84 443.2 796.32 444.32 800.16 445.6ZM919.68 445.92C918.08 446.24 915.52 446.24 914.08 445.92C912.48 445.44 913.76 445.12 916.8 445.12C919.84 445.12 921.12 445.44 919.68 445.92ZM938.88 447.52C936.32 447.84 932.48 447.84 930.08 447.52C927.52 447.2 929.6 446.88 934.4 446.88C939.2 446.88 941.28 447.2 938.88 447.52ZM952 466.4C953.12 467.68 954.4 473.92 954.88 480C955.52 490.24 956 491.2 959.2 491.2C962.08 491.2 963.04 492.32 963.84 497.12C965.12 505.12 965.12 547.36 963.68 583.52L962.72 612.32L958.08 615.2C955.52 616.64 953.12 617.6 952.96 617.28C952.64 617.12 953.44 602.72 954.56 585.6C955.84 568.48 956.48 550.08 956 544.8C955.52 539.52 954.4 524 953.6 510.4C952.64 492.16 951.36 483.04 948.96 476.16C947.04 470.88 945.6 466.08 945.6 465.28C945.6 463.04 949.92 463.84 952 466.4ZM476.16 471.2C477.92 471.68 481.6 493.92 481.6 504.16V509.92L470.88 511.04C464.8 511.52 445.28 512.8 427.2 513.76C394.24 515.52 379.04 515.2 325.12 511.68L295.84 509.76L296.96 495.68C297.6 487.84 298.56 479.2 299.04 476.32L300.16 471.2L344 470.4C388.32 469.6 472.96 470.08 476.16 471.2ZM553.6 477.44C559.36 477.28 611.36 476.96 669.28 476.64L774.4 476V480.32C774.4 484.32 773.76 484.8 768.48 485.12L762.4 485.28L768.48 485.92C772.32 486.4 774.4 487.36 774.4 488.96C774.4 490.4 772.48 491.36 768.48 491.52L762.4 491.68L768.48 492.32C772.32 492.8 774.4 493.76 774.4 495.36C774.4 496.8 772.48 497.76 768.48 497.92L762.4 498.08L768.48 498.72C776 499.52 776.32 503.36 769.28 505.44L764 506.88L769.28 507.04C772.32 507.2 774.4 507.84 774.08 508.8C773.76 509.76 721.6 510.56 630.24 510.72L486.72 511.2L485.92 496.8C485.44 488.8 484.48 480.64 483.84 478.56L482.72 474.72L512.96 476.16C529.6 476.96 547.84 477.44 553.6 477.44ZM983.04 487.36C986.08 509.76 983.2 555.68 976.64 588C972.8 607.36 966.24 615.36 966.56 600.32C966.72 593.92 966.88 593.6 967.84 597.6C969.6 605.76 971.04 598.72 972.96 570.72C974.88 544.48 973.92 504.64 971.36 494.4C970.4 490.72 970.08 499.04 970.4 518.4L971.04 548L968.8 524.16C967.68 510.88 966.24 497.92 965.76 495.36C965.12 490.88 965.76 489.92 972.48 485.28C976.64 482.56 980.48 480.16 980.96 480.16C981.6 480 982.4 483.36 983.04 487.36ZM368.64 520C397.6 521.44 425.6 521.28 456.8 519.2L468 518.56L452 524.64C443.2 528 432.32 532.64 427.68 535.04C417.44 540.16 417.6 540.16 417.6 535.36C417.6 529.6 414.24 527.68 407.04 529.28C401.76 530.4 400.8 531.2 400.96 534.56C401.28 539.84 399.2 540.8 386.88 540.8C376.48 540.8 376.16 540.64 375.68 536.32C375.36 532.8 374.24 531.84 370.24 531.52C367.68 531.2 363.36 531.84 360.96 532.8C357.28 534.08 356.64 535.2 357.12 538.4C357.6 540.64 357.44 542.4 356.96 542.24C356.48 542.24 344.8 536.48 331.2 529.44L306.4 516.8L321.6 517.6C329.92 518.08 351.2 519.2 368.64 520ZM748.64 520C721.76 521.28 713.6 522.56 713.6 525.12C713.6 526.08 717.44 526.4 724.48 525.76C730.4 525.28 743.68 524.32 754.08 523.84L772.96 522.88L772.48 531.36L772 540L735.2 540.8C687.36 541.92 478.4 540.64 478.4 539.2C478.4 537.12 560.8 536 600 537.6C647.2 539.36 712.8 539.36 698.4 537.6C680.8 535.36 540.96 532.64 509.12 533.92L478.4 535.2V529.28C478.4 526.08 477.92 522.4 477.44 520.96C476.48 518.56 490.08 518.4 624.96 518.72C713.6 518.72 763.52 519.36 748.64 520ZM325.76 531.84C337.76 538.4 350.88 544.64 354.88 545.6C360.64 546.88 363.2 548.64 365.92 552.8C372.8 563.2 390.72 568.96 401.92 564.32C406.08 562.56 409.12 559.52 412.48 553.6C417.76 544.48 416.48 545.12 453.44 530.24C463.04 526.4 471.2 523.36 471.36 523.68C471.68 524 471.36 532.8 470.88 543.52L469.92 562.88L463.52 567.84C457.12 572.64 456.64 572.8 439.36 572.96C429.6 572.96 418.4 573.6 414.4 574.4C409.44 575.36 414.56 575.68 430.08 575.04C442.56 574.56 452.8 574.88 452.8 575.52C452.8 576.32 451.2 577.92 449.28 579.04C446.24 580.96 431.84 581.6 374.4 582.24C335.2 582.88 303.04 583.2 302.72 583.04C301.28 582.4 301.76 520 303.2 520C303.68 520 313.76 525.28 325.76 531.84ZM413.76 535.04C415.2 538.72 408 553.28 402.72 557.76C393.28 565.76 377.28 560.48 366.4 546.08C362.88 541.28 360 537.12 360.32 536.8C360.64 536.64 363.36 535.84 366.4 535.36C370.4 534.56 371.36 534.72 369.6 535.84C366.08 538.24 371.2 547.68 379.52 553.76C385.12 557.76 387.52 558.56 392 557.76C401.92 556.16 409.28 544.64 404.96 537.6C404 536.32 403.84 534.72 404.16 534.08C405.6 532 412.8 532.64 413.76 535.04ZM398.4 550.72C393.28 554.88 386.56 554.4 381.28 549.44C378.88 547.2 377.92 545.6 379.2 546.08C380.64 546.56 386.08 546.4 391.2 545.76C401.76 544.64 404 546.24 398.4 550.72ZM562.08 546.72C552.16 547.04 535.84 547.04 526.08 546.72C516.16 546.56 524.16 546.24 544 546.24C563.84 546.24 571.84 546.56 562.08 546.72ZM745.28 546.72C740.96 547.04 734.24 547.04 730.08 546.72C725.76 546.4 729.28 546.24 737.6 546.24C745.92 546.24 749.44 546.4 745.28 546.72ZM769.28 546.72C767.68 547.04 765.12 547.04 763.68 546.72C762.08 546.24 763.36 545.92 766.4 545.92C769.44 545.92 770.72 546.24 769.28 546.72ZM708.48 548.32C706.08 548.64 701.76 548.64 698.88 548.32C696 548 697.92 547.68 703.2 547.68C708.48 547.68 710.88 548 708.48 548.32ZM771.2 555.52C771.04 558.4 770.88 558.72 769.76 556.8C768.48 554.88 765.6 554.56 752.48 555.52C743.84 556 683.68 557.12 618.88 557.76L500.96 558.88L485.92 572.64C470.72 586.56 459.2 600.16 459.2 604.16C459.2 606.08 466.24 606.4 498.4 606.4H537.6L534.88 610.56C532.16 614.72 532.16 614.72 516.96 613.76C508.48 613.28 484.32 612.32 463.2 611.84L424.8 610.72L440.8 595.36C449.6 586.88 463.2 574.08 470.88 566.88L484.96 553.76L539.68 555.36C578.72 556.48 616.16 556.48 670.4 555.2C712.16 554.24 747.2 553.12 748 552.8C748.96 552.48 754.4 552.16 760.48 552.16C770.56 552 771.2 552.16 771.2 555.52ZM763.68 557.92C761.6 558.24 758.08 558.24 755.68 557.92C753.12 557.6 754.88 557.28 759.2 557.28C763.68 557.28 765.6 557.6 763.68 557.92ZM714.4 560C713.92 560.8 708.96 561.6 703.52 561.6C696.48 561.6 694.24 561.12 696 560C699.2 557.92 715.68 557.92 714.4 560ZM664 563.36C657.92 565.12 646.4 564.96 646.4 563.2C646.4 561.76 663.52 560.16 666.4 561.6C667.2 561.92 666.24 562.72 664 563.36ZM690.4 561.6C691.04 562.56 687.52 563.2 680.96 563.2C675.04 563.2 670.4 562.56 670.4 561.6C670.4 560.64 674.56 560 679.84 560C685.12 560 689.92 560.64 690.4 561.6ZM519.04 563.2C518.24 564 514.4 564.16 509.6 563.36L501.6 561.92L511.2 561.76C517.12 561.6 520.16 562.08 519.04 563.2ZM540.8 563.2C540.8 564 536.8 564.8 531.84 564.8C526.4 564.8 523.36 564.16 524 563.2C524.48 562.24 528.48 561.6 532.96 561.6C537.28 561.6 540.8 562.24 540.8 563.2ZM563.2 563.2C563.2 564 559.2 564.8 554.4 564.8C549.6 564.8 545.6 564 545.6 563.2C545.6 562.24 549.6 561.6 554.4 561.6C559.2 561.6 563.2 562.24 563.2 563.2ZM578.88 563.52C578.08 565.92 564.8 567.36 564.8 565.12C564.8 562.56 566.88 561.6 573.28 561.6C577.44 561.6 579.2 562.24 578.88 563.52ZM598.4 563.2C598.4 564 594.4 564.8 589.44 564.8C584 564.8 580.96 564.16 581.6 563.2C582.08 562.24 586.08 561.6 590.56 561.6C594.88 561.6 598.4 562.24 598.4 563.2ZM620.8 563.2C620.8 564.16 616.16 564.8 610.24 564.8C603.68 564.8 600.16 564.16 600.8 563.2C601.28 562.24 606.08 561.6 611.36 561.6C616.64 561.6 620.8 562.24 620.8 563.2ZM643.2 563.2C643.2 564.16 638.88 564.8 633.6 564.8C628.32 564.8 624 564.16 624 563.2C624 562.24 628.32 561.6 633.6 561.6C638.88 561.6 643.2 562.24 643.2 563.2ZM969.12 572.32C968.8 574.88 968.48 573.12 968.48 568.8C968.48 564.32 968.8 562.4 969.12 564.32C969.44 566.4 969.44 569.92 969.12 572.32ZM741.6 565.44C744.48 567.52 743.84 567.68 735.36 568.16C726.24 568.8 723.68 567.84 725.6 564.8C727.04 562.4 738.08 562.88 741.6 565.44ZM771.2 564.64C771.2 568.32 750.08 569.12 747.2 565.6C745.44 563.52 746.88 563.2 758.24 563.2C765.28 563.2 771.2 563.84 771.2 564.64ZM718.24 567.04C719.68 568.8 718.4 569.28 711.68 570.08C703.84 571.04 699.2 569.6 699.2 566.24C699.2 563.84 716.16 564.48 718.24 567.04ZM693.92 568.96C694.24 570.08 691.2 571.2 685.76 571.84C676.96 572.96 673.6 572.32 673.6 569.6C673.6 566.56 692.96 565.92 693.92 568.96ZM514.4 569.6C513.92 570.4 509.44 571.2 504.64 571.2C499.2 571.2 496.16 570.56 496.8 569.6C497.28 568.64 501.76 568 506.56 568C512 568 515.04 568.64 514.4 569.6ZM536.64 570.4C535.52 572.96 533.44 573.28 524.48 571.84C515.84 570.4 518.72 568 528.8 568C535.84 568 537.28 568.48 536.64 570.4ZM643.2 571.52C643.2 573.92 641.92 574.4 636.16 574.4C622.88 574.4 619.04 570.08 631.68 569.28C635.84 568.96 640.16 568.8 641.28 568.64C642.24 568.64 643.2 569.92 643.2 571.52ZM668.32 570.72C668.8 572.16 667.52 572.8 664.48 572.8C662.08 572.8 657.28 573.28 654.08 573.76C649.28 574.56 648 574.24 648 572.32C648 568.48 667.2 567.04 668.32 570.72ZM558.4 571.2C558.4 572 554.4 572.8 549.44 572.8C544 572.8 540.96 572.16 541.6 571.2C542.08 570.24 546.08 569.6 550.56 569.6C554.88 569.6 558.4 570.24 558.4 571.2ZM576 571.2C576 572 572.64 572.8 568.64 572.8C564.32 572.8 561.76 572.16 562.4 571.2C562.88 570.24 566.24 569.6 569.76 569.6C573.12 569.6 576 570.24 576 571.2ZM593.92 571.68C592 573.92 580.8 573.44 580.8 571.04C580.8 570.24 584.16 569.6 588.16 569.6C594.08 569.6 595.2 570.08 593.92 571.68ZM608 571.2C608 572 605.76 572.8 603.04 572.8C600.32 572.8 598.56 572.16 599.2 571.2C599.68 570.24 601.92 569.6 604.16 569.6C606.24 569.6 608 570.24 608 571.2ZM620.8 571.04C620.8 573.44 612.96 574.08 612.16 571.84C611.52 570.24 612.64 569.6 616 569.6C618.72 569.6 620.8 570.24 620.8 571.04ZM772.8 573.6C772.8 575.36 770.88 576 765.76 576C753.6 576 754.72 571.52 766.88 571.36C771.2 571.2 772.8 571.84 772.8 573.6ZM752.48 574.72C755.68 576.64 754.72 576.96 744.8 577.6C734.08 578.4 728.96 576.8 733.28 574.08C736.32 572.16 748.64 572.64 752.48 574.72ZM724.8 576.96C726.72 579.04 725.76 579.36 716.8 578.88C710.4 578.56 706.4 577.6 705.92 576.32C704.96 573.28 722.24 573.76 724.8 576.96ZM510.4 577.6C510.4 578.56 505.6 579.2 499.04 579.2C492 579.2 488.16 578.56 488.8 577.6C489.28 576.64 494.4 576 500.16 576C505.92 576 510.4 576.64 510.4 577.6ZM530.72 578.4C530.4 579.2 526.4 580.16 521.92 580.48C514.88 580.96 513.76 580.64 514.56 578.4C515.36 576.48 517.44 576 523.36 576.32C527.68 576.64 531.04 577.44 530.72 578.4ZM670.88 578.4C672 581.12 664.64 582.88 655.2 582.08C644.64 581.28 646.56 577.76 657.92 577.12C663.52 576.8 668.48 576.48 668.96 576.32C669.6 576.16 670.4 577.12 670.88 578.4ZM699.84 577.44C701.28 579.68 696.64 580.8 686.4 580.8C679.68 580.8 676.96 580.16 676.16 578.4C675.52 576.32 677.28 576 687.2 576C693.6 576 699.36 576.64 699.84 577.44ZM554.24 580C553.12 582.72 538.4 583.52 536.96 580.96C535.36 578.56 538.08 577.6 546.56 577.6C553.44 577.6 554.88 578.08 554.24 580ZM574.08 579.52C573.6 580.8 569.92 581.76 565.12 582.08C558.24 582.56 556.96 582.24 557.76 580.16C559.04 576.96 575.04 576.48 574.08 579.52ZM585.6 579.04C585.6 579.84 583.84 580.8 581.6 581.12C577.76 581.92 576.48 580.8 578.72 578.72C580.16 577.12 585.6 577.44 585.6 579.04ZM604.8 580C604.8 581.6 603.04 582.4 599.2 582.4C590.56 582.4 592.32 578.08 601.28 577.76C603.36 577.6 604.8 578.56 604.8 580ZM619.2 580C619.2 581.6 617.6 582.4 614.4 582.4C611.2 582.4 609.6 581.6 609.6 580C609.6 578.4 611.2 577.6 614.4 577.6C617.6 577.6 619.2 578.4 619.2 580ZM644.8 580C644.8 581.92 642.56 582.4 634.4 582.4C626.24 582.4 624 581.92 624 580C624 578.08 626.24 577.6 634.4 577.6C642.56 577.6 644.8 578.08 644.8 580ZM774.4 583.2C774.4 584.48 773.76 585.6 772.96 585.6C772.16 585.6 770.72 584.48 769.6 583.2C768 581.12 768.16 580.8 771.04 580.8C772.96 580.8 774.4 581.76 774.4 583.2ZM763.84 583.84C765.28 586.08 760.48 587.2 748.8 587.2C740.64 587.2 737.76 586.56 736.96 584.8C736.32 582.72 738.24 582.4 749.6 582.4C756.96 582.4 763.36 583.04 763.84 583.84ZM706.24 586.72C707.84 590.72 705.76 591.68 694.72 592.16C687.36 592.48 684.16 592 683.04 590.24C680.16 585.76 680.32 585.76 700.96 584.32C703.68 584.16 705.6 584.96 706.24 586.72ZM730.4 585.76C732 588.16 731.36 588.48 720.64 589.6C711.52 590.72 710.88 590.56 709.92 587.36C709.12 584.16 709.76 584 719.2 584C724.8 584 729.92 584.8 730.4 585.76ZM504.8 587.2C504.32 588 498.08 588.8 491.04 588.8C482.88 588.8 478.56 588.16 479.2 587.2C479.68 586.24 485.92 585.6 492.96 585.6C501.12 585.6 505.44 586.24 504.8 587.2ZM525.44 588C524.32 590.56 522.24 590.88 513.28 589.44C504.64 588 507.52 585.6 517.6 585.6C524.64 585.6 526.08 586.08 525.44 588ZM563.2 587.84C560.96 588.96 557.44 590.56 555.52 591.2C552 592.16 551.84 592 553.44 588.96C554.88 586.4 556.8 585.6 561.28 585.6C567.2 585.76 567.2 585.76 563.2 587.84ZM584 587.2C584 588 583.68 588.8 583.36 588.8C582.88 588.8 582.08 588 581.6 587.2C581.12 586.24 581.44 585.6 582.24 585.6C583.2 585.6 584 586.24 584 587.2ZM600.64 586.56C602.08 587.04 603.2 588.96 603.2 590.72C603.2 593.44 602.72 593.6 600.8 592C599.52 590.88 595.68 589.12 592.48 587.84L586.4 585.76L592.32 585.6C595.52 585.6 599.2 586.08 600.64 586.56ZM681.44 590.72C683.04 595.36 684 596 689.76 596.48C693.28 596.64 711.2 595.84 729.28 594.4C747.52 593.12 764.96 591.84 768 591.52C772.64 591.2 773.76 591.84 774.08 594.56C774.56 597.76 773.76 597.92 749.28 598.88C735.36 599.52 701.28 600 673.44 600C630.72 600 622.56 599.68 620.8 597.6C619.68 596.32 616.48 594.88 613.44 594.24C609.6 593.6 608 592.32 608 590.24C608 587.84 609.12 587.2 613.44 587.2C616.48 587.2 619.36 588.16 619.68 589.12C620.32 590.72 620.8 590.72 621.92 589.28C622.88 587.84 630.72 587.2 647.2 586.72C660.48 586.56 673.12 586.08 675.52 585.92C679.04 585.6 680 586.56 681.44 590.72ZM549.28 589.76C548.48 591.68 547.04 592.16 542.56 591.36C539.36 590.88 535.2 590.4 533.12 590.4C531.04 590.4 529.92 589.76 530.4 588.8C530.88 587.84 535.68 587.2 540.8 587.2C548.8 587.2 550.08 587.52 549.28 589.76ZM580.32 596C580.64 600.32 580.64 600.48 579.2 597.12C578.08 594.56 576.32 593.6 572.48 593.6C568.48 593.6 567.68 593.12 569.6 592C570.88 591.04 573.76 590.56 576 590.72C579.2 591.04 580 592.16 580.32 596ZM594.24 593.44C596.64 594.4 596.16 594.88 591.36 596.32C586.08 597.92 585.6 597.76 585.6 595.04C585.6 591.84 588.8 591.2 594.24 593.44ZM566.4 594.24C566.4 594.56 565.28 595.36 563.84 595.84C562.56 596.32 561.92 596.16 562.4 595.2C563.36 593.6 566.4 592.96 566.4 594.24ZM496 596.48C496 600.16 491.2 601.6 479.68 601.6C467.36 601.6 465.44 600.8 469.12 597.12C471.2 595.04 496 594.4 496 596.48ZM520.96 597.6C519.84 600.8 523.2 600.64 525.44 597.6C526.88 595.52 529.76 595.2 538.88 595.52L550.4 596L545.12 599.36C540.32 602.56 538.4 602.72 518.88 601.92C498.72 601.28 497.76 601.12 499.36 598.24C500.64 595.68 502.72 595.2 511.36 595.2C520.16 595.2 521.76 595.68 520.96 597.6ZM555.2 601.12C552.16 603.52 545.6 609.12 540.8 613.6C535.84 618.24 533.76 619.52 536 616.64C540 611.84 557.92 596.8 559.84 596.8C560.32 596.8 558.24 598.72 555.2 601.12ZM574.4 601.76C574.4 606.4 560.32 628.32 554.4 632.96C544.64 640.32 524.8 647.68 524.8 643.84C524.8 643.2 527.36 638.72 530.4 633.6C537.12 622.56 552.48 607.84 562.88 602.4C572.16 597.6 574.4 597.44 574.4 601.76ZM618.4 602.4C620.64 604.48 622.4 608 622.4 610.08C622.4 613.76 614.56 627.52 611.36 629.6C610.24 630.08 611.68 627.52 614.24 623.68C620.96 614.08 621.92 609.12 617.76 604.96C615.2 602.4 612.32 601.6 605.44 601.6C594.56 601.6 580 608.64 572.48 617.44C569.92 620.64 568.48 621.6 569.44 619.84C572.64 613.28 585.44 603.68 593.92 601.12C606.88 597.28 613.76 597.76 618.4 602.4ZM776.48 606.4C777.28 609.44 776.48 609.6 757.92 609.6C747.2 609.6 712.96 610.08 682.08 610.72L625.6 611.68V608.32V604.96H698.56C738.56 605.12 771.84 604.64 772.32 604.16C774.08 602.4 775.68 603.2 776.48 606.4ZM614.4 608.8C619.84 615.36 607.04 629.76 586.56 639.84C571.04 647.36 564.8 649.12 564.8 645.76C564.8 640.64 571.36 626.08 576.32 620.16C585.44 608.96 608.8 602.08 614.4 608.8ZM902.08 626.72C893.6 627.04 879.2 627.04 870.08 626.72C860.96 626.56 868 626.24 885.6 626.24C903.2 626.24 910.56 626.56 902.08 626.72ZM830.4 631.2C830.4 633.44 829.76 635.2 828.8 635.2C828 635.2 827.2 634.56 827.2 633.76C827.2 632.96 826.72 631.2 826.24 629.76C825.6 628 826.08 627.2 827.84 627.2C829.44 627.2 830.4 628.64 830.4 631.2ZM943.68 634.4C943.84 636.16 943.36 638.72 942.4 640C940.96 642.08 940.64 642.08 939.2 640C938.4 638.72 937.6 636 937.6 633.92C937.6 629.12 943.04 629.6 943.68 634.4ZM604.8 634.24C604.8 634.56 603.52 635.84 602.08 636.96C599.52 639.04 599.36 638.88 601.44 636.32C603.52 633.76 604.8 632.96 604.8 634.24ZM556.8 639.2C556.8 640.16 544.64 646.4 542.88 646.4C542.24 646.24 544.8 644.48 548.8 642.4C556.8 638.08 556.8 638.08 556.8 639.2ZM527.36 650.24L535.2 649.92L528.8 652.96C516.8 658.56 513.44 656.8 516.32 646.4L517.44 642.4L518.4 646.4C519.36 650.08 520.16 650.4 527.36 650.24ZM581.6 648C581.12 648.8 579.68 649.6 578.72 649.6C577.6 649.6 577.76 648.96 579.2 648C582.24 646.08 582.88 646.08 581.6 648ZM564.48 652.32C567.84 651.84 571.84 651.04 573.6 650.56C575.36 649.92 574.4 650.72 571.36 652C568.48 653.44 564 655.04 561.44 655.52C557.12 656.32 556.8 656 556.96 651.84C557.12 648.8 557.44 648.16 557.92 650.24C558.56 652.64 559.84 652.96 564.48 652.32Z" fill="black"/>
<path d="M423.52 75.0402C417.28 82.0802 408.32 96.8002 404.32 106.88C399.52 118.72 401.44 118.08 407.2 105.92C410.24 99.3602 416.8 88.4802 421.6 81.4402C426.56 74.5602 430.24 68.8002 429.76 68.8002C429.44 68.8002 426.72 71.5202 423.52 75.0402Z" fill="black"/>
<path d="M550.4 188.8C553.28 190.72 567.52 190.72 572 188.8C574.08 187.84 570.72 187.36 561.6 187.36C552.32 187.2 548.8 187.68 550.4 188.8Z" fill="black"/>
<path d="M708.8 195.2C705.44 196.32 705.76 196.48 711.2 196.48C714.72 196.48 721.92 195.84 727.2 195.2L736.8 194.08L724.8 193.92C718.24 193.92 711.04 194.56 708.8 195.2Z" fill="black"/>
<path d="M773.92 212.32C771.52 214.56 772.96 220.8 776.16 222.56C778.88 224 780.16 223.84 782.08 221.76C784.16 219.84 784.16 218.56 782.72 215.2C780.96 211.52 776.32 209.92 773.92 212.32Z" fill="black"/>
<path d="M621.6 246.24C615.52 248.8 601.76 255.68 591.2 261.6C580.64 267.52 567.36 275.04 561.6 278.08C549.44 284.64 538.08 292.8 528 302.4L520.8 309.12L527.84 304.16C540.96 295.04 541.28 299.36 528.48 312.64C519.68 321.76 520 322.08 530.08 314.08C532.64 312 535.36 310.4 536.16 310.4C539.68 310.4 536.96 314.88 528.48 323.84L519.2 333.28L527.36 327.52C536.8 320.8 537.6 320.48 537.6 324.32C537.6 325.92 532.16 332.48 525.28 338.88L512.8 350.56L524.16 342.56C530.56 338.08 536.16 334.4 536.64 334.4C539.68 334.4 536.32 339.68 526.88 349.44L516 360.48L525.6 353.12C539.2 342.56 539.52 347.52 526.08 361.28L516 371.68L526.08 364.16C539.68 353.76 539.04 358.4 524.64 373.6C518.4 380.16 513.76 385.6 514.4 385.6C515.04 385.6 520.16 381.6 525.76 376.64C536 367.84 536 367.84 536 372.16C536 375.68 533.28 379.52 525.28 387.84L514.4 399.04L524.48 390.56C529.92 385.76 534.88 382.4 535.36 382.88C537.12 384.64 534.08 390.4 529.76 393.44C525.6 396.48 515.68 408 517.28 408C517.76 408 521.6 405.12 525.76 401.6C532 396.48 533.76 395.68 534.08 397.76C534.4 399.36 530.88 404.32 525.28 410.08L516 419.68L524.8 413.12C529.6 409.6 533.92 406.88 534.24 407.36C534.72 407.68 531.04 412 526.4 416.8C517.12 426.24 518.4 428.96 528.32 420.8C536.16 414.24 538.08 417.6 530.88 425.28C517.6 439.68 517.44 441.6 530.72 430.88C540.8 422.88 542.08 424.48 533.44 434.72C525.92 443.68 527.52 443.04 539.2 432.48C549.28 423.04 552.16 426.4 543.52 437.28C534.4 448.64 535.04 449.28 544.64 438.72C552.64 430.24 554.72 428.8 559.36 428.8H564.96L559.68 436C549.76 449.6 549.92 450.4 560.32 439.2C569.44 429.44 571.2 428.32 574.24 429.6C577.6 431.2 577.44 431.36 571.04 440.48C567.36 445.6 564.64 450.08 564.96 450.4C565.44 450.72 569.6 446.4 574.4 440.64C581.28 432.64 584 430.4 587.52 430.4H592L584.8 439.2C574.72 451.68 576 452.32 587.2 440.32C594.24 433.12 597.92 430.4 600.96 430.4H605.12L600.16 436C597.44 439.04 594.08 444 592.8 446.88L590.24 452L595.52 446.4C598.4 443.36 602.72 438.4 605.12 435.52C608 432.16 610.72 430.4 612.64 430.72C615.52 431.2 615.36 432 610.08 440.48C602.4 453.12 604.48 453.76 613.12 441.28C618.4 433.6 621.12 431.04 624.48 430.72L628.96 430.24L623.04 439.2C615.2 451.52 617.28 452.32 625.92 440.16C631.52 432.32 633.6 430.4 637.28 430.4C642.08 430.4 642.08 430.72 636.32 438.88C631.2 446.4 634.4 445.44 640.16 437.76C644.64 431.68 646.56 430.56 651.04 430.4C656.32 430.4 656.32 430.4 653.76 433.92C648 441.92 648.16 443.52 654.08 437.12C659.84 430.72 660.8 430.24 667.2 430.72L674.08 431.2L667.68 439.2C657.6 452 658.08 452.8 668.96 441.6L679.2 431.2H709.28H739.52L743.2 426.88C747.52 421.92 748 413.92 749.76 338.72L750.72 294.24L743.84 287.68C734.4 278.88 728.16 276.64 712 275.84C688.96 274.88 683.68 273.76 678.4 268.8C669.6 260.64 640.32 241.6 636.48 241.6C634.4 241.6 627.84 243.68 621.6 246.24ZM642.56 249.76C644.16 251.68 651.04 258.08 657.6 263.84L669.6 274.4H630.24C600.48 274.4 589.92 274.88 586.88 276.48C584.64 277.76 580.8 278.4 578.4 278.08C574.56 277.76 577.6 275.52 597.76 264.48C633.44 244.96 637.12 243.68 642.56 249.76ZM696 301.12C696 313.12 696.48 324 696.96 325.28C697.6 326.88 692 332.16 678.88 342.08C668.48 350.08 658.24 358.4 656.16 360.64C652.64 364.32 651.04 364.8 641.44 364.8H630.56L614.24 351.52C605.44 344.32 596.48 336.96 594.4 335.2C590.24 331.68 589.44 324 590.08 293.92L590.4 278.24L643.2 278.72L696 279.2V301.12ZM718.24 288.16C712.64 291.84 706.72 295.84 705.28 297.28C702.56 299.52 702.4 299.2 702.4 290.72V281.6H715.52H728.48L718.24 288.16ZM584.96 304.8L584.8 326.4L573.76 315.36C562.72 304.32 562.72 304.32 562.88 295.68C563.2 289.6 562.72 287.84 561.6 289.6C560.8 290.88 560 293.92 560 296.32C560 301.76 558.4 301.92 553.6 296.8C550.56 293.6 550.24 292.48 552 290.4C554.4 287.52 556.32 287.36 557.28 289.92C557.6 291.04 557.76 290.72 557.44 289.12C556.8 284.96 561.28 283.36 573.76 283.2H584.96V304.8ZM728 288.48C728 289.6 726.08 291.68 723.68 293.28C721.12 294.72 716 298.88 712 302.4L704.8 308.96L715.2 302.56C726.72 295.36 729.6 295.2 721.44 301.92C705.92 314.88 704.48 317.6 718.08 308.32C728.8 301.12 727.68 304.32 716.48 313.12C701.6 324.64 702.4 324.64 702.4 314.56V305.76L714.88 296.16C721.6 290.88 727.36 286.4 727.68 286.4C727.84 286.4 728 287.36 728 288.48ZM742.24 293.44C743.84 295.36 743.36 296.16 739.36 298.4L734.4 300.96V294.4C734.4 288.64 734.72 288 737.28 289.44C738.88 290.24 741.12 292.16 742.24 293.44ZM597.28 344.48C606.72 352.32 614.4 359.2 614.4 359.68C614.4 360.32 603.84 368 590.72 376.64C577.76 385.44 561.92 396.8 555.52 402.08C549.12 407.36 543.52 411.2 543.2 410.88C542.88 410.56 543.2 396.32 544 379.52C544.8 360.8 544.8 342.24 544 332.32C543.2 323.36 542.56 311.04 542.4 304.96V293.92L561.28 312.16C571.52 322.24 587.68 336.8 597.28 344.48ZM743.84 321.6C743.2 333.44 742.4 356.8 742.4 373.6C742.24 390.24 741.6 407.84 741.12 412.64L740 421.44L730.4 412.64C720.8 403.68 699.04 386.24 677.12 369.76C670.72 364.96 665.6 360.48 665.6 359.84C665.6 359.04 668.96 356.16 673.28 353.44C682.72 346.88 731.68 309.76 739.04 303.68C741.92 301.12 744.48 299.2 744.8 299.52C744.96 299.84 744.64 309.76 743.84 321.6ZM625.6 366.72C629.12 369.28 632.16 369.6 645.6 369.28C659.68 368.8 661.6 368.48 661.44 365.92C661.28 364.48 661.44 363.2 661.92 363.2C663.2 363.2 712.64 404.64 723.2 414.56L733.6 424.32L644 423.2C594.72 422.72 552 421.92 549.12 421.28L544 420.48L551.36 413.76C565.6 401.28 618.4 362.08 620 362.88C620.96 363.36 623.36 365.12 625.6 366.72Z" fill="black"/>
<path d="M608.16 295.84C604.16 296.32 600.8 297.6 600.48 298.56C599.84 300.64 661.12 303.04 673.6 301.44C688.64 299.52 683.2 298.08 656.32 296.96C641.6 296.32 626.4 295.68 622.4 295.36C618.4 295.04 612 295.2 608.16 295.84Z" fill="black"/>
<path d="M606.08 314.72C603.52 315.04 601.6 316.16 601.6 316.96C601.6 317.76 618.24 318.4 642.4 318.4C679.36 318.4 689.76 317.28 679.68 314.56C675.68 313.6 613.12 313.6 606.08 314.72Z" fill="black"/>
<path d="M606.88 329.12C604.8 329.44 603.2 330.4 603.2 331.2C603.2 333.44 669.92 332.32 672.32 329.92C673.76 328.48 667.68 328 642.4 328.16C624.8 328.32 608.8 328.8 606.88 329.12Z" fill="black"/>
<path d="M616.8 342.4C613.92 343.2 622.08 343.68 637.12 343.84C652.32 344 662.56 343.36 663.2 342.4C664.32 340.48 624.32 340.48 616.8 342.4Z" fill="black"/>
<path d="M732 313.76C723.84 320 723.84 320 726.72 320C729.76 320 739.52 313.44 740.48 310.72C741.44 307.68 739.04 308.64 732 313.76Z" fill="black"/>
<path d="M557.92 259.2C548.48 265.28 540.8 270.72 540.8 271.2C540.8 272.64 546.72 269.28 562.08 258.88C574.08 250.72 577.6 248 575.52 248C575.2 248 567.36 252.96 557.92 259.2Z" fill="black"/>
<path d="M549.76 259.36C543.04 263.84 537.6 267.84 537.6 268.16C537.6 269.12 538.88 268.32 551.2 260.16C561.76 253.28 564.32 251.2 562.88 251.2C562.24 251.2 556.48 254.88 549.76 259.36Z" fill="black"/>
<path d="M564.8 260.32C550.56 268.96 544.48 273.6 547.04 273.6C549.12 273.6 573.44 258.72 577.6 254.88C582.24 250.72 576.48 253.12 564.8 260.32Z" fill="black"/>
<path d="M567.2 263.68C559.2 268.8 551.68 274.4 550.4 276.16C548.16 279.04 548.16 279.04 551.36 276.32C553.28 274.88 555.84 273.92 557.28 274.56C562.24 276.48 588.96 261.92 585.92 258.88C584.8 257.76 581.76 258.72 576.48 261.6C572.32 263.84 570.24 264.8 571.84 263.68C576.48 260.48 583.36 254.56 582.4 254.4C581.92 254.4 575.04 258.56 567.2 263.68ZM567.52 267.84C567.52 269.12 566.56 269.76 565.12 269.12C563.36 268.48 563.04 268.96 564 270.56C564.64 271.84 564.8 272.32 564 271.68C563.36 271.04 561.44 271.2 559.84 272.16C554.88 274.72 556.48 272.64 562.08 268.96C564.8 267.2 567.2 265.6 567.36 265.6C567.36 265.6 567.52 266.56 567.52 267.84Z" fill="black"/>
<path d="M954.56 346.4C954.08 347.84 953.6 349.92 953.76 350.88C953.76 352 954.56 351.04 955.36 348.96C956.16 346.88 956.64 344.8 956.16 344.48C955.84 344.16 955.2 344.96 954.56 346.4Z" fill="black"/>
<path d="M950.4 387.52C950.4 390.88 951.2 393.6 952 393.6C954.08 393.6 954.08 387.2 952 384C950.88 382.24 950.4 383.2 950.4 387.52Z" fill="black"/>
<path d="M856 417.6C856 419.52 873.12 419.52 877.6 417.6C879.84 416.64 876.8 416.16 868.48 416.16C861.12 416 856 416.64 856 417.6Z" fill="black"/>
<path d="M963.36 464.64C965.12 466.08 974.4 467.04 973.6 465.6C973.12 464.64 970.4 464 967.68 464C964.96 464 963.04 464.32 963.36 464.64Z" fill="black"/>
<path d="M966.56 470.56C964.48 471.36 963.2 472.48 963.68 472.96C965.12 474.56 977.76 471.84 976.64 470.24C975.52 468.48 971.52 468.48 966.56 470.56Z" fill="black"/>
<path d="M935.36 472.32C935.84 474.4 937.6 478.08 939.04 480.8L941.6 485.6L942.08 481.44C942.72 475.84 939.84 468.8 936.8 468.8C934.88 468.8 934.4 469.76 935.36 472.32Z" fill="black"/>
<path d="M856 491.52C853.28 516.64 853.12 568.16 855.84 584.64C859.04 604.16 860.96 606.4 859.68 588.8C858.88 580.48 858.56 550.72 858.56 522.72C858.72 494.88 858.56 472 858.4 472C858.24 472 857.12 480.8 856 491.52Z" fill="black"/>
<path d="M815.04 519.2C816 563.68 817.44 582.56 820.96 597.12C823.2 606.56 825.6 607.36 824 597.92C821.6 585.44 819.04 550.56 817.6 513.44C816.96 493.12 815.68 476 815.2 475.52C814.56 474.88 814.4 494.56 815.04 519.2Z" fill="black"/>
<path d="M821.6 500.32C820.32 528.32 821.28 550.72 824.96 576C828 596.16 830.88 602.88 829.6 586.4C829.12 580.16 827.84 568.32 826.88 560C825.76 551.68 824.96 529.12 824.96 509.92C825.12 490.88 824.48 475.2 823.84 475.2C823.2 475.2 822.24 486.56 821.6 500.32Z" fill="black"/>
<path d="M789.28 485.92C787.2 500.48 787.68 553.12 789.92 555.36C791.36 556.8 791.68 547.68 791.52 516.96C791.36 494.88 791.04 476.8 790.88 476.8C790.72 476.8 790.08 480.96 789.28 485.92Z" fill="black"/>
<path d="M834.4 500C832.96 525.12 834.24 553.44 837.6 576C839.84 590.88 844.48 607.36 845.92 605.76C846.24 605.44 845.44 597.28 844.16 587.68C841.12 566.56 838.56 529.12 838.24 503.2C838.08 475.04 835.84 473.28 834.4 500Z" fill="black"/>
<path d="M874.4 484.16C873.76 487.68 872.64 493.28 871.68 496.8C868.8 508.96 868.32 565.6 870.88 583.68C873.28 599.68 874.24 603.04 876 601.28C876.48 600.8 875.68 589.28 874.24 575.84C871.52 550.4 872 523.2 875.36 493.44C876.96 479.2 876.32 473.12 874.4 484.16Z" fill="black"/>
<path d="M891.52 481.12C889.6 485.76 890.56 593.76 892.48 599.2C893.76 602.72 894.24 588.16 893.92 541.28C893.76 506.72 893.44 478.4 893.12 478.4C892.96 478.4 892.16 479.68 891.52 481.12Z" fill="black"/>
<path d="M905.12 499.52C903.36 527.68 903.84 547.52 906.4 573.6C909.76 607.2 912.64 608.32 911.2 575.2C910.56 561.12 909.6 534.72 908.96 516.48C908.32 498.24 907.36 482.88 906.88 482.4C906.4 481.92 905.6 489.6 905.12 499.52Z" fill="black"/>
<path d="M880.96 488.64C879.36 495.2 876.8 528.32 876.8 543.84C876.8 564.16 883.2 607.04 885.76 604.32C886.24 603.84 885.44 593.6 884 581.44C881.92 564.8 881.44 549.92 881.76 522.08C882.08 501.6 882.24 484.8 882.24 484.8C882.08 484.8 881.6 486.56 880.96 488.64Z" fill="black"/>
<path d="M799.36 491.52C796.96 502.88 796.32 570.24 798.4 584C800.64 598.88 802.4 604.8 804.48 604.8C805.28 604.8 804.96 598.56 803.52 590.72C801.92 580.96 801.12 563.36 800.96 531.68C800.96 506.72 800.64 486.4 800.64 486.4C800.48 486.4 799.84 488.8 799.36 491.52Z" fill="black"/>
<path d="M920 493.12C920 494.24 918.88 505.28 917.6 517.6C916.32 529.92 915.2 548.32 915.2 558.4C915.2 577.12 917.76 604.64 919.68 606.72C920.32 607.36 920.8 581.6 920.8 549.44C920.8 517.44 920.64 491.2 920.48 491.2C920.16 491.2 920 492.16 920 493.12Z" fill="black"/>
<path d="M802.88 508C802.08 514.08 801.6 524.8 801.6 531.68C801.6 549.76 806.08 589.76 808.8 595.68L811.2 600.8L810.4 596C808.16 580.64 805.92 550.72 804.96 525.6C804.16 500.64 803.84 498.24 802.88 508Z" fill="black"/>
<path d="M941.76 603.68C940.96 607.04 940.8 610.24 941.44 610.72C943.36 612.64 944.16 609.92 943.68 603.84L943.04 597.6L941.76 603.68Z" fill="black"/>
<path d="M938.879 617.12C939.999 617.6 941.439 617.44 941.919 616.96C942.559 616.48 941.599 616 939.839 616.16C938.079 616.16 937.599 616.64 938.879 617.12Z" fill="black"/>
<path d="M311.68 473.12C307.36 473.44 304 474.56 304 475.52C304 476.8 315.36 476.96 344.64 476.16C366.88 475.68 403.84 475.52 426.56 476.16L468 477.28L468.32 489.92C468.96 510.56 471.84 511.04 472 490.4V472.8L395.52 472.64C353.6 472.48 315.84 472.64 311.68 473.12Z" fill="black"/>
<path d="M473.76 488.32C473.92 503.68 476.48 507.52 476.64 492.48C476.8 485.76 476.16 479.68 475.2 479.2C474.24 478.56 473.6 481.92 473.76 488.32Z" fill="black"/>
<path d="M300.48 488.32C300.32 498.56 300.64 504 301.76 507.2C303.52 511.68 305.44 503.84 305.44 491.52C305.6 482.24 305.12 480 303.2 480C301.44 480 300.8 482.08 300.48 488.32Z" fill="black"/>
<path d="M408 481.6C390.88 482.4 393.6 482.56 425.92 482.88C449.76 483.04 464.16 482.56 464.8 481.6C465.92 479.84 443.84 479.84 408 481.6Z" fill="black"/>
<path d="M332.8 483.2C331.2 484.32 334.72 484.64 344 484.64C364.64 484.32 370.56 482.08 351.2 481.76C342.4 481.76 334.08 482.4 332.8 483.2Z" fill="black"/>
<path d="M326.4 491.36C326.4 492.48 329.92 492.64 337.28 492C351.68 490.4 351.84 489.6 337.92 489.6C330.72 489.6 326.4 490.24 326.4 491.36Z" fill="black"/>
<path d="M414.72 496.32C410.88 497.12 408 498.08 408.32 498.4C408.64 498.72 418.88 498.56 431.2 498.08C444.32 497.44 452.16 496.64 450.4 495.84C445.92 494.08 423.04 494.4 414.72 496.32Z" fill="black"/>
<path d="M400.96 505.76C390.56 506.4 381.6 507.36 381.12 507.84C380 509.12 411.68 508.96 439.68 507.68C452.8 507.2 461.6 506.08 460.48 505.44C457.92 503.84 427.2 504 400.96 505.76Z" fill="black"/>
<path d="M556.48 523.04C500 523.84 482.88 524.48 481.28 526.08C479.52 527.84 500.48 528 595.2 527.04C659.04 526.4 711.52 525.76 711.84 525.44C712.16 525.12 712.16 524.48 711.84 524.16C710.24 522.56 626.56 521.92 556.48 523.04Z" fill="black"/>
<path d="M748 528.16C738.4 528.96 727.2 530.56 723.2 532C716.32 534.24 716.8 534.4 737.6 533.6C759.68 532.8 772 530.56 770.4 527.84C769.76 527.04 768.48 526.56 767.52 526.56C766.4 526.72 757.76 527.52 748 528.16Z" fill="black"/>
<path d="M306.56 528.48C305.12 533.44 305.12 538.08 306.24 561.44C306.88 571.04 307.84 577.12 309.12 577.92C311.36 579.36 342.08 577.92 353.6 575.84C358.24 575.04 352 574.72 335.68 575.2C310.72 575.68 310.4 575.68 310.24 572.32C310.08 570.4 309.6 558.72 308.96 546.4C308.16 530.24 307.52 525.28 306.56 528.48Z" fill="black"/>
<path d="M465.76 537.12C465.76 542.24 466.4 549.6 467.04 553.6C468.16 559.68 468.48 558.4 468.64 545.28C468.64 536.48 468.16 529.44 467.2 528.8C466.24 528.16 465.6 531.36 465.76 537.12Z" fill="black"/>
<path d="M460.16 539.2C458.72 546.72 459.04 553.6 460.64 553.6C462.88 553.6 464.64 540 462.72 536.8C461.6 534.56 461.12 534.88 460.16 539.2Z" fill="black"/>
<path d="M318.4 567.84C315.52 568.64 315.04 569.28 316.48 570.24C318.88 571.68 336.16 570.24 343.52 568C349.12 566.4 324.48 566.08 318.4 567.84Z" fill="black"/>
<path d="M446.08 567.52C448 567.84 451.2 567.84 453.28 567.52C455.2 567.2 453.6 566.88 449.6 566.88C445.6 566.88 444 567.2 446.08 567.52Z" fill="black"/>
<path d="M549.6 624.64C544.8 633.6 544.64 636 549.28 634.24C552.48 633.12 559.04 619.84 557.6 617.6C555.84 614.72 554.4 615.84 549.6 624.64Z" fill="black"/>
<path d="M584.96 625.92C580.64 633.12 580.8 635.68 585.28 634.08C590.4 632.32 592 630.08 592 624.64C592 617.44 589.76 617.76 584.96 625.92Z" fill="black"/>
<path d="M720.8 81.4404C690.08 82.4004 688.48 82.5604 680.8 86.7204C665.12 94.8804 659.2 105.92 667.04 112.16C668.96 113.76 670.4 116.8 670.4 119.04C670.4 130.08 678.24 139.52 689.92 142.56C706.56 147.04 724.64 135.52 733.44 114.72C738.72 102.4 743.04 100.32 744.8 109.12C748.96 128.32 764.32 142.4 780.8 142.4C792.96 142.4 795.84 138.72 801.76 117.28C803.68 110.4 806.24 104.16 807.36 103.52C810.56 101.6 810.08 95.5204 806.24 90.7204C804.16 88.0004 799.36 85.2804 792.48 83.2004C781.28 79.8404 782.08 79.8404 720.8 81.4404ZM753.12 86.2404C752 86.5604 749.44 88.1604 747.36 89.7604C742.4 93.6004 737.28 93.6004 725.6 89.4404C701.6 80.9604 675.2 92.1604 675.2 110.56C675.2 122.4 680.16 131.52 688.8 135.36C691.52 136.48 692.48 137.44 691.04 137.6C689.6 137.6 686.08 136 683.04 133.92C677.44 130.24 674.56 124 672.8 111.52C672.16 107.84 671.04 105.6 669.6 105.6C665.92 105.6 666.72 102.72 671.68 98.0804C677.12 93.1204 686.08 88.4804 693.92 86.5604C699.68 85.1204 757.28 84.8004 753.12 86.2404ZM785.92 91.5204C794.72 94.0804 796.16 97.9204 792.96 110.56C788.8 126.72 781.28 131.04 764.32 126.24C759.68 124.96 757.6 123.2 755.04 118.08C750.88 109.92 749.12 95.3604 752 92.0004C754.56 88.9604 776.48 88.6404 785.92 91.5204ZM800.64 93.2804L805.28 97.1204L801.92 100.48L798.4 104V98.4004C798.4 94.8804 797.44 92.3204 795.68 91.3604C794.08 90.4004 793.6 89.6004 794.4 89.6004C795.36 89.6004 798.08 91.3604 800.64 93.2804ZM724.64 92.9604C728.48 94.2404 729.6 95.6804 729.6 98.7204C729.6 122.4 701.12 141.6 686.08 128.16C681.76 124.32 680.96 122.4 680.32 113.92C679.68 104.64 679.84 103.84 684.48 99.5204C687.2 96.9604 691.84 94.2404 694.72 93.2804C701.76 90.8804 718.4 90.7204 724.64 92.9604ZM747.2 98.5604C747.2 100.32 746.24 100.8 744 100C739.36 98.5604 734.72 100.48 733.6 104.16C732 108.8 730.88 106.88 732 101.92C732.96 98.4004 734.24 97.6004 739.68 97.1204C743.36 96.8004 746.56 96.4804 746.88 96.3204C747.04 96.1604 747.2 97.1204 747.2 98.5604ZM722.24 126.56C720.64 129.28 706.88 137.6 704.16 137.6C702.88 137.6 705.44 135.84 709.92 133.6C714.4 131.2 719.04 128.32 720 127.2C722.4 124.48 723.84 124 722.24 126.56ZM788.16 135.2C786.4 136.48 782.4 137.44 779.36 137.44L773.6 137.12L780.32 136.16C784.16 135.52 787.68 134.56 788.16 133.92C788.8 133.28 789.76 132.8 790.24 132.8C790.72 132.8 789.76 133.92 788.16 135.2Z" fill="black"/>
<path d="M608.8 99.2002C600.64 100.32 577.44 106.4 569.6 109.44C568 110.08 566.56 108.8 564.96 105.6C563.36 101.92 561.92 100.8 559.36 101.12C555.04 101.76 552.16 110.08 551.68 124.32C551.2 133.6 551.68 135.2 554.08 135.68C555.68 136 567.52 131.2 580.48 125.12C593.44 119.04 608.64 112.32 614.4 110.4C628.48 105.44 633.92 102.56 633.12 100.32C632.48 97.9202 621.6 97.4402 608.8 99.2002ZM611.68 103.52C610.56 103.84 608.64 103.84 607.68 103.52C606.56 103.04 607.36 102.72 609.6 102.72C611.84 102.72 612.64 103.04 611.68 103.52ZM604.32 104.96C603.84 105.44 602.4 105.6 601.28 105.12C600 104.64 600.48 104.16 602.24 104.16C604 104 604.96 104.48 604.32 104.96ZM563.2 109.28C563.36 115.04 565.76 115.2 580 110.4C600.48 103.52 600.64 104.64 580.32 112.16C570.72 115.68 562.56 118.4 562.24 117.92C561.76 117.6 560.96 114.4 560.48 111.2C559.84 106.72 560 105.44 561.28 106.24C562.4 106.88 563.2 108.32 563.2 109.28Z" fill="black"/>
<path d="M361.6 320C361.6 320.8 362.4 321.6 363.36 321.6C364.16 321.6 364.48 320.8 364 320C363.52 319.04 362.72 318.4 362.24 318.4C361.92 318.4 361.6 319.04 361.6 320Z" fill="black"/>
<path d="M393.6 329.44C393.6 330.24 394.4 331.52 395.2 332C396.16 332.48 396.8 332.32 396.8 331.36C396.8 330.56 396.16 329.28 395.2 328.8C394.4 328.32 393.6 328.48 393.6 329.44Z" fill="black"/>
<path d="M379.2 347.04C379.2 347.84 380 349.12 380.8 349.6C381.76 350.08 382.4 349.92 382.4 348.96C382.4 348.16 381.76 346.88 380.8 346.4C380 345.92 379.2 346.08 379.2 347.04Z" fill="black"/>
<path d="M315.2 400.8C315.2 402.08 315.84 403.2 316.8 403.2C317.6 403.2 317.92 402.08 317.44 400.8C316.8 399.52 316.16 398.4 315.84 398.4C315.52 398.4 315.2 399.52 315.2 400.8Z" fill="black"/>
<path d="M310.4 404.64C310.4 405.44 311.2 406.72 312 407.2C312.96 407.68 313.6 407.52 313.6 406.56C313.6 405.76 312.96 404.48 312 404C311.2 403.52 310.4 403.68 310.4 404.64Z" fill="black"/>
<path d="M348.48 405.92C349.6 406.4 351.04 406.24 351.52 405.76C352.16 405.28 351.2 404.8 349.44 404.96C347.68 404.96 347.2 405.44 348.48 405.92Z" fill="black"/>
<path d="M992 536.16C992 537.76 996.48 539.2 1001.76 539.2C1004.48 539.2 1006.24 538.56 1005.76 537.76C1004.64 536.16 992 534.56 992 536.16Z" fill="black"/>
<path d="M992 544.64C992 546.72 994.24 547.2 1006.08 547.2C1022.4 547.04 1020.96 544.96 1003.68 543.2C993.6 542.24 992 542.4 992 544.64Z" fill="black"/>
<path d="M992 552.32C992 554.24 995.2 554.88 1007.68 555.68C1028.16 557.12 1058.4 557.12 1056.96 555.68C1056.48 555.04 1048.64 554.08 1039.52 553.44C1030.56 552.8 1016.16 551.84 1007.68 551.2C994.24 550.08 992 550.24 992 552.32Z" fill="black"/>
<path d="M990.4 562.4C990.4 565.12 1000.32 565.44 1015.2 563.36L1023.2 562.24L1010.56 561.12C992.64 559.52 990.4 559.68 990.4 562.4Z" fill="black"/>
<path d="M985.6 589.28C985.6 591.2 988.64 591.84 1002.08 592.64C1041.12 594.72 1053.28 595.04 1051.84 593.6C1050.08 591.84 1029.44 589.44 1003.68 587.84C988 586.88 985.6 587.04 985.6 589.28Z" fill="black"/>
<path d="M296 600.16C285.92 600.96 275.84 601.76 273.6 602.24C267.2 603.36 359.52 601.44 373.6 600C391.68 598.4 320.32 598.4 296 600.16Z" fill="black"/>
<path d="M416.8 632.16C436.16 633.6 496.32 633.6 480.8 632C474.72 631.36 454.56 630.88 436 630.88C409.28 630.88 405.44 631.2 416.8 632.16Z" fill="black"/>
</svg>
