<svg width="1312" height="736" viewBox="0 0 1312 736" fill="none" xmlns="http://www.w3.org/2000/svg">
<path d="M832.8 119.52C796.16 127.2 749.44 149.92 710.4 179.04C693.12 191.84 668.8 213.6 668.8 216.16C668.8 216.96 679.84 209.6 693.28 200.16C747.84 160.96 788 139.84 838.4 123.04C853.76 118.08 855.68 116.96 850.4 116.96C846.88 117.12 839.04 118.08 832.8 119.52Z" fill="black"/>
<path d="M888.16 123.201C876.64 125.601 878.56 126.401 896.16 126.401C934.08 126.561 977.76 136.481 1024 155.841C1036.64 161.121 1037.28 161.281 1032.8 157.441C1020.48 147.201 983.52 132.321 954.72 126.241C937.92 122.561 899.2 120.961 888.16 123.201Z" fill="black"/>
<path d="M834.4 137.12C824.16 139.52 800 148.64 784.8 156C748 173.76 721.76 191.84 675.52 231.2L668.8 237.12L658.72 226.88C646.24 213.92 640.48 210.08 637.92 212.64C636.48 214.08 639.68 218.08 651.68 229.76L667.36 244.96L674.24 239.68C748.48 183.2 774.56 167.04 827.04 144.64C840.48 138.88 845.6 136.16 842.4 136.16C839.84 136.32 836.16 136.64 834.4 137.12Z" fill="black"/>
<path d="M870.4 141.44L861.6 143.2L868.8 143.52C960 148.8 1016.8 169.28 1058.24 211.84C1067.68 221.6 1067.68 221.6 1064.32 215.04C1046.56 180 994.08 151.52 928.8 141.44C912 138.88 882.88 138.88 870.4 141.44Z" fill="black"/>
<path d="M815.36 158.56C789.44 167.2 760.16 184 730.4 207.2C710.72 222.56 687.36 243.68 679.2 253.92C675.04 259.04 671.2 263.36 670.56 263.52C670.08 263.68 665.76 259.04 660.96 253.28C650.08 240.16 611.84 206.4 607.68 206.4C604.96 206.4 606.72 210.56 611.68 216.16C622.88 228.8 666.88 267.2 670.08 267.2C671.04 267.2 679.84 260 689.92 251.04C736.96 209.12 783.84 177.44 823.2 160.48C842.56 152.16 837.6 150.88 815.36 158.56Z" fill="black"/>
<path d="M872 164.8C840.16 168.8 813.12 177.76 788 193.12C749.92 216.16 718.24 241.76 675.84 283.52L654.88 304.16L644.48 290.08C631.68 272.96 620.96 262.56 596.8 243.2C554.24 209.28 508.96 183.04 478.88 174.72C450.72 166.88 402.08 165.92 376.96 172.64C348.96 180.16 314.88 200.32 292.8 222.4C255.36 259.68 233.6 313.92 233.12 370.4C232.96 394.08 235.68 408.32 245.76 433.76C263.68 479.84 285.44 511.04 312.48 529.44C329.44 540.96 361.28 554.08 385.6 559.36C402.72 563.04 436.8 563.04 454.4 559.36C494.08 550.88 539.04 530.88 568.8 508.64C593.92 489.76 670.4 412 730.08 344.32C754.08 317.28 791.04 282.08 808 270.08C826.72 256.8 854.08 242.88 871.2 238.08C888.8 233.28 919.84 233.28 938.24 238.24C954.4 242.56 977.92 253.76 987.2 261.6C1005.92 277.28 1020 305.12 1024 334.72C1028.96 370.88 1012.96 411.04 979.68 446.24C961.12 465.92 949.12 472.64 916.8 481.6C896.16 487.2 862.72 484.48 838.24 475.36C818.08 467.68 781.12 439.52 741.44 401.28L713.44 374.4L707.36 381.92C704 386.24 693.6 398.56 684.32 409.6L667.52 429.44L670.72 434.4C672.64 436.96 684.96 449.92 698.24 463.2C755.68 520 806.72 550.24 860.48 559.36C883.84 563.36 916.8 561.76 940.8 555.52C997.76 540.8 1045.6 504 1069.12 456.8C1104.48 386.24 1099.2 300.8 1056.16 243.68C1038.88 220.8 1012.64 198.4 988.32 186.24C955.68 169.76 906.4 160.64 872 164.8ZM945.6 201.44C968 207.2 991.84 218.4 1002.72 228.16L1008.8 233.76L1000.8 228.96C972.96 212.48 923.36 201.44 887.36 203.84C867.36 205.12 843.52 209.92 827.52 215.84C809.28 222.72 808.16 222.88 815.2 219.04C830.88 210.4 857.28 201.76 877.92 198.4C892.96 196 931.68 197.76 945.6 201.44ZM346.4 238.72C336.48 247.04 318.88 264.48 312.96 272L308.48 277.6L312.32 270.56C317.28 261.12 333.28 244 343.2 237.44C354.4 230.08 356 230.72 346.4 238.72ZM817.6 235.84C817.6 236.16 813.76 238.88 809.28 241.76C781.76 259.36 756.96 281.44 691.36 346.24C644.16 392.96 640.16 396.64 657.6 376.8C687.36 343.04 742.08 289.28 765.76 270.4C777.44 261.12 793.6 249.44 801.76 244.32C816.48 235.2 817.6 234.72 817.6 235.84ZM443.2 244.16C466.4 248.48 490.56 258.72 512.8 273.44C531.84 286.08 604.48 361.12 602.08 365.6C599.36 370.24 561.76 409.28 547.52 421.76C523.68 443.04 496.48 459.52 469.12 469.28C456.32 473.76 453.6 474.24 435.2 474.08C405.76 473.92 378.72 466.56 353.44 451.84C324 434.56 308.48 399.84 310.88 356.32C311.36 347.36 312.96 335.68 314.24 330.4C320.48 307.2 336.64 283.2 359.2 263.68C373.92 250.88 379.2 248.16 396 244.64C412.32 241.12 426.56 240.96 443.2 244.16ZM704.48 306.72C626.08 387.68 621.12 392.48 659.52 349.6C677.76 329.12 747.68 259.2 749.76 259.2C750.24 259.2 729.92 280.64 704.48 306.72ZM279.52 335.52C279.04 337.12 278.72 336.16 278.72 333.6C278.72 330.88 279.04 329.76 279.52 330.72C279.84 331.84 279.84 334.08 279.52 335.52ZM282.4 388.96C285.6 405.12 289.92 418.08 296.96 432.8C301.92 442.88 301.92 443.52 298.4 439.2C292.48 432.16 282.24 410.24 279.2 398.72C275.68 384.96 274.56 366.24 276.16 351.04L277.44 338.4L278.56 356.96C279.2 367.2 280.8 381.6 282.4 388.96ZM1046.56 387.52C1040.64 410.4 1031.2 427.36 1013.6 446.24C1006.88 453.44 989.12 467.2 986.72 467.2C986.24 467.2 991.36 461.92 998.08 455.52C1020.32 434.24 1036 409.12 1044.96 380.96C1049.92 365.76 1050.88 370.24 1046.56 387.52ZM592.8 423.36C584.8 430.4 572.8 439.84 576 436.48C579.68 432.48 597.44 417.6 598.4 417.76C598.88 417.76 596.32 420.32 592.8 423.36ZM593.6 439.2C592.48 440.48 582.56 447.52 571.36 454.88C551.36 468.32 537.6 476.8 539.36 474.72C540.32 473.44 594.08 437.12 595.04 436.96C595.36 436.8 594.72 437.92 593.6 439.2ZM296.8 476C323.68 503.04 367.04 524.32 407.68 530.4C416.16 531.68 425.44 533.12 428 533.44C430.72 533.92 426.88 533.92 419.52 533.44C394.4 532 359.52 523.2 339.2 512.8C317.28 501.76 292.8 480.32 285.12 465.44L281.44 458.4L285.12 463.2C287.2 465.76 292.32 471.68 296.8 476ZM320.32 479.68C341.6 495.68 370.88 507.52 402.88 512.8C423.52 516.32 468 515.52 480.8 511.52C488.8 508.96 488.8 508.96 485.12 512C479.04 516.96 470.88 518.72 447.84 519.52C393.12 521.76 347.36 507.52 315.2 478.56C305.44 469.76 308 470.4 320.32 479.68Z" fill="black"/>
<path d="M450.88 307.04C438.56 319.52 428 329.6 427.68 329.6C427.2 329.6 416.8 319.84 404.48 307.84C385.6 289.6 381.44 286.24 377.92 286.72C369.76 287.68 371.52 292.96 384.32 306.72L396 319.2L383.68 307.52C372.16 296.64 366.4 293.76 364 297.76C362.56 300 369.28 309.44 379.2 319.2C390.08 329.92 389.44 331.84 378.24 321.6C372.16 316.16 368 313.6 365.76 313.92C358.88 314.88 361.6 319.84 379.84 339.04C390.08 349.76 398.4 359.04 398.4 360C398.4 360.8 390.4 370.24 380.8 381.12C359.68 404.64 354.72 411.36 356.16 414.88C357.76 419.04 360.8 418.08 368.8 411.2C372.8 407.68 376.64 404.8 376.96 404.8C377.44 404.8 374.88 408.16 371.2 412.32C367.52 416.64 363.36 422.08 362.08 424.64C360 428.64 360 429.44 362.24 431.68C366.24 435.68 371.36 432.16 390.88 411.52C416.32 384.96 440.96 360.32 438.24 364C435.04 368.8 425.12 380 411.36 394.4C382.56 424.64 376 432.32 376 436.16C376 439.04 376.8 440 379.52 440C383.04 440 388.96 434.4 413.92 407.2L428.64 391.2L453.76 417.12C471.84 436 479.68 443.2 482.4 443.2C488.8 443.2 488.32 438.88 480.48 429.28L473.12 420.32L483.36 428.64C489.6 433.6 494.88 436.64 496.8 436.48C501.6 435.84 501.76 429.44 496.96 423.52C494.72 420.64 491.04 415.84 488.48 412.8C484.64 407.84 485.12 408.16 492.8 414.88C501.6 422.56 507.52 424.16 508.48 419.04C508.8 417.6 498.24 405.44 483.2 389.92C469.12 375.36 457.6 362.72 457.6 362.08C457.6 361.28 467.36 350.24 479.36 337.6C491.2 324.8 501.6 312.96 502.24 311.2C505.28 303.84 499.68 301.6 492.96 307.52C489.92 310.4 490.08 309.6 494.24 304.48C500.32 296.64 500.32 292.16 494.24 291.52C491.04 291.2 487.84 292.96 481.12 299.04C476.32 303.52 471.84 307.2 471.36 307.2C470.72 307.2 473.12 303.68 476.8 299.36C484.48 290.4 484.8 285.92 477.76 285.12C473.76 284.64 470.56 287.2 450.88 307.04ZM430.24 356.32C423.52 365.12 402.72 388.64 398.24 392.8C391.84 398.56 402.88 384.96 419.84 365.92C430.08 354.56 435.36 349.6 430.24 356.32ZM408.32 365.92C404 371.04 398.72 376.64 396.64 378.4C392.32 381.92 397.92 375.2 408.64 363.52C417.92 353.76 417.6 355.2 408.32 365.92Z" fill="black"/>
<path d="M1058.56 184.32C1079.04 206.24 1088.48 216.64 1092.8 222.56C1098.4 230.4 1099.04 228.48 1094.24 218.72C1088.48 207.52 1076.64 193.76 1065.6 185.44C1052.8 175.84 1050.08 175.36 1058.56 184.32Z" fill="black"/>
<path d="M577.6 204.48C577.6 206.72 642.88 268.48 654.88 277.44C663.84 284.32 662.4 279.2 651.36 266.24C640.32 253.28 620 234.4 597.12 216.32C581.44 203.84 577.6 201.6 577.6 204.48Z" fill="black"/>
<path d="M1077.12 239.52C1084.96 247.84 1095.36 264.16 1098.24 273.28C1101.44 283.2 1103.52 302.24 1104.96 334.08C1106.4 367.68 1103.84 365.6 1141.28 364.32C1173.76 363.2 1195.2 361.12 1222.4 356.64C1254.24 351.36 1252.96 350.88 1197.44 348.64C1172.96 347.68 1144.48 347.2 1134.24 347.52L1115.68 348L1114.72 322.4C1113.12 275.36 1106.24 256.64 1084.16 240.48C1072.64 232 1069.44 231.52 1077.12 239.52Z" fill="black"/>
<path d="M1113.76 252C1124.48 277.28 1129.44 300.8 1129.76 326.4C1129.76 342.56 1131.68 339.84 1134.56 319.2C1138.08 293.6 1131.2 267.84 1116 250.4L1110.4 244L1113.76 252Z" fill="black"/>
<path d="M966.399 275.04C965.119 275.84 961.919 277.44 959.359 278.56C948.159 283.84 902.559 332.64 874.559 369.28C870.399 374.88 866.239 379.2 865.439 378.88C864.639 378.56 857.599 371.2 849.919 362.4C832.959 343.2 824.159 336 818.079 336.64C815.519 336.96 813.599 338.08 813.599 339.36C813.599 340.64 811.999 341.6 809.599 341.6C805.279 341.6 804.639 344.32 807.199 352L808.479 356L804.959 352L801.439 348L802.399 352C804.959 362.08 814.559 378.08 832.479 402.08C868.319 449.76 867.839 449.12 871.999 444.16C872.959 442.88 874.719 442.08 875.839 442.56C877.119 443.04 885.439 432.16 897.919 413.28C921.599 377.92 953.439 333.92 972.319 310.88C985.119 294.88 987.519 291.36 983.839 293.76C982.559 294.56 982.559 293.92 983.839 291.52C985.919 287.52 984.479 282.72 981.439 283.84C979.999 284.48 979.199 283.52 979.199 281.44C979.199 278.88 978.399 278.24 975.999 278.88C972.319 279.84 971.839 278.4 974.719 275.52C976.159 274.08 975.839 273.6 972.799 273.76C970.559 273.76 967.679 274.4 966.399 275.04ZM911.999 340.8C908.319 345.12 904.959 348.8 904.479 348.8C903.999 348.8 906.719 345.12 910.399 340.8C914.079 336.32 917.439 332.8 917.919 332.8C918.399 332.8 915.679 336.32 911.999 340.8ZM922.079 357.12C921.119 358.24 911.679 371.84 900.799 387.2C874.239 424.96 870.399 429.12 891.679 396.8C903.039 379.68 921.279 355.2 922.719 355.2C923.199 355.2 922.879 356.16 922.079 357.12ZM905.599 363.04C904.799 364.8 903.199 366.72 902.239 367.36C901.279 367.84 901.759 366.56 903.199 364.16C906.399 359.36 907.999 358.56 905.599 363.04ZM897.599 375.04C897.599 375.36 896.319 376.64 894.879 377.76C892.319 379.84 892.159 379.68 894.239 377.12C896.319 374.56 897.599 373.76 897.599 375.04ZM851.679 402.72C855.039 407.36 857.439 411.2 857.119 411.2C856.319 411.2 839.679 389.12 837.759 385.6C835.999 382.24 844.479 392.64 851.679 402.72ZM878.079 390.72C875.999 393.6 872.639 398.4 870.559 401.28C868.479 404.16 866.559 406.24 866.079 405.76C865.279 404.96 879.519 385.6 881.119 385.6C881.599 385.6 880.159 388 878.079 390.72ZM856.959 393.92L861.599 399.2L856.479 394.56C853.599 391.84 851.199 389.6 851.199 389.28C851.199 388 852.479 389.12 856.959 393.92ZM871.999 411.2C871.999 412 871.679 412.8 871.359 412.8C870.879 412.8 870.079 412 869.599 411.2C869.119 410.24 869.439 409.6 870.239 409.6C871.199 409.6 871.999 410.24 871.999 411.2ZM866.879 423.36C866.239 423.84 864.959 422.56 863.999 420.48C862.079 416.96 862.079 416.96 864.959 419.52C866.559 421.12 867.359 422.72 866.879 423.36Z" fill="black"/>
<path d="M95.9999 358.4C68.7999 360.64 62.5599 363.04 68.6399 368.8C72.7999 372.48 86.7199 373.92 128.8 375.04C147.36 375.68 168.96 376.48 177.12 376.96L191.84 377.92L188 385.28C185.92 389.44 183.52 394.56 182.56 396.8C181.76 399.04 179.52 404.32 177.76 408.64C175.84 412.96 174.4 417.44 174.4 418.72C174.4 419.84 173.28 422.56 172 424.64C168.32 430.24 164.48 446.24 166.24 449.28C167.2 450.88 166.88 452.96 165.44 455.2C164.16 457.28 163.36 461.92 163.68 467.36C164 475.68 164.16 476 168.8 476.48C173.44 476.96 213.76 462.08 228.64 454.4C235.68 450.88 239.52 445.76 236.64 444C235.68 443.36 235.36 441.92 235.84 440.64C236.32 439.36 235.52 437.12 233.92 435.52C232.48 434.08 231.36 431.04 231.68 428.64C232 426.4 231.36 422.56 230.24 419.84C229.28 417.28 228.32 410.88 228.16 405.76C228 399.84 227.2 396 225.92 395.52C224.8 395.2 224.48 394.08 225.12 393.12C226.88 390.24 227.36 369.92 225.76 368.8C224.96 368.32 224.64 366.72 225.12 365.12C226.88 358.08 223.52 357.6 164.96 357.44C134.56 357.28 103.52 357.76 95.9999 358.4Z" fill="black"/>
<path d="M653.76 445.12C649.76 449.44 645.92 454.72 645.44 457.12C644.8 459.36 641.92 463.52 638.88 466.08C635.84 468.8 633.76 471.68 634.24 472.8C634.56 473.92 632 476.48 628.32 478.4C624.64 480.48 620.16 483.2 618.4 484.48C615.52 486.56 616 486.72 624 485.76L632.8 484.8L624 488.48C615.52 492.16 600.96 500.8 601.92 501.76C602.24 501.92 608.48 501.12 616 500C623.36 498.72 629.76 497.92 629.92 498.24C630.24 498.56 624.48 500.32 617.28 502.24C609.92 504.32 600.48 507.52 596 509.6L588 513.28L596.8 513.6L605.6 513.76L593.12 518.24C578.72 523.52 573.44 527.2 582.4 525.76C585.44 525.28 593.44 524.64 600 524.16L612 523.36L593.76 528.16C561.92 536.48 564.96 537.76 607.2 533.6C620.48 532.32 636.32 530.88 642.4 530.56L653.6 529.76L644.8 531.36C596 540.48 566.4 547.52 566.4 550.08C566.4 550.72 586.4 549.28 610.88 546.88C663.04 541.92 670.88 541.6 648 545.76C602.24 554.08 559.2 563.36 557.12 565.6C555.52 567.04 565.44 566.4 616 561.6C643.68 559.04 668.64 556.96 671.2 556.96C673.92 557.12 657.28 559.84 634.4 563.2C567.68 572.96 523.04 580.96 528.48 582.08C531.2 582.56 588.8 577.44 640.32 572C679.2 567.84 676.96 568.96 629.6 577.6C604 582.24 552.16 593.44 541.6 596.64C532 599.52 544 598.4 591.04 592C692.8 578.24 729.44 573.76 730.56 574.72C730.88 575.2 725.76 576.48 718.88 577.44C686.88 582.56 610.08 599.84 613.92 601.12C615.04 601.6 635.84 599.2 660.32 596.16C717.76 588.8 779.36 582.08 780.32 583.04C781.6 584.16 734.24 594.88 697.6 601.6C677.76 605.28 660.48 608.96 659.2 609.76C657.6 610.72 658.4 610.88 661.6 610.4C664.32 610.08 673.92 609.28 683.04 608.8C701.6 607.84 777.6 598.4 807.68 593.44C818.56 591.68 827.84 590.56 828.16 590.88C828.64 591.36 824.48 592.48 818.88 593.44C782.72 600 752 605.12 726.4 608.8C710.08 611.04 696.16 613.28 695.2 613.76C691.84 615.2 783.04 612.8 811.68 610.56C869.92 605.92 909.44 599.84 936.8 591.04C953.6 585.76 989.76 567.84 998.24 560.64C1004.96 554.88 1006.72 550.4 1002.4 550.4C999.36 550.4 985.92 556.64 984.64 558.56C983.68 560.32 965.44 565.44 952.8 567.68C947.52 568.64 931.52 570.24 917.44 571.36C894.72 573.12 889.44 572.96 873.44 570.56C863.36 569.12 853.12 567.68 850.72 567.36C848.32 567.2 845.44 566.08 844.48 565.12C843.36 564 841.92 563.2 841.12 563.2C840.32 563.2 838.72 562.08 837.44 560.8C836 559.52 833.28 558.4 831.36 558.4C829.28 558.4 826.72 557.28 825.6 556C824.48 554.72 820.96 553.6 817.76 553.6C813.92 553.6 811.04 552.48 809.12 550.4C807.68 548.64 805.44 547.2 804.16 547.2C801.28 547.2 794.72 543.68 791.36 540.32C789.76 538.88 786.88 537.6 784.96 537.6C782.88 537.6 780.32 536.48 779.2 535.2C778.08 533.92 774.88 532.48 771.84 531.84C768.8 531.36 765.92 530.24 765.44 529.44C764.96 528.64 763.2 528 761.44 528C759.84 528 758.4 527.36 758.4 526.4C758.4 525.6 756.64 524.48 754.4 523.84C752.16 523.36 750.4 522.24 750.4 521.28C750.4 520.48 748 518.72 745.28 517.44C735.36 512.8 732 510.56 723.2 502.56C718.4 498.08 713.6 494.4 712.64 494.4C711.68 494.4 709.28 492.64 707.2 490.4C705.12 488.16 702.72 486.4 701.76 486.4C700.16 486.24 688.16 472 686.4 468C684.32 463.36 669.76 446.4 667.84 446.4C666.56 446.4 665.6 445.76 665.6 445.12C665.6 444.32 664.64 442.4 663.36 440.64C661.12 437.76 660.8 437.92 653.76 445.12ZM617.12 522.56C616.64 523.04 615.2 523.2 614.08 522.72C612.8 522.24 613.28 521.76 615.04 521.76C616.8 521.6 617.76 522.08 617.12 522.56ZM661.28 529.12C660.16 529.44 658.24 529.44 657.28 529.12C656.16 528.64 656.96 528.32 659.2 528.32C661.44 528.32 662.24 528.64 661.28 529.12ZM674.08 541.92C672.96 542.24 670.72 542.24 669.28 541.92C667.68 541.44 668.64 541.12 671.2 541.12C673.92 541.12 675.04 541.44 674.08 541.92ZM682.08 556.32C680.96 556.64 679.04 556.64 678.08 556.32C676.96 555.84 677.76 555.52 680 555.52C682.24 555.52 683.04 555.84 682.08 556.32ZM677.28 569.12C676.16 569.44 673.92 569.44 672.48 569.12C670.88 568.64 671.84 568.32 674.4 568.32C677.12 568.32 678.24 568.64 677.28 569.12ZM740.48 573.92C738.88 574.24 736.32 574.24 734.88 573.92C733.28 573.44 734.56 573.12 737.6 573.12C740.64 573.12 741.92 573.44 740.48 573.92ZM786.72 581.76C786.24 582.24 784.8 582.4 783.68 581.92C782.4 581.44 782.88 580.96 784.64 580.96C786.4 580.8 787.36 581.28 786.72 581.76ZM836.32 589.76C835.84 590.24 834.4 590.4 833.28 589.92C832 589.44 832.48 588.96 834.24 588.96C836 588.8 836.96 589.28 836.32 589.76Z" fill="black"/>
<path d="M224.8 459.841C196.8 469.441 165.92 485.121 166.72 489.441C167.36 492.161 169.44 492.481 176 490.561C178.4 489.761 176.64 491.521 171.68 495.041C163.84 500.481 160.96 505.601 164.48 507.841C165.28 508.321 173.76 505.441 183.36 501.601C192.96 497.601 201.12 494.401 201.6 494.401C202.08 494.401 194.08 498.881 184 504.481C170.24 512.001 165.44 515.521 165.12 518.081C164.64 520.961 165.44 521.601 168.48 521.601C173.44 521.601 219.84 503.201 238.56 493.921C250.08 488.161 252 486.561 252 483.201C252 479.521 251.36 479.201 244.8 479.361C240.8 479.361 236.16 479.841 234.4 480.641C232.64 481.281 234.56 480.001 238.56 477.761C247.04 473.121 249.12 469.601 245.6 465.601C244.32 464.161 243.2 462.081 243.2 461.121C243.2 459.681 238.24 455.841 236.48 456.001C236.16 456.001 230.88 457.761 224.8 459.841ZM209.6 492.001C207.36 493.281 204.96 494.241 204 494.241C203.2 494.241 204.16 493.281 206.4 492.001C208.64 490.721 211.2 489.761 212 489.761C212.96 489.761 211.84 490.721 209.6 492.001Z" fill="black"/>
<path d="M238.4 498.24C199.36 511.84 172.8 525.28 172.8 531.2C172.8 532.96 173.44 534.4 174.4 534.4C175.2 534.4 185.44 530.56 197.12 525.92C208.8 521.44 219.2 517.44 220 517.12C220.96 516.8 212.32 521.44 200.96 527.52C189.6 533.44 179.52 539.68 178.56 541.12C172.48 551.04 195.2 552.64 224 544.32C241.6 539.2 247.84 538.56 233.28 543.2C217.44 548.32 193.76 558.72 191.2 561.6C187.84 565.28 189.28 568 194.24 568C200.64 568 225.44 560.16 248 551.04C259.84 546.24 270.72 541.92 272 541.44C273.28 540.96 257.92 549.12 237.6 559.52C214.4 571.52 200.8 579.36 200.8 580.8C200.8 586.88 227.2 579.04 260.8 563.04C286.72 550.72 281.6 554.56 249.92 571.36C216.32 588.96 214.4 590.08 214.4 593.76C214.4 596 215.52 596.8 218.88 596.8C222.56 596.8 237.6 593.12 248.8 589.6C250.56 588.96 247.84 590.88 242.88 593.76C232.8 599.2 230.24 604.8 237.44 604.8C243.2 604.8 266.24 597.76 283.84 590.56C292.48 587.04 299.2 584.64 298.56 585.28C297.92 585.92 287.2 591.84 274.72 598.56C261.6 605.44 252 611.52 252 612.96C252 616.96 259.52 616.16 275.2 610.72C283.52 607.68 291.84 604.8 293.6 604.16C295.36 603.52 291.04 606.08 284 609.92C270.72 617.12 267.2 621.92 275.84 621.28C285.28 620.64 317.76 609.12 336.64 599.68C343.52 596.32 349.44 593.76 349.76 594.08C350.08 594.4 342.72 598.88 333.12 604C311.36 615.84 304 620.64 304 623.2C304 626.4 308 627.2 314.4 625.44C319.36 624 320.64 624.16 322.24 626.4C323.84 628.8 325.12 628.8 331.36 627.2C335.2 626.24 341.44 624.32 345.28 622.88C351.68 620.48 352.16 620.48 354.24 623.2C356.16 625.92 356.8 625.92 363.36 623.52C367.2 622.24 374.72 619.2 379.84 616.8C386.08 614.08 388.64 613.44 387.36 615.04C384.32 618.72 386.88 621.28 392.32 620.16C394.88 619.68 403.52 616 411.36 612C421.92 606.72 425.6 605.44 425.6 607.2C425.6 611.04 431.84 610.08 443.2 604.64C448.96 601.92 456.64 599.52 460.16 599.36C466.08 599.04 479.68 593.28 509.76 578.4C514.24 576.16 520.96 571.2 524.8 567.2C530.88 561.12 531.36 559.84 529.6 557.6C527.04 554.56 525.6 554.72 507.2 561.44C487.04 568.8 472.8 571.36 431.2 575.04C412 576.8 408.32 576.8 405.28 574.72C403.2 573.44 400.64 572.8 399.36 573.28C398.24 573.76 396.64 573.6 395.84 572.96C393.28 570.72 378.24 566.56 368.64 565.44C363.36 564.8 357.92 563.36 356.48 561.92C354.56 560.32 352 560 348 560.64C343.04 561.6 342.24 561.28 340.48 557.6C339.52 555.36 337.92 553.44 336.96 553.44C333.44 553.12 328.8 553.92 327.2 555.2C326.08 556.16 325.44 555.04 325.6 552.32C325.6 546.56 320.32 545.76 312.32 550.4L306.4 553.92L310.88 550.4C319.04 543.84 314.88 536.8 305.12 540.48C301.28 541.92 300.64 541.92 302.08 540.48C307.36 535.2 302.24 528.48 295.04 531.2C290.56 532.96 290.56 532.96 293.44 529.76C298.88 523.84 292 521.44 280.8 525.44C279.04 526.08 279.68 525.44 282.08 524C288 520.48 287.52 514.56 281.28 513.92C278.08 513.6 276.8 512.48 276.8 510.24C276.8 508.16 275.68 507.2 273.12 507.2C270.24 507.2 269.44 506.4 269.44 503.52C269.6 500.48 268.8 500 263.52 500.16C258.56 500.32 257.92 500 259.52 498.08C260.96 496.32 260.96 495.52 259.04 494.24C255.84 492.16 255.2 492.32 238.4 498.24ZM252.8 536C251.52 536.8 249.76 537.6 248.8 537.6C248 537.6 248.32 536.8 249.6 536C250.88 535.2 252.8 534.4 253.6 534.4C254.56 534.4 254.08 535.2 252.8 536ZM291.2 548C291.2 548.32 289.6 549.44 287.68 550.4C284.16 552.16 284.16 552 287.04 549.76C290.4 547.04 291.2 546.72 291.2 548Z" fill="black"/>
</svg>
